G04*
G04 #@! TF.GenerationSoftware,Altium Limited,Altium Designer,18.1.9 (240)*
G04*
G04 Layer_Color=8388736*
%FSLAX44Y44*%
%MOMM*%
G71*
G01*
G75*
%ADD10R,0.8548X0.3000*%
%ADD11R,0.3000X0.8548*%
%ADD21R,1.5494X1.2700*%
%ADD22R,1.5494X2.0066*%
%ADD35R,1.2700X1.5494*%
%ADD36R,2.0066X1.5494*%
%ADD42C,1.0160*%
%ADD45R,0.7000X0.9500*%
%ADD48R,3.4000X2.3040*%
%ADD49R,2.6000X2.6000*%
%ADD50R,0.5800X0.5800*%
%ADD51R,0.5800X0.5800*%
%ADD52R,0.7600X0.5600*%
%ADD53R,0.5600X0.7600*%
%ADD54R,0.8100X0.9100*%
%ADD55R,3.0600X2.0600*%
%ADD56R,0.9600X0.7600*%
%ADD57R,3.5100X1.9100*%
%ADD58R,2.0600X3.0600*%
%ADD59R,1.2100X1.5100*%
%ADD60O,1.9600X0.6600*%
%ADD61R,1.0600X0.9600*%
%ADD62R,1.1100X0.7100*%
%ADD63R,0.9600X1.0600*%
%ADD64R,0.7600X0.9600*%
%ADD65R,1.1600X1.1600*%
%ADD66R,1.1600X1.6600*%
%ADD67R,1.6600X1.6600*%
%ADD68R,0.7000X0.7600*%
%ADD69R,1.5100X1.2100*%
%ADD70R,1.1600X1.1600*%
%ADD71R,1.9600X1.8600*%
%ADD72R,1.4100X0.4600*%
%ADD73R,1.4600X2.2600*%
%ADD74R,1.4600X0.9600*%
%ADD75R,5.5600X2.2100*%
%ADD76R,1.4600X4.4600*%
%ADD77R,1.0100X1.7600*%
%ADD78R,1.9600X1.6350*%
%ADD79R,1.6100X1.6100*%
%ADD80C,1.6100*%
%ADD81C,1.5600*%
%ADD82R,1.5600X1.5600*%
%ADD83R,1.5600X1.5600*%
%ADD84O,1.9600X1.2600*%
%ADD85O,1.3100X1.1100*%
%ADD86C,0.8100*%
%ADD87C,0.5600*%
G36*
X698678Y314494D02*
X698735Y314477D01*
X698787Y314449D01*
X698833Y314411D01*
X698870Y314366D01*
X698898Y314313D01*
X698915Y314257D01*
X698921Y314198D01*
Y302133D01*
X698919Y302109D01*
X698917Y302086D01*
X698916Y302080D01*
X698915Y302074D01*
X698908Y302051D01*
X698902Y302029D01*
X698900Y302023D01*
X698898Y302018D01*
X698887Y301996D01*
X698876Y301975D01*
X698873Y301971D01*
X698870Y301966D01*
X698855Y301947D01*
X698841Y301928D01*
X687872Y290077D01*
Y272279D01*
X698841Y260428D01*
X698855Y260409D01*
X698870Y260390D01*
X698873Y260385D01*
X698876Y260381D01*
X698887Y260359D01*
X698898Y260338D01*
X698900Y260333D01*
X698902Y260327D01*
X698908Y260305D01*
X698915Y260282D01*
X698916Y260276D01*
X698917Y260270D01*
X698919Y260247D01*
X698921Y260223D01*
Y248158D01*
X698915Y248099D01*
X698898Y248043D01*
X698870Y247990D01*
X698833Y247945D01*
X698787Y247907D01*
X698735Y247880D01*
X698678Y247862D01*
X698620Y247857D01*
X687317D01*
X687258Y247862D01*
X687201Y247880D01*
X687149Y247907D01*
X687103Y247945D01*
X675292Y259756D01*
X675255Y259802D01*
X675227Y259854D01*
X675210Y259910D01*
X675204Y259969D01*
Y302387D01*
X675210Y302446D01*
X675227Y302502D01*
X675255Y302554D01*
X675292Y302600D01*
X687103Y314411D01*
X687149Y314449D01*
X687201Y314477D01*
X687258Y314494D01*
X687317Y314499D01*
X698620D01*
X698678Y314494D01*
D02*
G37*
G36*
X729793D02*
X729850Y314477D01*
X729902Y314449D01*
X729948Y314411D01*
X741759Y302600D01*
X741796Y302554D01*
X741824Y302502D01*
X741841Y302446D01*
X741847Y302387D01*
Y259969D01*
X741841Y259910D01*
X741824Y259854D01*
X741796Y259802D01*
X741759Y259756D01*
X729948Y247945D01*
X729902Y247907D01*
X729850Y247880D01*
X729793Y247862D01*
X729735Y247857D01*
X718432D01*
X718373Y247862D01*
X718316Y247880D01*
X718264Y247907D01*
X718218Y247945D01*
X718181Y247990D01*
X718153Y248043D01*
X718136Y248099D01*
X718130Y248158D01*
Y260223D01*
X718132Y260247D01*
X718134Y260270D01*
X718135Y260276D01*
X718136Y260282D01*
X718143Y260305D01*
X718149Y260327D01*
X718151Y260333D01*
X718153Y260338D01*
X718164Y260359D01*
X718175Y260381D01*
X718178Y260385D01*
X718181Y260390D01*
X718196Y260409D01*
X718210Y260428D01*
X729179Y272279D01*
Y290077D01*
X718210Y301928D01*
X718196Y301947D01*
X718181Y301966D01*
X718178Y301971D01*
X718175Y301975D01*
X718164Y301996D01*
X718153Y302018D01*
X718151Y302023D01*
X718149Y302029D01*
X718143Y302052D01*
X718136Y302074D01*
X718135Y302080D01*
X718134Y302086D01*
X718132Y302109D01*
X718130Y302133D01*
Y314198D01*
X718136Y314257D01*
X718153Y314313D01*
X718181Y314366D01*
X718218Y314411D01*
X718264Y314449D01*
X718316Y314477D01*
X718373Y314494D01*
X718432Y314499D01*
X729735D01*
X729793Y314494D01*
D02*
G37*
D10*
X723414Y188054D02*
D03*
Y183054D02*
D03*
Y178054D02*
D03*
Y173054D02*
D03*
Y168054D02*
D03*
X760962D02*
D03*
Y173054D02*
D03*
Y178054D02*
D03*
Y183054D02*
D03*
Y188054D02*
D03*
D11*
X732188Y159280D02*
D03*
X737188D02*
D03*
X742188D02*
D03*
X747188D02*
D03*
X752188D02*
D03*
Y196828D02*
D03*
X747188D02*
D03*
X742188D02*
D03*
X737188D02*
D03*
X732188D02*
D03*
D21*
X796050Y404876D02*
D03*
Y430276D02*
D03*
X357446Y158958D02*
D03*
Y133558D02*
D03*
X32068Y158242D02*
D03*
Y132842D02*
D03*
X205232Y160528D02*
D03*
Y135128D02*
D03*
X520748Y147146D02*
D03*
Y121746D02*
D03*
D22*
X767094Y417576D02*
D03*
X386402Y146258D02*
D03*
X61024Y145542D02*
D03*
X234188Y147828D02*
D03*
X549704Y134446D02*
D03*
D35*
X359732Y186136D02*
D03*
X385132D02*
D03*
X511870Y414608D02*
D03*
X537270D02*
D03*
X343662Y420624D02*
D03*
X369062D02*
D03*
X191072Y425450D02*
D03*
X216472D02*
D03*
X20516Y426212D02*
D03*
X45916D02*
D03*
X34608Y186182D02*
D03*
X60008D02*
D03*
X199962Y187688D02*
D03*
X225362D02*
D03*
X519822Y175362D02*
D03*
X545222D02*
D03*
D36*
X372432Y215092D02*
D03*
X524570Y443564D02*
D03*
X356362Y449580D02*
D03*
X203772Y454406D02*
D03*
X33216Y455168D02*
D03*
X47308Y215138D02*
D03*
X212662Y216644D02*
D03*
X532522Y204318D02*
D03*
D42*
X681348Y281178D02*
D03*
X735704D02*
D03*
D45*
X659130Y312806D02*
D03*
Y329306D02*
D03*
X748702Y314367D02*
D03*
Y330867D02*
D03*
D48*
X362142Y375226D02*
D03*
X202244Y375046D02*
D03*
X39304Y374237D02*
D03*
X524736Y363739D02*
D03*
D49*
X742188Y178054D02*
D03*
D50*
X728094Y130050D02*
D03*
X720094D02*
D03*
X755450Y130048D02*
D03*
X763450D02*
D03*
D51*
X720030Y148020D02*
D03*
Y140020D02*
D03*
X764530Y146748D02*
D03*
Y138748D02*
D03*
D52*
X710438Y149526D02*
D03*
Y139526D02*
D03*
X729174Y148258D02*
D03*
Y138258D02*
D03*
X742188Y131298D02*
D03*
Y141298D02*
D03*
X773775Y149432D02*
D03*
Y159432D02*
D03*
X783935Y149432D02*
D03*
Y159432D02*
D03*
X755386Y148256D02*
D03*
Y138256D02*
D03*
X761989Y121531D02*
D03*
Y111531D02*
D03*
X751829Y121587D02*
D03*
Y111587D02*
D03*
X732526Y121412D02*
D03*
Y111412D02*
D03*
X722366Y121332D02*
D03*
Y111332D02*
D03*
D53*
X714676Y158958D02*
D03*
X704676D02*
D03*
X366082Y368224D02*
D03*
Y382224D02*
D03*
X358082Y382224D02*
D03*
Y368224D02*
D03*
X206184Y368046D02*
D03*
Y382046D02*
D03*
X198184Y382046D02*
D03*
Y368046D02*
D03*
X35244Y367238D02*
D03*
Y381238D02*
D03*
X43244Y381238D02*
D03*
Y367238D02*
D03*
X528676Y356740D02*
D03*
Y370740D02*
D03*
X520676Y370740D02*
D03*
Y356740D02*
D03*
D54*
X786274Y169418D02*
D03*
X773774D02*
D03*
X786274Y186436D02*
D03*
X773774D02*
D03*
D55*
X675132Y409788D02*
D03*
Y349788D02*
D03*
D56*
X782335Y469875D02*
D03*
Y454875D02*
D03*
X334264Y374262D02*
D03*
Y389262D02*
D03*
X173990Y373500D02*
D03*
Y388500D02*
D03*
X497180Y362172D02*
D03*
Y377172D02*
D03*
X11176Y388500D02*
D03*
Y373500D02*
D03*
D57*
X737630Y428526D02*
D03*
D58*
X718792Y361950D02*
D03*
X778792D02*
D03*
D59*
X731376Y326898D02*
D03*
X713376D02*
D03*
X676686Y326898D02*
D03*
X694686D02*
D03*
X614994Y357204D02*
D03*
X632994D02*
D03*
X454872Y368276D02*
D03*
X472872D02*
D03*
X294594Y368786D02*
D03*
X312594D02*
D03*
X147749Y368739D02*
D03*
X129749D02*
D03*
D60*
X565396Y443818D02*
D03*
Y431118D02*
D03*
Y418418D02*
D03*
Y405718D02*
D03*
X612396Y443818D02*
D03*
Y431118D02*
D03*
Y418418D02*
D03*
Y405718D02*
D03*
X417512Y203408D02*
D03*
Y190708D02*
D03*
Y178008D02*
D03*
Y165308D02*
D03*
X464512Y203408D02*
D03*
Y190708D02*
D03*
Y178008D02*
D03*
Y165308D02*
D03*
X404122Y454868D02*
D03*
Y442168D02*
D03*
Y429468D02*
D03*
Y416768D02*
D03*
X451122Y454868D02*
D03*
Y442168D02*
D03*
Y429468D02*
D03*
Y416768D02*
D03*
X244280Y454406D02*
D03*
Y441706D02*
D03*
Y429006D02*
D03*
Y416306D02*
D03*
X291280Y454406D02*
D03*
Y441706D02*
D03*
Y429006D02*
D03*
Y416306D02*
D03*
X91748Y205012D02*
D03*
Y192312D02*
D03*
Y179612D02*
D03*
Y166912D02*
D03*
X138748Y205012D02*
D03*
Y192312D02*
D03*
Y179612D02*
D03*
Y166912D02*
D03*
X126942Y417610D02*
D03*
Y430310D02*
D03*
Y443010D02*
D03*
Y455710D02*
D03*
X79942Y417610D02*
D03*
Y430310D02*
D03*
Y443010D02*
D03*
Y455710D02*
D03*
X578840Y192888D02*
D03*
Y180188D02*
D03*
Y167488D02*
D03*
Y154788D02*
D03*
X625840Y192888D02*
D03*
Y180188D02*
D03*
Y167488D02*
D03*
Y154788D02*
D03*
X258504Y204470D02*
D03*
Y191770D02*
D03*
Y179070D02*
D03*
Y166370D02*
D03*
X305504Y204470D02*
D03*
Y191770D02*
D03*
Y179070D02*
D03*
Y166370D02*
D03*
D61*
X631568Y427414D02*
D03*
Y443414D02*
D03*
X557700Y390604D02*
D03*
Y374604D02*
D03*
X391228Y401908D02*
D03*
Y385908D02*
D03*
X311214Y438278D02*
D03*
Y454278D02*
D03*
X232283Y399042D02*
D03*
Y383042D02*
D03*
X73216Y385654D02*
D03*
Y401654D02*
D03*
X147384Y457106D02*
D03*
Y441106D02*
D03*
X470548Y438740D02*
D03*
Y454740D02*
D03*
D62*
X634681Y340917D02*
D03*
Y323917D02*
D03*
X349609Y295318D02*
D03*
Y278318D02*
D03*
X478028Y349011D02*
D03*
Y332011D02*
D03*
X315896Y349368D02*
D03*
Y332368D02*
D03*
X187526Y291964D02*
D03*
Y274964D02*
D03*
X153416Y330844D02*
D03*
Y347844D02*
D03*
X508254Y280661D02*
D03*
Y263661D02*
D03*
X23247Y275472D02*
D03*
Y292472D02*
D03*
D63*
X599922Y138786D02*
D03*
X583922D02*
D03*
X609896Y208787D02*
D03*
X593896D02*
D03*
X437144Y148258D02*
D03*
X421144D02*
D03*
X450536Y219156D02*
D03*
X434536D02*
D03*
X279780Y150622D02*
D03*
X263780D02*
D03*
X290004Y219710D02*
D03*
X274004D02*
D03*
X111292Y220808D02*
D03*
X127292D02*
D03*
X87504Y150876D02*
D03*
X103504D02*
D03*
D64*
X616202Y231728D02*
D03*
X602202D02*
D03*
X575092Y231750D02*
D03*
X590092D02*
D03*
X350894Y397764D02*
D03*
X365894D02*
D03*
X517702Y386690D02*
D03*
X532702D02*
D03*
X453600Y242524D02*
D03*
X439600D02*
D03*
X412684Y242680D02*
D03*
X427684D02*
D03*
X250374Y243586D02*
D03*
X265374D02*
D03*
X290782Y243586D02*
D03*
X276782D02*
D03*
X191128Y399042D02*
D03*
X206128D02*
D03*
X118794Y242524D02*
D03*
X132794D02*
D03*
X105608Y242778D02*
D03*
X90608D02*
D03*
X49156Y398272D02*
D03*
X34156D02*
D03*
D65*
X636168Y225038D02*
D03*
Y243038D02*
D03*
X636045Y283608D02*
D03*
Y301608D02*
D03*
X634598Y396960D02*
D03*
Y378960D02*
D03*
X475996Y236872D02*
D03*
Y254872D02*
D03*
X477520Y288942D02*
D03*
Y306942D02*
D03*
X317754Y237706D02*
D03*
Y255706D02*
D03*
X316992Y288078D02*
D03*
Y306078D02*
D03*
X313754Y408542D02*
D03*
Y390542D02*
D03*
X152908Y305587D02*
D03*
Y287587D02*
D03*
X153904Y252332D02*
D03*
Y234332D02*
D03*
X149416Y391258D02*
D03*
Y409258D02*
D03*
X473778Y407988D02*
D03*
Y389988D02*
D03*
D66*
X572870Y357204D02*
D03*
X595870D02*
D03*
X406144Y368486D02*
D03*
X429144D02*
D03*
X248156Y368532D02*
D03*
X271156D02*
D03*
X112911Y368739D02*
D03*
X89911D02*
D03*
D67*
X584370Y386204D02*
D03*
X417644Y397486D02*
D03*
X259656Y397532D02*
D03*
X101411Y397739D02*
D03*
D68*
X374782Y382224D02*
D03*
Y368224D02*
D03*
X349382D02*
D03*
Y382224D02*
D03*
X214884Y382046D02*
D03*
Y368046D02*
D03*
X189484D02*
D03*
Y382046D02*
D03*
X26544Y381238D02*
D03*
Y367238D02*
D03*
X51944D02*
D03*
Y381238D02*
D03*
X537376Y370740D02*
D03*
Y356740D02*
D03*
X511976D02*
D03*
Y370740D02*
D03*
D69*
X510286Y246998D02*
D03*
Y228998D02*
D03*
X351282Y261036D02*
D03*
Y243036D02*
D03*
X189230Y258174D02*
D03*
Y240174D02*
D03*
X23622Y239412D02*
D03*
Y257412D02*
D03*
D70*
X376640Y238206D02*
D03*
X394640D02*
D03*
X215854Y239014D02*
D03*
X233854D02*
D03*
X70278Y238252D02*
D03*
X52278D02*
D03*
X536508Y227432D02*
D03*
X554508D02*
D03*
D71*
X799606Y261436D02*
D03*
Y238436D02*
D03*
D72*
X772856Y236936D02*
D03*
Y243436D02*
D03*
Y262936D02*
D03*
Y249936D02*
D03*
Y256436D02*
D03*
D73*
X752188Y254406D02*
D03*
X663194Y278740D02*
D03*
D74*
X752188Y279906D02*
D03*
X663194Y253240D02*
D03*
D75*
X681736Y231848D02*
D03*
Y193348D02*
D03*
D76*
X618994Y501650D02*
D03*
X589534Y504190D02*
D03*
X675894Y502666D02*
D03*
X557672Y503320D02*
D03*
X713232Y495300D02*
D03*
X742703Y487934D02*
D03*
D77*
X722506Y217234D02*
D03*
X750506D02*
D03*
D78*
X799606Y216061D02*
D03*
X799606Y283811D02*
D03*
D79*
X687832Y162052D02*
D03*
D80*
Y136652D02*
D03*
Y111252D02*
D03*
D81*
X714262Y402590D02*
D03*
X451536Y265892D02*
D03*
Y291292D02*
D03*
Y316692D02*
D03*
Y342092D02*
D03*
X375336Y265892D02*
D03*
Y291292D02*
D03*
Y316692D02*
D03*
X127572Y266192D02*
D03*
Y291592D02*
D03*
Y316992D02*
D03*
Y342392D02*
D03*
X51372Y266192D02*
D03*
Y291592D02*
D03*
Y316992D02*
D03*
X291910Y266192D02*
D03*
Y291592D02*
D03*
Y316992D02*
D03*
Y342392D02*
D03*
X215710Y266192D02*
D03*
Y291592D02*
D03*
Y316992D02*
D03*
X795782Y316484D02*
D03*
X611802Y254864D02*
D03*
Y280264D02*
D03*
Y305664D02*
D03*
Y331064D02*
D03*
X535602Y254864D02*
D03*
Y280264D02*
D03*
Y305664D02*
D03*
X624586Y25354D02*
D03*
Y50754D02*
D03*
X599186Y25354D02*
D03*
Y50754D02*
D03*
X573786Y25354D02*
D03*
Y50754D02*
D03*
X548386Y25354D02*
D03*
Y50754D02*
D03*
X522986Y25354D02*
D03*
Y50754D02*
D03*
X497586Y25354D02*
D03*
Y50754D02*
D03*
X472186Y25354D02*
D03*
Y50754D02*
D03*
X446786Y25354D02*
D03*
Y50754D02*
D03*
X421386Y25354D02*
D03*
Y50754D02*
D03*
X395986Y25354D02*
D03*
X534416Y508462D02*
D03*
X509016Y483062D02*
D03*
Y508462D02*
D03*
X483616Y483062D02*
D03*
Y508462D02*
D03*
X458216Y483062D02*
D03*
Y508462D02*
D03*
X432816Y483062D02*
D03*
Y508462D02*
D03*
X407416Y483062D02*
D03*
Y508462D02*
D03*
X382016Y483062D02*
D03*
Y508462D02*
D03*
X356616Y483062D02*
D03*
Y508462D02*
D03*
X178054D02*
D03*
Y483062D02*
D03*
X203454Y508462D02*
D03*
Y483062D02*
D03*
X228854Y508462D02*
D03*
Y483062D02*
D03*
X254254Y508462D02*
D03*
Y483062D02*
D03*
X279654Y508462D02*
D03*
Y483062D02*
D03*
X305054Y508462D02*
D03*
X178054Y25354D02*
D03*
X203454Y50754D02*
D03*
Y25354D02*
D03*
X228854Y50754D02*
D03*
Y25354D02*
D03*
X254254Y50754D02*
D03*
Y25354D02*
D03*
X279654Y50754D02*
D03*
Y25354D02*
D03*
X305054Y50754D02*
D03*
Y25354D02*
D03*
X330454Y50754D02*
D03*
Y25354D02*
D03*
X355854Y50754D02*
D03*
Y25354D02*
D03*
D82*
X739662Y402590D02*
D03*
X770382Y316484D02*
D03*
D83*
X375336Y342092D02*
D03*
X51372Y342392D02*
D03*
X215710D02*
D03*
X535602Y331064D02*
D03*
X395986Y50754D02*
D03*
X534416Y483062D02*
D03*
X305054D02*
D03*
X178054Y50754D02*
D03*
D84*
X799606Y208186D02*
D03*
Y291686D02*
D03*
D85*
X769606Y272186D02*
D03*
Y227686D02*
D03*
D86*
X653796Y299466D02*
D03*
X513758Y293032D02*
D03*
X653565Y343584D02*
D03*
X757682Y463550D02*
D03*
X742696Y457708D02*
D03*
X699008Y511668D02*
D03*
X734060Y444500D02*
D03*
X693095Y520954D02*
D03*
X701040Y495310D02*
D03*
X756666Y498602D02*
D03*
X688086Y502158D02*
D03*
X727202Y491490D02*
D03*
X697632Y401574D02*
D03*
X703850Y45212D02*
D03*
X70104Y497586D02*
D03*
X519176Y470362D02*
D03*
X663702Y513588D02*
D03*
X219456Y396240D02*
D03*
X574237Y506476D02*
D03*
X709676Y106426D02*
D03*
Y122345D02*
D03*
X774192Y126238D02*
D03*
X231086Y369783D02*
D03*
X474297Y320040D02*
D03*
X183388Y357486D02*
D03*
X65278Y31242D02*
D03*
X698754Y361188D02*
D03*
X683006Y367030D02*
D03*
X652632Y384556D02*
D03*
X363982Y112776D02*
D03*
X435102Y112224D02*
D03*
X768604Y196342D02*
D03*
X772160Y106934D02*
D03*
X702782Y132489D02*
D03*
X797559Y159432D02*
D03*
X115570Y209042D02*
D03*
X594724Y402052D02*
D03*
X545694Y387706D02*
D03*
X624332Y313182D02*
D03*
X646176Y83058D02*
D03*
X638556Y35560D02*
D03*
X508254Y82296D02*
D03*
X480822Y144018D02*
D03*
X499872Y128270D02*
D03*
X648208Y282702D02*
D03*
X646176Y261436D02*
D03*
X645668Y272288D02*
D03*
X549148Y360934D02*
D03*
X314198Y92964D02*
D03*
X302768D02*
D03*
X345186Y108458D02*
D03*
X327914Y144018D02*
D03*
X404954Y148258D02*
D03*
X411480Y128778D02*
D03*
X326390Y109728D02*
D03*
X256286Y92456D02*
D03*
X301244Y151130D02*
D03*
X251714Y154686D02*
D03*
X234442Y103632D02*
D03*
X233854Y114554D02*
D03*
X112014Y88646D02*
D03*
X115570Y103886D02*
D03*
X496570Y71374D02*
D03*
X561594Y12192D02*
D03*
X699262Y148082D02*
D03*
X189980Y101148D02*
D03*
X189902Y124976D02*
D03*
Y113284D02*
D03*
X25908Y82042D02*
D03*
X32258Y119126D02*
D03*
X638048Y206756D02*
D03*
X642366Y186690D02*
D03*
X659638Y474980D02*
D03*
X645414Y437134D02*
D03*
X649224Y450088D02*
D03*
X582676Y464644D02*
D03*
X621894Y215392D02*
D03*
X498094Y328422D02*
D03*
X504038Y342392D02*
D03*
X634760Y489358D02*
D03*
X759460Y349250D02*
D03*
Y360680D02*
D03*
X759206Y371856D02*
D03*
X101600Y123698D02*
D03*
X236982Y125730D02*
D03*
X47984Y76294D02*
D03*
X99822Y135628D02*
D03*
X182741Y174125D02*
D03*
X146038Y128786D02*
D03*
X143906Y116494D02*
D03*
X109728Y65786D02*
D03*
X109292Y50220D02*
D03*
X422622Y435818D02*
D03*
X567531Y139007D02*
D03*
X572008Y490220D02*
D03*
X634086Y506984D02*
D03*
X769380Y453418D02*
D03*
X602340Y150622D02*
D03*
X640944Y160376D02*
D03*
X778346Y439953D02*
D03*
X769634Y479580D02*
D03*
X232265Y216644D02*
D03*
X194120Y224563D02*
D03*
X315242Y219710D02*
D03*
X303530D02*
D03*
X261366Y216154D02*
D03*
X321056Y173482D02*
D03*
X644032Y477158D02*
D03*
X631078Y466998D02*
D03*
X709818Y435502D02*
D03*
X605932Y456838D02*
D03*
X571642Y472078D02*
D03*
X604916Y517471D02*
D03*
X342900Y357053D02*
D03*
X678256Y472374D02*
D03*
X671210Y455676D02*
D03*
X682894Y442722D02*
D03*
X11176Y353822D02*
D03*
X20516Y343916D02*
D03*
X338074Y345948D02*
D03*
X173990Y346456D02*
D03*
X480822Y170942D02*
D03*
X614994Y373440D02*
D03*
X614020Y395580D02*
D03*
X567284Y214224D02*
D03*
X514452Y213235D02*
D03*
X550284Y204318D02*
D03*
X578714Y204064D02*
D03*
X391228Y374418D02*
D03*
X631568Y414780D02*
D03*
X583816Y443818D02*
D03*
X542986Y443564D02*
D03*
X375966Y454868D02*
D03*
X452550Y148258D02*
D03*
X477774Y219710D02*
D03*
X464358Y219156D02*
D03*
X418338Y214122D02*
D03*
X410718Y225552D02*
D03*
X391368Y215092D02*
D03*
X354144Y228668D02*
D03*
X353382Y305748D02*
D03*
X454872Y383498D02*
D03*
X484298Y454740D02*
D03*
X451122Y406164D02*
D03*
X470548Y425082D02*
D03*
X378206Y395986D02*
D03*
X313754Y322008D02*
D03*
X291280Y407982D02*
D03*
X223371Y454406D02*
D03*
X262890D02*
D03*
X324866Y452628D02*
D03*
X311404Y423672D02*
D03*
X294594Y384002D02*
D03*
X406654Y72136D02*
D03*
X149606Y319024D02*
D03*
X129914Y385064D02*
D03*
X565404Y77216D02*
D03*
X649096Y124080D02*
D03*
X567182Y119888D02*
D03*
X116840Y150876D02*
D03*
X67264Y215138D02*
D03*
X29020Y224726D02*
D03*
X153416Y173736D02*
D03*
X150876Y214122D02*
D03*
X140462Y219202D02*
D03*
X53086Y455168D02*
D03*
X60960Y402082D02*
D03*
X99348Y455710D02*
D03*
X126942Y407416D02*
D03*
X147384Y427482D02*
D03*
X161290Y454742D02*
D03*
X28766Y304038D02*
D03*
X193358Y304356D02*
D03*
X251206Y227706D02*
D03*
X97854Y220096D02*
D03*
X87440Y226014D02*
D03*
X68390Y374350D02*
D03*
D87*
X97916Y474218D02*
D03*
X93416Y480218D02*
D03*
Y468218D02*
D03*
X102416D02*
D03*
Y480218D02*
D03*
X704850Y168656D02*
D03*
X741934Y116840D02*
D03*
X245872Y354335D02*
D03*
X402082Y352806D02*
D03*
X618744Y267440D02*
D03*
X459002Y278474D02*
D03*
X299410Y279146D02*
D03*
X134112Y278474D02*
D03*
X777748Y206756D02*
D03*
Y214884D02*
D03*
X778002Y296418D02*
D03*
Y288290D02*
D03*
X785622Y178054D02*
D03*
X769874Y296308D02*
D03*
Y288290D02*
D03*
X769620Y206756D02*
D03*
Y214774D02*
D03*
X742141Y186309D02*
D03*
X742188Y178054D02*
D03*
X721266Y231394D02*
D03*
X732188D02*
D03*
Y240030D02*
D03*
X721266Y239920D02*
D03*
X733552Y169799D02*
D03*
Y178054D02*
D03*
Y186436D02*
D03*
X750570Y169799D02*
D03*
Y178008D02*
D03*
Y186309D02*
D03*
X742188Y169799D02*
D03*
M02*
