G04*
G04 #@! TF.GenerationSoftware,Altium Limited,Altium Designer,18.1.9 (240)*
G04*
G04 Layer_Color=16711935*
%FSLAX44Y44*%
%MOMM*%
G71*
G01*
G75*
%ADD56R,0.9600X0.7600*%
%ADD59R,1.2100X1.5100*%
%ADD61R,1.0600X0.9600*%
%ADD63R,0.9600X1.0600*%
%ADD64R,0.7600X0.9600*%
%ADD69R,1.5100X1.2100*%
%ADD79R,1.6100X1.6100*%
%ADD80C,1.6100*%
%ADD81C,1.5600*%
%ADD82R,1.5600X1.5600*%
%ADD83R,1.5600X1.5600*%
%ADD84O,1.9600X1.2600*%
%ADD85O,1.3100X1.1100*%
%ADD86C,0.8100*%
%ADD87C,0.5600*%
%ADD101R,0.4010X1.4668*%
%ADD110R,0.4156X1.2080*%
%ADD127R,1.7600X1.0100*%
%ADD128R,0.5600X0.5600*%
%ADD129R,0.6600X1.1600*%
%ADD130R,3.1100X4.1900*%
%ADD131O,1.4600X0.4100*%
%ADD132R,1.4600X0.4100*%
%ADD133R,1.1100X1.4100*%
%ADD134R,1.4100X1.1100*%
%ADD135R,0.9600X0.8600*%
%ADD136R,0.8600X0.9600*%
%ADD137O,0.6600X1.9600*%
%ADD138R,1.0600X2.3600*%
%ADD139R,1.5800X3.1100*%
%ADD140O,0.3100X0.6600*%
%ADD141R,0.3100X0.6600*%
%ADD142R,0.6600X0.3100*%
%ADD143R,2.5600X2.5600*%
%ADD144R,1.9600X1.4100*%
%ADD145R,1.3300X3.2400*%
%ADD146O,0.4700X1.6600*%
%ADD147R,0.4700X1.6600*%
G04:AMPARAMS|DCode=148|XSize=1.63mm|YSize=1.95mm|CornerRadius=0.0771mm|HoleSize=0mm|Usage=FLASHONLY|Rotation=180.000|XOffset=0mm|YOffset=0mm|HoleType=Round|Shape=RoundedRectangle|*
%AMROUNDEDRECTD148*
21,1,1.6300,1.7958,0,0,180.0*
21,1,1.4758,1.9500,0,0,180.0*
1,1,0.1542,-0.7379,0.8979*
1,1,0.1542,0.7379,0.8979*
1,1,0.1542,0.7379,-0.8979*
1,1,0.1542,-0.7379,-0.8979*
%
%ADD148ROUNDEDRECTD148*%
G04:AMPARAMS|DCode=149|XSize=0.51mm|YSize=1.61mm|CornerRadius=0.0795mm|HoleSize=0mm|Usage=FLASHONLY|Rotation=90.000|XOffset=0mm|YOffset=0mm|HoleType=Round|Shape=RoundedRectangle|*
%AMROUNDEDRECTD149*
21,1,0.5100,1.4510,0,0,90.0*
21,1,0.3510,1.6100,0,0,90.0*
1,1,0.1590,0.7255,0.1755*
1,1,0.1590,0.7255,-0.1755*
1,1,0.1590,-0.7255,-0.1755*
1,1,0.1590,-0.7255,0.1755*
%
%ADD149ROUNDEDRECTD149*%
G36*
X668022Y51759D02*
X654302D01*
Y18939D01*
X668022D01*
Y51759D01*
D02*
G37*
G36*
X693422D02*
X679702D01*
Y18939D01*
X693422D01*
Y51759D01*
D02*
G37*
G36*
X668022Y89859D02*
X654302D01*
Y57039D01*
X668022D01*
Y89859D01*
D02*
G37*
G36*
X693422D02*
X679702D01*
Y57039D01*
X693422D01*
Y89859D01*
D02*
G37*
G36*
X725680Y54764D02*
X711960D01*
Y21944D01*
X725680D01*
Y54764D01*
D02*
G37*
G36*
X751080D02*
X737360D01*
Y21944D01*
X751080D01*
Y54764D01*
D02*
G37*
G36*
X725680Y92864D02*
X711960D01*
Y60044D01*
X725680D01*
Y92864D01*
D02*
G37*
G36*
X751080D02*
X737360D01*
Y60044D01*
X751080D01*
Y92864D01*
D02*
G37*
D56*
X87674Y107124D02*
D03*
Y122124D02*
D03*
X47876Y159702D02*
D03*
Y174702D02*
D03*
X660146Y440062D02*
D03*
Y425062D02*
D03*
D59*
X270018Y96774D02*
D03*
X288018D02*
D03*
D61*
X251586Y142112D02*
D03*
Y126112D02*
D03*
X144628Y88266D02*
D03*
Y104266D02*
D03*
X651510Y521440D02*
D03*
Y505440D02*
D03*
X782334Y470374D02*
D03*
Y454374D02*
D03*
X480822Y114022D02*
D03*
Y130022D02*
D03*
X481330Y74906D02*
D03*
Y90906D02*
D03*
X634238Y124080D02*
D03*
Y140080D02*
D03*
Y74042D02*
D03*
Y90042D02*
D03*
D63*
X202046Y156091D02*
D03*
X218046D02*
D03*
X755664Y479952D02*
D03*
X739664D02*
D03*
X741298Y504952D02*
D03*
X725298D02*
D03*
X635768Y520592D02*
D03*
X619768D02*
D03*
X673734Y491236D02*
D03*
X657734D02*
D03*
X635268Y453264D02*
D03*
X619268D02*
D03*
X743416Y426256D02*
D03*
X727416D02*
D03*
D64*
X60870Y161106D02*
D03*
X75870D02*
D03*
X60870Y174060D02*
D03*
X75870D02*
D03*
X124340Y510076D02*
D03*
X109340D02*
D03*
X97924Y497586D02*
D03*
X82924D02*
D03*
D69*
X307864Y115270D02*
D03*
Y133270D02*
D03*
X48514Y469790D02*
D03*
Y487790D02*
D03*
X146638Y465980D02*
D03*
Y483980D02*
D03*
D79*
X687832Y162052D02*
D03*
D80*
Y136652D02*
D03*
Y111252D02*
D03*
D81*
X714262Y402590D02*
D03*
X451536Y265892D02*
D03*
Y291292D02*
D03*
Y316692D02*
D03*
Y342092D02*
D03*
X375336Y265892D02*
D03*
Y291292D02*
D03*
Y316692D02*
D03*
X127572Y266192D02*
D03*
Y291592D02*
D03*
Y316992D02*
D03*
Y342392D02*
D03*
X51372Y266192D02*
D03*
Y291592D02*
D03*
Y316992D02*
D03*
X291910Y266192D02*
D03*
Y291592D02*
D03*
Y316992D02*
D03*
Y342392D02*
D03*
X215710Y266192D02*
D03*
Y291592D02*
D03*
Y316992D02*
D03*
X795782Y316484D02*
D03*
X611802Y254864D02*
D03*
Y280264D02*
D03*
Y305664D02*
D03*
Y331064D02*
D03*
X535602Y254864D02*
D03*
Y280264D02*
D03*
Y305664D02*
D03*
X624586Y25354D02*
D03*
Y50754D02*
D03*
X599186Y25354D02*
D03*
Y50754D02*
D03*
X573786Y25354D02*
D03*
Y50754D02*
D03*
X548386Y25354D02*
D03*
Y50754D02*
D03*
X522986Y25354D02*
D03*
Y50754D02*
D03*
X497586Y25354D02*
D03*
Y50754D02*
D03*
X472186Y25354D02*
D03*
Y50754D02*
D03*
X446786Y25354D02*
D03*
Y50754D02*
D03*
X421386Y25354D02*
D03*
Y50754D02*
D03*
X395986Y25354D02*
D03*
X534416Y508462D02*
D03*
X509016Y483062D02*
D03*
Y508462D02*
D03*
X483616Y483062D02*
D03*
Y508462D02*
D03*
X458216Y483062D02*
D03*
Y508462D02*
D03*
X432816Y483062D02*
D03*
Y508462D02*
D03*
X407416Y483062D02*
D03*
Y508462D02*
D03*
X382016Y483062D02*
D03*
Y508462D02*
D03*
X356616Y483062D02*
D03*
Y508462D02*
D03*
X178054D02*
D03*
Y483062D02*
D03*
X203454Y508462D02*
D03*
Y483062D02*
D03*
X228854Y508462D02*
D03*
Y483062D02*
D03*
X254254Y508462D02*
D03*
Y483062D02*
D03*
X279654Y508462D02*
D03*
Y483062D02*
D03*
X305054Y508462D02*
D03*
X178054Y25354D02*
D03*
X203454Y50754D02*
D03*
Y25354D02*
D03*
X228854Y50754D02*
D03*
Y25354D02*
D03*
X254254Y50754D02*
D03*
Y25354D02*
D03*
X279654Y50754D02*
D03*
Y25354D02*
D03*
X305054Y50754D02*
D03*
Y25354D02*
D03*
X330454Y50754D02*
D03*
Y25354D02*
D03*
X355854Y50754D02*
D03*
Y25354D02*
D03*
D82*
X739662Y402590D02*
D03*
X770382Y316484D02*
D03*
D83*
X375336Y342092D02*
D03*
X51372Y342392D02*
D03*
X215710D02*
D03*
X535602Y331064D02*
D03*
X395986Y50754D02*
D03*
X534416Y483062D02*
D03*
X305054D02*
D03*
X178054Y50754D02*
D03*
D84*
X799606Y208186D02*
D03*
Y291686D02*
D03*
D85*
X769606Y272186D02*
D03*
Y227686D02*
D03*
D86*
X653796Y299466D02*
D03*
X513758Y293032D02*
D03*
X653565Y343584D02*
D03*
X757682Y463550D02*
D03*
X742696Y457708D02*
D03*
X699008Y511668D02*
D03*
X734060Y444500D02*
D03*
X693095Y520954D02*
D03*
X701040Y495310D02*
D03*
X756666Y498602D02*
D03*
X688086Y502158D02*
D03*
X727202Y491490D02*
D03*
X697632Y401574D02*
D03*
X703850Y45212D02*
D03*
X70104Y497586D02*
D03*
X519176Y470362D02*
D03*
X663702Y513588D02*
D03*
X219456Y396240D02*
D03*
X574237Y506476D02*
D03*
X709676Y106426D02*
D03*
Y122345D02*
D03*
X774192Y126238D02*
D03*
X231086Y369783D02*
D03*
X474297Y320040D02*
D03*
X183388Y357486D02*
D03*
X65278Y31242D02*
D03*
X698754Y361188D02*
D03*
X683006Y367030D02*
D03*
X652632Y384556D02*
D03*
X363982Y112776D02*
D03*
X435102Y112224D02*
D03*
X768604Y196342D02*
D03*
X772160Y106934D02*
D03*
X702782Y132489D02*
D03*
X797559Y159432D02*
D03*
X115570Y209042D02*
D03*
X594724Y402052D02*
D03*
X545694Y387706D02*
D03*
X624332Y313182D02*
D03*
X646176Y83058D02*
D03*
X638556Y35560D02*
D03*
X508254Y82296D02*
D03*
X480822Y144018D02*
D03*
X499872Y128270D02*
D03*
X648208Y282702D02*
D03*
X646176Y261436D02*
D03*
X645668Y272288D02*
D03*
X549148Y360934D02*
D03*
X314198Y92964D02*
D03*
X302768D02*
D03*
X345186Y108458D02*
D03*
X327914Y144018D02*
D03*
X404954Y148258D02*
D03*
X411480Y128778D02*
D03*
X326390Y109728D02*
D03*
X256286Y92456D02*
D03*
X301244Y151130D02*
D03*
X251714Y154686D02*
D03*
X234442Y103632D02*
D03*
X233854Y114554D02*
D03*
X112014Y88646D02*
D03*
X115570Y103886D02*
D03*
X496570Y71374D02*
D03*
X561594Y12192D02*
D03*
X699262Y148082D02*
D03*
X189980Y101148D02*
D03*
X189902Y124976D02*
D03*
Y113284D02*
D03*
X25908Y82042D02*
D03*
X32258Y119126D02*
D03*
X638048Y206756D02*
D03*
X642366Y186690D02*
D03*
X659638Y474980D02*
D03*
X645414Y437134D02*
D03*
X649224Y450088D02*
D03*
X582676Y464644D02*
D03*
X621894Y215392D02*
D03*
X498094Y328422D02*
D03*
X504038Y342392D02*
D03*
X634760Y489358D02*
D03*
X759460Y349250D02*
D03*
Y360680D02*
D03*
X759206Y371856D02*
D03*
X101600Y123698D02*
D03*
X236982Y125730D02*
D03*
X47984Y76294D02*
D03*
X99822Y135628D02*
D03*
X182741Y174125D02*
D03*
X146038Y128786D02*
D03*
X143906Y116494D02*
D03*
X109728Y65786D02*
D03*
X109292Y50220D02*
D03*
X422622Y435818D02*
D03*
X567531Y139007D02*
D03*
X572008Y490220D02*
D03*
X634086Y506984D02*
D03*
X769380Y453418D02*
D03*
X602340Y150622D02*
D03*
X640944Y160376D02*
D03*
X778346Y439953D02*
D03*
X769634Y479580D02*
D03*
X232265Y216644D02*
D03*
X194120Y224563D02*
D03*
X315242Y219710D02*
D03*
X303530D02*
D03*
X261366Y216154D02*
D03*
X321056Y173482D02*
D03*
X644032Y477158D02*
D03*
X631078Y466998D02*
D03*
X709818Y435502D02*
D03*
X605932Y456838D02*
D03*
X571642Y472078D02*
D03*
X604916Y517471D02*
D03*
X342900Y357053D02*
D03*
X678256Y472374D02*
D03*
X671210Y455676D02*
D03*
X682894Y442722D02*
D03*
X11176Y353822D02*
D03*
X20516Y343916D02*
D03*
X338074Y345948D02*
D03*
X173990Y346456D02*
D03*
X480822Y170942D02*
D03*
X614994Y373440D02*
D03*
X614020Y395580D02*
D03*
X567284Y214224D02*
D03*
X514452Y213235D02*
D03*
X550284Y204318D02*
D03*
X578714Y204064D02*
D03*
X391228Y374418D02*
D03*
X631568Y414780D02*
D03*
X583816Y443818D02*
D03*
X542986Y443564D02*
D03*
X375966Y454868D02*
D03*
X452550Y148258D02*
D03*
X477774Y219710D02*
D03*
X464358Y219156D02*
D03*
X418338Y214122D02*
D03*
X410718Y225552D02*
D03*
X391368Y215092D02*
D03*
X354144Y228668D02*
D03*
X353382Y305748D02*
D03*
X454872Y383498D02*
D03*
X484298Y454740D02*
D03*
X451122Y406164D02*
D03*
X470548Y425082D02*
D03*
X378206Y395986D02*
D03*
X313754Y322008D02*
D03*
X291280Y407982D02*
D03*
X223371Y454406D02*
D03*
X262890D02*
D03*
X324866Y452628D02*
D03*
X311404Y423672D02*
D03*
X294594Y384002D02*
D03*
X406654Y72136D02*
D03*
X149606Y319024D02*
D03*
X129914Y385064D02*
D03*
X565404Y77216D02*
D03*
X649096Y124080D02*
D03*
X567182Y119888D02*
D03*
X116840Y150876D02*
D03*
X67264Y215138D02*
D03*
X29020Y224726D02*
D03*
X153416Y173736D02*
D03*
X150876Y214122D02*
D03*
X140462Y219202D02*
D03*
X53086Y455168D02*
D03*
X60960Y402082D02*
D03*
X99348Y455710D02*
D03*
X126942Y407416D02*
D03*
X147384Y427482D02*
D03*
X161290Y454742D02*
D03*
X28766Y304038D02*
D03*
X193358Y304356D02*
D03*
X251206Y227706D02*
D03*
X97854Y220096D02*
D03*
X87440Y226014D02*
D03*
X68390Y374350D02*
D03*
D87*
X97916Y474218D02*
D03*
X93416Y480218D02*
D03*
Y468218D02*
D03*
X102416D02*
D03*
Y480218D02*
D03*
X704850Y168656D02*
D03*
X741934Y116840D02*
D03*
X245872Y354335D02*
D03*
X402082Y352806D02*
D03*
X618744Y267440D02*
D03*
X459002Y278474D02*
D03*
X299410Y279146D02*
D03*
X134112Y278474D02*
D03*
X777748Y206756D02*
D03*
Y214884D02*
D03*
X778002Y296418D02*
D03*
Y288290D02*
D03*
X785622Y178054D02*
D03*
X769874Y296308D02*
D03*
Y288290D02*
D03*
X769620Y206756D02*
D03*
Y214774D02*
D03*
X742141Y186309D02*
D03*
X742188Y178054D02*
D03*
X721266Y231394D02*
D03*
X732188D02*
D03*
Y240030D02*
D03*
X721266Y239920D02*
D03*
X733552Y169799D02*
D03*
Y178054D02*
D03*
Y186436D02*
D03*
X750570Y169799D02*
D03*
Y178008D02*
D03*
Y186309D02*
D03*
X742188Y169799D02*
D03*
D101*
X643440Y370705D02*
D03*
X649940D02*
D03*
X656440D02*
D03*
X662940D02*
D03*
Y410599D02*
D03*
X656440D02*
D03*
X649940D02*
D03*
X643440D02*
D03*
D110*
X62430Y73730D02*
D03*
X68930D02*
D03*
X75430D02*
D03*
X81930D02*
D03*
Y50870D02*
D03*
X75430D02*
D03*
X68930D02*
D03*
X62430D02*
D03*
D127*
X330500Y94204D02*
D03*
Y122204D02*
D03*
X342900Y432846D02*
D03*
Y404846D02*
D03*
X542544Y402052D02*
D03*
Y430052D02*
D03*
D128*
X333476Y133350D02*
D03*
X324476D02*
D03*
D129*
X288010Y141286D02*
D03*
X269010D02*
D03*
Y117286D02*
D03*
X278510D02*
D03*
X288010D02*
D03*
D130*
X189902Y113284D02*
D03*
D131*
X161402Y83994D02*
D03*
Y90494D02*
D03*
Y96994D02*
D03*
Y103494D02*
D03*
Y109994D02*
D03*
Y116494D02*
D03*
Y122994D02*
D03*
Y129494D02*
D03*
Y135994D02*
D03*
Y142494D02*
D03*
X218402Y83994D02*
D03*
Y90494D02*
D03*
Y96994D02*
D03*
Y103494D02*
D03*
Y109994D02*
D03*
Y116494D02*
D03*
Y122994D02*
D03*
Y129494D02*
D03*
Y135994D02*
D03*
D132*
Y142494D02*
D03*
D133*
X202796Y174125D02*
D03*
X217296D02*
D03*
D134*
X129274Y89024D02*
D03*
Y103524D02*
D03*
D135*
X96818Y64220D02*
D03*
Y50220D02*
D03*
X50292Y37958D02*
D03*
Y51958D02*
D03*
X21710Y96336D02*
D03*
Y110336D02*
D03*
X87674Y133532D02*
D03*
Y147532D02*
D03*
X628948Y355204D02*
D03*
Y369204D02*
D03*
X81026Y435722D02*
D03*
Y449722D02*
D03*
D136*
X33984Y64078D02*
D03*
X47984D02*
D03*
X658988Y353822D02*
D03*
X672988D02*
D03*
X109412Y497586D02*
D03*
X123412D02*
D03*
D137*
X35350Y142188D02*
D03*
X48050D02*
D03*
X60750D02*
D03*
X73450D02*
D03*
X35350Y95188D02*
D03*
X48050D02*
D03*
X60750D02*
D03*
X73450D02*
D03*
D138*
X498856Y361442D02*
D03*
X473456D02*
D03*
X422656D02*
D03*
X498856Y455442D02*
D03*
X422656D02*
D03*
D139*
X362438Y431800D02*
D03*
X385338D02*
D03*
D140*
X720236Y445874D02*
D03*
X616350Y467356D02*
D03*
D141*
X715236Y445874D02*
D03*
X710236D02*
D03*
X705236D02*
D03*
X700236D02*
D03*
X695236D02*
D03*
Y483874D02*
D03*
X700236D02*
D03*
X705236D02*
D03*
X710236D02*
D03*
X715236D02*
D03*
X720236D02*
D03*
X611350Y467356D02*
D03*
X606350D02*
D03*
X601350D02*
D03*
X596350D02*
D03*
X591350D02*
D03*
Y505356D02*
D03*
X596350D02*
D03*
X601350D02*
D03*
X606350D02*
D03*
X611350D02*
D03*
X616350D02*
D03*
D142*
X688736Y452374D02*
D03*
Y457374D02*
D03*
Y462374D02*
D03*
Y467374D02*
D03*
Y472374D02*
D03*
Y477374D02*
D03*
X726736D02*
D03*
Y472374D02*
D03*
Y467374D02*
D03*
Y462374D02*
D03*
Y457374D02*
D03*
Y452374D02*
D03*
X584850Y473856D02*
D03*
Y478856D02*
D03*
Y483856D02*
D03*
Y488856D02*
D03*
Y493856D02*
D03*
Y498856D02*
D03*
X622850D02*
D03*
Y493856D02*
D03*
Y488856D02*
D03*
Y483856D02*
D03*
Y478856D02*
D03*
Y473856D02*
D03*
D143*
X707536Y464924D02*
D03*
X603650Y486406D02*
D03*
D144*
X687832Y419860D02*
D03*
Y387860D02*
D03*
D145*
X686562Y35349D02*
D03*
Y73449D02*
D03*
X661162Y35349D02*
D03*
Y73449D02*
D03*
X744220Y38354D02*
D03*
Y76454D02*
D03*
X718820Y38354D02*
D03*
Y76454D02*
D03*
D146*
X422148Y130302D02*
D03*
X428498D02*
D03*
X434848D02*
D03*
X441198D02*
D03*
X447548D02*
D03*
X453898D02*
D03*
X460248D02*
D03*
X466598D02*
D03*
X422148Y76302D02*
D03*
X428498D02*
D03*
X434848D02*
D03*
X441198D02*
D03*
X447548D02*
D03*
X453898D02*
D03*
X460248D02*
D03*
X576834Y131216D02*
D03*
X583184D02*
D03*
X589534D02*
D03*
X595884D02*
D03*
X602234D02*
D03*
X608584D02*
D03*
X614934D02*
D03*
X621284D02*
D03*
X576834Y77216D02*
D03*
X583184D02*
D03*
X589534D02*
D03*
X595884D02*
D03*
X602234D02*
D03*
X608584D02*
D03*
X614934D02*
D03*
D147*
X466598Y76302D02*
D03*
X621284Y77216D02*
D03*
D148*
X97916Y474218D02*
D03*
D149*
X121166Y464468D02*
D03*
Y470968D02*
D03*
Y477468D02*
D03*
X74666Y464468D02*
D03*
Y470968D02*
D03*
Y477468D02*
D03*
Y483968D02*
D03*
X121166D02*
D03*
M02*
