G04*
G04 #@! TF.GenerationSoftware,Altium Limited,Altium Designer,18.1.9 (240)*
G04*
G04 Layer_Physical_Order=4*
G04 Layer_Color=16711680*
%FSLAX44Y44*%
%MOMM*%
G71*
G01*
G75*
%ADD19R,0.9000X0.7000*%
%ADD24R,1.1500X1.4500*%
%ADD26R,1.0000X0.9000*%
%ADD28R,0.9000X1.0000*%
%ADD29R,0.7000X0.9000*%
%ADD34R,1.4500X1.1500*%
%ADD88C,0.5000*%
%ADD89C,0.3000*%
%ADD90C,0.2540*%
%ADD92R,1.5500X1.5500*%
%ADD93C,1.5500*%
%ADD94C,1.5000*%
%ADD95R,1.5000X1.5000*%
%ADD96R,1.5000X1.5000*%
%ADD97O,1.9000X1.2000*%
%ADD98O,1.2500X1.0500*%
%ADD99C,0.7500*%
%ADD100C,0.5000*%
%ADD101R,0.4010X1.4668*%
%ADD102R,1.7000X0.9500*%
%ADD103R,0.5000X0.5000*%
%ADD104R,0.6000X1.1000*%
%ADD105R,3.0500X4.1300*%
%ADD106O,1.4000X0.3500*%
%ADD107R,1.4000X0.3500*%
%ADD108R,1.0500X1.3500*%
%ADD109R,1.3500X1.0500*%
%ADD110R,0.4156X1.2080*%
%ADD111R,0.9000X0.8000*%
%ADD112R,0.8000X0.9000*%
%ADD113O,0.6000X1.9000*%
%ADD114R,1.0000X2.3000*%
%ADD115R,1.5200X3.0500*%
%ADD116O,0.2500X0.6000*%
%ADD117R,0.2500X0.6000*%
%ADD118R,0.6000X0.2500*%
%ADD119R,2.5000X2.5000*%
%ADD120R,1.9000X1.3500*%
%ADD121R,1.2700X3.1800*%
%ADD122O,0.4100X1.6000*%
%ADD123R,0.4100X1.6000*%
G04:AMPARAMS|DCode=124|XSize=1.57mm|YSize=1.89mm|CornerRadius=0.0471mm|HoleSize=0mm|Usage=FLASHONLY|Rotation=180.000|XOffset=0mm|YOffset=0mm|HoleType=Round|Shape=RoundedRectangle|*
%AMROUNDEDRECTD124*
21,1,1.5700,1.7958,0,0,180.0*
21,1,1.4758,1.8900,0,0,180.0*
1,1,0.0942,-0.7379,0.8979*
1,1,0.0942,0.7379,0.8979*
1,1,0.0942,0.7379,-0.8979*
1,1,0.0942,-0.7379,-0.8979*
%
%ADD124ROUNDEDRECTD124*%
G04:AMPARAMS|DCode=125|XSize=0.45mm|YSize=1.55mm|CornerRadius=0.0495mm|HoleSize=0mm|Usage=FLASHONLY|Rotation=90.000|XOffset=0mm|YOffset=0mm|HoleType=Round|Shape=RoundedRectangle|*
%AMROUNDEDRECTD125*
21,1,0.4500,1.4510,0,0,90.0*
21,1,0.3510,1.5500,0,0,90.0*
1,1,0.0990,0.7255,0.1755*
1,1,0.0990,0.7255,-0.1755*
1,1,0.0990,-0.7255,-0.1755*
1,1,0.0990,-0.7255,0.1755*
%
%ADD125ROUNDEDRECTD125*%
%ADD126C,0.7500*%
G36*
X755664Y164846D02*
X728472D01*
Y191516D01*
X755664D01*
Y164846D01*
D02*
G37*
D19*
X87674Y107124D02*
D03*
Y122124D02*
D03*
X47876Y159702D02*
D03*
Y174702D02*
D03*
X660146Y440062D02*
D03*
Y425062D02*
D03*
D24*
X270018Y96774D02*
D03*
X288018D02*
D03*
D26*
X251586Y142112D02*
D03*
Y126112D02*
D03*
X144628Y88266D02*
D03*
Y104266D02*
D03*
X651510Y521440D02*
D03*
Y505440D02*
D03*
X782334Y470374D02*
D03*
Y454374D02*
D03*
X480822Y114022D02*
D03*
Y130022D02*
D03*
X481330Y74906D02*
D03*
Y90906D02*
D03*
X634238Y124080D02*
D03*
Y140080D02*
D03*
Y74042D02*
D03*
Y90042D02*
D03*
D28*
X202046Y156091D02*
D03*
X218046D02*
D03*
X755664Y479952D02*
D03*
X739664D02*
D03*
X741298Y504952D02*
D03*
X725298D02*
D03*
X635768Y520592D02*
D03*
X619768D02*
D03*
X673734Y491236D02*
D03*
X657734D02*
D03*
X635268Y453264D02*
D03*
X619268D02*
D03*
X743416Y426256D02*
D03*
X727416D02*
D03*
D29*
X60870Y161106D02*
D03*
X75870D02*
D03*
X60870Y174060D02*
D03*
X75870D02*
D03*
X124340Y510076D02*
D03*
X109340D02*
D03*
X97924Y497586D02*
D03*
X82924D02*
D03*
D34*
X307864Y115270D02*
D03*
Y133270D02*
D03*
X48514Y469790D02*
D03*
Y487790D02*
D03*
X146638Y465980D02*
D03*
Y483980D02*
D03*
D88*
X47876Y179978D02*
X61854Y193956D01*
X653565Y313159D02*
Y343584D01*
Y313159D02*
X676312Y290412D01*
X133008Y497586D02*
X146626Y483968D01*
X707536Y461567D02*
Y464924D01*
X706374Y460405D02*
X707536Y461567D01*
X97916Y457142D02*
Y474218D01*
Y457142D02*
X99348Y455710D01*
X123412Y497586D02*
X124340Y498514D01*
Y510076D01*
X109536Y479236D02*
Y497586D01*
X109340Y497658D02*
X109412Y497586D01*
X109340Y497658D02*
Y510076D01*
X703850Y45212D02*
X711962D01*
X696425D02*
X703850D01*
X718820Y38354D02*
X744220D01*
X711962Y45212D02*
X718820Y38354D01*
X686562Y35349D02*
X696425Y45212D01*
X173990Y388500D02*
Y402590D01*
Y456960D01*
X132751Y402590D02*
X173990D01*
X120305Y390144D02*
X132751Y402590D01*
X47498Y390144D02*
X120305D01*
X11176Y353822D02*
X47498Y390144D01*
X318262Y365760D02*
X400812D01*
X284988D02*
X318262D01*
X338074Y345948D01*
X497332Y329184D02*
X498094Y328422D01*
X427228Y329184D02*
X497332D01*
X411734Y344678D02*
X427228Y329184D01*
X411734Y344678D02*
Y354838D01*
X400812Y365760D02*
X411734Y354838D01*
X262248Y388500D02*
X284988Y365760D01*
X173990Y388500D02*
X262248D01*
X173990Y346456D02*
Y388500D01*
X146970Y483980D02*
X173990Y456960D01*
X146638Y483980D02*
X146970D01*
X32766Y430276D02*
X60960Y402082D01*
X32766Y430276D02*
Y472374D01*
X48183Y487790D01*
X48514D01*
X157876Y454742D02*
X161290D01*
X146638Y465980D02*
X157876Y454742D01*
X70104Y497586D02*
X82924D01*
X97924D02*
X97924Y497586D01*
X109412D01*
X123412D02*
X133008D01*
X109412D02*
X109536D01*
Y479236D02*
X111304Y477468D01*
X121166D01*
Y483968D02*
X146626D01*
X145126Y464468D02*
X146638Y465980D01*
X121166Y464468D02*
X145126D01*
X81026Y449722D02*
X86186Y454882D01*
Y468550D01*
X83768Y470968D02*
X86186Y468550D01*
X74666Y470968D02*
X83768D01*
X99348Y442722D02*
Y455710D01*
X92348Y435722D02*
X99348Y442722D01*
X81026Y435722D02*
X92348D01*
X48514Y459740D02*
X53086Y455168D01*
X48514Y459740D02*
Y469790D01*
X61468Y483968D02*
X74666D01*
X52336D02*
X61468D01*
Y469078D02*
Y483968D01*
Y469078D02*
X66078Y464468D01*
X74666D01*
X48514Y487790D02*
X52336Y483968D01*
X330500Y122204D02*
X331440D01*
X345186Y108458D01*
X226016Y357486D02*
X291910Y291592D01*
X183388Y357486D02*
X226016D01*
X49324Y37774D02*
X49716Y37382D01*
X58562Y37958D02*
X65278Y31242D01*
X50292Y37958D02*
X58562D01*
X691388Y353822D02*
X698754Y361188D01*
X672988Y353822D02*
X691388D01*
X699024Y387352D02*
X714262Y402590D01*
X687832Y387352D02*
X699024D01*
X676312Y152740D02*
Y290412D01*
X628948Y373170D02*
X640334Y384556D01*
X652632D01*
X676312Y152740D02*
X680881Y148172D01*
X699172D01*
X699262Y148082D01*
X114046Y209042D02*
X115570D01*
X107950Y202946D02*
X114046Y209042D01*
X38848Y202946D02*
X107950D01*
X21710Y185808D02*
X38848Y202946D01*
X616838Y90042D02*
X634238D01*
X614934Y88138D02*
X616838Y90042D01*
X614934Y77216D02*
Y88138D01*
X639192Y90042D02*
X646176Y83058D01*
X634238Y90042D02*
X639192D01*
X634238Y66802D02*
Y74906D01*
X623594D02*
X634238D01*
X638556Y35560D02*
Y62484D01*
X634238Y66802D02*
X638556Y62484D01*
X481330Y90906D02*
X499644D01*
X508254Y82296D01*
X480822Y130022D02*
Y144018D01*
X302768Y92964D02*
X314198D01*
X291828D02*
X302768D01*
X288018Y96774D02*
X291828Y92964D01*
X345186Y108204D02*
Y108458D01*
X311402Y144018D02*
X327914D01*
X307864Y140480D02*
X311402Y144018D01*
X307864Y113684D02*
X322434D01*
X326390Y98314D02*
Y109728D01*
Y98314D02*
X330500Y94204D01*
X322434Y113684D02*
X326390Y109728D01*
X307864Y113684D02*
Y115270D01*
X256286Y92456D02*
X265700D01*
X270018Y96774D01*
X234141Y103632D02*
X234442D01*
X227779Y109994D02*
X234141Y103632D01*
X218402Y109994D02*
X227779D01*
X233854Y114554D02*
Y116760D01*
X234442Y117348D01*
X228796Y122994D02*
X234442Y117348D01*
X218402Y122994D02*
X228796D01*
X224651Y174125D02*
X236982Y161794D01*
Y125730D02*
Y161794D01*
X493038Y74906D02*
X496570Y71374D01*
X481330Y74906D02*
X493038D01*
X561594Y12192D02*
Y56388D01*
X568960Y63754D01*
X579374D01*
X583184Y67564D01*
Y77216D01*
X269010Y97782D02*
X278510Y107282D01*
X25908Y82042D02*
X33984Y73966D01*
Y64078D02*
Y73966D01*
X21710Y86240D02*
X25908Y82042D01*
X21710Y86240D02*
Y96336D01*
Y110336D02*
Y185808D01*
X32258Y119126D02*
X35350Y122218D01*
Y142188D01*
X113496Y147532D02*
X116840Y150876D01*
X87674Y147532D02*
X113496D01*
X99822Y135628D02*
X116070D01*
X126492Y146050D01*
Y156210D01*
X121208Y162250D02*
X126104Y157354D01*
X75870Y161106D02*
X121596D01*
X137414Y134366D02*
Y164666D01*
X127074Y124026D02*
X137414Y134366D01*
X101600Y123698D02*
X127074D01*
X127692Y174060D02*
X137414Y164338D01*
X75870Y174060D02*
X127692D01*
X625248Y193956D02*
X638048Y206756D01*
X61854Y193956D02*
X625248D01*
X47876Y174702D02*
Y179978D01*
X528515Y317819D02*
X574247D01*
X504038Y342296D02*
X528515Y317819D01*
X574247D02*
X611802Y280264D01*
X504038Y342296D02*
Y342392D01*
X619268Y427080D02*
Y453264D01*
X628948Y369204D02*
Y373170D01*
X619268Y427080D02*
X631568Y414780D01*
X97726Y133532D02*
X99822Y135628D01*
X87674Y133532D02*
X97726D01*
X182741Y174125D02*
X202796D01*
X217296D02*
X224651D01*
X218402Y122994D02*
X218452Y122944D01*
X146038Y128786D02*
X146746Y129494D01*
X161402D01*
X143906Y116494D02*
X161402D01*
X61554Y122124D02*
X87674D01*
X48050Y135628D02*
X61554Y122124D01*
X67222Y111630D02*
X83168D01*
X60750Y105158D02*
X67222Y111630D01*
X83168D02*
X87674Y107124D01*
X48050Y135628D02*
Y142188D01*
X96818Y64220D02*
X108162D01*
X109728Y65786D01*
X33984Y64078D02*
X35350Y65444D01*
X34202Y96336D02*
X35350Y95188D01*
X21710Y96336D02*
X34202D01*
X307864Y133270D02*
Y140480D01*
X260412Y117286D02*
X269010D01*
X251586Y126112D02*
X260412Y117286D01*
X278510Y107282D02*
Y117286D01*
X269010Y97782D02*
Y117286D01*
X296026Y133270D02*
X307864D01*
X288010Y141286D02*
X296026Y133270D01*
X268184Y142112D02*
X269010Y141286D01*
X251586Y142112D02*
X268184D01*
X288018Y96774D02*
Y117278D01*
X288010Y117286D02*
X288018Y117278D01*
X630148Y140080D02*
X634238D01*
X621284Y131216D02*
X630148Y140080D01*
X576834Y129540D02*
Y131216D01*
X567182Y119888D02*
X576834Y129540D01*
X693668Y419352D02*
X709818Y435502D01*
X683514Y419352D02*
X693668D01*
X769380Y453418D02*
Y466236D01*
X755664Y479952D02*
X769380Y466236D01*
X342900Y357053D02*
X385775D01*
X451536Y291292D01*
X89218Y329946D02*
X127572Y291592D01*
X34486Y329946D02*
X89218D01*
X20516Y343916D02*
X34486Y329946D01*
X21710Y110336D02*
X40322D01*
X48050Y102608D01*
Y95188D02*
Y102608D01*
X60750Y95188D02*
Y105158D01*
X78794Y147532D02*
X87674D01*
X73450Y142188D02*
X78794Y147532D01*
X60870Y161106D02*
Y174060D01*
X60750Y160986D02*
X60870Y161106D01*
X60750Y142188D02*
Y160986D01*
X47876Y142362D02*
X48050Y142188D01*
X47876Y142362D02*
Y159702D01*
Y174702D02*
X48722Y175548D01*
X406654Y72136D02*
X410820Y76302D01*
X422148D01*
X480542Y130302D02*
X480822Y130022D01*
X466598Y130302D02*
X480542D01*
X479934Y76302D02*
X481330Y74906D01*
X466598Y76302D02*
X479934D01*
X600662Y62024D02*
X608028D01*
X595884Y66802D02*
X600662Y62024D01*
X595884Y66802D02*
Y77216D01*
X565404D02*
X576834D01*
X621284D02*
X623594Y74906D01*
X611954Y37986D02*
X624586Y25354D01*
X611954Y37986D02*
Y58098D01*
X608028Y62024D02*
X611954Y58098D01*
X634238Y124080D02*
X649096D01*
X586232Y38308D02*
X599186Y25354D01*
X586232Y38308D02*
Y54610D01*
X589534Y57912D01*
Y77216D01*
D89*
X656440Y421356D02*
X660146Y425062D01*
X656440Y410599D02*
Y421356D01*
X660146Y437046D02*
Y440062D01*
X649940Y426840D02*
X660146Y437046D01*
X649940Y410599D02*
Y426840D01*
X726736Y462374D02*
X738030D01*
X742696Y457708D01*
X744982D01*
X726736Y457374D02*
X731520D01*
X743416Y445478D01*
X750316Y504952D02*
X756666Y498602D01*
X741298Y504952D02*
X750316D01*
X701040Y495310D02*
X705236Y491114D01*
Y483874D02*
Y491114D01*
X761492Y487722D02*
X769634Y479580D01*
X749209Y487722D02*
X761492D01*
X741439Y479952D02*
X749209Y487722D01*
X743416Y426256D02*
X756920D01*
X769380Y438716D01*
Y453418D01*
X696664Y401574D02*
X697632D01*
X696664D02*
X709110Y414020D01*
X652272Y102108D02*
X661162Y93218D01*
Y73449D02*
Y93218D01*
Y35349D02*
X674370Y48557D01*
Y89662D01*
X657352Y106680D02*
X674370Y89662D01*
X724008Y97616D02*
X744220Y77404D01*
Y76454D02*
Y77404D01*
X684530Y92964D02*
X702310D01*
X718820Y76454D01*
X658748Y513588D02*
X663702D01*
X651764Y506604D02*
X658748Y513588D01*
X49276Y51774D02*
X49876Y52374D01*
X62284Y63950D02*
X64754D01*
X50292Y51958D02*
X62284Y63950D01*
X614994Y369158D02*
Y373440D01*
Y369158D02*
X628948Y355204D01*
X658988Y353822D02*
X660571D01*
X667841Y346552D01*
X698850D01*
X706374Y354076D01*
Y364744D01*
X701802Y369316D02*
X706374Y364744D01*
X685292Y369316D02*
X701802D01*
X683006Y367030D02*
X685292Y369316D01*
X782334Y453612D02*
X783096Y454374D01*
X656440Y356370D02*
X658988Y353822D01*
X656440Y356370D02*
Y370402D01*
X662940D02*
X672988Y360354D01*
Y353822D02*
Y360354D01*
X726456Y424418D02*
Y432308D01*
X341376Y85852D02*
X363982Y108458D01*
Y112776D01*
X435102Y112224D02*
X455886D01*
X397917D02*
X435102D01*
X759460Y349250D02*
X783336Y325374D01*
Y202438D02*
Y325374D01*
Y202438D02*
X797559Y188214D01*
Y159432D02*
Y188214D01*
X707812Y154264D02*
X760984D01*
X768604Y161884D01*
Y196342D01*
X700024Y162052D02*
X707812Y154264D01*
X687832Y162052D02*
X700024D01*
X606845Y106680D02*
X657352D01*
X609648Y110950D02*
X659178D01*
X689864Y80264D01*
X662274Y115220D02*
X684530Y92964D01*
X658988Y124545D02*
Y125920D01*
Y124545D02*
X685917Y97616D01*
X709110Y414020D02*
X719622D01*
X726186Y407456D01*
Y395732D02*
Y407456D01*
X746760Y388366D02*
X751078Y392684D01*
X726186Y395732D02*
X733552Y388366D01*
X746760D01*
X646176Y261436D02*
X662871Y244741D01*
X141018Y64564D02*
X350257D01*
X112668Y36214D02*
X141018Y64564D01*
X74276Y36214D02*
X112668D01*
X138938Y68834D02*
X348488D01*
X110588Y40484D02*
X138938Y68834D01*
X78642Y40484D02*
X110588D01*
X137160Y73660D02*
X209861D01*
X120950Y57450D02*
X137160Y73660D01*
X87385Y57450D02*
X120950D01*
X455886Y112224D02*
X460248Y116586D01*
X350257Y64564D02*
X397917Y112224D01*
X424596Y116494D02*
X428498Y120396D01*
X396148Y116494D02*
X424596D01*
X348488Y68834D02*
X396148Y116494D01*
X346959Y73478D02*
X414667Y141186D01*
X210043Y73478D02*
X346959D01*
X209861Y73660D02*
X210043Y73478D01*
X345191Y77748D02*
X413747Y146304D01*
X211812Y77748D02*
X345191D01*
X208026Y81534D02*
X211812Y77748D01*
X413747Y146304D02*
X436446D01*
X414667Y141186D02*
X431584D01*
X411480Y128778D02*
X413004Y130302D01*
X250190Y85852D02*
X341376D01*
X245548Y90494D02*
X250190Y85852D01*
X218402Y90494D02*
X245548D01*
X208026Y81534D02*
Y91948D01*
X213072Y96994D01*
X218402D01*
X112014Y88646D02*
X125222D01*
X115570Y103886D02*
X126080D01*
X127858Y102108D01*
X129274Y103524D01*
X413004Y130302D02*
X422148D01*
X636558Y165632D02*
X662871Y191945D01*
Y244741D01*
X458978Y37546D02*
Y58928D01*
X453898Y64008D02*
X458978Y58928D01*
X453898Y64008D02*
Y76302D01*
X446786Y25354D02*
X458978Y37546D01*
X442884Y14732D02*
X461564D01*
X472186Y25354D01*
X447548Y66294D02*
Y76302D01*
X436516Y55262D02*
X447548Y66294D01*
X436516Y21100D02*
Y55262D01*
Y21100D02*
X442884Y14732D01*
X439214Y9604D02*
X481836D01*
X432246Y16572D02*
X439214Y9604D01*
X432246Y16572D02*
Y58482D01*
X481836Y9604D02*
X497586Y25354D01*
X634258Y488856D02*
X634760Y489358D01*
X622850Y488856D02*
X634258D01*
X436446Y146304D02*
X441198Y141552D01*
Y130302D02*
Y141552D01*
X431584Y141186D02*
X434848Y137922D01*
X330454Y25354D02*
X344124Y11684D01*
X367538D01*
X384556Y28702D01*
Y70923D01*
X402581Y88948D01*
X431686D01*
X434848Y85786D01*
Y76302D02*
Y85786D01*
X441198Y76302D02*
Y88138D01*
X436118Y93218D02*
X441198Y88138D01*
X400812Y93218D02*
X436118D01*
X380238Y72644D02*
X400812Y93218D01*
X75430Y43775D02*
X78642Y40563D01*
Y40484D02*
Y40563D01*
X75430Y43775D02*
Y50870D01*
X659638Y474980D02*
Y478790D01*
X659384Y479044D02*
X659638Y478790D01*
X659384Y479044D02*
X671576Y491236D01*
X673734D01*
X743416Y426256D02*
Y445478D01*
X492252Y152654D02*
X505230Y165632D01*
X473327Y152654D02*
X492252D01*
X460248Y139575D02*
X473327Y152654D01*
X505230Y165632D02*
X636558D01*
X460248Y130302D02*
Y139575D01*
X646049Y453264D02*
X649224Y450088D01*
X635268Y453264D02*
X646049D01*
X726456Y424418D02*
X733806Y417068D01*
X745744D01*
X751078Y411734D01*
Y392684D02*
Y411734D01*
X634238Y140080D02*
X644828D01*
X658988Y125920D01*
X615538Y115220D02*
X662274D01*
X602234Y118466D02*
Y131216D01*
Y118364D02*
Y118466D01*
X609496Y111204D01*
X602082Y118618D02*
X602234Y118466D01*
X685917Y97616D02*
X724008D01*
X628948Y369204D02*
X630146Y370402D01*
X643440D01*
X47984Y64078D02*
Y76294D01*
X161402Y96994D02*
X168602D01*
X171438Y99830D01*
Y107196D01*
X168640Y109994D02*
X171438Y107196D01*
X161402Y109994D02*
X168640D01*
X87674Y107124D02*
X96818Y97980D01*
Y83822D02*
Y97980D01*
X86726Y73730D02*
X96818Y83822D01*
X73450Y95188D02*
X75430Y93208D01*
Y73730D02*
Y93208D01*
X207664Y135994D02*
X218402D01*
X201164Y142494D02*
X207664Y135994D01*
X161402Y142494D02*
X201164D01*
X96818Y50220D02*
X109292D01*
X129274Y89024D02*
X130032Y88266D01*
X144628D01*
X153356Y96994D01*
X161402D01*
X129274Y103524D02*
X143886D01*
X144628Y104266D01*
X145400Y103494D01*
X161402D01*
X217296Y174125D02*
X218046Y173375D01*
Y156091D02*
Y173375D01*
X202046Y173375D02*
X202796Y174125D01*
X202046Y156091D02*
Y173375D01*
Y151010D02*
Y156091D01*
Y151010D02*
X210562Y142494D01*
X218402D01*
X218046Y156091D02*
X228334Y145803D01*
Y137930D02*
Y145803D01*
X226398Y135994D02*
X228334Y137930D01*
X218402Y135994D02*
X226398D01*
X330500Y122204D02*
X333476Y125180D01*
Y133350D01*
X324396Y133270D02*
X324476Y133350D01*
X307864Y133270D02*
X324396D01*
X595884Y117641D02*
Y131216D01*
X621284D02*
Y137922D01*
X616204Y143002D02*
X621284Y137922D01*
X587756Y143002D02*
X616204D01*
X583184Y138430D02*
X587756Y143002D01*
X583184Y131216D02*
Y138430D01*
X630300Y120142D02*
X634238Y124080D01*
X618744Y120142D02*
X630300D01*
X614934Y123952D02*
X618744Y120142D01*
X614934Y123952D02*
Y131216D01*
X635768Y508666D02*
Y520592D01*
X634086Y506984D02*
X635768Y508666D01*
X782334Y453612D02*
Y454374D01*
Y443941D02*
Y453612D01*
X778346Y439953D02*
X782334Y443941D01*
X739664Y479952D02*
X741439D01*
X732086Y472374D02*
X739664Y479952D01*
X726736Y472374D02*
X732086D01*
X428498Y120396D02*
Y130302D01*
X62430Y56405D02*
X65705Y59680D01*
X62430Y50870D02*
Y56405D01*
X78680Y59655D02*
Y59655D01*
X78655Y59680D02*
X78680Y59655D01*
X85155Y59680D02*
X87385Y57450D01*
X78705Y59680D02*
X85155D01*
X78680Y59655D02*
X78705Y59680D01*
X65705D02*
X78655D01*
X64754Y63950D02*
X68930Y68126D01*
X88520Y62354D02*
X94952D01*
X86924Y63950D02*
X88520Y62354D01*
X77564Y63950D02*
X86924D01*
X75430Y66084D02*
X77564Y63950D01*
X460248Y116586D02*
Y130302D01*
X68930Y41560D02*
X74276Y36214D01*
X68930Y41560D02*
Y50870D01*
X47542Y51774D02*
X49276D01*
X68930Y68126D02*
Y73730D01*
X47984Y64078D02*
X57636Y73730D01*
X62430D01*
X81930D02*
X86726D01*
X94952Y62354D02*
X96818Y64220D01*
X75430Y66084D02*
Y73730D01*
X81930Y50870D02*
X82580Y50220D01*
X96818D01*
X608584Y122174D02*
X615538Y115220D01*
X604266Y102108D02*
X652272D01*
X608584Y122174D02*
Y131216D01*
X602618Y94234D02*
X608584Y88268D01*
X560194Y94234D02*
X602618D01*
X536448Y70488D02*
X560194Y94234D01*
X608584Y77216D02*
Y88268D01*
X595884Y117641D02*
X606845Y106680D01*
X589534Y116840D02*
X604266Y102108D01*
X589534Y116840D02*
Y131216D01*
X536448Y20574D02*
Y70488D01*
X521208Y5334D02*
X536448Y20574D01*
X421386Y5334D02*
X521208D01*
X408686Y18034D02*
X421386Y5334D01*
X408686Y18034D02*
Y38054D01*
X395986Y50754D02*
X408686Y38054D01*
X380238Y42164D02*
Y72644D01*
X363428Y25354D02*
X380238Y42164D01*
X355854Y25354D02*
X363428D01*
X510748Y37592D02*
X522986Y25354D01*
X490982Y37592D02*
X510748D01*
X484822Y43752D02*
X490982Y37592D01*
X484822Y43752D02*
Y56198D01*
X477774Y63246D02*
X484822Y56198D01*
X462534Y63246D02*
X477774D01*
X460248Y65532D02*
X462534Y63246D01*
X460248Y65532D02*
Y76302D01*
X428498Y62230D02*
X432246Y58482D01*
X428498Y62230D02*
Y76302D01*
D90*
X651764Y299466D02*
X653796D01*
X641604Y309626D02*
X651764Y299466D01*
X569864Y473094D02*
X575626Y478856D01*
X641604Y353060D02*
X649940Y361396D01*
X753858Y467374D02*
X757682Y463550D01*
X726736Y467374D02*
X753858D01*
X651510Y521440D02*
X694712D01*
X699008Y510540D02*
Y511668D01*
Y510540D02*
X704088Y505460D01*
X726736Y452374D02*
X734060Y445050D01*
Y444500D02*
Y445050D01*
X725364Y504886D02*
Y516088D01*
Y504886D02*
X727202Y503048D01*
X725298Y504952D02*
X725364Y504886D01*
X727202Y491490D02*
Y503048D01*
X723112Y491490D02*
X727202D01*
X720236Y488614D02*
X723112Y491490D01*
X720236Y483874D02*
Y488614D01*
X715236Y483874D02*
Y495398D01*
X705174Y505460D02*
X715236Y495398D01*
X704088Y505460D02*
X705174D01*
X699003Y501650D02*
X702818D01*
X710236Y490638D02*
Y495009D01*
X702818Y501650D02*
X702868Y501600D01*
X703645D01*
X710236Y495009D01*
X690372Y510281D02*
X699003Y501650D01*
X690372Y510281D02*
Y510540D01*
Y510281D02*
X694436Y506217D01*
Y492516D02*
Y506217D01*
X701792Y525729D02*
X707949D01*
X700278Y527244D02*
X701792Y525729D01*
X693095Y520954D02*
X694225D01*
X694712Y521440D01*
X682752Y510540D02*
X690372D01*
X694436Y492516D02*
X700236Y486716D01*
Y483874D02*
Y486716D01*
X688086Y491024D02*
Y502158D01*
Y491024D02*
X695236Y483874D01*
X745966Y490192D02*
X748086Y492312D01*
X762616D01*
X767473Y487454D01*
X681228Y485013D02*
Y509016D01*
X682752Y510540D01*
X679323Y483108D02*
X681228Y485013D01*
X710236Y483874D02*
Y490638D01*
X732624Y486004D02*
X736812Y490192D01*
X732624Y479044D02*
Y486004D01*
X720236Y477624D02*
Y481984D01*
X736812Y490192D02*
X745966D01*
X730954Y477374D02*
X732624Y479044D01*
X726736Y477374D02*
X730954D01*
X707536Y464924D02*
X720236Y477624D01*
X726456Y432308D02*
Y436886D01*
X720236Y443106D02*
X726456Y436886D01*
X691808Y528029D02*
X692593Y527244D01*
X661761Y528029D02*
X691808D01*
X660930Y528860D02*
X661761Y528029D01*
X692593Y527244D02*
X700278D01*
X519176Y470362D02*
X548594D01*
X628036Y528860D02*
X660930D01*
X619768Y520592D02*
X628036Y528860D01*
X707949Y525729D02*
X710438Y523240D01*
X643730Y513440D02*
X651270Y520980D01*
X643730Y507733D02*
Y513440D01*
X553212Y505206D02*
X568392Y520386D01*
X588612Y516576D02*
X596350Y508838D01*
X557672Y492906D02*
Y504194D01*
X583940Y512766D02*
X591350Y505356D01*
X574237Y504281D02*
X579662Y498856D01*
X567947Y503871D02*
X572008Y499810D01*
Y493856D02*
Y499810D01*
X571632Y512766D02*
X583940D01*
X570053Y516576D02*
X588612D01*
X557672Y504194D02*
X570053Y516576D01*
X568392Y520386D02*
X595978D01*
X596534Y519830D01*
X567947Y509081D02*
X571632Y512766D01*
X567947Y503871D02*
Y509081D01*
X574237Y504281D02*
Y506476D01*
X651270Y496850D02*
X657874Y490246D01*
X676654Y387352D02*
X687832D01*
X663956Y400050D02*
X676654Y387352D01*
X673368Y414020D02*
Y426974D01*
Y414020D02*
X677732Y409656D01*
X641604Y309626D02*
Y353060D01*
X649940Y361396D02*
Y370402D01*
X631390Y400050D02*
X663956D01*
X595264Y436176D02*
X631390Y400050D01*
X595264Y436176D02*
Y462949D01*
X628338Y408490D02*
X634390D01*
X614228Y422600D02*
X628338Y408490D01*
X614228Y422600D02*
Y444694D01*
X677178Y430784D02*
X694631D01*
X673368Y426974D02*
X677178Y430784D01*
X677732Y409656D02*
X697946D01*
X717184Y428894D02*
Y439312D01*
Y422768D02*
Y428894D01*
X697946Y409656D02*
X717184Y428894D01*
X737362Y402590D02*
X739662D01*
X717184Y422768D02*
X737362Y402590D01*
X635508Y282702D02*
X648208D01*
X637286Y246080D02*
Y263906D01*
X645668Y272288D01*
X440944Y156464D02*
X445516Y151892D01*
X400050Y156464D02*
X440944D01*
X395986Y152400D02*
X400050Y156464D01*
X395986Y134366D02*
Y152400D01*
X343408Y81788D02*
X395986Y134366D01*
X247396Y81788D02*
X343408D01*
X245190Y83994D02*
X247396Y81788D01*
X218402Y83994D02*
X245190D01*
X658831Y193703D02*
Y224535D01*
X634800Y169672D02*
X658831Y193703D01*
X637286Y246080D02*
X658831Y224535D01*
X629666Y276860D02*
X635508Y282702D01*
X629666Y243688D02*
Y276860D01*
Y243688D02*
X646176Y227178D01*
Y201836D02*
Y227178D01*
X617822Y173482D02*
X646176Y201836D01*
X501342Y173482D02*
X617822D01*
X434848Y130302D02*
Y137922D01*
X488388Y160528D02*
X501342Y173482D01*
X454152Y160528D02*
X488388D01*
X445516Y151892D02*
X454152Y160528D01*
X445516Y143256D02*
Y151892D01*
Y143256D02*
X447548Y141224D01*
Y130302D02*
Y141224D01*
X584995Y452680D02*
X595264Y462949D01*
X596350Y464035D01*
X638650Y412750D02*
Y430370D01*
X634390Y408490D02*
X638650Y412750D01*
X710438Y523240D02*
X718212D01*
X725364Y516088D01*
X666242Y468630D02*
Y478282D01*
X671068Y483108D02*
X679323D01*
X666242Y478282D02*
X671068Y483108D01*
X682640Y479298D02*
X684564Y477374D01*
X674766Y479298D02*
X682640D01*
X670448Y474980D02*
X674766Y479298D01*
X694631Y430784D02*
X705236Y441390D01*
X662940Y416010D02*
X667440Y420510D01*
X662940Y410902D02*
Y416010D01*
X674258Y437918D02*
Y438150D01*
X667440Y431100D02*
X674258Y437918D01*
X667440Y420510D02*
Y431100D01*
X489966Y156718D02*
X502920Y169672D01*
X471678Y156718D02*
X489966D01*
X453898Y138938D02*
X471678Y156718D01*
X502920Y169672D02*
X634800D01*
X453898Y130302D02*
Y138938D01*
X658368Y460756D02*
X666242Y468630D01*
X658368Y450337D02*
Y460756D01*
X651704Y443673D02*
X658368Y450337D01*
X651704Y434529D02*
Y443673D01*
X643440Y426265D02*
X651704Y434529D01*
X643440Y410902D02*
Y426265D01*
X638650Y430370D02*
X645414Y437134D01*
X596350Y464035D02*
Y467356D01*
X573876Y452680D02*
X584995D01*
X591350Y464423D02*
Y467356D01*
X578748Y457272D02*
X584199D01*
X591350Y464423D01*
X571642Y464378D02*
X578748Y457272D01*
X571642Y464378D02*
Y472078D01*
X580790Y463546D02*
X584850Y467606D01*
X612228Y452974D02*
Y462026D01*
X611350Y462904D02*
X612228Y462026D01*
X611350Y462904D02*
Y467356D01*
X609088Y449834D02*
X614228Y444694D01*
X548594Y470362D02*
X553212Y474980D01*
Y505206D01*
X603650Y486406D02*
X616350Y499106D01*
Y505356D01*
X631304Y496824D02*
X643113D01*
X628336Y493856D02*
X631304Y496824D01*
X622850Y493856D02*
X628336D01*
X631110Y483856D02*
X637808Y477158D01*
X622850Y483856D02*
X631110D01*
X630142Y478856D02*
X638698Y470300D01*
X622850Y478856D02*
X630142D01*
X627930Y473856D02*
X631078Y470708D01*
X622850Y473856D02*
X627930D01*
X596534Y519830D02*
X600465Y523761D01*
X596534Y514091D02*
Y519830D01*
Y514091D02*
X601350Y509275D01*
X600465Y523761D02*
X607521D01*
X596350Y505356D02*
Y508838D01*
X607521Y523761D02*
X611350Y519933D01*
Y505356D02*
Y519933D01*
X575644Y493856D02*
X584850D01*
X572008Y490220D02*
X575644Y493856D01*
X557672Y468884D02*
X573876Y452680D01*
X629114Y500694D02*
X636691D01*
X627276Y498856D02*
X629114Y500694D01*
X622850Y498856D02*
X627276D01*
X643113Y496824D02*
X651270Y504980D01*
X636691Y500694D02*
X643730Y507733D01*
X710236Y433560D02*
Y445874D01*
X773444Y487454D02*
X782334Y478564D01*
Y470374D02*
Y478564D01*
X767473Y487454D02*
X773444D01*
X651270Y496850D02*
Y504980D01*
X637808Y477158D02*
X644032D01*
X631078Y466998D02*
Y470708D01*
X638698Y456693D02*
Y470300D01*
X616350Y517174D02*
X619768Y520592D01*
X616350Y505356D02*
Y517174D01*
X557672Y468884D02*
Y492906D01*
X566722Y483856D02*
X574690D01*
X557672Y492906D02*
X566722Y483856D01*
X574690D02*
X584850D01*
X574690D02*
X579690Y488856D01*
X584850D01*
X715236Y441260D02*
X717184Y439312D01*
X715236Y441260D02*
Y445874D01*
X720236Y443106D02*
Y445874D01*
X705236Y441390D02*
Y445874D01*
X709818Y433978D02*
X710236Y433560D01*
X709818Y433978D02*
Y435502D01*
X584850Y467606D02*
Y473856D01*
X601350Y462829D02*
Y467356D01*
X599074Y460553D02*
X601350Y462829D01*
X599074Y453028D02*
Y460553D01*
Y453028D02*
X602268Y449834D01*
X609088D01*
X612228Y452974D01*
X616350Y456181D02*
Y467356D01*
X605932Y456838D02*
Y466938D01*
X606350Y467356D01*
X569864Y473094D02*
X570880Y472078D01*
X601350Y505356D02*
Y509275D01*
X606350Y505356D02*
Y516037D01*
X604916Y517471D02*
X606350Y516037D01*
X579662Y498856D02*
X584850D01*
X575626Y478856D02*
X584850D01*
X675180Y462374D02*
X681116D01*
X670448Y467106D02*
X675180Y462374D01*
X672908Y457374D02*
X688736D01*
X674258Y447040D02*
X679592Y452374D01*
X674258Y438150D02*
X676036Y436372D01*
X694070D01*
X700236Y442538D01*
X686046Y445874D02*
X695236D01*
X663082Y450596D02*
Y459320D01*
X670448Y467106D02*
Y474980D01*
Y466686D02*
Y467106D01*
X663082Y459320D02*
X670448Y466686D01*
X671210Y455676D02*
X672908Y457374D01*
X663082Y450596D02*
X666638Y447040D01*
X674258D01*
Y438150D02*
Y447040D01*
X684564Y477374D02*
X688736D01*
X681116Y462374D02*
X688736D01*
X681116D02*
X686116Y467374D01*
X688736D01*
X678256Y472374D02*
X688736D01*
X679592Y452374D02*
X688736D01*
X682894Y442722D02*
X686046Y445874D01*
X700236Y442538D02*
Y445874D01*
D92*
X687832Y162052D02*
D03*
D93*
Y136652D02*
D03*
Y111252D02*
D03*
D94*
X714262Y402590D02*
D03*
X451536Y265892D02*
D03*
Y291292D02*
D03*
Y316692D02*
D03*
Y342092D02*
D03*
X375336Y265892D02*
D03*
Y291292D02*
D03*
Y316692D02*
D03*
X127572Y266192D02*
D03*
Y291592D02*
D03*
Y316992D02*
D03*
Y342392D02*
D03*
X51372Y266192D02*
D03*
Y291592D02*
D03*
Y316992D02*
D03*
X291910Y266192D02*
D03*
Y291592D02*
D03*
Y316992D02*
D03*
Y342392D02*
D03*
X215710Y266192D02*
D03*
Y291592D02*
D03*
Y316992D02*
D03*
X795782Y316484D02*
D03*
X611802Y254864D02*
D03*
Y280264D02*
D03*
Y305664D02*
D03*
Y331064D02*
D03*
X535602Y254864D02*
D03*
Y280264D02*
D03*
Y305664D02*
D03*
X624586Y25354D02*
D03*
Y50754D02*
D03*
X599186Y25354D02*
D03*
Y50754D02*
D03*
X573786Y25354D02*
D03*
Y50754D02*
D03*
X548386Y25354D02*
D03*
Y50754D02*
D03*
X522986Y25354D02*
D03*
Y50754D02*
D03*
X497586Y25354D02*
D03*
Y50754D02*
D03*
X472186Y25354D02*
D03*
Y50754D02*
D03*
X446786Y25354D02*
D03*
Y50754D02*
D03*
X421386Y25354D02*
D03*
Y50754D02*
D03*
X395986Y25354D02*
D03*
X534416Y508462D02*
D03*
X509016Y483062D02*
D03*
Y508462D02*
D03*
X483616Y483062D02*
D03*
Y508462D02*
D03*
X458216Y483062D02*
D03*
Y508462D02*
D03*
X432816Y483062D02*
D03*
Y508462D02*
D03*
X407416Y483062D02*
D03*
Y508462D02*
D03*
X382016Y483062D02*
D03*
Y508462D02*
D03*
X356616Y483062D02*
D03*
Y508462D02*
D03*
X178054D02*
D03*
Y483062D02*
D03*
X203454Y508462D02*
D03*
Y483062D02*
D03*
X228854Y508462D02*
D03*
Y483062D02*
D03*
X254254Y508462D02*
D03*
Y483062D02*
D03*
X279654Y508462D02*
D03*
Y483062D02*
D03*
X305054Y508462D02*
D03*
X178054Y25354D02*
D03*
X203454Y50754D02*
D03*
Y25354D02*
D03*
X228854Y50754D02*
D03*
Y25354D02*
D03*
X254254Y50754D02*
D03*
Y25354D02*
D03*
X279654Y50754D02*
D03*
Y25354D02*
D03*
X305054Y50754D02*
D03*
Y25354D02*
D03*
X330454Y50754D02*
D03*
Y25354D02*
D03*
X355854Y50754D02*
D03*
Y25354D02*
D03*
D95*
X739662Y402590D02*
D03*
X770382Y316484D02*
D03*
D96*
X375336Y342092D02*
D03*
X51372Y342392D02*
D03*
X215710D02*
D03*
X535602Y331064D02*
D03*
X395986Y50754D02*
D03*
X534416Y483062D02*
D03*
X305054D02*
D03*
X178054Y50754D02*
D03*
D97*
X799606Y208186D02*
D03*
Y291686D02*
D03*
D98*
X769606Y272186D02*
D03*
Y227686D02*
D03*
D99*
X653796Y299466D02*
D03*
X513758Y293032D02*
D03*
X653565Y343584D02*
D03*
X757682Y463550D02*
D03*
X742696Y457708D02*
D03*
X699008Y511668D02*
D03*
X734060Y444500D02*
D03*
X693095Y520954D02*
D03*
X701040Y495310D02*
D03*
X756666Y498602D02*
D03*
X688086Y502158D02*
D03*
X727202Y491490D02*
D03*
X697632Y401574D02*
D03*
X703850Y45212D02*
D03*
X70104Y497586D02*
D03*
X519176Y470362D02*
D03*
X663702Y513588D02*
D03*
X219456Y396240D02*
D03*
X574237Y506476D02*
D03*
X709676Y106426D02*
D03*
Y122345D02*
D03*
X774192Y126238D02*
D03*
X231086Y369783D02*
D03*
X474297Y320040D02*
D03*
X183388Y357486D02*
D03*
X65278Y31242D02*
D03*
X698754Y361188D02*
D03*
X683006Y367030D02*
D03*
X652632Y384556D02*
D03*
X363982Y112776D02*
D03*
X435102Y112224D02*
D03*
X768604Y196342D02*
D03*
X772160Y106934D02*
D03*
X702782Y132489D02*
D03*
X797559Y159432D02*
D03*
X115570Y209042D02*
D03*
X594724Y402052D02*
D03*
X545694Y387706D02*
D03*
X624332Y313182D02*
D03*
X646176Y83058D02*
D03*
X638556Y35560D02*
D03*
X508254Y82296D02*
D03*
X480822Y144018D02*
D03*
X499872Y128270D02*
D03*
X648208Y282702D02*
D03*
X646176Y261436D02*
D03*
X645668Y272288D02*
D03*
X549148Y360934D02*
D03*
X314198Y92964D02*
D03*
X302768D02*
D03*
X345186Y108458D02*
D03*
X327914Y144018D02*
D03*
X404954Y148258D02*
D03*
X411480Y128778D02*
D03*
X326390Y109728D02*
D03*
X256286Y92456D02*
D03*
X301244Y151130D02*
D03*
X251714Y154686D02*
D03*
X234442Y103632D02*
D03*
X233854Y114554D02*
D03*
X112014Y88646D02*
D03*
X115570Y103886D02*
D03*
X496570Y71374D02*
D03*
X561594Y12192D02*
D03*
X699262Y148082D02*
D03*
X189980Y101148D02*
D03*
X189902Y124976D02*
D03*
Y113284D02*
D03*
X25908Y82042D02*
D03*
X32258Y119126D02*
D03*
X638048Y206756D02*
D03*
X642366Y186690D02*
D03*
X659638Y474980D02*
D03*
X645414Y437134D02*
D03*
X649224Y450088D02*
D03*
X582676Y464644D02*
D03*
X621894Y215392D02*
D03*
X498094Y328422D02*
D03*
X504038Y342392D02*
D03*
X634760Y489358D02*
D03*
X759460Y349250D02*
D03*
Y360680D02*
D03*
X759206Y371856D02*
D03*
X101600Y123698D02*
D03*
X236982Y125730D02*
D03*
X47984Y76294D02*
D03*
X99822Y135628D02*
D03*
X182741Y174125D02*
D03*
X146038Y128786D02*
D03*
X143906Y116494D02*
D03*
X109728Y65786D02*
D03*
X109292Y50220D02*
D03*
X422622Y435818D02*
D03*
X567531Y139007D02*
D03*
X572008Y490220D02*
D03*
X634086Y506984D02*
D03*
X769380Y453418D02*
D03*
X602340Y150622D02*
D03*
X640944Y160376D02*
D03*
X778346Y439953D02*
D03*
X769634Y479580D02*
D03*
X232265Y216644D02*
D03*
X194120Y224563D02*
D03*
X315242Y219710D02*
D03*
X303530D02*
D03*
X261366Y216154D02*
D03*
X321056Y173482D02*
D03*
X644032Y477158D02*
D03*
X631078Y466998D02*
D03*
X709818Y435502D02*
D03*
X605932Y456838D02*
D03*
X571642Y472078D02*
D03*
X604916Y517471D02*
D03*
X342900Y357053D02*
D03*
X678256Y472374D02*
D03*
X671210Y455676D02*
D03*
X682894Y442722D02*
D03*
X11176Y353822D02*
D03*
X20516Y343916D02*
D03*
X338074Y345948D02*
D03*
X173990Y346456D02*
D03*
X480822Y170942D02*
D03*
X614994Y373440D02*
D03*
X614020Y395580D02*
D03*
X567284Y214224D02*
D03*
X514452Y213235D02*
D03*
X550284Y204318D02*
D03*
X578714Y204064D02*
D03*
X391228Y374418D02*
D03*
X631568Y414780D02*
D03*
X583816Y443818D02*
D03*
X542986Y443564D02*
D03*
X375966Y454868D02*
D03*
X452550Y148258D02*
D03*
X477774Y219710D02*
D03*
X464358Y219156D02*
D03*
X418338Y214122D02*
D03*
X410718Y225552D02*
D03*
X391368Y215092D02*
D03*
X354144Y228668D02*
D03*
X353382Y305748D02*
D03*
X454872Y383498D02*
D03*
X484298Y454740D02*
D03*
X451122Y406164D02*
D03*
X470548Y425082D02*
D03*
X378206Y395986D02*
D03*
X313754Y322008D02*
D03*
X291280Y407982D02*
D03*
X223371Y454406D02*
D03*
X262890D02*
D03*
X324866Y452628D02*
D03*
X311404Y423672D02*
D03*
X294594Y384002D02*
D03*
X406654Y72136D02*
D03*
X149606Y319024D02*
D03*
X129914Y385064D02*
D03*
X565404Y77216D02*
D03*
X649096Y124080D02*
D03*
X567182Y119888D02*
D03*
X116840Y150876D02*
D03*
X67264Y215138D02*
D03*
X29020Y224726D02*
D03*
X153416Y173736D02*
D03*
X150876Y214122D02*
D03*
X140462Y219202D02*
D03*
X53086Y455168D02*
D03*
X60960Y402082D02*
D03*
X99348Y455710D02*
D03*
X126942Y407416D02*
D03*
X147384Y427482D02*
D03*
X161290Y454742D02*
D03*
X28766Y304038D02*
D03*
X193358Y304356D02*
D03*
X251206Y227706D02*
D03*
X97854Y220096D02*
D03*
X87440Y226014D02*
D03*
X68390Y374350D02*
D03*
D100*
X97916Y474218D02*
D03*
X93416Y480218D02*
D03*
Y468218D02*
D03*
X102416D02*
D03*
Y480218D02*
D03*
X704850Y168656D02*
D03*
X741934Y116840D02*
D03*
X245872Y354335D02*
D03*
X402082Y352806D02*
D03*
X618744Y267440D02*
D03*
X459002Y278474D02*
D03*
X299410Y279146D02*
D03*
X134112Y278474D02*
D03*
X777748Y206756D02*
D03*
Y214884D02*
D03*
X778002Y296418D02*
D03*
Y288290D02*
D03*
X785622Y178054D02*
D03*
X769874Y296308D02*
D03*
Y288290D02*
D03*
X769620Y206756D02*
D03*
Y214774D02*
D03*
X742141Y186309D02*
D03*
X742188Y178054D02*
D03*
X721266Y231394D02*
D03*
X732188D02*
D03*
Y240030D02*
D03*
X721266Y239920D02*
D03*
X733552Y169799D02*
D03*
Y178054D02*
D03*
Y186436D02*
D03*
X750570Y169799D02*
D03*
Y178008D02*
D03*
Y186309D02*
D03*
X742188Y169799D02*
D03*
D101*
X643440Y370705D02*
D03*
X649940D02*
D03*
X656440D02*
D03*
X662940D02*
D03*
Y410599D02*
D03*
X656440D02*
D03*
X649940D02*
D03*
X643440D02*
D03*
D102*
X330500Y94204D02*
D03*
Y122204D02*
D03*
X342900Y432846D02*
D03*
Y404846D02*
D03*
X542544Y402052D02*
D03*
Y430052D02*
D03*
D103*
X333476Y133350D02*
D03*
X324476D02*
D03*
D104*
X288010Y141286D02*
D03*
X269010D02*
D03*
Y117286D02*
D03*
X278510D02*
D03*
X288010D02*
D03*
D105*
X189902Y113284D02*
D03*
D106*
X161402Y83994D02*
D03*
Y90494D02*
D03*
Y96994D02*
D03*
Y103494D02*
D03*
Y109994D02*
D03*
Y116494D02*
D03*
Y122994D02*
D03*
Y129494D02*
D03*
Y135994D02*
D03*
Y142494D02*
D03*
X218402Y83994D02*
D03*
Y90494D02*
D03*
Y96994D02*
D03*
Y103494D02*
D03*
Y109994D02*
D03*
Y116494D02*
D03*
Y122994D02*
D03*
Y129494D02*
D03*
Y135994D02*
D03*
D107*
Y142494D02*
D03*
D108*
X202796Y174125D02*
D03*
X217296D02*
D03*
D109*
X129274Y89024D02*
D03*
Y103524D02*
D03*
D110*
X62430Y73730D02*
D03*
X68930D02*
D03*
X75430D02*
D03*
X81930D02*
D03*
Y50870D02*
D03*
X75430D02*
D03*
X68930D02*
D03*
X62430D02*
D03*
D111*
X96818Y64220D02*
D03*
Y50220D02*
D03*
X50292Y37958D02*
D03*
Y51958D02*
D03*
X21710Y96336D02*
D03*
Y110336D02*
D03*
X87674Y133532D02*
D03*
Y147532D02*
D03*
X628948Y355204D02*
D03*
Y369204D02*
D03*
X81026Y435722D02*
D03*
Y449722D02*
D03*
D112*
X33984Y64078D02*
D03*
X47984D02*
D03*
X658988Y353822D02*
D03*
X672988D02*
D03*
X109412Y497586D02*
D03*
X123412D02*
D03*
D113*
X35350Y142188D02*
D03*
X48050D02*
D03*
X60750D02*
D03*
X73450D02*
D03*
X35350Y95188D02*
D03*
X48050D02*
D03*
X60750D02*
D03*
X73450D02*
D03*
D114*
X498856Y361442D02*
D03*
X473456D02*
D03*
X422656D02*
D03*
X498856Y455442D02*
D03*
X422656D02*
D03*
D115*
X362438Y431800D02*
D03*
X385338D02*
D03*
D116*
X720236Y445874D02*
D03*
X616350Y467356D02*
D03*
D117*
X715236Y445874D02*
D03*
X710236D02*
D03*
X705236D02*
D03*
X700236D02*
D03*
X695236D02*
D03*
Y483874D02*
D03*
X700236D02*
D03*
X705236D02*
D03*
X710236D02*
D03*
X715236D02*
D03*
X720236D02*
D03*
X611350Y467356D02*
D03*
X606350D02*
D03*
X601350D02*
D03*
X596350D02*
D03*
X591350D02*
D03*
Y505356D02*
D03*
X596350D02*
D03*
X601350D02*
D03*
X606350D02*
D03*
X611350D02*
D03*
X616350D02*
D03*
D118*
X688736Y452374D02*
D03*
Y457374D02*
D03*
Y462374D02*
D03*
Y467374D02*
D03*
Y472374D02*
D03*
Y477374D02*
D03*
X726736D02*
D03*
Y472374D02*
D03*
Y467374D02*
D03*
Y462374D02*
D03*
Y457374D02*
D03*
Y452374D02*
D03*
X584850Y473856D02*
D03*
Y478856D02*
D03*
Y483856D02*
D03*
Y488856D02*
D03*
Y493856D02*
D03*
Y498856D02*
D03*
X622850D02*
D03*
Y493856D02*
D03*
Y488856D02*
D03*
Y483856D02*
D03*
Y478856D02*
D03*
Y473856D02*
D03*
D119*
X707536Y464924D02*
D03*
X603650Y486406D02*
D03*
D120*
X687832Y419860D02*
D03*
Y387860D02*
D03*
D121*
X686562Y35349D02*
D03*
Y73449D02*
D03*
X661162Y35349D02*
D03*
Y73449D02*
D03*
X744220Y38354D02*
D03*
Y76454D02*
D03*
X718820Y38354D02*
D03*
Y76454D02*
D03*
D122*
X422148Y130302D02*
D03*
X428498D02*
D03*
X434848D02*
D03*
X441198D02*
D03*
X447548D02*
D03*
X453898D02*
D03*
X460248D02*
D03*
X466598D02*
D03*
X422148Y76302D02*
D03*
X428498D02*
D03*
X434848D02*
D03*
X441198D02*
D03*
X447548D02*
D03*
X453898D02*
D03*
X460248D02*
D03*
X576834Y131216D02*
D03*
X583184D02*
D03*
X589534D02*
D03*
X595884D02*
D03*
X602234D02*
D03*
X608584D02*
D03*
X614934D02*
D03*
X621284D02*
D03*
X576834Y77216D02*
D03*
X583184D02*
D03*
X589534D02*
D03*
X595884D02*
D03*
X602234D02*
D03*
X608584D02*
D03*
X614934D02*
D03*
D123*
X466598Y76302D02*
D03*
X621284Y77216D02*
D03*
D124*
X97916Y474218D02*
D03*
D125*
X121166Y464468D02*
D03*
Y470968D02*
D03*
Y477468D02*
D03*
X74666Y464468D02*
D03*
Y470968D02*
D03*
Y477468D02*
D03*
Y483968D02*
D03*
X121166D02*
D03*
D126*
X422656Y361442D02*
Y380746D01*
X398556Y404846D02*
X422656Y380746D01*
X674938Y375860D02*
X711006D01*
X657352Y393446D02*
X674938Y375860D01*
X629098Y393446D02*
X657352D01*
X711006Y375860D02*
X770382Y316484D01*
X542544Y430052D02*
X592492D01*
X629098Y393446D01*
X542544Y402052D02*
X594724D01*
X480822Y114022D02*
X485624D01*
X499872Y128270D01*
X342900Y404846D02*
X398556D01*
X392704Y455442D02*
X422656D01*
X385338Y448076D02*
X392704Y455442D01*
X385338Y431800D02*
Y448076D01*
X327914Y419832D02*
X342900Y404846D01*
X327914Y419832D02*
Y440182D01*
X334010Y446278D01*
Y511302D01*
X345312Y522604D01*
X365380D01*
X342900Y494746D02*
X356616Y508462D01*
X342900Y432846D02*
Y494746D01*
X365380Y522604D02*
X379522Y508462D01*
X382016D01*
X407416D01*
X342900Y432846D02*
X343946Y431800D01*
X362438D01*
X524226Y402052D02*
X542544D01*
X498856Y376682D02*
X524226Y402052D01*
X498856Y361442D02*
Y376682D01*
X522000Y430052D02*
X542544D01*
X473456Y381508D02*
X522000Y430052D01*
X473456Y361442D02*
Y381508D01*
M02*
