G04*
G04 #@! TF.GenerationSoftware,Altium Limited,Altium Designer,18.1.9 (240)*
G04*
G04 Layer_Color=2752767*
%FSLAX44Y44*%
%MOMM*%
G71*
G01*
G75*
%ADD151C,0.0508*%
%ADD152C,0.0677*%
D151*
X685800Y160020D02*
Y164084D01*
X689864D01*
Y160020D01*
X685800D01*
Y134620D02*
Y138684D01*
X689864D01*
Y134620D01*
X685800D01*
Y109220D02*
Y113284D01*
X689864D01*
Y109220D01*
X685800D01*
X712230Y400558D02*
Y404622D01*
X716294D01*
Y400558D01*
X712230D01*
X737630D02*
Y404622D01*
X741694D01*
Y400558D01*
X737630D01*
X799606Y206154D02*
X797574Y210218D01*
X801638D01*
X799606Y206154D01*
Y289654D02*
X797574Y293718D01*
X801638D01*
X799606Y289654D01*
X769606Y270154D02*
X770622Y271170D01*
X771638D01*
X770622Y272186D01*
X771638Y273202D01*
X770622D01*
X769606Y274218D01*
X768590Y273202D01*
X767574D01*
X768590Y272186D01*
X767574Y271170D01*
X768590D01*
X769606Y270154D01*
Y225654D02*
X770622Y226670D01*
X771638D01*
X770622Y227686D01*
X771638Y228702D01*
X770622D01*
X769606Y229718D01*
X768590Y228702D01*
X767574D01*
X768590Y227686D01*
X767574Y226670D01*
X768590D01*
X769606Y225654D01*
X768350Y314452D02*
Y318516D01*
X772414D01*
Y314452D01*
X768350D01*
X793750D02*
Y318516D01*
X797814D01*
Y314452D01*
X793750D01*
X651764Y297434D02*
X652780Y299466D01*
X651764Y301498D01*
X653796Y300482D01*
X655828Y301498D01*
X654812Y299466D01*
X655828Y297434D01*
X653796Y298450D01*
X651764Y297434D01*
X511726Y291000D02*
X512742Y293032D01*
X511726Y295064D01*
X513758Y294048D01*
X515790Y295064D01*
X514774Y293032D01*
X515790Y291000D01*
X513758Y292016D01*
X511726Y291000D01*
X651533Y341552D02*
X652549Y343584D01*
X651533Y345616D01*
X653565Y344600D01*
X655597Y345616D01*
X654581Y343584D01*
X655597Y341552D01*
X653565Y342568D01*
X651533Y341552D01*
X755650Y461518D02*
X756666Y463550D01*
X755650Y465582D01*
X757682Y464566D01*
X759714Y465582D01*
X758698Y463550D01*
X759714Y461518D01*
X757682Y462534D01*
X755650Y461518D01*
X740664Y455676D02*
X741680Y457708D01*
X740664Y459740D01*
X742696Y458724D01*
X744728Y459740D01*
X743712Y457708D01*
X744728Y455676D01*
X742696Y456692D01*
X740664Y455676D01*
X696976Y509636D02*
X697992Y511668D01*
X696976Y513700D01*
X699008Y512684D01*
X701040Y513700D01*
X700024Y511668D01*
X701040Y509636D01*
X699008Y510652D01*
X696976Y509636D01*
X732028Y442468D02*
X733044Y444500D01*
X732028Y446532D01*
X734060Y445516D01*
X736092Y446532D01*
X735076Y444500D01*
X736092Y442468D01*
X734060Y443484D01*
X732028Y442468D01*
X691063Y518922D02*
X692079Y520954D01*
X691063Y522986D01*
X693095Y521970D01*
X695127Y522986D01*
X694111Y520954D01*
X695127Y518922D01*
X693095Y519938D01*
X691063Y518922D01*
X699008Y493278D02*
X700024Y495310D01*
X699008Y497342D01*
X701040Y496326D01*
X703072Y497342D01*
X702056Y495310D01*
X703072Y493278D01*
X701040Y494294D01*
X699008Y493278D01*
X754634Y496570D02*
X755650Y498602D01*
X754634Y500634D01*
X756666Y499618D01*
X758698Y500634D01*
X757682Y498602D01*
X758698Y496570D01*
X756666Y497586D01*
X754634Y496570D01*
X686054Y500126D02*
X687070Y502158D01*
X686054Y504190D01*
X688086Y503174D01*
X690118Y504190D01*
X689102Y502158D01*
X690118Y500126D01*
X688086Y501142D01*
X686054Y500126D01*
X725170Y489458D02*
X726186Y491490D01*
X725170Y493522D01*
X727202Y492506D01*
X729234Y493522D01*
X728218Y491490D01*
X729234Y489458D01*
X727202Y490474D01*
X725170Y489458D01*
X695600Y399542D02*
X696616Y401574D01*
X695600Y403606D01*
X697632Y402590D01*
X699664Y403606D01*
X698648Y401574D01*
X699664Y399542D01*
X697632Y400558D01*
X695600Y399542D01*
X701818Y43180D02*
X702834Y45212D01*
X701818Y47244D01*
X703850Y46228D01*
X705882Y47244D01*
X704866Y45212D01*
X705882Y43180D01*
X703850Y44196D01*
X701818Y43180D01*
X68072Y495554D02*
X69088Y497586D01*
X68072Y499618D01*
X70104Y498602D01*
X72136Y499618D01*
X71120Y497586D01*
X72136Y495554D01*
X70104Y496570D01*
X68072Y495554D01*
X96900Y473202D02*
Y472186D01*
X98932D01*
Y473202D01*
X99948D01*
Y475234D01*
X98932D01*
Y476250D01*
X96900D01*
Y475234D01*
X95884D01*
Y473202D01*
X96900D01*
X92400Y479202D02*
Y478186D01*
X94432D01*
Y479202D01*
X95448D01*
Y481234D01*
X94432D01*
Y482250D01*
X92400D01*
Y481234D01*
X91384D01*
Y479202D01*
X92400D01*
Y467202D02*
Y466186D01*
X94432D01*
Y467202D01*
X95448D01*
Y469234D01*
X94432D01*
Y470250D01*
X92400D01*
Y469234D01*
X91384D01*
Y467202D01*
X92400D01*
X101400D02*
Y466186D01*
X103432D01*
Y467202D01*
X104448D01*
Y469234D01*
X103432D01*
Y470250D01*
X101400D01*
Y469234D01*
X100384D01*
Y467202D01*
X101400D01*
Y479202D02*
Y478186D01*
X103432D01*
Y479202D01*
X104448D01*
Y481234D01*
X103432D01*
Y482250D01*
X101400D01*
Y481234D01*
X100384D01*
Y479202D01*
X101400D01*
X702818Y166624D02*
X703834D01*
X704850Y167640D01*
X705866Y166624D01*
X706882D01*
Y167640D01*
X705866Y168656D01*
X706882Y169672D01*
Y170688D01*
X705866D01*
X704850Y169672D01*
X703834Y170688D01*
X702818D01*
Y169672D01*
X703834Y168656D01*
X702818Y167640D01*
Y166624D01*
X517144Y468330D02*
X518160Y470362D01*
X517144Y472394D01*
X519176Y471378D01*
X521208Y472394D01*
X520192Y470362D01*
X521208Y468330D01*
X519176Y469346D01*
X517144Y468330D01*
X661670Y511556D02*
X662686Y513588D01*
X661670Y515620D01*
X663702Y514604D01*
X665734Y515620D01*
X664718Y513588D01*
X665734Y511556D01*
X663702Y512572D01*
X661670Y511556D01*
X217424Y394208D02*
X218440Y396240D01*
X217424Y398272D01*
X219456Y397256D01*
X221488Y398272D01*
X220472Y396240D01*
X221488Y394208D01*
X219456Y395224D01*
X217424Y394208D01*
X572205Y504444D02*
X573221Y506476D01*
X572205Y508508D01*
X574237Y507492D01*
X576269Y508508D01*
X575253Y506476D01*
X576269Y504444D01*
X574237Y505460D01*
X572205Y504444D01*
X739902Y114808D02*
X740918D01*
X741934Y115824D01*
X742950Y114808D01*
X743966D01*
Y115824D01*
X742950Y116840D01*
X743966Y117856D01*
Y118872D01*
X742950D01*
X741934Y117856D01*
X740918Y118872D01*
X739902D01*
Y117856D01*
X740918Y116840D01*
X739902Y115824D01*
Y114808D01*
X707644Y104394D02*
X708660Y106426D01*
X707644Y108458D01*
X709676Y107442D01*
X711708Y108458D01*
X710692Y106426D01*
X711708Y104394D01*
X709676Y105410D01*
X707644Y104394D01*
Y120313D02*
X708660Y122345D01*
X707644Y124377D01*
X709676Y123361D01*
X711708Y124377D01*
X710692Y122345D01*
X711708Y120313D01*
X709676Y121329D01*
X707644Y120313D01*
X772160Y124206D02*
X773176Y126238D01*
X772160Y128270D01*
X774192Y127254D01*
X776224Y128270D01*
X775208Y126238D01*
X776224Y124206D01*
X774192Y125222D01*
X772160Y124206D01*
X229054Y367751D02*
X230070Y369783D01*
X229054Y371815D01*
X231086Y370799D01*
X233118Y371815D01*
X232102Y369783D01*
X233118Y367751D01*
X231086Y368767D01*
X229054Y367751D01*
X472265Y318008D02*
X473281Y320040D01*
X472265Y322072D01*
X474297Y321056D01*
X476329Y322072D01*
X475313Y320040D01*
X476329Y318008D01*
X474297Y319024D01*
X472265Y318008D01*
X181356Y355454D02*
X182372Y357486D01*
X181356Y359518D01*
X183388Y358502D01*
X185420Y359518D01*
X184404Y357486D01*
X185420Y355454D01*
X183388Y356470D01*
X181356Y355454D01*
X63246Y29210D02*
X64262Y31242D01*
X63246Y33274D01*
X65278Y32258D01*
X67310Y33274D01*
X66294Y31242D01*
X67310Y29210D01*
X65278Y30226D01*
X63246Y29210D01*
X696722Y359156D02*
X697738Y361188D01*
X696722Y363220D01*
X698754Y362204D01*
X700786Y363220D01*
X699770Y361188D01*
X700786Y359156D01*
X698754Y360172D01*
X696722Y359156D01*
X680974Y364998D02*
X681990Y367030D01*
X680974Y369062D01*
X683006Y368046D01*
X685038Y369062D01*
X684022Y367030D01*
X685038Y364998D01*
X683006Y366014D01*
X680974Y364998D01*
X650600Y382524D02*
X651616Y384556D01*
X650600Y386588D01*
X652632Y385572D01*
X654664Y386588D01*
X653648Y384556D01*
X654664Y382524D01*
X652632Y383540D01*
X650600Y382524D01*
X243840Y352303D02*
X244856D01*
X245872Y353319D01*
X246888Y352303D01*
X247904D01*
Y353319D01*
X246888Y354335D01*
X247904Y355351D01*
Y356367D01*
X246888D01*
X245872Y355351D01*
X244856Y356367D01*
X243840D01*
Y355351D01*
X244856Y354335D01*
X243840Y353319D01*
Y352303D01*
X400050Y350774D02*
X401066D01*
X402082Y351790D01*
X403098Y350774D01*
X404114D01*
Y351790D01*
X403098Y352806D01*
X404114Y353822D01*
Y354838D01*
X403098D01*
X402082Y353822D01*
X401066Y354838D01*
X400050D01*
Y353822D01*
X401066Y352806D01*
X400050Y351790D01*
Y350774D01*
X616712Y265408D02*
X617728D01*
X618744Y266424D01*
X619760Y265408D01*
X620776D01*
Y266424D01*
X619760Y267440D01*
X620776Y268456D01*
Y269472D01*
X619760D01*
X618744Y268456D01*
X617728Y269472D01*
X616712D01*
Y268456D01*
X617728Y267440D01*
X616712Y266424D01*
Y265408D01*
X456970Y276442D02*
X457986D01*
X459002Y277458D01*
X460018Y276442D01*
X461034D01*
Y277458D01*
X460018Y278474D01*
X461034Y279490D01*
Y280506D01*
X460018D01*
X459002Y279490D01*
X457986Y280506D01*
X456970D01*
Y279490D01*
X457986Y278474D01*
X456970Y277458D01*
Y276442D01*
X297378Y277114D02*
X298394D01*
X299410Y278130D01*
X300426Y277114D01*
X301442D01*
Y278130D01*
X300426Y279146D01*
X301442Y280162D01*
Y281178D01*
X300426D01*
X299410Y280162D01*
X298394Y281178D01*
X297378D01*
Y280162D01*
X298394Y279146D01*
X297378Y278130D01*
Y277114D01*
X132080Y276442D02*
X133096D01*
X134112Y277458D01*
X135128Y276442D01*
X136144D01*
Y277458D01*
X135128Y278474D01*
X136144Y279490D01*
Y280506D01*
X135128D01*
X134112Y279490D01*
X133096Y280506D01*
X132080D01*
Y279490D01*
X133096Y278474D01*
X132080Y277458D01*
Y276442D01*
X361950Y110744D02*
X362966Y112776D01*
X361950Y114808D01*
X363982Y113792D01*
X366014Y114808D01*
X364998Y112776D01*
X366014Y110744D01*
X363982Y111760D01*
X361950Y110744D01*
X433070Y110192D02*
X434086Y112224D01*
X433070Y114256D01*
X435102Y113240D01*
X437134Y114256D01*
X436118Y112224D01*
X437134Y110192D01*
X435102Y111208D01*
X433070Y110192D01*
X775716Y204724D02*
X776732D01*
X777748Y205740D01*
X778764Y204724D01*
X779780D01*
Y205740D01*
X778764Y206756D01*
X779780Y207772D01*
Y208788D01*
X778764D01*
X777748Y207772D01*
X776732Y208788D01*
X775716D01*
Y207772D01*
X776732Y206756D01*
X775716Y205740D01*
Y204724D01*
Y212852D02*
X776732D01*
X777748Y213868D01*
X778764Y212852D01*
X779780D01*
Y213868D01*
X778764Y214884D01*
X779780Y215900D01*
Y216916D01*
X778764D01*
X777748Y215900D01*
X776732Y216916D01*
X775716D01*
Y215900D01*
X776732Y214884D01*
X775716Y213868D01*
Y212852D01*
X775970Y294386D02*
X776986D01*
X778002Y295402D01*
X779018Y294386D01*
X780034D01*
Y295402D01*
X779018Y296418D01*
X780034Y297434D01*
Y298450D01*
X779018D01*
X778002Y297434D01*
X776986Y298450D01*
X775970D01*
Y297434D01*
X776986Y296418D01*
X775970Y295402D01*
Y294386D01*
Y286258D02*
X776986D01*
X778002Y287274D01*
X779018Y286258D01*
X780034D01*
Y287274D01*
X779018Y288290D01*
X780034Y289306D01*
Y290322D01*
X779018D01*
X778002Y289306D01*
X776986Y290322D01*
X775970D01*
Y289306D01*
X776986Y288290D01*
X775970Y287274D01*
Y286258D01*
X766572Y194310D02*
X767588Y196342D01*
X766572Y198374D01*
X768604Y197358D01*
X770636Y198374D01*
X769620Y196342D01*
X770636Y194310D01*
X768604Y195326D01*
X766572Y194310D01*
X770128Y104902D02*
X771144Y106934D01*
X770128Y108966D01*
X772160Y107950D01*
X774192Y108966D01*
X773176Y106934D01*
X774192Y104902D01*
X772160Y105918D01*
X770128Y104902D01*
X700750Y130457D02*
X701766Y132489D01*
X700750Y134521D01*
X702782Y133505D01*
X704814Y134521D01*
X703798Y132489D01*
X704814Y130457D01*
X702782Y131473D01*
X700750Y130457D01*
X795527Y157400D02*
X796543Y159432D01*
X795527Y161464D01*
X797559Y160448D01*
X799591Y161464D01*
X798575Y159432D01*
X799591Y157400D01*
X797559Y158416D01*
X795527Y157400D01*
X783590Y176022D02*
X784606D01*
X785622Y177038D01*
X786638Y176022D01*
X787654D01*
Y177038D01*
X786638Y178054D01*
X787654Y179070D01*
Y180086D01*
X786638D01*
X785622Y179070D01*
X784606Y180086D01*
X783590D01*
Y179070D01*
X784606Y178054D01*
X783590Y177038D01*
Y176022D01*
X113538Y207010D02*
X114554Y209042D01*
X113538Y211074D01*
X115570Y210058D01*
X117602Y211074D01*
X116586Y209042D01*
X117602Y207010D01*
X115570Y208026D01*
X113538Y207010D01*
X592692Y400020D02*
X593708Y402052D01*
X592692Y404084D01*
X594724Y403068D01*
X596756Y404084D01*
X595740Y402052D01*
X596756Y400020D01*
X594724Y401036D01*
X592692Y400020D01*
X543662Y385674D02*
X544678Y387706D01*
X543662Y389738D01*
X545694Y388722D01*
X547726Y389738D01*
X546710Y387706D01*
X547726Y385674D01*
X545694Y386690D01*
X543662Y385674D01*
X622300Y311150D02*
X623316Y313182D01*
X622300Y315214D01*
X624332Y314198D01*
X626364Y315214D01*
X625348Y313182D01*
X626364Y311150D01*
X624332Y312166D01*
X622300Y311150D01*
X644144Y81026D02*
X645160Y83058D01*
X644144Y85090D01*
X646176Y84074D01*
X648208Y85090D01*
X647192Y83058D01*
X648208Y81026D01*
X646176Y82042D01*
X644144Y81026D01*
X636524Y33528D02*
X637540Y35560D01*
X636524Y37592D01*
X638556Y36576D01*
X640588Y37592D01*
X639572Y35560D01*
X640588Y33528D01*
X638556Y34544D01*
X636524Y33528D01*
X506222Y80264D02*
X507238Y82296D01*
X506222Y84328D01*
X508254Y83312D01*
X510286Y84328D01*
X509270Y82296D01*
X510286Y80264D01*
X508254Y81280D01*
X506222Y80264D01*
X478790Y141986D02*
X479806Y144018D01*
X478790Y146050D01*
X480822Y145034D01*
X482854Y146050D01*
X481838Y144018D01*
X482854Y141986D01*
X480822Y143002D01*
X478790Y141986D01*
X497840Y126238D02*
X498856Y128270D01*
X497840Y130302D01*
X499872Y129286D01*
X501904Y130302D01*
X500888Y128270D01*
X501904Y126238D01*
X499872Y127254D01*
X497840Y126238D01*
X646176Y280670D02*
X647192Y282702D01*
X646176Y284734D01*
X648208Y283718D01*
X650240Y284734D01*
X649224Y282702D01*
X650240Y280670D01*
X648208Y281686D01*
X646176Y280670D01*
X644144Y259404D02*
X645160Y261436D01*
X644144Y263468D01*
X646176Y262452D01*
X648208Y263468D01*
X647192Y261436D01*
X648208Y259404D01*
X646176Y260420D01*
X644144Y259404D01*
X643636Y270256D02*
X644652Y272288D01*
X643636Y274320D01*
X645668Y273304D01*
X647700Y274320D01*
X646684Y272288D01*
X647700Y270256D01*
X645668Y271272D01*
X643636Y270256D01*
X547116Y358902D02*
X548132Y360934D01*
X547116Y362966D01*
X549148Y361950D01*
X551180Y362966D01*
X550164Y360934D01*
X551180Y358902D01*
X549148Y359918D01*
X547116Y358902D01*
X312166Y90932D02*
X313182Y92964D01*
X312166Y94996D01*
X314198Y93980D01*
X316230Y94996D01*
X315214Y92964D01*
X316230Y90932D01*
X314198Y91948D01*
X312166Y90932D01*
X300736D02*
X301752Y92964D01*
X300736Y94996D01*
X302768Y93980D01*
X304800Y94996D01*
X303784Y92964D01*
X304800Y90932D01*
X302768Y91948D01*
X300736Y90932D01*
X343154Y106426D02*
X344170Y108458D01*
X343154Y110490D01*
X345186Y109474D01*
X347218Y110490D01*
X346202Y108458D01*
X347218Y106426D01*
X345186Y107442D01*
X343154Y106426D01*
X325882Y141986D02*
X326898Y144018D01*
X325882Y146050D01*
X327914Y145034D01*
X329946Y146050D01*
X328930Y144018D01*
X329946Y141986D01*
X327914Y143002D01*
X325882Y141986D01*
X402922Y146226D02*
X403938Y148258D01*
X402922Y150290D01*
X404954Y149274D01*
X406986Y150290D01*
X405970Y148258D01*
X406986Y146226D01*
X404954Y147242D01*
X402922Y146226D01*
X409448Y126746D02*
X410464Y128778D01*
X409448Y130810D01*
X411480Y129794D01*
X413512Y130810D01*
X412496Y128778D01*
X413512Y126746D01*
X411480Y127762D01*
X409448Y126746D01*
X324358Y107696D02*
X325374Y109728D01*
X324358Y111760D01*
X326390Y110744D01*
X328422Y111760D01*
X327406Y109728D01*
X328422Y107696D01*
X326390Y108712D01*
X324358Y107696D01*
X254254Y90424D02*
X255270Y92456D01*
X254254Y94488D01*
X256286Y93472D01*
X258318Y94488D01*
X257302Y92456D01*
X258318Y90424D01*
X256286Y91440D01*
X254254Y90424D01*
X299212Y149098D02*
X300228Y151130D01*
X299212Y153162D01*
X301244Y152146D01*
X303276Y153162D01*
X302260Y151130D01*
X303276Y149098D01*
X301244Y150114D01*
X299212Y149098D01*
X249682Y152654D02*
X250698Y154686D01*
X249682Y156718D01*
X251714Y155702D01*
X253746Y156718D01*
X252730Y154686D01*
X253746Y152654D01*
X251714Y153670D01*
X249682Y152654D01*
X232410Y101600D02*
X233426Y103632D01*
X232410Y105664D01*
X234442Y104648D01*
X236474Y105664D01*
X235458Y103632D01*
X236474Y101600D01*
X234442Y102616D01*
X232410Y101600D01*
X231822Y112522D02*
X232838Y114554D01*
X231822Y116586D01*
X233854Y115570D01*
X235886Y116586D01*
X234870Y114554D01*
X235886Y112522D01*
X233854Y113538D01*
X231822Y112522D01*
X109982Y86614D02*
X110998Y88646D01*
X109982Y90678D01*
X112014Y89662D01*
X114046Y90678D01*
X113030Y88646D01*
X114046Y86614D01*
X112014Y87630D01*
X109982Y86614D01*
X113538Y101854D02*
X114554Y103886D01*
X113538Y105918D01*
X115570Y104902D01*
X117602Y105918D01*
X116586Y103886D01*
X117602Y101854D01*
X115570Y102870D01*
X113538Y101854D01*
X494538Y69342D02*
X495554Y71374D01*
X494538Y73406D01*
X496570Y72390D01*
X498602Y73406D01*
X497586Y71374D01*
X498602Y69342D01*
X496570Y70358D01*
X494538Y69342D01*
X559562Y10160D02*
X560578Y12192D01*
X559562Y14224D01*
X561594Y13208D01*
X563626Y14224D01*
X562610Y12192D01*
X563626Y10160D01*
X561594Y11176D01*
X559562Y10160D01*
X697230Y146050D02*
X698246Y148082D01*
X697230Y150114D01*
X699262Y149098D01*
X701294Y150114D01*
X700278Y148082D01*
X701294Y146050D01*
X699262Y147066D01*
X697230Y146050D01*
X187948Y99116D02*
X188964Y101148D01*
X187948Y103180D01*
X189980Y102164D01*
X192012Y103180D01*
X190996Y101148D01*
X192012Y99116D01*
X189980Y100132D01*
X187948Y99116D01*
X187870Y122944D02*
X188886Y124976D01*
X187870Y127008D01*
X189902Y125992D01*
X191934Y127008D01*
X190918Y124976D01*
X191934Y122944D01*
X189902Y123960D01*
X187870Y122944D01*
Y111252D02*
X188886Y113284D01*
X187870Y115316D01*
X189902Y114300D01*
X191934Y115316D01*
X190918Y113284D01*
X191934Y111252D01*
X189902Y112268D01*
X187870Y111252D01*
X23876Y80010D02*
X24892Y82042D01*
X23876Y84074D01*
X25908Y83058D01*
X27940Y84074D01*
X26924Y82042D01*
X27940Y80010D01*
X25908Y81026D01*
X23876Y80010D01*
X30226Y117094D02*
X31242Y119126D01*
X30226Y121158D01*
X32258Y120142D01*
X34290Y121158D01*
X33274Y119126D01*
X34290Y117094D01*
X32258Y118110D01*
X30226Y117094D01*
X636016Y204724D02*
X637032Y206756D01*
X636016Y208788D01*
X638048Y207772D01*
X640080Y208788D01*
X639064Y206756D01*
X640080Y204724D01*
X638048Y205740D01*
X636016Y204724D01*
X640334Y184658D02*
X641350Y186690D01*
X640334Y188722D01*
X642366Y187706D01*
X644398Y188722D01*
X643382Y186690D01*
X644398Y184658D01*
X642366Y185674D01*
X640334Y184658D01*
X657606Y472948D02*
X658622Y474980D01*
X657606Y477012D01*
X659638Y475996D01*
X661670Y477012D01*
X660654Y474980D01*
X661670Y472948D01*
X659638Y473964D01*
X657606Y472948D01*
X643382Y435102D02*
X644398Y437134D01*
X643382Y439166D01*
X645414Y438150D01*
X647446Y439166D01*
X646430Y437134D01*
X647446Y435102D01*
X645414Y436118D01*
X643382Y435102D01*
X647192Y448056D02*
X648208Y450088D01*
X647192Y452120D01*
X649224Y451104D01*
X651256Y452120D01*
X650240Y450088D01*
X651256Y448056D01*
X649224Y449072D01*
X647192Y448056D01*
X580644Y462612D02*
X581660Y464644D01*
X580644Y466676D01*
X582676Y465660D01*
X584708Y466676D01*
X583692Y464644D01*
X584708Y462612D01*
X582676Y463628D01*
X580644Y462612D01*
X767842Y294276D02*
X768858D01*
X769874Y295292D01*
X770890Y294276D01*
X771906D01*
Y295292D01*
X770890Y296308D01*
X771906Y297324D01*
Y298340D01*
X770890D01*
X769874Y297324D01*
X768858Y298340D01*
X767842D01*
Y297324D01*
X768858Y296308D01*
X767842Y295292D01*
Y294276D01*
Y286258D02*
X768858D01*
X769874Y287274D01*
X770890Y286258D01*
X771906D01*
Y287274D01*
X770890Y288290D01*
X771906Y289306D01*
Y290322D01*
X770890D01*
X769874Y289306D01*
X768858Y290322D01*
X767842D01*
Y289306D01*
X768858Y288290D01*
X767842Y287274D01*
Y286258D01*
X767588Y204724D02*
X768604D01*
X769620Y205740D01*
X770636Y204724D01*
X771652D01*
Y205740D01*
X770636Y206756D01*
X771652Y207772D01*
Y208788D01*
X770636D01*
X769620Y207772D01*
X768604Y208788D01*
X767588D01*
Y207772D01*
X768604Y206756D01*
X767588Y205740D01*
Y204724D01*
Y212742D02*
X768604D01*
X769620Y213758D01*
X770636Y212742D01*
X771652D01*
Y213758D01*
X770636Y214774D01*
X771652Y215790D01*
Y216806D01*
X770636D01*
X769620Y215790D01*
X768604Y216806D01*
X767588D01*
Y215790D01*
X768604Y214774D01*
X767588Y213758D01*
Y212742D01*
X619862Y213360D02*
X620878Y215392D01*
X619862Y217424D01*
X621894Y216408D01*
X623926Y217424D01*
X622910Y215392D01*
X623926Y213360D01*
X621894Y214376D01*
X619862Y213360D01*
X496062Y326390D02*
X497078Y328422D01*
X496062Y330454D01*
X498094Y329438D01*
X500126Y330454D01*
X499110Y328422D01*
X500126Y326390D01*
X498094Y327406D01*
X496062Y326390D01*
X502006Y340360D02*
X503022Y342392D01*
X502006Y344424D01*
X504038Y343408D01*
X506070Y344424D01*
X505054Y342392D01*
X506070Y340360D01*
X504038Y341376D01*
X502006Y340360D01*
X632728Y487326D02*
X633744Y489358D01*
X632728Y491390D01*
X634760Y490374D01*
X636792Y491390D01*
X635776Y489358D01*
X636792Y487326D01*
X634760Y488342D01*
X632728Y487326D01*
X740109Y184277D02*
X741125D01*
X742141Y185293D01*
X743157Y184277D01*
X744173D01*
Y185293D01*
X743157Y186309D01*
X744173Y187325D01*
Y188341D01*
X743157D01*
X742141Y187325D01*
X741125Y188341D01*
X740109D01*
Y187325D01*
X741125Y186309D01*
X740109Y185293D01*
Y184277D01*
X740156Y176022D02*
X741172D01*
X742188Y177038D01*
X743204Y176022D01*
X744220D01*
Y177038D01*
X743204Y178054D01*
X744220Y179070D01*
Y180086D01*
X743204D01*
X742188Y179070D01*
X741172Y180086D01*
X740156D01*
Y179070D01*
X741172Y178054D01*
X740156Y177038D01*
Y176022D01*
X757428Y347218D02*
X758444Y349250D01*
X757428Y351282D01*
X759460Y350266D01*
X761492Y351282D01*
X760476Y349250D01*
X761492Y347218D01*
X759460Y348234D01*
X757428Y347218D01*
Y358648D02*
X758444Y360680D01*
X757428Y362712D01*
X759460Y361696D01*
X761492Y362712D01*
X760476Y360680D01*
X761492Y358648D01*
X759460Y359664D01*
X757428Y358648D01*
X757174Y369824D02*
X758190Y371856D01*
X757174Y373888D01*
X759206Y372872D01*
X761238Y373888D01*
X760222Y371856D01*
X761238Y369824D01*
X759206Y370840D01*
X757174Y369824D01*
X99568Y121666D02*
X100584Y123698D01*
X99568Y125730D01*
X101600Y124714D01*
X103632Y125730D01*
X102616Y123698D01*
X103632Y121666D01*
X101600Y122682D01*
X99568Y121666D01*
X234950Y123698D02*
X235966Y125730D01*
X234950Y127762D01*
X236982Y126746D01*
X239014Y127762D01*
X237998Y125730D01*
X239014Y123698D01*
X236982Y124714D01*
X234950Y123698D01*
X45952Y74262D02*
X46968Y76294D01*
X45952Y78326D01*
X47984Y77310D01*
X50016Y78326D01*
X49000Y76294D01*
X50016Y74262D01*
X47984Y75278D01*
X45952Y74262D01*
X97790Y133596D02*
X98806Y135628D01*
X97790Y137660D01*
X99822Y136644D01*
X101854Y137660D01*
X100838Y135628D01*
X101854Y133596D01*
X99822Y134612D01*
X97790Y133596D01*
X180709Y172093D02*
X181725Y174125D01*
X180709Y176157D01*
X182741Y175141D01*
X184773Y176157D01*
X183757Y174125D01*
X184773Y172093D01*
X182741Y173109D01*
X180709Y172093D01*
X144006Y126754D02*
X145022Y128786D01*
X144006Y130818D01*
X146038Y129802D01*
X148070Y130818D01*
X147054Y128786D01*
X148070Y126754D01*
X146038Y127770D01*
X144006Y126754D01*
X141874Y114462D02*
X142890Y116494D01*
X141874Y118526D01*
X143906Y117510D01*
X145938Y118526D01*
X144922Y116494D01*
X145938Y114462D01*
X143906Y115478D01*
X141874Y114462D01*
X107696Y63754D02*
X108712Y65786D01*
X107696Y67818D01*
X109728Y66802D01*
X111760Y67818D01*
X110744Y65786D01*
X111760Y63754D01*
X109728Y64770D01*
X107696Y63754D01*
X107260Y48188D02*
X108276Y50220D01*
X107260Y52252D01*
X109292Y51236D01*
X111324Y52252D01*
X110308Y50220D01*
X111324Y48188D01*
X109292Y49204D01*
X107260Y48188D01*
X420590Y433786D02*
X421606Y435818D01*
X420590Y437850D01*
X422622Y436834D01*
X424654Y437850D01*
X423638Y435818D01*
X424654Y433786D01*
X422622Y434802D01*
X420590Y433786D01*
X565499Y136975D02*
X566515Y139007D01*
X565499Y141039D01*
X567531Y140023D01*
X569563Y141039D01*
X568547Y139007D01*
X569563Y136975D01*
X567531Y137991D01*
X565499Y136975D01*
X569976Y488188D02*
X570992Y490220D01*
X569976Y492252D01*
X572008Y491236D01*
X574040Y492252D01*
X573024Y490220D01*
X574040Y488188D01*
X572008Y489204D01*
X569976Y488188D01*
X632054Y504952D02*
X633070Y506984D01*
X632054Y509016D01*
X634086Y508000D01*
X636118Y509016D01*
X635102Y506984D01*
X636118Y504952D01*
X634086Y505968D01*
X632054Y504952D01*
X767348Y451386D02*
X768364Y453418D01*
X767348Y455450D01*
X769380Y454434D01*
X771412Y455450D01*
X770396Y453418D01*
X771412Y451386D01*
X769380Y452402D01*
X767348Y451386D01*
X600308Y148590D02*
X601324Y150622D01*
X600308Y152654D01*
X602340Y151638D01*
X604372Y152654D01*
X603356Y150622D01*
X604372Y148590D01*
X602340Y149606D01*
X600308Y148590D01*
X638912Y158344D02*
X639928Y160376D01*
X638912Y162408D01*
X640944Y161392D01*
X642976Y162408D01*
X641960Y160376D01*
X642976Y158344D01*
X640944Y159360D01*
X638912Y158344D01*
X776314Y437921D02*
X777330Y439953D01*
X776314Y441985D01*
X778346Y440969D01*
X780378Y441985D01*
X779362Y439953D01*
X780378Y437921D01*
X778346Y438937D01*
X776314Y437921D01*
X767602Y477548D02*
X768618Y479580D01*
X767602Y481612D01*
X769634Y480596D01*
X771666Y481612D01*
X770650Y479580D01*
X771666Y477548D01*
X769634Y478564D01*
X767602Y477548D01*
X230233Y214612D02*
X231250Y216644D01*
X230233Y218676D01*
X232265Y217660D01*
X234298Y218676D01*
X233281Y216644D01*
X234298Y214612D01*
X232265Y215628D01*
X230233Y214612D01*
X192088Y222531D02*
X193104Y224563D01*
X192088Y226595D01*
X194120Y225579D01*
X196152Y226595D01*
X195136Y224563D01*
X196152Y222531D01*
X194120Y223547D01*
X192088Y222531D01*
X313210Y217678D02*
X314226Y219710D01*
X313210Y221742D01*
X315242Y220726D01*
X317274Y221742D01*
X316258Y219710D01*
X317274Y217678D01*
X315242Y218694D01*
X313210Y217678D01*
X301498D02*
X302514Y219710D01*
X301498Y221742D01*
X303530Y220726D01*
X305562Y221742D01*
X304546Y219710D01*
X305562Y217678D01*
X303530Y218694D01*
X301498Y217678D01*
X259334Y214122D02*
X260350Y216154D01*
X259334Y218186D01*
X261366Y217170D01*
X263398Y218186D01*
X262382Y216154D01*
X263398Y214122D01*
X261366Y215138D01*
X259334Y214122D01*
X319024Y171450D02*
X320040Y173482D01*
X319024Y175514D01*
X321056Y174498D01*
X323088Y175514D01*
X322072Y173482D01*
X323088Y171450D01*
X321056Y172466D01*
X319024Y171450D01*
X642000Y475126D02*
X643016Y477158D01*
X642000Y479190D01*
X644032Y478174D01*
X646064Y479190D01*
X645048Y477158D01*
X646064Y475126D01*
X644032Y476142D01*
X642000Y475126D01*
X629046Y464966D02*
X630062Y466998D01*
X629046Y469030D01*
X631078Y468014D01*
X633110Y469030D01*
X632094Y466998D01*
X633110Y464966D01*
X631078Y465982D01*
X629046Y464966D01*
X707786Y433470D02*
X708802Y435502D01*
X707786Y437534D01*
X709818Y436518D01*
X711850Y437534D01*
X710834Y435502D01*
X711850Y433470D01*
X709818Y434486D01*
X707786Y433470D01*
X603900Y454806D02*
X604916Y456838D01*
X603900Y458870D01*
X605932Y457854D01*
X607964Y458870D01*
X606948Y456838D01*
X607964Y454806D01*
X605932Y455822D01*
X603900Y454806D01*
X569610Y470046D02*
X570626Y472078D01*
X569610Y474110D01*
X571642Y473094D01*
X573674Y474110D01*
X572658Y472078D01*
X573674Y470046D01*
X571642Y471062D01*
X569610Y470046D01*
X602884Y515439D02*
X603900Y517471D01*
X602884Y519503D01*
X604916Y518487D01*
X606948Y519503D01*
X605932Y517471D01*
X606948Y515439D01*
X604916Y516455D01*
X602884Y515439D01*
X340868Y355021D02*
X341884Y357053D01*
X340868Y359085D01*
X342900Y358069D01*
X344932Y359085D01*
X343916Y357053D01*
X344932Y355021D01*
X342900Y356037D01*
X340868Y355021D01*
X676224Y470342D02*
X677240Y472374D01*
X676224Y474406D01*
X678256Y473390D01*
X680288Y474406D01*
X679272Y472374D01*
X680288Y470342D01*
X678256Y471358D01*
X676224Y470342D01*
X669178Y453644D02*
X670194Y455676D01*
X669178Y457708D01*
X671210Y456692D01*
X673242Y457708D01*
X672226Y455676D01*
X673242Y453644D01*
X671210Y454660D01*
X669178Y453644D01*
X680862Y440690D02*
X681878Y442722D01*
X680862Y444754D01*
X682894Y443738D01*
X684926Y444754D01*
X683910Y442722D01*
X684926Y440690D01*
X682894Y441706D01*
X680862Y440690D01*
X9144Y351790D02*
X10160Y353822D01*
X9144Y355854D01*
X11176Y354838D01*
X13208Y355854D01*
X12192Y353822D01*
X13208Y351790D01*
X11176Y352806D01*
X9144Y351790D01*
X18484Y341884D02*
X19500Y343916D01*
X18484Y345948D01*
X20516Y344932D01*
X22548Y345948D01*
X21532Y343916D01*
X22548Y341884D01*
X20516Y342900D01*
X18484Y341884D01*
X336042Y343916D02*
X337058Y345948D01*
X336042Y347980D01*
X338074Y346964D01*
X340106Y347980D01*
X339090Y345948D01*
X340106Y343916D01*
X338074Y344932D01*
X336042Y343916D01*
X171958Y344424D02*
X172974Y346456D01*
X171958Y348488D01*
X173990Y347472D01*
X176022Y348488D01*
X175006Y346456D01*
X176022Y344424D01*
X173990Y345440D01*
X171958Y344424D01*
X478790Y168910D02*
X479806Y170942D01*
X478790Y172974D01*
X480822Y171958D01*
X482854Y172974D01*
X481838Y170942D01*
X482854Y168910D01*
X480822Y169926D01*
X478790Y168910D01*
X719234Y229362D02*
X720250D01*
X721266Y230378D01*
X722282Y229362D01*
X723298D01*
Y230378D01*
X722282Y231394D01*
X723298Y232410D01*
Y233426D01*
X722282D01*
X721266Y232410D01*
X720250Y233426D01*
X719234D01*
Y232410D01*
X720250Y231394D01*
X719234Y230378D01*
Y229362D01*
X730156D02*
X731172D01*
X732188Y230378D01*
X733204Y229362D01*
X734220D01*
Y230378D01*
X733204Y231394D01*
X734220Y232410D01*
Y233426D01*
X733204D01*
X732188Y232410D01*
X731172Y233426D01*
X730156D01*
Y232410D01*
X731172Y231394D01*
X730156Y230378D01*
Y229362D01*
Y237998D02*
X731172D01*
X732188Y239014D01*
X733204Y237998D01*
X734220D01*
Y239014D01*
X733204Y240030D01*
X734220Y241046D01*
Y242062D01*
X733204D01*
X732188Y241046D01*
X731172Y242062D01*
X730156D01*
Y241046D01*
X731172Y240030D01*
X730156Y239014D01*
Y237998D01*
X719234Y237888D02*
X720250D01*
X721266Y238904D01*
X722282Y237888D01*
X723298D01*
Y238904D01*
X722282Y239920D01*
X723298Y240936D01*
Y241952D01*
X722282D01*
X721266Y240936D01*
X720250Y241952D01*
X719234D01*
Y240936D01*
X720250Y239920D01*
X719234Y238904D01*
Y237888D01*
X731520Y167767D02*
X732536D01*
X733552Y168783D01*
X734568Y167767D01*
X735584D01*
Y168783D01*
X734568Y169799D01*
X735584Y170815D01*
Y171831D01*
X734568D01*
X733552Y170815D01*
X732536Y171831D01*
X731520D01*
Y170815D01*
X732536Y169799D01*
X731520Y168783D01*
Y167767D01*
Y176022D02*
X732536D01*
X733552Y177038D01*
X734568Y176022D01*
X735584D01*
Y177038D01*
X734568Y178054D01*
X735584Y179070D01*
Y180086D01*
X734568D01*
X733552Y179070D01*
X732536Y180086D01*
X731520D01*
Y179070D01*
X732536Y178054D01*
X731520Y177038D01*
Y176022D01*
Y184404D02*
X732536D01*
X733552Y185420D01*
X734568Y184404D01*
X735584D01*
Y185420D01*
X734568Y186436D01*
X735584Y187452D01*
Y188468D01*
X734568D01*
X733552Y187452D01*
X732536Y188468D01*
X731520D01*
Y187452D01*
X732536Y186436D01*
X731520Y185420D01*
Y184404D01*
X748538Y167767D02*
X749554D01*
X750570Y168783D01*
X751586Y167767D01*
X752602D01*
Y168783D01*
X751586Y169799D01*
X752602Y170815D01*
Y171831D01*
X751586D01*
X750570Y170815D01*
X749554Y171831D01*
X748538D01*
Y170815D01*
X749554Y169799D01*
X748538Y168783D01*
Y167767D01*
Y175976D02*
X749554D01*
X750570Y176992D01*
X751586Y175976D01*
X752602D01*
Y176992D01*
X751586Y178008D01*
X752602Y179024D01*
Y180040D01*
X751586D01*
X750570Y179024D01*
X749554Y180040D01*
X748538D01*
Y179024D01*
X749554Y178008D01*
X748538Y176992D01*
Y175976D01*
Y184277D02*
X749554D01*
X750570Y185293D01*
X751586Y184277D01*
X752602D01*
Y185293D01*
X751586Y186309D01*
X752602Y187325D01*
Y188341D01*
X751586D01*
X750570Y187325D01*
X749554Y188341D01*
X748538D01*
Y187325D01*
X749554Y186309D01*
X748538Y185293D01*
Y184277D01*
X740156Y167767D02*
X741172D01*
X742188Y168783D01*
X743204Y167767D01*
X744220D01*
Y168783D01*
X743204Y169799D01*
X744220Y170815D01*
Y171831D01*
X743204D01*
X742188Y170815D01*
X741172Y171831D01*
X740156D01*
Y170815D01*
X741172Y169799D01*
X740156Y168783D01*
Y167767D01*
X612962Y371408D02*
X613978Y373440D01*
X612962Y375472D01*
X614994Y374456D01*
X617026Y375472D01*
X616010Y373440D01*
X617026Y371408D01*
X614994Y372424D01*
X612962Y371408D01*
X611988Y393548D02*
X613004Y395580D01*
X611988Y397612D01*
X614020Y396596D01*
X616052Y397612D01*
X615036Y395580D01*
X616052Y393548D01*
X614020Y394564D01*
X611988Y393548D01*
X565252Y212192D02*
X566268Y214224D01*
X565252Y216256D01*
X567284Y215240D01*
X569316Y216256D01*
X568300Y214224D01*
X569316Y212192D01*
X567284Y213208D01*
X565252Y212192D01*
X512420Y211203D02*
X513436Y213235D01*
X512420Y215267D01*
X514452Y214251D01*
X516484Y215267D01*
X515468Y213235D01*
X516484Y211203D01*
X514452Y212219D01*
X512420Y211203D01*
X548252Y202286D02*
X549268Y204318D01*
X548252Y206350D01*
X550284Y205334D01*
X552316Y206350D01*
X551300Y204318D01*
X552316Y202286D01*
X550284Y203302D01*
X548252Y202286D01*
X576682Y202032D02*
X577698Y204064D01*
X576682Y206096D01*
X578714Y205080D01*
X580746Y206096D01*
X579730Y204064D01*
X580746Y202032D01*
X578714Y203048D01*
X576682Y202032D01*
X389196Y372386D02*
X390212Y374418D01*
X389196Y376450D01*
X391228Y375434D01*
X393260Y376450D01*
X392244Y374418D01*
X393260Y372386D01*
X391228Y373402D01*
X389196Y372386D01*
X629536Y412748D02*
X630552Y414780D01*
X629536Y416812D01*
X631568Y415796D01*
X633600Y416812D01*
X632584Y414780D01*
X633600Y412748D01*
X631568Y413764D01*
X629536Y412748D01*
X581784Y441786D02*
X582800Y443818D01*
X581784Y445850D01*
X583816Y444834D01*
X585848Y445850D01*
X584832Y443818D01*
X585848Y441786D01*
X583816Y442802D01*
X581784Y441786D01*
X540955Y441532D02*
X541970Y443564D01*
X540955Y445596D01*
X542986Y444580D01*
X545019Y445596D01*
X544002Y443564D01*
X545019Y441532D01*
X542986Y442548D01*
X540955Y441532D01*
X373934Y452836D02*
X374950Y454868D01*
X373934Y456900D01*
X375966Y455884D01*
X377998Y456900D01*
X376982Y454868D01*
X377998Y452836D01*
X375966Y453852D01*
X373934Y452836D01*
X450518Y146226D02*
X451534Y148258D01*
X450518Y150290D01*
X452550Y149274D01*
X454582Y150290D01*
X453566Y148258D01*
X454582Y146226D01*
X452550Y147242D01*
X450518Y146226D01*
X475742Y217678D02*
X476758Y219710D01*
X475742Y221742D01*
X477774Y220726D01*
X479806Y221742D01*
X478790Y219710D01*
X479806Y217678D01*
X477774Y218694D01*
X475742Y217678D01*
X462326Y217124D02*
X463342Y219156D01*
X462326Y221188D01*
X464358Y220172D01*
X466390Y221188D01*
X465374Y219156D01*
X466390Y217124D01*
X464358Y218140D01*
X462326Y217124D01*
X416306Y212090D02*
X417322Y214122D01*
X416306Y216154D01*
X418338Y215138D01*
X420370Y216154D01*
X419354Y214122D01*
X420370Y212090D01*
X418338Y213106D01*
X416306Y212090D01*
X408686Y223520D02*
X409702Y225552D01*
X408686Y227584D01*
X410718Y226568D01*
X412750Y227584D01*
X411734Y225552D01*
X412750Y223520D01*
X410718Y224536D01*
X408686Y223520D01*
X389336Y213060D02*
X390352Y215092D01*
X389336Y217124D01*
X391368Y216108D01*
X393400Y217124D01*
X392384Y215092D01*
X393400Y213060D01*
X391368Y214076D01*
X389336Y213060D01*
X352112Y226636D02*
X353128Y228668D01*
X352112Y230700D01*
X354144Y229684D01*
X356176Y230700D01*
X355160Y228668D01*
X356176Y226636D01*
X354144Y227652D01*
X352112Y226636D01*
X351350Y303716D02*
X352366Y305748D01*
X351350Y307780D01*
X353382Y306764D01*
X355414Y307780D01*
X354398Y305748D01*
X355414Y303716D01*
X353382Y304732D01*
X351350Y303716D01*
X452840Y381466D02*
X453856Y383498D01*
X452840Y385530D01*
X454872Y384514D01*
X456904Y385530D01*
X455888Y383498D01*
X456904Y381466D01*
X454872Y382482D01*
X452840Y381466D01*
X482266Y452708D02*
X483282Y454740D01*
X482266Y456772D01*
X484298Y455756D01*
X486330Y456772D01*
X485314Y454740D01*
X486330Y452708D01*
X484298Y453724D01*
X482266Y452708D01*
X449090Y404132D02*
X450106Y406164D01*
X449090Y408196D01*
X451122Y407180D01*
X453154Y408196D01*
X452138Y406164D01*
X453154Y404132D01*
X451122Y405148D01*
X449090Y404132D01*
X468516Y423050D02*
X469532Y425082D01*
X468516Y427114D01*
X470548Y426098D01*
X472580Y427114D01*
X471564Y425082D01*
X472580Y423050D01*
X470548Y424066D01*
X468516Y423050D01*
X376174Y393954D02*
X377190Y395986D01*
X376174Y398018D01*
X378206Y397002D01*
X380238Y398018D01*
X379222Y395986D01*
X380238Y393954D01*
X378206Y394970D01*
X376174Y393954D01*
X311722Y319976D02*
X312738Y322008D01*
X311722Y324040D01*
X313754Y323024D01*
X315786Y324040D01*
X314770Y322008D01*
X315786Y319976D01*
X313754Y320992D01*
X311722Y319976D01*
X289248Y405950D02*
X290264Y407982D01*
X289248Y410014D01*
X291280Y408998D01*
X293312Y410014D01*
X292296Y407982D01*
X293312Y405950D01*
X291280Y406966D01*
X289248Y405950D01*
X221339Y452374D02*
X222355Y454406D01*
X221339Y456438D01*
X223371Y455422D01*
X225403Y456438D01*
X224387Y454406D01*
X225403Y452374D01*
X223371Y453390D01*
X221339Y452374D01*
X260858D02*
X261874Y454406D01*
X260858Y456438D01*
X262890Y455422D01*
X264922Y456438D01*
X263906Y454406D01*
X264922Y452374D01*
X262890Y453390D01*
X260858Y452374D01*
X322834Y450596D02*
X323850Y452628D01*
X322834Y454660D01*
X324866Y453644D01*
X326898Y454660D01*
X325882Y452628D01*
X326898Y450596D01*
X324866Y451612D01*
X322834Y450596D01*
X309372Y421640D02*
X310388Y423672D01*
X309372Y425704D01*
X311404Y424688D01*
X313436Y425704D01*
X312420Y423672D01*
X313436Y421640D01*
X311404Y422656D01*
X309372Y421640D01*
X292562Y381970D02*
X293578Y384002D01*
X292562Y386034D01*
X294594Y385018D01*
X296626Y386034D01*
X295610Y384002D01*
X296626Y381970D01*
X294594Y382986D01*
X292562Y381970D01*
X404622Y70104D02*
X405638Y72136D01*
X404622Y74168D01*
X406654Y73152D01*
X408686Y74168D01*
X407670Y72136D01*
X408686Y70104D01*
X406654Y71120D01*
X404622Y70104D01*
X147574Y316992D02*
X148590Y319024D01*
X147574Y321056D01*
X149606Y320040D01*
X151638Y321056D01*
X150622Y319024D01*
X151638Y316992D01*
X149606Y318008D01*
X147574Y316992D01*
X127882Y383032D02*
X128898Y385064D01*
X127882Y387096D01*
X129914Y386080D01*
X131946Y387096D01*
X130930Y385064D01*
X131946Y383032D01*
X129914Y384048D01*
X127882Y383032D01*
X563372Y75184D02*
X564388Y77216D01*
X563372Y79248D01*
X565404Y78232D01*
X567436Y79248D01*
X566420Y77216D01*
X567436Y75184D01*
X565404Y76200D01*
X563372Y75184D01*
X647064Y122048D02*
X648080Y124080D01*
X647064Y126112D01*
X649096Y125096D01*
X651128Y126112D01*
X650112Y124080D01*
X651128Y122048D01*
X649096Y123064D01*
X647064Y122048D01*
X565150Y117856D02*
X566166Y119888D01*
X565150Y121920D01*
X567182Y120904D01*
X569214Y121920D01*
X568198Y119888D01*
X569214Y117856D01*
X567182Y118872D01*
X565150Y117856D01*
X114808Y148844D02*
X115824Y150876D01*
X114808Y152908D01*
X116840Y151892D01*
X118872Y152908D01*
X117856Y150876D01*
X118872Y148844D01*
X116840Y149860D01*
X114808Y148844D01*
X65232Y213106D02*
X66248Y215138D01*
X65232Y217170D01*
X67264Y216154D01*
X69296Y217170D01*
X68280Y215138D01*
X69296Y213106D01*
X67264Y214122D01*
X65232Y213106D01*
X26988Y222694D02*
X28004Y224726D01*
X26988Y226758D01*
X29020Y225742D01*
X31052Y226758D01*
X30036Y224726D01*
X31052Y222694D01*
X29020Y223710D01*
X26988Y222694D01*
X151384Y171704D02*
X152400Y173736D01*
X151384Y175768D01*
X153416Y174752D01*
X155448Y175768D01*
X154432Y173736D01*
X155448Y171704D01*
X153416Y172720D01*
X151384Y171704D01*
X148844Y212090D02*
X149860Y214122D01*
X148844Y216154D01*
X150876Y215138D01*
X152908Y216154D01*
X151892Y214122D01*
X152908Y212090D01*
X150876Y213106D01*
X148844Y212090D01*
X138430Y217170D02*
X139446Y219202D01*
X138430Y221234D01*
X140462Y220218D01*
X142494Y221234D01*
X141478Y219202D01*
X142494Y217170D01*
X140462Y218186D01*
X138430Y217170D01*
X51054Y453136D02*
X52070Y455168D01*
X51054Y457200D01*
X53086Y456184D01*
X55118Y457200D01*
X54102Y455168D01*
X55118Y453136D01*
X53086Y454152D01*
X51054Y453136D01*
X58928Y400050D02*
X59944Y402082D01*
X58928Y404114D01*
X60960Y403098D01*
X62992Y404114D01*
X61976Y402082D01*
X62992Y400050D01*
X60960Y401066D01*
X58928Y400050D01*
X97316Y453678D02*
X98332Y455710D01*
X97316Y457742D01*
X99348Y456726D01*
X101380Y457742D01*
X100364Y455710D01*
X101380Y453678D01*
X99348Y454694D01*
X97316Y453678D01*
X124910Y405384D02*
X125926Y407416D01*
X124910Y409448D01*
X126942Y408432D01*
X128974Y409448D01*
X127958Y407416D01*
X128974Y405384D01*
X126942Y406400D01*
X124910Y405384D01*
X145352Y425450D02*
X146368Y427482D01*
X145352Y429514D01*
X147384Y428498D01*
X149416Y429514D01*
X148400Y427482D01*
X149416Y425450D01*
X147384Y426466D01*
X145352Y425450D01*
X159258Y452710D02*
X160274Y454742D01*
X159258Y456774D01*
X161290Y455758D01*
X163322Y456774D01*
X162306Y454742D01*
X163322Y452710D01*
X161290Y453726D01*
X159258Y452710D01*
X26734Y302006D02*
X27750Y304038D01*
X26734Y306070D01*
X28766Y305054D01*
X30798Y306070D01*
X29782Y304038D01*
X30798Y302006D01*
X28766Y303022D01*
X26734Y302006D01*
X191326Y302324D02*
X192342Y304356D01*
X191326Y306388D01*
X193358Y305372D01*
X195390Y306388D01*
X194374Y304356D01*
X195390Y302324D01*
X193358Y303340D01*
X191326Y302324D01*
X249174Y225674D02*
X250190Y227706D01*
X249174Y229738D01*
X251206Y228722D01*
X253238Y229738D01*
X252222Y227706D01*
X253238Y225674D01*
X251206Y226690D01*
X249174Y225674D01*
X95822Y218064D02*
X96838Y220096D01*
X95822Y222128D01*
X97854Y221112D01*
X99886Y222128D01*
X98870Y220096D01*
X99886Y218064D01*
X97854Y219080D01*
X95822Y218064D01*
X85408Y223982D02*
X86424Y226014D01*
X85408Y228046D01*
X87440Y227030D01*
X89472Y228046D01*
X88456Y226014D01*
X89472Y223982D01*
X87440Y224998D01*
X85408Y223982D01*
X66358Y372318D02*
X67374Y374350D01*
X66358Y376382D01*
X68390Y375366D01*
X70422Y376382D01*
X69406Y374350D01*
X70422Y372318D01*
X68390Y373334D01*
X66358Y372318D01*
D152*
X453568Y265892D02*
G03*
X453568Y265892I-2032J0D01*
G01*
Y291292D02*
G03*
X453568Y291292I-2032J0D01*
G01*
Y316692D02*
G03*
X453568Y316692I-2032J0D01*
G01*
Y342092D02*
G03*
X453568Y342092I-2032J0D01*
G01*
X377368Y265892D02*
G03*
X377368Y265892I-2032J0D01*
G01*
Y291292D02*
G03*
X377368Y291292I-2032J0D01*
G01*
Y316692D02*
G03*
X377368Y316692I-2032J0D01*
G01*
Y342092D02*
G03*
X377368Y342092I-2032J0D01*
G01*
X129604Y266192D02*
G03*
X129604Y266192I-2032J0D01*
G01*
Y291592D02*
G03*
X129604Y291592I-2032J0D01*
G01*
Y316992D02*
G03*
X129604Y316992I-2032J0D01*
G01*
Y342392D02*
G03*
X129604Y342392I-2032J0D01*
G01*
X53404Y266192D02*
G03*
X53404Y266192I-2032J0D01*
G01*
Y291592D02*
G03*
X53404Y291592I-2032J0D01*
G01*
Y316992D02*
G03*
X53404Y316992I-2032J0D01*
G01*
Y342392D02*
G03*
X53404Y342392I-2032J0D01*
G01*
X293942Y266192D02*
G03*
X293942Y266192I-2032J0D01*
G01*
Y291592D02*
G03*
X293942Y291592I-2032J0D01*
G01*
Y316992D02*
G03*
X293942Y316992I-2032J0D01*
G01*
Y342392D02*
G03*
X293942Y342392I-2032J0D01*
G01*
X217742Y266192D02*
G03*
X217742Y266192I-2032J0D01*
G01*
Y291592D02*
G03*
X217742Y291592I-2032J0D01*
G01*
Y316992D02*
G03*
X217742Y316992I-2032J0D01*
G01*
Y342392D02*
G03*
X217742Y342392I-2032J0D01*
G01*
X613834Y254864D02*
G03*
X613834Y254864I-2032J0D01*
G01*
Y280264D02*
G03*
X613834Y280264I-2032J0D01*
G01*
Y305664D02*
G03*
X613834Y305664I-2032J0D01*
G01*
Y331064D02*
G03*
X613834Y331064I-2032J0D01*
G01*
X537634Y254864D02*
G03*
X537634Y254864I-2032J0D01*
G01*
Y280264D02*
G03*
X537634Y280264I-2032J0D01*
G01*
Y305664D02*
G03*
X537634Y305664I-2032J0D01*
G01*
Y331064D02*
G03*
X537634Y331064I-2032J0D01*
G01*
X626618Y25354D02*
G03*
X626618Y25354I-2032J0D01*
G01*
Y50754D02*
G03*
X626618Y50754I-2032J0D01*
G01*
X601218Y25354D02*
G03*
X601218Y25354I-2032J0D01*
G01*
Y50754D02*
G03*
X601218Y50754I-2032J0D01*
G01*
X575818Y25354D02*
G03*
X575818Y25354I-2032J0D01*
G01*
Y50754D02*
G03*
X575818Y50754I-2032J0D01*
G01*
X550418Y25354D02*
G03*
X550418Y25354I-2032J0D01*
G01*
Y50754D02*
G03*
X550418Y50754I-2032J0D01*
G01*
X525018Y25354D02*
G03*
X525018Y25354I-2032J0D01*
G01*
Y50754D02*
G03*
X525018Y50754I-2032J0D01*
G01*
X499618Y25354D02*
G03*
X499618Y25354I-2032J0D01*
G01*
Y50754D02*
G03*
X499618Y50754I-2032J0D01*
G01*
X474218Y25354D02*
G03*
X474218Y25354I-2032J0D01*
G01*
Y50754D02*
G03*
X474218Y50754I-2032J0D01*
G01*
X448818Y25354D02*
G03*
X448818Y25354I-2032J0D01*
G01*
Y50754D02*
G03*
X448818Y50754I-2032J0D01*
G01*
X423418Y25354D02*
G03*
X423418Y25354I-2032J0D01*
G01*
Y50754D02*
G03*
X423418Y50754I-2032J0D01*
G01*
X398018Y25354D02*
G03*
X398018Y25354I-2032J0D01*
G01*
Y50754D02*
G03*
X398018Y50754I-2032J0D01*
G01*
X536448Y483062D02*
G03*
X536448Y483062I-2032J0D01*
G01*
Y508462D02*
G03*
X536448Y508462I-2032J0D01*
G01*
X511048Y483062D02*
G03*
X511048Y483062I-2032J0D01*
G01*
Y508462D02*
G03*
X511048Y508462I-2032J0D01*
G01*
X485648Y483062D02*
G03*
X485648Y483062I-2032J0D01*
G01*
Y508462D02*
G03*
X485648Y508462I-2032J0D01*
G01*
X460248Y483062D02*
G03*
X460248Y483062I-2032J0D01*
G01*
Y508462D02*
G03*
X460248Y508462I-2032J0D01*
G01*
X434848Y483062D02*
G03*
X434848Y483062I-2032J0D01*
G01*
Y508462D02*
G03*
X434848Y508462I-2032J0D01*
G01*
X409448Y483062D02*
G03*
X409448Y483062I-2032J0D01*
G01*
Y508462D02*
G03*
X409448Y508462I-2032J0D01*
G01*
X384048Y483062D02*
G03*
X384048Y483062I-2032J0D01*
G01*
Y508462D02*
G03*
X384048Y508462I-2032J0D01*
G01*
X358648Y483062D02*
G03*
X358648Y483062I-2032J0D01*
G01*
Y508462D02*
G03*
X358648Y508462I-2032J0D01*
G01*
X180086D02*
G03*
X180086Y508462I-2032J0D01*
G01*
Y483062D02*
G03*
X180086Y483062I-2032J0D01*
G01*
X205486Y508462D02*
G03*
X205486Y508462I-2032J0D01*
G01*
Y483062D02*
G03*
X205486Y483062I-2032J0D01*
G01*
X230886Y508462D02*
G03*
X230886Y508462I-2032J0D01*
G01*
Y483062D02*
G03*
X230886Y483062I-2032J0D01*
G01*
X256286Y508462D02*
G03*
X256286Y508462I-2032J0D01*
G01*
Y483062D02*
G03*
X256286Y483062I-2032J0D01*
G01*
X281686Y508462D02*
G03*
X281686Y508462I-2032J0D01*
G01*
Y483062D02*
G03*
X281686Y483062I-2032J0D01*
G01*
X307086Y508462D02*
G03*
X307086Y508462I-2032J0D01*
G01*
Y483062D02*
G03*
X307086Y483062I-2032J0D01*
G01*
X180086Y50754D02*
G03*
X180086Y50754I-2032J0D01*
G01*
Y25354D02*
G03*
X180086Y25354I-2032J0D01*
G01*
X205486Y50754D02*
G03*
X205486Y50754I-2032J0D01*
G01*
Y25354D02*
G03*
X205486Y25354I-2032J0D01*
G01*
X230886Y50754D02*
G03*
X230886Y50754I-2032J0D01*
G01*
Y25354D02*
G03*
X230886Y25354I-2032J0D01*
G01*
X256286Y50754D02*
G03*
X256286Y50754I-2032J0D01*
G01*
Y25354D02*
G03*
X256286Y25354I-2032J0D01*
G01*
X281686Y50754D02*
G03*
X281686Y50754I-2032J0D01*
G01*
Y25354D02*
G03*
X281686Y25354I-2032J0D01*
G01*
X307086Y50754D02*
G03*
X307086Y50754I-2032J0D01*
G01*
Y25354D02*
G03*
X307086Y25354I-2032J0D01*
G01*
X332486Y50754D02*
G03*
X332486Y50754I-2032J0D01*
G01*
Y25354D02*
G03*
X332486Y25354I-2032J0D01*
G01*
X357886Y50754D02*
G03*
X357886Y50754I-2032J0D01*
G01*
Y25354D02*
G03*
X357886Y25354I-2032J0D01*
G01*
M02*
