G04*
G04 #@! TF.GenerationSoftware,Altium Limited,Altium Designer,18.1.9 (240)*
G04*
G04 Layer_Physical_Order=3*
G04 Layer_Color=36540*
%FSLAX44Y44*%
%MOMM*%
G71*
G01*
G75*
%ADD88C,0.5000*%
%ADD90C,0.2540*%
%ADD94C,1.5000*%
%ADD95R,1.5000X1.5000*%
%ADD99C,0.7500*%
%ADD100C,0.5000*%
G36*
X696571Y529650D02*
X707273Y528241D01*
X717812Y525905D01*
X728107Y522659D01*
X738079Y518528D01*
X747654Y513544D01*
X756758Y507744D01*
X765322Y501173D01*
X773280Y493880D01*
X780573Y485922D01*
X787144Y477358D01*
X792944Y468254D01*
X797928Y458679D01*
X802059Y448707D01*
X805305Y438412D01*
X807641Y427873D01*
X809050Y417171D01*
X809510Y406624D01*
X809466Y406400D01*
Y297426D01*
X808610Y297022D01*
X808196Y296944D01*
X806772Y298036D01*
X805004Y298769D01*
X803106Y299019D01*
X796106D01*
X794208Y298769D01*
X792440Y298036D01*
X790921Y296871D01*
X789756Y295352D01*
X789023Y293584D01*
X788773Y291686D01*
X789023Y289788D01*
X789756Y288020D01*
X790921Y286501D01*
X792440Y285336D01*
X794208Y284603D01*
X796106Y284353D01*
X803106D01*
X805004Y284603D01*
X806772Y285336D01*
X808196Y286428D01*
X808610Y286350D01*
X809466Y285946D01*
Y213926D01*
X808610Y213522D01*
X808196Y213444D01*
X806772Y214536D01*
X805004Y215269D01*
X803106Y215519D01*
X796106D01*
X794208Y215269D01*
X792440Y214536D01*
X790921Y213371D01*
X789756Y211852D01*
X789023Y210084D01*
X788773Y208186D01*
X789023Y206288D01*
X789756Y204520D01*
X790921Y203001D01*
X792440Y201836D01*
X794208Y201103D01*
X796106Y200853D01*
X803106D01*
X805004Y201103D01*
X806772Y201836D01*
X808196Y202928D01*
X808610Y202850D01*
X809466Y202446D01*
Y131286D01*
X775970Y97790D01*
X412246D01*
X377086Y76708D01*
X293497Y76708D01*
Y97790D01*
X296900D01*
X297579Y96520D01*
X296843Y95418D01*
X296554Y93964D01*
X302768D01*
Y92964D01*
X303768D01*
Y86750D01*
X305222Y87039D01*
X307303Y88429D01*
X307848Y89245D01*
X309118D01*
X309663Y88429D01*
X311744Y87039D01*
X313198Y86750D01*
Y92964D01*
X314198D01*
Y93964D01*
X320412D01*
X320123Y95418D01*
X319387Y96520D01*
X320066Y97790D01*
X360209Y97790D01*
X407334Y125947D01*
X407861Y125159D01*
X409521Y124049D01*
X411480Y123660D01*
X413439Y124049D01*
X415099Y125159D01*
X416209Y126819D01*
X416245Y127000D01*
X495006D01*
X495143Y126311D01*
X496253Y124651D01*
X497913Y123541D01*
X499872Y123152D01*
X501831Y123541D01*
X503491Y124651D01*
X504601Y126311D01*
X504738Y127000D01*
X643598D01*
X644306Y125730D01*
X643978Y124080D01*
X644367Y122121D01*
X645477Y120461D01*
X647137Y119351D01*
X649096Y118962D01*
X651055Y119351D01*
X652715Y120461D01*
X653825Y122121D01*
X654214Y124080D01*
X653886Y125730D01*
X654594Y127000D01*
X705495Y127000D01*
X705900Y125730D01*
X704947Y124304D01*
X704558Y122345D01*
X704947Y120386D01*
X706057Y118726D01*
X707717Y117616D01*
X709676Y117227D01*
X711635Y117616D01*
X713295Y118726D01*
X714405Y120386D01*
X714794Y122345D01*
X714405Y124304D01*
X713452Y125730D01*
X713857Y127000D01*
X755142D01*
X755142Y332845D01*
X756052Y333731D01*
X777494Y333145D01*
Y406984D01*
X764523Y449365D01*
X765683Y449916D01*
X765761Y449799D01*
X767421Y448690D01*
X769380Y448300D01*
X771339Y448690D01*
X772999Y449799D01*
X774109Y451460D01*
X774498Y453418D01*
X774109Y455377D01*
X772999Y457038D01*
X771339Y458147D01*
X769380Y458537D01*
X767421Y458147D01*
X765761Y457038D01*
X764651Y455377D01*
X764399Y454110D01*
X763091Y454044D01*
X761292Y459924D01*
X761301Y459931D01*
X762411Y461591D01*
X762800Y463550D01*
X762411Y465509D01*
X761301Y467169D01*
X760272Y467857D01*
Y469738D01*
X760075Y470728D01*
X759513Y471569D01*
X756941Y474141D01*
X754361Y482571D01*
X744016Y491068D01*
Y494284D01*
X743819Y495275D01*
X743257Y496115D01*
X734875Y504497D01*
X734035Y505059D01*
X733044Y505256D01*
X698657D01*
X697666Y505059D01*
X696826Y504497D01*
X694379Y502051D01*
X693119Y502586D01*
X692815Y504117D01*
X691705Y505777D01*
X690045Y506887D01*
X688086Y507276D01*
X686127Y506887D01*
X684467Y505777D01*
X683357Y504117D01*
X682968Y502158D01*
X683170Y501142D01*
X682165Y499872D01*
X649478D01*
X649478Y520446D01*
X659367Y530066D01*
X685800D01*
X686024Y530110D01*
X696571Y529650D01*
D02*
G37*
G36*
X721606Y494436D02*
X721277Y493944D01*
X720988Y492490D01*
X727202D01*
Y491490D01*
X728202D01*
Y485276D01*
X729656Y485565D01*
X731737Y486955D01*
X733127Y489036D01*
X733275Y489781D01*
X734681Y490339D01*
X735026Y490093D01*
Y481330D01*
X735223Y480339D01*
X735785Y479499D01*
X740106Y475177D01*
Y462015D01*
X739077Y461327D01*
X737967Y459667D01*
X737578Y457708D01*
X737967Y455749D01*
X739077Y454089D01*
X740737Y452979D01*
X742696Y452590D01*
X744655Y452979D01*
X746315Y454089D01*
X747425Y455749D01*
X747814Y457708D01*
X747425Y459667D01*
X746315Y461327D01*
X745286Y462015D01*
Y476250D01*
X745180Y476781D01*
X746351Y477406D01*
X752249Y471508D01*
X753729Y466669D01*
X752953Y465509D01*
X752564Y463550D01*
X752953Y461591D01*
X754063Y459931D01*
X755723Y458821D01*
X756155Y458735D01*
X772160Y406400D01*
X772160Y338554D01*
X771258Y337660D01*
X738251Y337947D01*
X710354Y310050D01*
X710354Y137668D01*
X696796Y137668D01*
X696620Y139007D01*
X695711Y141201D01*
X694265Y143085D01*
X692381Y144531D01*
X690187Y145440D01*
X687832Y145750D01*
X685477Y145440D01*
X683283Y144531D01*
X681399Y143085D01*
X679953Y141201D01*
X679044Y139007D01*
X678868Y137668D01*
X573384Y137667D01*
X572578Y138649D01*
X572649Y139007D01*
X572260Y140965D01*
X571150Y142626D01*
X569490Y143735D01*
X567531Y144125D01*
X565573Y143735D01*
X563912Y142626D01*
X562802Y140965D01*
X562413Y139007D01*
X562484Y138649D01*
X561678Y137667D01*
X482930Y137667D01*
X482169Y138937D01*
X482308Y139195D01*
X482781Y139289D01*
X484441Y140399D01*
X485551Y142059D01*
X485940Y144018D01*
X485551Y145977D01*
X484441Y147637D01*
X482781Y148747D01*
X480822Y149136D01*
X478863Y148747D01*
X477203Y147637D01*
X476093Y145977D01*
X475783Y144415D01*
X469070Y137702D01*
X440819D01*
X430276Y156718D01*
X313690D01*
X309281Y140970D01*
X282600D01*
X267172Y164846D01*
X180294Y164846D01*
X144621Y140970D01*
X47574D01*
X3334Y195788D01*
Y406400D01*
X3290Y406624D01*
X3453Y410356D01*
X83122D01*
X83122Y373380D01*
X69442Y359700D01*
Y262382D01*
X99822Y232002D01*
Y226118D01*
X98552Y225075D01*
X97854Y225214D01*
X95895Y224825D01*
X94761Y224067D01*
X93618Y224830D01*
X93654Y225014D01*
X88440D01*
Y219800D01*
X89894Y220089D01*
X91676Y221280D01*
X92772Y220720D01*
X92846Y220650D01*
X92736Y220096D01*
X93125Y218137D01*
X94235Y216477D01*
X95895Y215367D01*
X97854Y214978D01*
X98552Y215116D01*
X99822Y214074D01*
X99822Y195072D01*
X168150Y195072D01*
X168150Y344049D01*
X168238Y344084D01*
X169420Y344260D01*
X170371Y342837D01*
X172031Y341727D01*
X173990Y341338D01*
X175949Y341727D01*
X177609Y342837D01*
X178719Y344497D01*
X179108Y346456D01*
X178719Y348415D01*
X177609Y350075D01*
X175949Y351185D01*
X173990Y351574D01*
X172031Y351185D01*
X170371Y350075D01*
X169420Y348652D01*
X168237Y348828D01*
X168150Y348863D01*
Y368702D01*
X209804Y410356D01*
X236728D01*
X263030Y384054D01*
X263030Y221942D01*
X262048Y221137D01*
X261366Y221272D01*
X259407Y220883D01*
X257747Y219773D01*
X256637Y218113D01*
X256248Y216154D01*
X256637Y214195D01*
X257747Y212535D01*
X259407Y211425D01*
X261366Y211036D01*
X262048Y211171D01*
X263030Y210366D01*
Y201168D01*
X330708Y201168D01*
Y370840D01*
X368300Y410356D01*
X392430Y410356D01*
X425450Y377336D01*
X425450Y201168D01*
X491490Y201168D01*
Y308934D01*
Y356616D01*
X535182Y400308D01*
X554952Y400309D01*
X591566Y363694D01*
X591566Y197358D01*
X673100Y197358D01*
X673100Y342646D01*
X691145Y360691D01*
X692523Y360273D01*
X692829Y358734D01*
X694219Y356653D01*
X696300Y355263D01*
X697754Y354974D01*
Y361188D01*
Y367402D01*
X696300Y367113D01*
X695198Y366377D01*
X693928Y367056D01*
X693928Y396484D01*
X695198Y397163D01*
X695673Y396845D01*
X697632Y396456D01*
X699591Y396845D01*
X701251Y397955D01*
X702361Y399615D01*
X702750Y401574D01*
X702361Y403533D01*
X701251Y405193D01*
X699591Y406303D01*
X697632Y406692D01*
X695673Y406303D01*
X695198Y405985D01*
X693928Y406664D01*
X693928Y480966D01*
X698832D01*
X699823Y481163D01*
X700663Y481725D01*
X714461Y495523D01*
X721004Y495555D01*
X721606Y494436D01*
D02*
G37*
G36*
X515484Y466852D02*
X515557Y466743D01*
X517217Y465633D01*
X519176Y465244D01*
X521135Y465633D01*
X522795Y466743D01*
X522868Y466852D01*
X576703D01*
X577744Y465582D01*
X577558Y464644D01*
X577947Y462685D01*
X579057Y461025D01*
X580717Y459915D01*
X582676Y459526D01*
X584635Y459915D01*
X586295Y461025D01*
X587405Y462685D01*
X587794Y464644D01*
X587608Y465582D01*
X588649Y466852D01*
X625989D01*
X626349Y465039D01*
X627459Y463379D01*
X629119Y462269D01*
X631078Y461880D01*
X633037Y462269D01*
X633535Y462602D01*
X644428Y451709D01*
X644106Y450088D01*
X644495Y448129D01*
X645605Y446469D01*
X647265Y445359D01*
X649224Y444970D01*
X650845Y445292D01*
X677164Y418973D01*
X677164Y381000D01*
X653825Y357661D01*
Y350210D01*
X653565Y349997D01*
X651111Y349509D01*
X649030Y348119D01*
X647640Y346038D01*
X647351Y344584D01*
X653565D01*
Y342584D01*
X647351D01*
X647640Y341130D01*
X649030Y339049D01*
X651111Y337659D01*
X653565Y337171D01*
X653825Y336957D01*
Y312195D01*
X632968Y291338D01*
X632968Y208788D01*
X625618D01*
X625233Y210058D01*
X626429Y210857D01*
X627819Y212938D01*
X628108Y214392D01*
X615680D01*
X615969Y212938D01*
X617359Y210857D01*
X618555Y210058D01*
X618170Y208788D01*
X601472Y208788D01*
X601472Y418496D01*
X485571Y418494D01*
X485573Y209686D01*
X484675Y208788D01*
X438150D01*
X438150Y418486D01*
X323596Y418487D01*
X323596Y208788D01*
X278638D01*
X278638Y418488D01*
X161290Y418488D01*
X161290Y204216D01*
X121438D01*
X120759Y205486D01*
X121495Y206588D01*
X121784Y208042D01*
X115570D01*
Y209042D01*
X114570D01*
Y215256D01*
X113116Y214967D01*
X111035Y213577D01*
X110943Y213439D01*
X109728Y213808D01*
X109728Y466852D01*
X515484Y466852D01*
D02*
G37*
G36*
X278701Y136652D02*
X314839D01*
X319363Y154183D01*
X385821D01*
X398018Y141986D01*
X398018Y135128D01*
X384048Y121158D01*
X263959Y121158D01*
X253279Y141224D01*
X218492Y141224D01*
X204863Y120128D01*
X193819Y120028D01*
X193429Y121295D01*
X193521Y121357D01*
X194631Y123017D01*
X195021Y124976D01*
X194631Y126935D01*
X193521Y128595D01*
X191861Y129705D01*
X189902Y130094D01*
X187944Y129705D01*
X186283Y128595D01*
X185173Y126935D01*
X184784Y124976D01*
X185173Y123017D01*
X186283Y121357D01*
X186470Y121232D01*
X186089Y119959D01*
X150114Y119634D01*
X149670Y119190D01*
X148035Y119351D01*
X147526Y120113D01*
X145865Y121223D01*
X143906Y121612D01*
X141948Y121223D01*
X140287Y120113D01*
X139178Y118453D01*
X138788Y116494D01*
X139178Y114535D01*
X140287Y112875D01*
X141049Y112365D01*
X141210Y110730D01*
X123952Y93472D01*
X123952Y42959D01*
X120904Y40640D01*
X98552Y40640D01*
X98552Y102317D01*
X136652Y135382D01*
X145899D01*
X179083Y156210D01*
X245898D01*
X246703Y155228D01*
X246596Y154686D01*
X246985Y152727D01*
X248095Y151067D01*
X249755Y149957D01*
X251714Y149568D01*
X253673Y149957D01*
X255333Y151067D01*
X256443Y152727D01*
X256832Y154686D01*
X256724Y155228D01*
X257530Y156210D01*
X268313D01*
X278701Y136652D01*
D02*
G37*
G36*
X248057Y136906D02*
X257002Y116840D01*
X358394Y116840D01*
X358394Y101482D01*
X357496Y100584D01*
X290830D01*
X259080Y68834D01*
X149797D01*
X149797Y66294D01*
Y27178D01*
X142431Y19812D01*
X77470D01*
X69202Y28080D01*
X70007Y29283D01*
X70396Y31242D01*
X70007Y33201D01*
X68897Y34861D01*
X67237Y35971D01*
X65278Y36360D01*
X63319Y35971D01*
X62116Y35166D01*
X34544Y62738D01*
Y92710D01*
X51832Y92710D01*
X89631Y130510D01*
X98187D01*
X98572Y129240D01*
X97065Y128233D01*
X95675Y126152D01*
X95386Y124698D01*
X107814D01*
X107525Y126152D01*
X106135Y128233D01*
X104628Y129240D01*
X105013Y130510D01*
X111760D01*
Y119126D01*
X94488Y103886D01*
X94488Y35814D01*
X123894D01*
X129540Y41460D01*
X129540Y87884D01*
X155448Y113792D01*
X184367Y113792D01*
X184784Y113284D01*
X185173Y111325D01*
X186283Y109665D01*
X187944Y108555D01*
X189902Y108166D01*
X191861Y108555D01*
X193521Y109665D01*
X194631Y111325D01*
X195021Y113284D01*
X195437Y113792D01*
X208319Y113792D01*
X223937Y136906D01*
X248057Y136906D01*
D02*
G37*
%LPC*%
G36*
X664702Y519802D02*
Y514588D01*
X669916D01*
X669627Y516042D01*
X668237Y518123D01*
X666156Y519513D01*
X664702Y519802D01*
D02*
G37*
G36*
X662702D02*
X661248Y519513D01*
X659167Y518123D01*
X657777Y516042D01*
X657488Y514588D01*
X662702D01*
Y519802D01*
D02*
G37*
G36*
X669916Y512588D02*
X664702D01*
Y507374D01*
X666156Y507663D01*
X668237Y509053D01*
X669627Y511134D01*
X669916Y512588D01*
D02*
G37*
G36*
X662702D02*
X657488D01*
X657777Y511134D01*
X659167Y509053D01*
X661248Y507663D01*
X662702Y507374D01*
Y512588D01*
D02*
G37*
G36*
X693095Y526072D02*
X691136Y525683D01*
X689476Y524573D01*
X688366Y522913D01*
X687977Y520954D01*
X688366Y518995D01*
X689476Y517335D01*
X691136Y516225D01*
X693095Y515836D01*
X694523Y516120D01*
X695165Y514953D01*
X694279Y513627D01*
X693890Y511668D01*
X694279Y509709D01*
X695389Y508049D01*
X697049Y506939D01*
X699008Y506550D01*
X700967Y506939D01*
X702627Y508049D01*
X703737Y509709D01*
X704126Y511668D01*
X703737Y513627D01*
X702627Y515287D01*
X700967Y516397D01*
X699008Y516786D01*
X697580Y516502D01*
X696938Y517669D01*
X697824Y518995D01*
X698213Y520954D01*
X697824Y522913D01*
X696714Y524573D01*
X695054Y525683D01*
X693095Y526072D01*
D02*
G37*
G36*
X756666Y503720D02*
X754707Y503331D01*
X753047Y502221D01*
X751937Y500561D01*
X751548Y498602D01*
X751937Y496643D01*
X753047Y494983D01*
X754707Y493873D01*
X756666Y493484D01*
X758625Y493873D01*
X760285Y494983D01*
X761395Y496643D01*
X761784Y498602D01*
X761395Y500561D01*
X760285Y502221D01*
X758625Y503331D01*
X756666Y503720D01*
D02*
G37*
G36*
X770634Y485795D02*
Y480580D01*
X775848D01*
X775559Y482035D01*
X774169Y484115D01*
X772088Y485505D01*
X770634Y485795D01*
D02*
G37*
G36*
X768634D02*
X767180Y485505D01*
X765099Y484115D01*
X763709Y482035D01*
X763420Y480580D01*
X768634D01*
Y485795D01*
D02*
G37*
G36*
X775848Y478580D02*
X770634D01*
Y473366D01*
X772088Y473655D01*
X774169Y475046D01*
X775559Y477126D01*
X775848Y478580D01*
D02*
G37*
G36*
X768634D02*
X763420D01*
X763709Y477126D01*
X765099Y475046D01*
X767180Y473655D01*
X768634Y473366D01*
Y478580D01*
D02*
G37*
G36*
X779346Y446168D02*
Y440953D01*
X784560D01*
X784271Y442408D01*
X782881Y444488D01*
X780800Y445878D01*
X779346Y446168D01*
D02*
G37*
G36*
X777346D02*
X775892Y445878D01*
X773811Y444488D01*
X772421Y442408D01*
X772132Y440953D01*
X777346D01*
Y446168D01*
D02*
G37*
G36*
X784560Y438953D02*
X779346D01*
Y433739D01*
X780800Y434028D01*
X782881Y435419D01*
X784271Y437499D01*
X784560Y438953D01*
D02*
G37*
G36*
X777346D02*
X772132D01*
X772421Y437499D01*
X773811Y435419D01*
X775892Y434028D01*
X777346Y433739D01*
Y438953D01*
D02*
G37*
G36*
X780422Y326524D02*
X771382D01*
Y317484D01*
X780422D01*
Y326524D01*
D02*
G37*
G36*
X769382D02*
X760342D01*
Y317484D01*
X769382D01*
Y326524D01*
D02*
G37*
G36*
X795782Y325330D02*
X793493Y325028D01*
X791359Y324145D01*
X789527Y322739D01*
X788121Y320907D01*
X787238Y318773D01*
X786936Y316484D01*
X787238Y314195D01*
X788121Y312061D01*
X789527Y310229D01*
X791359Y308823D01*
X793493Y307940D01*
X795782Y307638D01*
X798071Y307940D01*
X800205Y308823D01*
X802037Y310229D01*
X803443Y312061D01*
X804326Y314195D01*
X804628Y316484D01*
X804326Y318773D01*
X803443Y320907D01*
X802037Y322739D01*
X800205Y324145D01*
X798071Y325028D01*
X795782Y325330D01*
D02*
G37*
G36*
X780422Y315484D02*
X771382D01*
Y306444D01*
X780422D01*
Y315484D01*
D02*
G37*
G36*
X769382D02*
X760342D01*
Y306444D01*
X769382D01*
Y315484D01*
D02*
G37*
G36*
X778002Y300262D02*
X776531Y299969D01*
X775284Y299136D01*
X774607Y298123D01*
X774362Y298051D01*
X773717Y298022D01*
X773201Y298115D01*
X772592Y299026D01*
X771345Y299859D01*
X769874Y300152D01*
X768403Y299859D01*
X767156Y299026D01*
X766323Y297779D01*
X766030Y296308D01*
X766323Y294837D01*
X767156Y293590D01*
X768032Y293005D01*
X768079Y292857D01*
Y291741D01*
X768032Y291593D01*
X767156Y291008D01*
X766323Y289761D01*
X766030Y288290D01*
X766323Y286819D01*
X767156Y285572D01*
X768403Y284739D01*
X769874Y284446D01*
X771345Y284739D01*
X772592Y285572D01*
X773232Y286530D01*
X773619Y286622D01*
X774257D01*
X774644Y286530D01*
X775284Y285572D01*
X776531Y284739D01*
X778002Y284446D01*
X779473Y284739D01*
X780720Y285572D01*
X781553Y286819D01*
X781846Y288290D01*
X781553Y289761D01*
X780720Y291008D01*
X779762Y291648D01*
X779670Y292035D01*
Y292673D01*
X779762Y293060D01*
X780720Y293700D01*
X781553Y294947D01*
X781846Y296418D01*
X781553Y297889D01*
X780720Y299136D01*
X779473Y299969D01*
X778002Y300262D01*
D02*
G37*
G36*
X770606Y278762D02*
X768606D01*
X766904Y278538D01*
X765318Y277881D01*
X763956Y276836D01*
X762911Y275474D01*
X762254Y273888D01*
X762030Y272186D01*
X762254Y270484D01*
X762911Y268898D01*
X763956Y267536D01*
X765318Y266491D01*
X766904Y265834D01*
X768606Y265610D01*
X770606D01*
X772308Y265834D01*
X773894Y266491D01*
X775256Y267536D01*
X776301Y268898D01*
X776958Y270484D01*
X777182Y272186D01*
X776958Y273888D01*
X776301Y275474D01*
X775256Y276836D01*
X773894Y277881D01*
X772308Y278538D01*
X770606Y278762D01*
D02*
G37*
G36*
X778748Y219824D02*
Y215884D01*
X782688D01*
X782496Y216850D01*
X781382Y218518D01*
X779715Y219632D01*
X778748Y219824D01*
D02*
G37*
G36*
X782688Y205756D02*
X778748D01*
Y201816D01*
X779715Y202008D01*
X781382Y203122D01*
X782496Y204790D01*
X782688Y205756D01*
D02*
G37*
G36*
X770606Y234262D02*
X768606D01*
X766904Y234038D01*
X765318Y233381D01*
X763956Y232336D01*
X762911Y230974D01*
X762254Y229388D01*
X762030Y227686D01*
X762254Y225984D01*
X762911Y224398D01*
X763956Y223036D01*
X765318Y221991D01*
X766904Y221334D01*
X768606Y221110D01*
X769128D01*
X769253Y219840D01*
X768789Y219747D01*
X767654Y219522D01*
X765986Y218408D01*
X764872Y216740D01*
X764680Y215774D01*
X769620D01*
Y213774D01*
X764680D01*
X764872Y212808D01*
X765986Y211140D01*
Y210390D01*
X764872Y208722D01*
X764680Y207756D01*
X769620D01*
Y205756D01*
X764680D01*
X764872Y204790D01*
X765986Y203122D01*
X767010Y202438D01*
X766742Y201090D01*
X766645Y201071D01*
X764985Y199961D01*
X763875Y198301D01*
X763486Y196342D01*
X763875Y194383D01*
X764985Y192723D01*
X766645Y191613D01*
X768604Y191224D01*
X770563Y191613D01*
X772223Y192723D01*
X773333Y194383D01*
X773722Y196342D01*
X773333Y198301D01*
X772223Y199961D01*
X771209Y200639D01*
X771478Y201987D01*
X771587Y202008D01*
X772793Y202814D01*
X773684Y203022D01*
X774575Y202814D01*
X775781Y202008D01*
X776748Y201816D01*
Y206756D01*
X777748D01*
Y207756D01*
X782688D01*
X782496Y208722D01*
X781382Y210390D01*
Y211250D01*
X782496Y212917D01*
X782688Y213884D01*
X777748D01*
Y214884D01*
X776748D01*
Y219824D01*
X775781Y219632D01*
X774114Y218518D01*
X772742Y218750D01*
X771587Y219522D01*
X770451Y219747D01*
X769987Y219840D01*
X770112Y221110D01*
X770606D01*
X772308Y221334D01*
X773894Y221991D01*
X775256Y223036D01*
X776301Y224398D01*
X776958Y225984D01*
X777182Y227686D01*
X776958Y229388D01*
X776301Y230974D01*
X775256Y232336D01*
X773894Y233381D01*
X772308Y234038D01*
X770606Y234262D01*
D02*
G37*
G36*
X785622Y181898D02*
X784151Y181605D01*
X782904Y180772D01*
X782071Y179525D01*
X781778Y178054D01*
X782071Y176583D01*
X782904Y175336D01*
X784151Y174503D01*
X785622Y174210D01*
X787093Y174503D01*
X788340Y175336D01*
X789173Y176583D01*
X789466Y178054D01*
X789173Y179525D01*
X788340Y180772D01*
X787093Y181605D01*
X785622Y181898D01*
D02*
G37*
G36*
X797559Y164550D02*
X795601Y164160D01*
X793940Y163051D01*
X792831Y161390D01*
X792441Y159432D01*
X792831Y157473D01*
X793940Y155812D01*
X795601Y154703D01*
X797559Y154313D01*
X799518Y154703D01*
X801179Y155812D01*
X802288Y157473D01*
X802678Y159432D01*
X802288Y161390D01*
X801179Y163051D01*
X799518Y164160D01*
X797559Y164550D01*
D02*
G37*
G36*
X774192Y131356D02*
X772233Y130967D01*
X770573Y129857D01*
X769463Y128197D01*
X769074Y126238D01*
X769463Y124279D01*
X770573Y122619D01*
X772233Y121509D01*
X774192Y121120D01*
X776151Y121509D01*
X777811Y122619D01*
X778921Y124279D01*
X779310Y126238D01*
X778921Y128197D01*
X777811Y129857D01*
X776151Y130967D01*
X774192Y131356D01*
D02*
G37*
G36*
X567182Y125006D02*
X565223Y124617D01*
X563563Y123507D01*
X562453Y121847D01*
X562064Y119888D01*
X562453Y117929D01*
X563563Y116269D01*
X565223Y115159D01*
X567182Y114770D01*
X569141Y115159D01*
X570801Y116269D01*
X571911Y117929D01*
X572300Y119888D01*
X571911Y121847D01*
X570801Y123507D01*
X569141Y124617D01*
X567182Y125006D01*
D02*
G37*
G36*
X741934Y120684D02*
X740463Y120391D01*
X739216Y119558D01*
X738383Y118311D01*
X738090Y116840D01*
X738383Y115369D01*
X739216Y114122D01*
X740463Y113289D01*
X741934Y112996D01*
X743405Y113289D01*
X744652Y114122D01*
X745485Y115369D01*
X745778Y116840D01*
X745485Y118311D01*
X744652Y119558D01*
X743405Y120391D01*
X741934Y120684D01*
D02*
G37*
G36*
X773160Y113148D02*
Y107934D01*
X778374D01*
X778085Y109388D01*
X776695Y111469D01*
X774614Y112859D01*
X773160Y113148D01*
D02*
G37*
G36*
X771160D02*
X769706Y112859D01*
X767625Y111469D01*
X766235Y109388D01*
X765946Y107934D01*
X771160D01*
Y113148D01*
D02*
G37*
G36*
X710676Y112640D02*
Y107426D01*
X715890D01*
X715601Y108880D01*
X714211Y110961D01*
X712130Y112351D01*
X710676Y112640D01*
D02*
G37*
G36*
X708676D02*
X707222Y112351D01*
X705141Y110961D01*
X703751Y108880D01*
X703462Y107426D01*
X708676D01*
Y112640D01*
D02*
G37*
G36*
X435102Y117342D02*
X433143Y116953D01*
X431483Y115843D01*
X430373Y114183D01*
X429984Y112224D01*
X430373Y110265D01*
X431483Y108605D01*
X433143Y107495D01*
X435102Y107106D01*
X437061Y107495D01*
X438721Y108605D01*
X439831Y110265D01*
X440220Y112224D01*
X439831Y114183D01*
X438721Y115843D01*
X437061Y116953D01*
X435102Y117342D01*
D02*
G37*
G36*
X687832Y120350D02*
X685477Y120040D01*
X683283Y119131D01*
X681399Y117685D01*
X679953Y115801D01*
X679044Y113607D01*
X678734Y111252D01*
X679044Y108897D01*
X679953Y106703D01*
X681399Y104819D01*
X683283Y103373D01*
X685477Y102464D01*
X687832Y102154D01*
X690187Y102464D01*
X692381Y103373D01*
X694265Y104819D01*
X695711Y106703D01*
X696620Y108897D01*
X696930Y111252D01*
X696620Y113607D01*
X695711Y115801D01*
X694265Y117685D01*
X692381Y119131D01*
X690187Y120040D01*
X687832Y120350D01*
D02*
G37*
G36*
X778374Y105934D02*
X773160D01*
Y100720D01*
X774614Y101009D01*
X776695Y102399D01*
X778085Y104480D01*
X778374Y105934D01*
D02*
G37*
G36*
X771160D02*
X765946D01*
X766235Y104480D01*
X767625Y102399D01*
X769706Y101009D01*
X771160Y100720D01*
Y105934D01*
D02*
G37*
G36*
X715890Y105426D02*
X710676D01*
Y100212D01*
X712130Y100501D01*
X714211Y101891D01*
X715601Y103972D01*
X715890Y105426D01*
D02*
G37*
G36*
X708676D02*
X703462D01*
X703751Y103972D01*
X705141Y101891D01*
X707222Y100501D01*
X708676Y100212D01*
Y105426D01*
D02*
G37*
G36*
X320412Y91964D02*
X315198D01*
Y86750D01*
X316652Y87039D01*
X318733Y88429D01*
X320123Y90510D01*
X320412Y91964D01*
D02*
G37*
G36*
X301768D02*
X296554D01*
X296843Y90510D01*
X298233Y88429D01*
X300314Y87039D01*
X301768Y86750D01*
Y91964D01*
D02*
G37*
G36*
X726202Y490490D02*
X720988D01*
X721277Y489036D01*
X722667Y486955D01*
X724748Y485565D01*
X726202Y485276D01*
Y490490D01*
D02*
G37*
G36*
X734060Y449618D02*
X732101Y449229D01*
X730441Y448119D01*
X729331Y446459D01*
X728942Y444500D01*
X729331Y442541D01*
X730441Y440881D01*
X732101Y439771D01*
X734060Y439382D01*
X736019Y439771D01*
X737679Y440881D01*
X738789Y442541D01*
X739178Y444500D01*
X738789Y446459D01*
X737679Y448119D01*
X736019Y449229D01*
X734060Y449618D01*
D02*
G37*
G36*
X709818Y440620D02*
X707859Y440231D01*
X706199Y439121D01*
X705089Y437461D01*
X704700Y435502D01*
X705089Y433543D01*
X706199Y431883D01*
X707859Y430773D01*
X709818Y430384D01*
X711777Y430773D01*
X713437Y431883D01*
X714547Y433543D01*
X714936Y435502D01*
X714547Y437461D01*
X713437Y439121D01*
X711777Y440231D01*
X709818Y440620D01*
D02*
G37*
G36*
X61960Y408296D02*
Y403082D01*
X67174D01*
X66885Y404536D01*
X65495Y406617D01*
X63414Y408007D01*
X61960Y408296D01*
D02*
G37*
G36*
X59960D02*
X58506Y408007D01*
X56425Y406617D01*
X55035Y404536D01*
X54746Y403082D01*
X59960D01*
Y408296D01*
D02*
G37*
G36*
X220456Y402454D02*
Y397240D01*
X225670D01*
X225381Y398694D01*
X223991Y400775D01*
X221910Y402165D01*
X220456Y402454D01*
D02*
G37*
G36*
X218456D02*
X217002Y402165D01*
X214921Y400775D01*
X213531Y398694D01*
X213242Y397240D01*
X218456D01*
Y402454D01*
D02*
G37*
G36*
X379206Y402200D02*
Y396986D01*
X384420D01*
X384131Y398440D01*
X382741Y400521D01*
X380660Y401911D01*
X379206Y402200D01*
D02*
G37*
G36*
X377206D02*
X375752Y401911D01*
X373671Y400521D01*
X372281Y398440D01*
X371992Y396986D01*
X377206D01*
Y402200D01*
D02*
G37*
G36*
X67174Y401082D02*
X61960D01*
Y395868D01*
X63414Y396157D01*
X65495Y397547D01*
X66885Y399628D01*
X67174Y401082D01*
D02*
G37*
G36*
X59960D02*
X54746D01*
X55035Y399628D01*
X56425Y397547D01*
X58506Y396157D01*
X59960Y395868D01*
Y401082D01*
D02*
G37*
G36*
X748432Y411360D02*
X730892D01*
Y393820D01*
X748432D01*
Y411360D01*
D02*
G37*
G36*
X714262Y411436D02*
X711973Y411134D01*
X709839Y410251D01*
X708007Y408845D01*
X706601Y407013D01*
X705718Y404879D01*
X705416Y402590D01*
X705718Y400301D01*
X706601Y398167D01*
X708007Y396335D01*
X709839Y394929D01*
X711973Y394046D01*
X714262Y393744D01*
X716551Y394046D01*
X718685Y394929D01*
X720517Y396335D01*
X721923Y398167D01*
X722806Y400301D01*
X723108Y402590D01*
X722806Y404879D01*
X721923Y407013D01*
X720517Y408845D01*
X718685Y410251D01*
X716551Y411134D01*
X714262Y411436D01*
D02*
G37*
G36*
X225670Y395240D02*
X220456D01*
Y390026D01*
X221910Y390315D01*
X223991Y391705D01*
X225381Y393786D01*
X225670Y395240D01*
D02*
G37*
G36*
X218456D02*
X213242D01*
X213531Y393786D01*
X214921Y391705D01*
X217002Y390315D01*
X218456Y390026D01*
Y395240D01*
D02*
G37*
G36*
X384420Y394986D02*
X379206D01*
Y389772D01*
X380660Y390061D01*
X382741Y391451D01*
X384131Y393532D01*
X384420Y394986D01*
D02*
G37*
G36*
X377206D02*
X371992D01*
X372281Y393532D01*
X373671Y391451D01*
X375752Y390061D01*
X377206Y389772D01*
Y394986D01*
D02*
G37*
G36*
X546694Y393920D02*
Y388706D01*
X551908D01*
X551619Y390160D01*
X550229Y392241D01*
X548148Y393631D01*
X546694Y393920D01*
D02*
G37*
G36*
X544694D02*
X543240Y393631D01*
X541159Y392241D01*
X539769Y390160D01*
X539480Y388706D01*
X544694D01*
Y393920D01*
D02*
G37*
G36*
X551908Y386706D02*
X546694D01*
Y381492D01*
X548148Y381781D01*
X550229Y383171D01*
X551619Y385252D01*
X551908Y386706D01*
D02*
G37*
G36*
X544694D02*
X539480D01*
X539769Y385252D01*
X541159Y383171D01*
X543240Y381781D01*
X544694Y381492D01*
Y386706D01*
D02*
G37*
G36*
X760206Y378070D02*
Y372856D01*
X765420D01*
X765131Y374310D01*
X763741Y376391D01*
X761660Y377781D01*
X760206Y378070D01*
D02*
G37*
G36*
X758206D02*
X756752Y377781D01*
X754671Y376391D01*
X753281Y374310D01*
X752992Y372856D01*
X758206D01*
Y378070D01*
D02*
G37*
G36*
X391228Y379536D02*
X389269Y379147D01*
X387609Y378037D01*
X386499Y376377D01*
X386110Y374418D01*
X386499Y372459D01*
X387609Y370799D01*
X389269Y369689D01*
X391228Y369300D01*
X393187Y369689D01*
X394847Y370799D01*
X395957Y372459D01*
X396346Y374418D01*
X395957Y376377D01*
X394847Y378037D01*
X393187Y379147D01*
X391228Y379536D01*
D02*
G37*
G36*
X68390Y379468D02*
X66431Y379079D01*
X64771Y377969D01*
X63661Y376309D01*
X63272Y374350D01*
X63661Y372391D01*
X64771Y370731D01*
X66431Y369621D01*
X68390Y369232D01*
X70349Y369621D01*
X72009Y370731D01*
X73119Y372391D01*
X73508Y374350D01*
X73119Y376309D01*
X72009Y377969D01*
X70349Y379079D01*
X68390Y379468D01*
D02*
G37*
G36*
X231086Y374902D02*
X229127Y374512D01*
X227467Y373402D01*
X226357Y371742D01*
X225968Y369783D01*
X226357Y367825D01*
X227467Y366164D01*
X229127Y365055D01*
X231086Y364665D01*
X233045Y365055D01*
X234705Y366164D01*
X235815Y367825D01*
X236204Y369783D01*
X235815Y371742D01*
X234705Y373402D01*
X233045Y374512D01*
X231086Y374902D01*
D02*
G37*
G36*
X699754Y367402D02*
Y362188D01*
X704968D01*
X704679Y363642D01*
X703289Y365723D01*
X701208Y367113D01*
X699754Y367402D01*
D02*
G37*
G36*
X765420Y370856D02*
X752992D01*
X753281Y369402D01*
X754671Y367321D01*
X755424Y366818D01*
Y365548D01*
X754925Y365215D01*
X753535Y363134D01*
X753246Y361680D01*
X765674D01*
X765385Y363134D01*
X763995Y365215D01*
X763242Y365718D01*
Y366988D01*
X763741Y367321D01*
X765131Y369402D01*
X765420Y370856D01*
D02*
G37*
G36*
X549148Y366052D02*
X547189Y365663D01*
X545529Y364553D01*
X544419Y362893D01*
X544030Y360934D01*
X544419Y358975D01*
X545529Y357315D01*
X547189Y356205D01*
X549148Y355816D01*
X551107Y356205D01*
X552767Y357315D01*
X553877Y358975D01*
X554266Y360934D01*
X553877Y362893D01*
X552767Y364553D01*
X551107Y365663D01*
X549148Y366052D01*
D02*
G37*
G36*
X704968Y360188D02*
X699754D01*
Y354974D01*
X701208Y355263D01*
X703289Y356653D01*
X704679Y358734D01*
X704968Y360188D01*
D02*
G37*
G36*
X183388Y362604D02*
X181429Y362215D01*
X179769Y361105D01*
X178659Y359445D01*
X178270Y357486D01*
X178659Y355527D01*
X179769Y353867D01*
X181429Y352757D01*
X183388Y352368D01*
X185347Y352757D01*
X187007Y353867D01*
X188117Y355527D01*
X188506Y357486D01*
X188117Y359445D01*
X187007Y361105D01*
X185347Y362215D01*
X183388Y362604D01*
D02*
G37*
G36*
X342900Y362171D02*
X340941Y361782D01*
X339281Y360672D01*
X338171Y359012D01*
X337782Y357053D01*
X338171Y355094D01*
X339281Y353434D01*
X340941Y352324D01*
X342900Y351935D01*
X344859Y352324D01*
X346519Y353434D01*
X347629Y355094D01*
X348018Y357053D01*
X347629Y359012D01*
X346519Y360672D01*
X344859Y361782D01*
X342900Y362171D01*
D02*
G37*
G36*
X245872Y358179D02*
X244401Y357886D01*
X243154Y357053D01*
X242321Y355806D01*
X242028Y354335D01*
X242321Y352864D01*
X243154Y351617D01*
X244401Y350784D01*
X245872Y350491D01*
X247343Y350784D01*
X248590Y351617D01*
X249423Y352864D01*
X249716Y354335D01*
X249423Y355806D01*
X248590Y357053D01*
X247343Y357886D01*
X245872Y358179D01*
D02*
G37*
G36*
X765674Y359680D02*
X753246D01*
X753535Y358226D01*
X754925Y356145D01*
X755741Y355600D01*
Y354330D01*
X754925Y353785D01*
X753535Y351704D01*
X753246Y350250D01*
X765674D01*
X765385Y351704D01*
X763995Y353785D01*
X763179Y354330D01*
Y355600D01*
X763995Y356145D01*
X765385Y358226D01*
X765674Y359680D01*
D02*
G37*
G36*
X402082Y356650D02*
X400611Y356357D01*
X399364Y355524D01*
X398531Y354277D01*
X398238Y352806D01*
X398531Y351335D01*
X399364Y350088D01*
X400611Y349255D01*
X402082Y348962D01*
X403553Y349255D01*
X404800Y350088D01*
X405633Y351335D01*
X405926Y352806D01*
X405633Y354277D01*
X404800Y355524D01*
X403553Y356357D01*
X402082Y356650D01*
D02*
G37*
G36*
X11176Y358940D02*
X9217Y358551D01*
X7557Y357441D01*
X6447Y355781D01*
X6058Y353822D01*
X6447Y351863D01*
X7557Y350203D01*
X9217Y349093D01*
X11176Y348704D01*
X13135Y349093D01*
X14795Y350203D01*
X15905Y351863D01*
X16294Y353822D01*
X15905Y355781D01*
X14795Y357441D01*
X13135Y358551D01*
X11176Y358940D01*
D02*
G37*
G36*
X765674Y348250D02*
X760460D01*
Y343036D01*
X761914Y343325D01*
X763995Y344715D01*
X765385Y346796D01*
X765674Y348250D01*
D02*
G37*
G36*
X758460D02*
X753246D01*
X753535Y346796D01*
X754925Y344715D01*
X757006Y343325D01*
X758460Y343036D01*
Y348250D01*
D02*
G37*
G36*
X338074Y351066D02*
X336115Y350677D01*
X334455Y349567D01*
X333345Y347907D01*
X332956Y345948D01*
X333345Y343989D01*
X334455Y342329D01*
X336115Y341219D01*
X338074Y340830D01*
X340033Y341219D01*
X341693Y342329D01*
X342803Y343989D01*
X343192Y345948D01*
X342803Y347907D01*
X341693Y349567D01*
X340033Y350677D01*
X338074Y351066D01*
D02*
G37*
G36*
X20516Y349034D02*
X18557Y348645D01*
X16897Y347535D01*
X15787Y345875D01*
X15398Y343916D01*
X15787Y341957D01*
X16897Y340297D01*
X18557Y339187D01*
X20516Y338798D01*
X22475Y339187D01*
X24135Y340297D01*
X25245Y341957D01*
X25634Y343916D01*
X25245Y345875D01*
X24135Y347535D01*
X22475Y348645D01*
X20516Y349034D01*
D02*
G37*
G36*
X504038Y347510D02*
X502079Y347121D01*
X500419Y346011D01*
X499309Y344351D01*
X498920Y342392D01*
X499309Y340433D01*
X500419Y338773D01*
X502079Y337663D01*
X504038Y337274D01*
X505997Y337663D01*
X507657Y338773D01*
X508767Y340433D01*
X509156Y342392D01*
X508767Y344351D01*
X507657Y346011D01*
X505997Y347121D01*
X504038Y347510D01*
D02*
G37*
G36*
X224480Y351162D02*
X206940D01*
Y333622D01*
X224480D01*
Y351162D01*
D02*
G37*
G36*
X60142D02*
X42602D01*
Y333622D01*
X60142D01*
Y351162D01*
D02*
G37*
G36*
X384106Y350862D02*
X366566D01*
Y333322D01*
X384106D01*
Y350862D01*
D02*
G37*
G36*
X498094Y333540D02*
X496135Y333151D01*
X494475Y332041D01*
X493365Y330381D01*
X492976Y328422D01*
X493365Y326463D01*
X494475Y324803D01*
X496135Y323693D01*
X498094Y323304D01*
X500053Y323693D01*
X501713Y324803D01*
X502823Y326463D01*
X503212Y328422D01*
X502823Y330381D01*
X501713Y332041D01*
X500053Y333151D01*
X498094Y333540D01*
D02*
G37*
G36*
X544372Y339834D02*
X526832D01*
Y322294D01*
X544372D01*
Y339834D01*
D02*
G37*
G36*
X215710Y325838D02*
X213421Y325536D01*
X211287Y324653D01*
X209455Y323247D01*
X208049Y321415D01*
X207166Y319281D01*
X206864Y316992D01*
X207166Y314703D01*
X208049Y312569D01*
X209455Y310737D01*
X211287Y309331D01*
X213421Y308448D01*
X215710Y308146D01*
X217999Y308448D01*
X220133Y309331D01*
X221965Y310737D01*
X223371Y312569D01*
X224254Y314703D01*
X224556Y316992D01*
X224254Y319281D01*
X223371Y321415D01*
X221965Y323247D01*
X220133Y324653D01*
X217999Y325536D01*
X215710Y325838D01*
D02*
G37*
G36*
X51372D02*
X49083Y325536D01*
X46949Y324653D01*
X45117Y323247D01*
X43711Y321415D01*
X42828Y319281D01*
X42526Y316992D01*
X42828Y314703D01*
X43711Y312569D01*
X45117Y310737D01*
X46949Y309331D01*
X49083Y308448D01*
X51372Y308146D01*
X53661Y308448D01*
X55795Y309331D01*
X57627Y310737D01*
X59033Y312569D01*
X59916Y314703D01*
X60218Y316992D01*
X59916Y319281D01*
X59033Y321415D01*
X57627Y323247D01*
X55795Y324653D01*
X53661Y325536D01*
X51372Y325838D01*
D02*
G37*
G36*
X375336Y325538D02*
X373046Y325236D01*
X370913Y324353D01*
X369081Y322947D01*
X367675Y321115D01*
X366792Y318981D01*
X366490Y316692D01*
X366792Y314403D01*
X367675Y312269D01*
X369081Y310437D01*
X370913Y309031D01*
X373046Y308148D01*
X375336Y307846D01*
X377625Y308148D01*
X379759Y309031D01*
X381591Y310437D01*
X382996Y312269D01*
X383880Y314403D01*
X384182Y316692D01*
X383880Y318981D01*
X382996Y321115D01*
X381591Y322947D01*
X379759Y324353D01*
X377625Y325236D01*
X375336Y325538D01*
D02*
G37*
G36*
X353382Y310866D02*
X351423Y310477D01*
X349763Y309367D01*
X348653Y307707D01*
X348264Y305748D01*
X348653Y303789D01*
X349763Y302129D01*
X351423Y301019D01*
X353382Y300630D01*
X355341Y301019D01*
X357001Y302129D01*
X358111Y303789D01*
X358500Y305748D01*
X358111Y307707D01*
X357001Y309367D01*
X355341Y310477D01*
X353382Y310866D01*
D02*
G37*
G36*
X193358Y309474D02*
X191399Y309085D01*
X189739Y307975D01*
X188629Y306315D01*
X188240Y304356D01*
X188629Y302397D01*
X189739Y300737D01*
X191399Y299627D01*
X193358Y299238D01*
X195317Y299627D01*
X196977Y300737D01*
X198087Y302397D01*
X198476Y304356D01*
X198087Y306315D01*
X196977Y307975D01*
X195317Y309085D01*
X193358Y309474D01*
D02*
G37*
G36*
X28766Y309156D02*
X26807Y308767D01*
X25147Y307657D01*
X24037Y305997D01*
X23648Y304038D01*
X24037Y302079D01*
X25147Y300419D01*
X26807Y299309D01*
X28766Y298920D01*
X30725Y299309D01*
X32385Y300419D01*
X33495Y302079D01*
X33884Y304038D01*
X33495Y305997D01*
X32385Y307657D01*
X30725Y308767D01*
X28766Y309156D01*
D02*
G37*
G36*
X535602Y314510D02*
X533313Y314208D01*
X531179Y313325D01*
X529347Y311919D01*
X527941Y310087D01*
X527058Y307953D01*
X526756Y305664D01*
X527058Y303375D01*
X527941Y301241D01*
X529347Y299409D01*
X531179Y298003D01*
X533313Y297120D01*
X535602Y296818D01*
X537891Y297120D01*
X540025Y298003D01*
X541857Y299409D01*
X543263Y301241D01*
X544146Y303375D01*
X544448Y305664D01*
X544146Y307953D01*
X543263Y310087D01*
X541857Y311919D01*
X540025Y313325D01*
X537891Y314208D01*
X535602Y314510D01*
D02*
G37*
G36*
X513758Y298150D02*
X511799Y297761D01*
X510139Y296651D01*
X509029Y294991D01*
X508640Y293032D01*
X509029Y291073D01*
X510139Y289413D01*
X511799Y288303D01*
X513758Y287914D01*
X515717Y288303D01*
X517377Y289413D01*
X518487Y291073D01*
X518876Y293032D01*
X518487Y294991D01*
X517377Y296651D01*
X515717Y297761D01*
X513758Y298150D01*
D02*
G37*
G36*
X215710Y300438D02*
X213421Y300136D01*
X211287Y299253D01*
X209455Y297847D01*
X208049Y296015D01*
X207166Y293881D01*
X206864Y291592D01*
X207166Y289303D01*
X208049Y287169D01*
X209455Y285337D01*
X211287Y283931D01*
X213421Y283048D01*
X215710Y282746D01*
X217999Y283048D01*
X220133Y283931D01*
X221965Y285337D01*
X223371Y287169D01*
X224254Y289303D01*
X224556Y291592D01*
X224254Y293881D01*
X223371Y296015D01*
X221965Y297847D01*
X220133Y299253D01*
X217999Y300136D01*
X215710Y300438D01*
D02*
G37*
G36*
X51372D02*
X49083Y300136D01*
X46949Y299253D01*
X45117Y297847D01*
X43711Y296015D01*
X42828Y293881D01*
X42526Y291592D01*
X42828Y289303D01*
X43711Y287169D01*
X45117Y285337D01*
X46949Y283931D01*
X49083Y283048D01*
X51372Y282746D01*
X53661Y283048D01*
X55795Y283931D01*
X57627Y285337D01*
X59033Y287169D01*
X59916Y289303D01*
X60218Y291592D01*
X59916Y293881D01*
X59033Y296015D01*
X57627Y297847D01*
X55795Y299253D01*
X53661Y300136D01*
X51372Y300438D01*
D02*
G37*
G36*
X375336Y300138D02*
X373046Y299836D01*
X370913Y298953D01*
X369081Y297547D01*
X367675Y295715D01*
X366792Y293581D01*
X366490Y291292D01*
X366792Y289003D01*
X367675Y286869D01*
X369081Y285037D01*
X370913Y283631D01*
X373046Y282748D01*
X375336Y282446D01*
X377625Y282748D01*
X379759Y283631D01*
X381591Y285037D01*
X382996Y286869D01*
X383880Y289003D01*
X384182Y291292D01*
X383880Y293581D01*
X382996Y295715D01*
X381591Y297547D01*
X379759Y298953D01*
X377625Y299836D01*
X375336Y300138D01*
D02*
G37*
G36*
X535602Y289110D02*
X533313Y288808D01*
X531179Y287925D01*
X529347Y286519D01*
X527941Y284687D01*
X527058Y282553D01*
X526756Y280264D01*
X527058Y277975D01*
X527941Y275841D01*
X529347Y274009D01*
X531179Y272603D01*
X533313Y271720D01*
X535602Y271418D01*
X537891Y271720D01*
X540025Y272603D01*
X541857Y274009D01*
X543263Y275841D01*
X544146Y277975D01*
X544448Y280264D01*
X544146Y282553D01*
X543263Y284687D01*
X541857Y286519D01*
X540025Y287925D01*
X537891Y288808D01*
X535602Y289110D01*
D02*
G37*
G36*
X215710Y275038D02*
X213421Y274736D01*
X211287Y273853D01*
X209455Y272447D01*
X208049Y270615D01*
X207166Y268481D01*
X206864Y266192D01*
X207166Y263903D01*
X208049Y261769D01*
X209455Y259937D01*
X211287Y258531D01*
X213421Y257648D01*
X215710Y257346D01*
X217999Y257648D01*
X220133Y258531D01*
X221965Y259937D01*
X223371Y261769D01*
X224254Y263903D01*
X224556Y266192D01*
X224254Y268481D01*
X223371Y270615D01*
X221965Y272447D01*
X220133Y273853D01*
X217999Y274736D01*
X215710Y275038D01*
D02*
G37*
G36*
X51372D02*
X49083Y274736D01*
X46949Y273853D01*
X45117Y272447D01*
X43711Y270615D01*
X42828Y268481D01*
X42526Y266192D01*
X42828Y263903D01*
X43711Y261769D01*
X45117Y259937D01*
X46949Y258531D01*
X49083Y257648D01*
X51372Y257346D01*
X53661Y257648D01*
X55795Y258531D01*
X57627Y259937D01*
X59033Y261769D01*
X59916Y263903D01*
X60218Y266192D01*
X59916Y268481D01*
X59033Y270615D01*
X57627Y272447D01*
X55795Y273853D01*
X53661Y274736D01*
X51372Y275038D01*
D02*
G37*
G36*
X375336Y274738D02*
X373046Y274436D01*
X370913Y273553D01*
X369081Y272147D01*
X367675Y270315D01*
X366792Y268181D01*
X366490Y265892D01*
X366792Y263603D01*
X367675Y261469D01*
X369081Y259637D01*
X370913Y258231D01*
X373046Y257348D01*
X375336Y257046D01*
X377625Y257348D01*
X379759Y258231D01*
X381591Y259637D01*
X382996Y261469D01*
X383880Y263603D01*
X384182Y265892D01*
X383880Y268181D01*
X382996Y270315D01*
X381591Y272147D01*
X379759Y273553D01*
X377625Y274436D01*
X375336Y274738D01*
D02*
G37*
G36*
X535602Y263710D02*
X533313Y263408D01*
X531179Y262525D01*
X529347Y261119D01*
X527941Y259287D01*
X527058Y257153D01*
X526756Y254864D01*
X527058Y252575D01*
X527941Y250441D01*
X529347Y248609D01*
X531179Y247203D01*
X533313Y246320D01*
X535602Y246018D01*
X537891Y246320D01*
X540025Y247203D01*
X541857Y248609D01*
X543263Y250441D01*
X544146Y252575D01*
X544448Y254864D01*
X544146Y257153D01*
X543263Y259287D01*
X541857Y261119D01*
X540025Y262525D01*
X537891Y263408D01*
X535602Y263710D01*
D02*
G37*
G36*
X252206Y233920D02*
Y228706D01*
X257420D01*
X257131Y230160D01*
X255741Y232241D01*
X253660Y233631D01*
X252206Y233920D01*
D02*
G37*
G36*
X250206D02*
X248752Y233631D01*
X246671Y232241D01*
X245281Y230160D01*
X244992Y228706D01*
X250206D01*
Y233920D01*
D02*
G37*
G36*
X88440Y232228D02*
Y227014D01*
X93654D01*
X93365Y228468D01*
X91975Y230549D01*
X89894Y231939D01*
X88440Y232228D01*
D02*
G37*
G36*
X86440D02*
X84986Y231939D01*
X82905Y230549D01*
X81515Y228468D01*
X81226Y227014D01*
X86440D01*
Y232228D01*
D02*
G37*
G36*
X411718Y231766D02*
Y226552D01*
X416932D01*
X416643Y228006D01*
X415253Y230087D01*
X413172Y231477D01*
X411718Y231766D01*
D02*
G37*
G36*
X409718D02*
X408264Y231477D01*
X406183Y230087D01*
X404793Y228006D01*
X404504Y226552D01*
X409718D01*
Y231766D01*
D02*
G37*
G36*
X354144Y233786D02*
X352185Y233397D01*
X350525Y232287D01*
X349415Y230627D01*
X349026Y228668D01*
X349415Y226709D01*
X350525Y225049D01*
X352185Y223939D01*
X354144Y223550D01*
X356103Y223939D01*
X357763Y225049D01*
X358873Y226709D01*
X359262Y228668D01*
X358873Y230627D01*
X357763Y232287D01*
X356103Y233397D01*
X354144Y233786D01*
D02*
G37*
G36*
X257420Y226706D02*
X252206D01*
Y221492D01*
X253660Y221781D01*
X255741Y223171D01*
X257131Y225252D01*
X257420Y226706D01*
D02*
G37*
G36*
X250206D02*
X244992D01*
X245281Y225252D01*
X246671Y223171D01*
X248752Y221781D01*
X250206Y221492D01*
Y226706D01*
D02*
G37*
G36*
X86440Y225014D02*
X81226D01*
X81515Y223560D01*
X82905Y221479D01*
X84986Y220089D01*
X86440Y219800D01*
Y225014D01*
D02*
G37*
G36*
X29020Y229844D02*
X27061Y229455D01*
X25401Y228345D01*
X24291Y226685D01*
X23902Y224726D01*
X24291Y222767D01*
X25401Y221107D01*
X27061Y219997D01*
X29020Y219608D01*
X30979Y219997D01*
X32639Y221107D01*
X33749Y222767D01*
X34138Y224726D01*
X33749Y226685D01*
X32639Y228345D01*
X30979Y229455D01*
X29020Y229844D01*
D02*
G37*
G36*
X194120Y229681D02*
X192161Y229292D01*
X190501Y228182D01*
X189391Y226521D01*
X189002Y224563D01*
X189391Y222604D01*
X190501Y220944D01*
X192161Y219834D01*
X194120Y219445D01*
X196079Y219834D01*
X197739Y220944D01*
X198849Y222604D01*
X199238Y224563D01*
X198849Y226521D01*
X197739Y228182D01*
X196079Y229292D01*
X194120Y229681D01*
D02*
G37*
G36*
X416932Y224552D02*
X411718D01*
Y219338D01*
X413172Y219627D01*
X415253Y221017D01*
X416643Y223098D01*
X416932Y224552D01*
D02*
G37*
G36*
X409718D02*
X404504D01*
X404793Y223098D01*
X406183Y221017D01*
X408264Y219627D01*
X409718Y219338D01*
Y224552D01*
D02*
G37*
G36*
X568284Y220438D02*
Y215224D01*
X573498D01*
X573209Y216678D01*
X571819Y218759D01*
X569738Y220149D01*
X568284Y220438D01*
D02*
G37*
G36*
X566284D02*
X564830Y220149D01*
X562749Y218759D01*
X561359Y216678D01*
X561070Y215224D01*
X566284D01*
Y220438D01*
D02*
G37*
G36*
X232265Y221762D02*
X230307Y221373D01*
X228646Y220263D01*
X227537Y218603D01*
X227147Y216644D01*
X227537Y214685D01*
X228646Y213025D01*
X230307Y211915D01*
X232265Y211526D01*
X234224Y211915D01*
X235885Y213025D01*
X236994Y214685D01*
X237384Y216644D01*
X236994Y218603D01*
X235885Y220263D01*
X234224Y221373D01*
X232265Y221762D01*
D02*
G37*
G36*
X67264Y220256D02*
X65305Y219867D01*
X63645Y218757D01*
X62535Y217097D01*
X62146Y215138D01*
X62535Y213179D01*
X63645Y211519D01*
X65305Y210409D01*
X67264Y210020D01*
X69223Y210409D01*
X70883Y211519D01*
X71993Y213179D01*
X72382Y215138D01*
X71993Y217097D01*
X70883Y218757D01*
X69223Y219867D01*
X67264Y220256D01*
D02*
G37*
G36*
X391368Y220210D02*
X389409Y219821D01*
X387749Y218711D01*
X386639Y217051D01*
X386250Y215092D01*
X386639Y213133D01*
X387749Y211473D01*
X389409Y210363D01*
X391368Y209974D01*
X393327Y210363D01*
X394987Y211473D01*
X396097Y213133D01*
X396486Y215092D01*
X396097Y217051D01*
X394987Y218711D01*
X393327Y219821D01*
X391368Y220210D01*
D02*
G37*
G36*
X418338Y219240D02*
X416379Y218851D01*
X414719Y217741D01*
X413609Y216081D01*
X413220Y214122D01*
X413609Y212163D01*
X414719Y210503D01*
X416379Y209393D01*
X418338Y209004D01*
X420297Y209393D01*
X421957Y210503D01*
X423067Y212163D01*
X423456Y214122D01*
X423067Y216081D01*
X421957Y217741D01*
X420297Y218851D01*
X418338Y219240D01*
D02*
G37*
G36*
X514452Y218353D02*
X512493Y217964D01*
X510833Y216854D01*
X509723Y215194D01*
X509334Y213235D01*
X509723Y211276D01*
X510833Y209616D01*
X512493Y208506D01*
X514452Y208116D01*
X516411Y208506D01*
X518071Y209616D01*
X519181Y211276D01*
X519570Y213235D01*
X519181Y215194D01*
X518071Y216854D01*
X516411Y217964D01*
X514452Y218353D01*
D02*
G37*
G36*
X573498Y213224D02*
X568284D01*
Y208010D01*
X569738Y208299D01*
X571819Y209689D01*
X573209Y211770D01*
X573498Y213224D01*
D02*
G37*
G36*
X566284D02*
X561070D01*
X561359Y211770D01*
X562749Y209689D01*
X564830Y208299D01*
X566284Y208010D01*
Y213224D01*
D02*
G37*
G36*
X550284Y209436D02*
X548325Y209047D01*
X546665Y207937D01*
X545555Y206277D01*
X545166Y204318D01*
X545555Y202359D01*
X546665Y200699D01*
X548325Y199589D01*
X550284Y199200D01*
X552243Y199589D01*
X553903Y200699D01*
X555013Y202359D01*
X555402Y204318D01*
X555013Y206277D01*
X553903Y207937D01*
X552243Y209047D01*
X550284Y209436D01*
D02*
G37*
G36*
X578714Y209182D02*
X576755Y208793D01*
X575095Y207683D01*
X573985Y206023D01*
X573596Y204064D01*
X573985Y202105D01*
X575095Y200445D01*
X576755Y199335D01*
X578714Y198946D01*
X580673Y199335D01*
X582333Y200445D01*
X583443Y202105D01*
X583832Y204064D01*
X583443Y206023D01*
X582333Y207683D01*
X580673Y208793D01*
X578714Y209182D01*
D02*
G37*
G36*
X642366Y191808D02*
X640407Y191419D01*
X638747Y190309D01*
X637637Y188649D01*
X637248Y186690D01*
X637637Y184731D01*
X638747Y183071D01*
X640407Y181961D01*
X642366Y181572D01*
X644325Y181961D01*
X645985Y183071D01*
X647095Y184731D01*
X647484Y186690D01*
X647095Y188649D01*
X645985Y190309D01*
X644325Y191419D01*
X642366Y191808D01*
D02*
G37*
G36*
X182741Y179243D02*
X180783Y178854D01*
X179122Y177744D01*
X178013Y176084D01*
X177623Y174125D01*
X178013Y172166D01*
X179122Y170506D01*
X180783Y169396D01*
X182741Y169007D01*
X184700Y169396D01*
X186361Y170506D01*
X187470Y172166D01*
X187860Y174125D01*
X187470Y176084D01*
X186361Y177744D01*
X184700Y178854D01*
X182741Y179243D01*
D02*
G37*
G36*
X153416Y178854D02*
X151457Y178465D01*
X149797Y177355D01*
X148687Y175695D01*
X148298Y173736D01*
X148687Y171777D01*
X149797Y170117D01*
X151457Y169007D01*
X153416Y168618D01*
X155375Y169007D01*
X157035Y170117D01*
X158145Y171777D01*
X158534Y173736D01*
X158145Y175695D01*
X157035Y177355D01*
X155375Y178465D01*
X153416Y178854D01*
D02*
G37*
G36*
X321056Y178600D02*
X319097Y178211D01*
X317437Y177101D01*
X316327Y175441D01*
X315938Y173482D01*
X316327Y171523D01*
X317437Y169863D01*
X319097Y168753D01*
X321056Y168364D01*
X323015Y168753D01*
X324675Y169863D01*
X325785Y171523D01*
X326174Y173482D01*
X325785Y175441D01*
X324675Y177101D01*
X323015Y178211D01*
X321056Y178600D01*
D02*
G37*
G36*
X480822Y176060D02*
X478863Y175671D01*
X477203Y174561D01*
X476093Y172901D01*
X475704Y170942D01*
X476093Y168983D01*
X477203Y167323D01*
X478863Y166213D01*
X480822Y165824D01*
X482781Y166213D01*
X484441Y167323D01*
X485551Y168983D01*
X485940Y170942D01*
X485551Y172901D01*
X484441Y174561D01*
X482781Y175671D01*
X480822Y176060D01*
D02*
G37*
G36*
X704850Y172500D02*
X703379Y172207D01*
X702132Y171374D01*
X701299Y170127D01*
X701006Y168656D01*
X701299Y167185D01*
X702132Y165938D01*
X703379Y165105D01*
X704850Y164812D01*
X706321Y165105D01*
X707568Y165938D01*
X708401Y167185D01*
X708694Y168656D01*
X708401Y170127D01*
X707568Y171374D01*
X706321Y172207D01*
X704850Y172500D01*
D02*
G37*
G36*
X640944Y165494D02*
X638985Y165105D01*
X637325Y163995D01*
X636215Y162335D01*
X635826Y160376D01*
X636215Y158417D01*
X637325Y156757D01*
X638985Y155647D01*
X640944Y155258D01*
X642903Y155647D01*
X644563Y156757D01*
X645673Y158417D01*
X646062Y160376D01*
X645673Y162335D01*
X644563Y163995D01*
X642903Y165105D01*
X640944Y165494D01*
D02*
G37*
G36*
X302244Y157344D02*
Y152130D01*
X307458D01*
X307169Y153584D01*
X305779Y155665D01*
X303698Y157055D01*
X302244Y157344D01*
D02*
G37*
G36*
X300244D02*
X298790Y157055D01*
X296709Y155665D01*
X295319Y153584D01*
X295030Y152130D01*
X300244D01*
Y157344D01*
D02*
G37*
G36*
X117840Y157090D02*
Y151876D01*
X123054D01*
X122765Y153330D01*
X121375Y155411D01*
X119294Y156801D01*
X117840Y157090D01*
D02*
G37*
G36*
X115840D02*
X114386Y156801D01*
X112305Y155411D01*
X110915Y153330D01*
X110626Y151876D01*
X115840D01*
Y157090D01*
D02*
G37*
G36*
X603340Y156836D02*
Y151622D01*
X608554D01*
X608265Y153076D01*
X606875Y155157D01*
X604794Y156547D01*
X603340Y156836D01*
D02*
G37*
G36*
X601340D02*
X599886Y156547D01*
X597805Y155157D01*
X596415Y153076D01*
X596126Y151622D01*
X601340D01*
Y156836D01*
D02*
G37*
G36*
X453550Y154472D02*
Y149258D01*
X458764D01*
X458475Y150712D01*
X457085Y152793D01*
X455004Y154183D01*
X453550Y154472D01*
D02*
G37*
G36*
X451550D02*
X450095Y154183D01*
X448015Y152793D01*
X446625Y150712D01*
X446335Y149258D01*
X451550D01*
Y154472D01*
D02*
G37*
G36*
X307458Y150130D02*
X302244D01*
Y144916D01*
X303698Y145205D01*
X305779Y146595D01*
X307169Y148676D01*
X307458Y150130D01*
D02*
G37*
G36*
X300244D02*
X295030D01*
X295319Y148676D01*
X296709Y146595D01*
X298790Y145205D01*
X300244Y144916D01*
Y150130D01*
D02*
G37*
G36*
X123054Y149876D02*
X117840D01*
Y144662D01*
X119294Y144951D01*
X121375Y146341D01*
X122765Y148422D01*
X123054Y149876D01*
D02*
G37*
G36*
X115840D02*
X110626D01*
X110915Y148422D01*
X112305Y146341D01*
X114386Y144951D01*
X115840Y144662D01*
Y149876D01*
D02*
G37*
G36*
X608554Y149622D02*
X603340D01*
Y144408D01*
X604794Y144697D01*
X606875Y146087D01*
X608265Y148168D01*
X608554Y149622D01*
D02*
G37*
G36*
X601340D02*
X596126D01*
X596415Y148168D01*
X597805Y146087D01*
X599886Y144697D01*
X601340Y144408D01*
Y149622D01*
D02*
G37*
G36*
X696852Y171072D02*
X678812D01*
Y153032D01*
X695349D01*
X695734Y151762D01*
X695643Y151701D01*
X694533Y150041D01*
X694144Y148082D01*
X694533Y146123D01*
X695643Y144463D01*
X697303Y143353D01*
X699262Y142964D01*
X701221Y143353D01*
X702881Y144463D01*
X703991Y146123D01*
X704380Y148082D01*
X703991Y150041D01*
X702881Y151701D01*
X701221Y152811D01*
X699262Y153200D01*
X698096Y152968D01*
X696852Y153920D01*
Y171072D01*
D02*
G37*
G36*
X458764Y147258D02*
X453550D01*
Y142043D01*
X455004Y142333D01*
X457085Y143723D01*
X458475Y145803D01*
X458764Y147258D01*
D02*
G37*
G36*
X451550D02*
X446335D01*
X446625Y145803D01*
X448015Y143723D01*
X450095Y142333D01*
X451550Y142043D01*
Y147258D01*
D02*
G37*
G36*
X605932Y461956D02*
X603973Y461567D01*
X602313Y460457D01*
X601203Y458797D01*
X600814Y456838D01*
X601203Y454879D01*
X602313Y453219D01*
X603973Y452109D01*
X605932Y451720D01*
X607891Y452109D01*
X609551Y453219D01*
X610661Y454879D01*
X611050Y456838D01*
X610661Y458797D01*
X609551Y460457D01*
X607891Y461567D01*
X605932Y461956D01*
D02*
G37*
G36*
X375966Y459986D02*
X374007Y459597D01*
X372347Y458487D01*
X371237Y456827D01*
X370848Y454868D01*
X371237Y452909D01*
X372347Y451249D01*
X374007Y450139D01*
X375966Y449750D01*
X377925Y450139D01*
X379585Y451249D01*
X380695Y452909D01*
X381084Y454868D01*
X380695Y456827D01*
X379585Y458487D01*
X377925Y459597D01*
X375966Y459986D01*
D02*
G37*
G36*
X161290Y459860D02*
X159331Y459471D01*
X157671Y458361D01*
X156561Y456701D01*
X156172Y454742D01*
X156561Y452783D01*
X157671Y451123D01*
X159331Y450013D01*
X161290Y449624D01*
X163249Y450013D01*
X164909Y451123D01*
X166019Y452783D01*
X166408Y454742D01*
X166019Y456701D01*
X164909Y458361D01*
X163249Y459471D01*
X161290Y459860D01*
D02*
G37*
G36*
X484298Y459858D02*
X482339Y459469D01*
X480679Y458359D01*
X479569Y456699D01*
X479180Y454740D01*
X479569Y452781D01*
X480679Y451121D01*
X482339Y450011D01*
X484298Y449622D01*
X486257Y450011D01*
X487917Y451121D01*
X489027Y452781D01*
X489416Y454740D01*
X489027Y456699D01*
X487917Y458359D01*
X486257Y459469D01*
X484298Y459858D01*
D02*
G37*
G36*
X262890Y459524D02*
X260931Y459135D01*
X259271Y458025D01*
X258161Y456365D01*
X257772Y454406D01*
X258161Y452447D01*
X259271Y450787D01*
X260931Y449677D01*
X262890Y449288D01*
X264849Y449677D01*
X266509Y450787D01*
X267619Y452447D01*
X268008Y454406D01*
X267619Y456365D01*
X266509Y458025D01*
X264849Y459135D01*
X262890Y459524D01*
D02*
G37*
G36*
X223371D02*
X221412Y459135D01*
X219751Y458025D01*
X218642Y456365D01*
X218252Y454406D01*
X218642Y452447D01*
X219751Y450787D01*
X221412Y449677D01*
X223371Y449288D01*
X225329Y449677D01*
X226990Y450787D01*
X228099Y452447D01*
X228489Y454406D01*
X228099Y456365D01*
X226990Y458025D01*
X225329Y459135D01*
X223371Y459524D01*
D02*
G37*
G36*
X324866Y457746D02*
X322907Y457357D01*
X321247Y456247D01*
X320137Y454587D01*
X319748Y452628D01*
X320137Y450669D01*
X321247Y449009D01*
X322907Y447899D01*
X324866Y447510D01*
X326825Y447899D01*
X328485Y449009D01*
X329595Y450669D01*
X329984Y452628D01*
X329595Y454587D01*
X328485Y456247D01*
X326825Y457357D01*
X324866Y457746D01*
D02*
G37*
G36*
X583816Y448936D02*
X581857Y448547D01*
X580197Y447437D01*
X579087Y445777D01*
X578698Y443818D01*
X579087Y441859D01*
X580197Y440199D01*
X581857Y439089D01*
X583816Y438700D01*
X585775Y439089D01*
X587435Y440199D01*
X588545Y441859D01*
X588934Y443818D01*
X588545Y445777D01*
X587435Y447437D01*
X585775Y448547D01*
X583816Y448936D01*
D02*
G37*
G36*
X542986Y448682D02*
X541028Y448293D01*
X539367Y447183D01*
X538258Y445523D01*
X537868Y443564D01*
X538258Y441605D01*
X539367Y439945D01*
X541028Y438835D01*
X542986Y438446D01*
X544945Y438835D01*
X546606Y439945D01*
X547715Y441605D01*
X548105Y443564D01*
X547715Y445523D01*
X546606Y447183D01*
X544945Y448293D01*
X542986Y448682D01*
D02*
G37*
G36*
X645414Y442252D02*
X643455Y441863D01*
X641795Y440753D01*
X640685Y439093D01*
X640296Y437134D01*
X640685Y435175D01*
X641795Y433515D01*
X643455Y432405D01*
X645414Y432016D01*
X647373Y432405D01*
X649033Y433515D01*
X650143Y435175D01*
X650532Y437134D01*
X650143Y439093D01*
X649033Y440753D01*
X647373Y441863D01*
X645414Y442252D01*
D02*
G37*
G36*
X422622Y440936D02*
X420663Y440547D01*
X419003Y439437D01*
X417893Y437777D01*
X417504Y435818D01*
X417893Y433859D01*
X419003Y432199D01*
X420663Y431089D01*
X422622Y430700D01*
X424581Y431089D01*
X426241Y432199D01*
X427351Y433859D01*
X427740Y435818D01*
X427351Y437777D01*
X426241Y439437D01*
X424581Y440547D01*
X422622Y440936D01*
D02*
G37*
G36*
X148384Y433696D02*
Y428482D01*
X153598D01*
X153309Y429936D01*
X151919Y432017D01*
X149838Y433407D01*
X148384Y433696D01*
D02*
G37*
G36*
X146384D02*
X144930Y433407D01*
X142849Y432017D01*
X141459Y429936D01*
X141170Y428482D01*
X146384D01*
Y433696D01*
D02*
G37*
G36*
X471548Y431296D02*
Y426082D01*
X476762D01*
X476473Y427536D01*
X475083Y429617D01*
X473002Y431007D01*
X471548Y431296D01*
D02*
G37*
G36*
X469548D02*
X468094Y431007D01*
X466013Y429617D01*
X464623Y427536D01*
X464334Y426082D01*
X469548D01*
Y431296D01*
D02*
G37*
G36*
X312404Y429886D02*
Y424672D01*
X317618D01*
X317329Y426126D01*
X315939Y428207D01*
X313858Y429597D01*
X312404Y429886D01*
D02*
G37*
G36*
X310404D02*
X308950Y429597D01*
X306869Y428207D01*
X305479Y426126D01*
X305190Y424672D01*
X310404D01*
Y429886D01*
D02*
G37*
G36*
X153598Y426482D02*
X148384D01*
Y421268D01*
X149838Y421557D01*
X151919Y422947D01*
X153309Y425028D01*
X153598Y426482D01*
D02*
G37*
G36*
X146384D02*
X141170D01*
X141459Y425028D01*
X142849Y422947D01*
X144930Y421557D01*
X146384Y421268D01*
Y426482D01*
D02*
G37*
G36*
X476762Y424082D02*
X471548D01*
Y418868D01*
X473002Y419157D01*
X475083Y420547D01*
X476473Y422628D01*
X476762Y424082D01*
D02*
G37*
G36*
X469548D02*
X464334D01*
X464623Y422628D01*
X466013Y420547D01*
X468094Y419157D01*
X469548Y418868D01*
Y424082D01*
D02*
G37*
G36*
X317618Y422672D02*
X312404D01*
Y417458D01*
X313858Y417747D01*
X315939Y419137D01*
X317329Y421218D01*
X317618Y422672D01*
D02*
G37*
G36*
X310404D02*
X305190D01*
X305479Y421218D01*
X306869Y419137D01*
X308950Y417747D01*
X310404Y417458D01*
Y422672D01*
D02*
G37*
G36*
X632568Y420994D02*
Y415780D01*
X637782D01*
X637493Y417234D01*
X636103Y419315D01*
X634022Y420705D01*
X632568Y420994D01*
D02*
G37*
G36*
X630568D02*
X629114Y420705D01*
X627033Y419315D01*
X625643Y417234D01*
X625354Y415780D01*
X630568D01*
Y420994D01*
D02*
G37*
G36*
X637782Y413780D02*
X632568D01*
Y408566D01*
X634022Y408855D01*
X636103Y410245D01*
X637493Y412326D01*
X637782Y413780D01*
D02*
G37*
G36*
X630568D02*
X625354D01*
X625643Y412326D01*
X627033Y410245D01*
X629114Y408855D01*
X630568Y408566D01*
Y413780D01*
D02*
G37*
G36*
X291280Y413100D02*
X289321Y412711D01*
X287661Y411601D01*
X286551Y409941D01*
X286162Y407982D01*
X286551Y406023D01*
X287661Y404363D01*
X289321Y403253D01*
X291280Y402864D01*
X293239Y403253D01*
X294899Y404363D01*
X296009Y406023D01*
X296398Y407982D01*
X296009Y409941D01*
X294899Y411601D01*
X293239Y412711D01*
X291280Y413100D01*
D02*
G37*
G36*
X126942Y412534D02*
X124983Y412145D01*
X123323Y411035D01*
X122213Y409375D01*
X121824Y407416D01*
X122213Y405457D01*
X123323Y403797D01*
X124983Y402687D01*
X126942Y402298D01*
X128901Y402687D01*
X130561Y403797D01*
X131671Y405457D01*
X132060Y407416D01*
X131671Y409375D01*
X130561Y411035D01*
X128901Y412145D01*
X126942Y412534D01*
D02*
G37*
G36*
X451122Y411282D02*
X449163Y410893D01*
X447503Y409783D01*
X446393Y408123D01*
X446004Y406164D01*
X446393Y404205D01*
X447503Y402545D01*
X449163Y401435D01*
X451122Y401046D01*
X453081Y401435D01*
X454741Y402545D01*
X455851Y404205D01*
X456240Y406164D01*
X455851Y408123D01*
X454741Y409783D01*
X453081Y410893D01*
X451122Y411282D01*
D02*
G37*
G36*
X614020Y400698D02*
X612061Y400309D01*
X610401Y399199D01*
X609291Y397539D01*
X608902Y395580D01*
X609291Y393621D01*
X610401Y391961D01*
X612061Y390851D01*
X614020Y390462D01*
X615979Y390851D01*
X617639Y391961D01*
X618749Y393621D01*
X619138Y395580D01*
X618749Y397539D01*
X617639Y399199D01*
X615979Y400309D01*
X614020Y400698D01*
D02*
G37*
G36*
X653632Y390770D02*
Y385556D01*
X658846D01*
X658557Y387010D01*
X657167Y389091D01*
X655086Y390481D01*
X653632Y390770D01*
D02*
G37*
G36*
X651632D02*
X650178Y390481D01*
X648097Y389091D01*
X646707Y387010D01*
X646418Y385556D01*
X651632D01*
Y390770D01*
D02*
G37*
G36*
X129914Y390182D02*
X127955Y389793D01*
X126295Y388683D01*
X125185Y387023D01*
X124796Y385064D01*
X125185Y383105D01*
X126295Y381445D01*
X127955Y380335D01*
X129914Y379946D01*
X131873Y380335D01*
X133533Y381445D01*
X134643Y383105D01*
X135032Y385064D01*
X134643Y387023D01*
X133533Y388683D01*
X131873Y389793D01*
X129914Y390182D01*
D02*
G37*
G36*
X294594Y389120D02*
X292635Y388731D01*
X290975Y387621D01*
X289865Y385961D01*
X289476Y384002D01*
X289865Y382043D01*
X290975Y380383D01*
X292635Y379273D01*
X294594Y378884D01*
X296553Y379273D01*
X298213Y380383D01*
X299323Y382043D01*
X299712Y384002D01*
X299323Y385961D01*
X298213Y387621D01*
X296553Y388731D01*
X294594Y389120D01*
D02*
G37*
G36*
X454872Y388616D02*
X452913Y388227D01*
X451253Y387117D01*
X450143Y385457D01*
X449754Y383498D01*
X450143Y381539D01*
X451253Y379879D01*
X452913Y378769D01*
X454872Y378380D01*
X456831Y378769D01*
X458491Y379879D01*
X459601Y381539D01*
X459990Y383498D01*
X459601Y385457D01*
X458491Y387117D01*
X456831Y388227D01*
X454872Y388616D01*
D02*
G37*
G36*
X658846Y383556D02*
X653632D01*
Y378342D01*
X655086Y378631D01*
X657167Y380021D01*
X658557Y382102D01*
X658846Y383556D01*
D02*
G37*
G36*
X651632D02*
X646418D01*
X646707Y382102D01*
X648097Y380021D01*
X650178Y378631D01*
X651632Y378342D01*
Y383556D01*
D02*
G37*
G36*
X614994Y378558D02*
X613035Y378169D01*
X611375Y377059D01*
X610265Y375399D01*
X609876Y373440D01*
X610265Y371481D01*
X611375Y369821D01*
X613035Y368711D01*
X614994Y368322D01*
X616953Y368711D01*
X618613Y369821D01*
X619723Y371481D01*
X620112Y373440D01*
X619723Y375399D01*
X618613Y377059D01*
X616953Y378169D01*
X614994Y378558D01*
D02*
G37*
G36*
X291910Y351238D02*
X289621Y350936D01*
X287487Y350053D01*
X285655Y348647D01*
X284249Y346815D01*
X283366Y344681D01*
X283064Y342392D01*
X283366Y340103D01*
X284249Y337969D01*
X285655Y336137D01*
X287487Y334731D01*
X289621Y333848D01*
X291910Y333546D01*
X294199Y333848D01*
X296333Y334731D01*
X298165Y336137D01*
X299571Y337969D01*
X300454Y340103D01*
X300756Y342392D01*
X300454Y344681D01*
X299571Y346815D01*
X298165Y348647D01*
X296333Y350053D01*
X294199Y350936D01*
X291910Y351238D01*
D02*
G37*
G36*
X127572D02*
X125283Y350936D01*
X123149Y350053D01*
X121317Y348647D01*
X119911Y346815D01*
X119028Y344681D01*
X118726Y342392D01*
X119028Y340103D01*
X119911Y337969D01*
X121317Y336137D01*
X123149Y334731D01*
X125283Y333848D01*
X127572Y333546D01*
X129861Y333848D01*
X131995Y334731D01*
X133827Y336137D01*
X135233Y337969D01*
X136116Y340103D01*
X136418Y342392D01*
X136116Y344681D01*
X135233Y346815D01*
X133827Y348647D01*
X131995Y350053D01*
X129861Y350936D01*
X127572Y351238D01*
D02*
G37*
G36*
X451536Y350938D02*
X449246Y350636D01*
X447113Y349753D01*
X445281Y348347D01*
X443875Y346515D01*
X442992Y344381D01*
X442690Y342092D01*
X442992Y339803D01*
X443875Y337669D01*
X445281Y335837D01*
X447113Y334431D01*
X449246Y333548D01*
X451536Y333246D01*
X453825Y333548D01*
X455959Y334431D01*
X457791Y335837D01*
X459197Y337669D01*
X460080Y339803D01*
X460382Y342092D01*
X460080Y344381D01*
X459197Y346515D01*
X457791Y348347D01*
X455959Y349753D01*
X453825Y350636D01*
X451536Y350938D01*
D02*
G37*
G36*
X611802Y339910D02*
X609513Y339608D01*
X607379Y338725D01*
X605547Y337319D01*
X604141Y335487D01*
X603258Y333353D01*
X602956Y331064D01*
X603258Y328775D01*
X604141Y326641D01*
X605547Y324809D01*
X607379Y323403D01*
X609513Y322520D01*
X611802Y322218D01*
X614091Y322520D01*
X616225Y323403D01*
X618057Y324809D01*
X619463Y326641D01*
X620346Y328775D01*
X620648Y331064D01*
X620346Y333353D01*
X619463Y335487D01*
X618057Y337319D01*
X616225Y338725D01*
X614091Y339608D01*
X611802Y339910D01*
D02*
G37*
G36*
X313754Y327126D02*
X311795Y326737D01*
X310135Y325627D01*
X309025Y323967D01*
X308636Y322008D01*
X309025Y320049D01*
X310135Y318389D01*
X311795Y317279D01*
X313754Y316890D01*
X315713Y317279D01*
X317373Y318389D01*
X318483Y320049D01*
X318872Y322008D01*
X318483Y323967D01*
X317373Y325627D01*
X315713Y326737D01*
X313754Y327126D01*
D02*
G37*
G36*
X474297Y325158D02*
X472339Y324769D01*
X470678Y323659D01*
X469569Y321999D01*
X469179Y320040D01*
X469569Y318081D01*
X470678Y316421D01*
X472339Y315311D01*
X474297Y314922D01*
X476256Y315311D01*
X477916Y316421D01*
X479026Y318081D01*
X479416Y320040D01*
X479026Y321999D01*
X477916Y323659D01*
X476256Y324769D01*
X474297Y325158D01*
D02*
G37*
G36*
X149606Y324142D02*
X147647Y323753D01*
X145987Y322643D01*
X144877Y320983D01*
X144488Y319024D01*
X144877Y317065D01*
X145987Y315405D01*
X147647Y314295D01*
X149606Y313906D01*
X151565Y314295D01*
X153225Y315405D01*
X154335Y317065D01*
X154724Y319024D01*
X154335Y320983D01*
X153225Y322643D01*
X151565Y323753D01*
X149606Y324142D01*
D02*
G37*
G36*
X624332Y318300D02*
X622373Y317911D01*
X620713Y316801D01*
X619603Y315141D01*
X619214Y313182D01*
X619398Y312258D01*
X618210Y311720D01*
X618057Y311919D01*
X616225Y313325D01*
X614091Y314208D01*
X611802Y314510D01*
X609513Y314208D01*
X607379Y313325D01*
X605547Y311919D01*
X604141Y310087D01*
X603258Y307953D01*
X602956Y305664D01*
X603258Y303375D01*
X604141Y301241D01*
X605547Y299409D01*
X607379Y298003D01*
X609513Y297120D01*
X611802Y296818D01*
X614091Y297120D01*
X616225Y298003D01*
X618057Y299409D01*
X619463Y301241D01*
X620346Y303375D01*
X620648Y305664D01*
X620346Y307953D01*
X620159Y308405D01*
X621185Y309247D01*
X622373Y308453D01*
X624332Y308064D01*
X626291Y308453D01*
X627951Y309563D01*
X629061Y311223D01*
X629450Y313182D01*
X629061Y315141D01*
X627951Y316801D01*
X626291Y317911D01*
X624332Y318300D01*
D02*
G37*
G36*
X291910Y325838D02*
X289621Y325536D01*
X287487Y324653D01*
X285655Y323247D01*
X284249Y321415D01*
X283366Y319281D01*
X283064Y316992D01*
X283366Y314703D01*
X284249Y312569D01*
X285655Y310737D01*
X287487Y309331D01*
X289621Y308448D01*
X291910Y308146D01*
X294199Y308448D01*
X296333Y309331D01*
X298165Y310737D01*
X299571Y312569D01*
X300454Y314703D01*
X300756Y316992D01*
X300454Y319281D01*
X299571Y321415D01*
X298165Y323247D01*
X296333Y324653D01*
X294199Y325536D01*
X291910Y325838D01*
D02*
G37*
G36*
X127572D02*
X125283Y325536D01*
X123149Y324653D01*
X121317Y323247D01*
X119911Y321415D01*
X119028Y319281D01*
X118726Y316992D01*
X119028Y314703D01*
X119911Y312569D01*
X121317Y310737D01*
X123149Y309331D01*
X125283Y308448D01*
X127572Y308146D01*
X129861Y308448D01*
X131995Y309331D01*
X133827Y310737D01*
X135233Y312569D01*
X136116Y314703D01*
X136418Y316992D01*
X136116Y319281D01*
X135233Y321415D01*
X133827Y323247D01*
X131995Y324653D01*
X129861Y325536D01*
X127572Y325838D01*
D02*
G37*
G36*
X451536Y325538D02*
X449246Y325236D01*
X447113Y324353D01*
X445281Y322947D01*
X443875Y321115D01*
X442992Y318981D01*
X442690Y316692D01*
X442992Y314403D01*
X443875Y312269D01*
X445281Y310437D01*
X447113Y309031D01*
X449246Y308148D01*
X451536Y307846D01*
X453825Y308148D01*
X455959Y309031D01*
X457791Y310437D01*
X459197Y312269D01*
X460080Y314403D01*
X460382Y316692D01*
X460080Y318981D01*
X459197Y321115D01*
X457791Y322947D01*
X455959Y324353D01*
X453825Y325236D01*
X451536Y325538D01*
D02*
G37*
G36*
X291910Y300438D02*
X289621Y300136D01*
X287487Y299253D01*
X285655Y297847D01*
X284249Y296015D01*
X283366Y293881D01*
X283064Y291592D01*
X283366Y289303D01*
X284249Y287169D01*
X285655Y285337D01*
X287487Y283931D01*
X289621Y283048D01*
X291910Y282746D01*
X294199Y283048D01*
X296333Y283931D01*
X298165Y285337D01*
X299571Y287169D01*
X300454Y289303D01*
X300756Y291592D01*
X300454Y293881D01*
X299571Y296015D01*
X298165Y297847D01*
X296333Y299253D01*
X294199Y300136D01*
X291910Y300438D01*
D02*
G37*
G36*
X127572D02*
X125283Y300136D01*
X123149Y299253D01*
X121317Y297847D01*
X119911Y296015D01*
X119028Y293881D01*
X118726Y291592D01*
X119028Y289303D01*
X119911Y287169D01*
X121317Y285337D01*
X123149Y283931D01*
X125283Y283048D01*
X127572Y282746D01*
X129861Y283048D01*
X131995Y283931D01*
X133827Y285337D01*
X135233Y287169D01*
X136116Y289303D01*
X136418Y291592D01*
X136116Y293881D01*
X135233Y296015D01*
X133827Y297847D01*
X131995Y299253D01*
X129861Y300136D01*
X127572Y300438D01*
D02*
G37*
G36*
X451536Y300138D02*
X449246Y299836D01*
X447113Y298953D01*
X445281Y297547D01*
X443875Y295715D01*
X442992Y293581D01*
X442690Y291292D01*
X442992Y289003D01*
X443875Y286869D01*
X445281Y285037D01*
X447113Y283631D01*
X449246Y282748D01*
X451536Y282446D01*
X453825Y282748D01*
X455959Y283631D01*
X457791Y285037D01*
X459197Y286869D01*
X460080Y289003D01*
X460382Y291292D01*
X460080Y293581D01*
X459197Y295715D01*
X457791Y297547D01*
X455959Y298953D01*
X453825Y299836D01*
X451536Y300138D01*
D02*
G37*
G36*
X299410Y282990D02*
X297939Y282697D01*
X296692Y281864D01*
X295859Y280617D01*
X295566Y279146D01*
X295859Y277675D01*
X296692Y276428D01*
X297939Y275595D01*
X299410Y275302D01*
X300881Y275595D01*
X302128Y276428D01*
X302961Y277675D01*
X303254Y279146D01*
X302961Y280617D01*
X302128Y281864D01*
X300881Y282697D01*
X299410Y282990D01*
D02*
G37*
G36*
X459002Y282318D02*
X457531Y282025D01*
X456284Y281192D01*
X455451Y279945D01*
X455158Y278474D01*
X455451Y277003D01*
X456284Y275756D01*
X457531Y274923D01*
X459002Y274630D01*
X460473Y274923D01*
X461720Y275756D01*
X462553Y277003D01*
X462846Y278474D01*
X462553Y279945D01*
X461720Y281192D01*
X460473Y282025D01*
X459002Y282318D01*
D02*
G37*
G36*
X134112D02*
X132641Y282025D01*
X131394Y281192D01*
X130561Y279945D01*
X130268Y278474D01*
X130561Y277003D01*
X131394Y275756D01*
X132641Y274923D01*
X134112Y274630D01*
X135583Y274923D01*
X136830Y275756D01*
X137663Y277003D01*
X137956Y278474D01*
X137663Y279945D01*
X136830Y281192D01*
X135583Y282025D01*
X134112Y282318D01*
D02*
G37*
G36*
X611802Y289110D02*
X609513Y288808D01*
X607379Y287925D01*
X605547Y286519D01*
X604141Y284687D01*
X603258Y282553D01*
X602956Y280264D01*
X603258Y277975D01*
X604141Y275841D01*
X605547Y274009D01*
X607379Y272603D01*
X609513Y271720D01*
X611802Y271418D01*
X614091Y271720D01*
X616225Y272603D01*
X618057Y274009D01*
X619463Y275841D01*
X620346Y277975D01*
X620648Y280264D01*
X620346Y282553D01*
X619463Y284687D01*
X618057Y286519D01*
X616225Y287925D01*
X614091Y288808D01*
X611802Y289110D01*
D02*
G37*
G36*
X618744Y271284D02*
X617273Y270991D01*
X616026Y270158D01*
X615193Y268911D01*
X614900Y267440D01*
X615193Y265969D01*
X616026Y264722D01*
X617273Y263889D01*
X618744Y263596D01*
X620215Y263889D01*
X621462Y264722D01*
X622295Y265969D01*
X622588Y267440D01*
X622295Y268911D01*
X621462Y270158D01*
X620215Y270991D01*
X618744Y271284D01*
D02*
G37*
G36*
X291910Y275038D02*
X289621Y274736D01*
X287487Y273853D01*
X285655Y272447D01*
X284249Y270615D01*
X283366Y268481D01*
X283064Y266192D01*
X283366Y263903D01*
X284249Y261769D01*
X285655Y259937D01*
X287487Y258531D01*
X289621Y257648D01*
X291910Y257346D01*
X294199Y257648D01*
X296333Y258531D01*
X298165Y259937D01*
X299571Y261769D01*
X300454Y263903D01*
X300756Y266192D01*
X300454Y268481D01*
X299571Y270615D01*
X298165Y272447D01*
X296333Y273853D01*
X294199Y274736D01*
X291910Y275038D01*
D02*
G37*
G36*
X127572D02*
X125283Y274736D01*
X123149Y273853D01*
X121317Y272447D01*
X119911Y270615D01*
X119028Y268481D01*
X118726Y266192D01*
X119028Y263903D01*
X119911Y261769D01*
X121317Y259937D01*
X123149Y258531D01*
X125283Y257648D01*
X127572Y257346D01*
X129861Y257648D01*
X131995Y258531D01*
X133827Y259937D01*
X135233Y261769D01*
X136116Y263903D01*
X136418Y266192D01*
X136116Y268481D01*
X135233Y270615D01*
X133827Y272447D01*
X131995Y273853D01*
X129861Y274736D01*
X127572Y275038D01*
D02*
G37*
G36*
X451536Y274738D02*
X449246Y274436D01*
X447113Y273553D01*
X445281Y272147D01*
X443875Y270315D01*
X442992Y268181D01*
X442690Y265892D01*
X442992Y263603D01*
X443875Y261469D01*
X445281Y259637D01*
X447113Y258231D01*
X449246Y257348D01*
X451536Y257046D01*
X453825Y257348D01*
X455959Y258231D01*
X457791Y259637D01*
X459197Y261469D01*
X460080Y263603D01*
X460382Y265892D01*
X460080Y268181D01*
X459197Y270315D01*
X457791Y272147D01*
X455959Y273553D01*
X453825Y274436D01*
X451536Y274738D01*
D02*
G37*
G36*
X611802Y263710D02*
X609513Y263408D01*
X607379Y262525D01*
X605547Y261119D01*
X604141Y259287D01*
X603258Y257153D01*
X602956Y254864D01*
X603258Y252575D01*
X604141Y250441D01*
X605547Y248609D01*
X607379Y247203D01*
X609513Y246320D01*
X611802Y246018D01*
X614091Y246320D01*
X616225Y247203D01*
X618057Y248609D01*
X619463Y250441D01*
X620346Y252575D01*
X620648Y254864D01*
X620346Y257153D01*
X619463Y259287D01*
X618057Y261119D01*
X616225Y262525D01*
X614091Y263408D01*
X611802Y263710D01*
D02*
G37*
G36*
X302530Y225924D02*
X301076Y225635D01*
X298995Y224245D01*
X297605Y222164D01*
X297316Y220710D01*
X302530D01*
Y225924D01*
D02*
G37*
G36*
X139462Y225416D02*
X138008Y225127D01*
X135927Y223737D01*
X134537Y221656D01*
X134248Y220202D01*
X139462D01*
Y225416D01*
D02*
G37*
G36*
X465358Y225370D02*
Y220156D01*
X470572D01*
X470283Y221610D01*
X468893Y223691D01*
X466812Y225081D01*
X465358Y225370D01*
D02*
G37*
G36*
X463358D02*
X461904Y225081D01*
X459823Y223691D01*
X458433Y221610D01*
X458144Y220156D01*
X463358D01*
Y225370D01*
D02*
G37*
G36*
X622894Y221606D02*
Y216392D01*
X628108D01*
X627819Y217846D01*
X626429Y219927D01*
X624348Y221317D01*
X622894Y221606D01*
D02*
G37*
G36*
X620894D02*
X619440Y221317D01*
X617359Y219927D01*
X615969Y217846D01*
X615680Y216392D01*
X620894D01*
Y221606D01*
D02*
G37*
G36*
X477774Y224828D02*
X475815Y224439D01*
X474155Y223329D01*
X473045Y221669D01*
X472656Y219710D01*
X473045Y217751D01*
X474155Y216091D01*
X475815Y214981D01*
X477774Y214592D01*
X479733Y214981D01*
X481393Y216091D01*
X482503Y217751D01*
X482892Y219710D01*
X482503Y221669D01*
X481393Y223329D01*
X479733Y224439D01*
X477774Y224828D01*
D02*
G37*
G36*
X304530Y225924D02*
Y219710D01*
Y213496D01*
X305984Y213785D01*
X308065Y215175D01*
X309425Y217210D01*
X309760Y217281D01*
X310772Y217365D01*
X311623Y216091D01*
X313283Y214981D01*
X315242Y214592D01*
X317201Y214981D01*
X318861Y216091D01*
X319971Y217751D01*
X320360Y219710D01*
X319971Y221669D01*
X318861Y223329D01*
X317201Y224439D01*
X315242Y224828D01*
X313283Y224439D01*
X311623Y223329D01*
X310772Y222055D01*
X309760Y222139D01*
X309425Y222210D01*
X308065Y224245D01*
X305984Y225635D01*
X304530Y225924D01*
D02*
G37*
G36*
X302530Y218710D02*
X297316D01*
X297605Y217256D01*
X298995Y215175D01*
X301076Y213785D01*
X302530Y213496D01*
Y218710D01*
D02*
G37*
G36*
X139462Y218202D02*
X134248D01*
X134537Y216748D01*
X135927Y214667D01*
X138008Y213277D01*
X139462Y212988D01*
Y218202D01*
D02*
G37*
G36*
X470572Y218156D02*
X465358D01*
Y212942D01*
X466812Y213231D01*
X468893Y214621D01*
X470283Y216702D01*
X470572Y218156D01*
D02*
G37*
G36*
X463358D02*
X458144D01*
X458433Y216702D01*
X459823Y214621D01*
X461904Y213231D01*
X463358Y212942D01*
Y218156D01*
D02*
G37*
G36*
X116570Y215256D02*
Y210042D01*
X121784D01*
X121495Y211496D01*
X120105Y213577D01*
X118024Y214967D01*
X116570Y215256D01*
D02*
G37*
G36*
X141462Y225416D02*
Y219202D01*
Y212988D01*
X142916Y213277D01*
X144517Y214346D01*
X144879Y214281D01*
X145823Y213792D01*
X146147Y212163D01*
X147257Y210503D01*
X148917Y209393D01*
X150876Y209004D01*
X152835Y209393D01*
X154495Y210503D01*
X155605Y212163D01*
X155994Y214122D01*
X155605Y216081D01*
X154495Y217741D01*
X152835Y218851D01*
X150876Y219240D01*
X148917Y218851D01*
X147975Y218221D01*
X146832Y218985D01*
X146875Y219202D01*
X146387Y221656D01*
X144997Y223737D01*
X142916Y225127D01*
X141462Y225416D01*
D02*
G37*
G36*
X328914Y150232D02*
Y145018D01*
X334128D01*
X333839Y146472D01*
X332449Y148553D01*
X330368Y149943D01*
X328914Y150232D01*
D02*
G37*
G36*
X326914D02*
X325460Y149943D01*
X323379Y148553D01*
X321989Y146472D01*
X321700Y145018D01*
X326914D01*
Y150232D01*
D02*
G37*
G36*
X334128Y143018D02*
X328914D01*
Y137804D01*
X330368Y138093D01*
X332449Y139483D01*
X333839Y141564D01*
X334128Y143018D01*
D02*
G37*
G36*
X326914D02*
X321700D01*
X321989Y141564D01*
X323379Y139483D01*
X325460Y138093D01*
X326914Y137804D01*
Y143018D01*
D02*
G37*
G36*
X146038Y133904D02*
X144080Y133515D01*
X142419Y132405D01*
X141310Y130745D01*
X140920Y128786D01*
X141310Y126827D01*
X142419Y125167D01*
X144080Y124057D01*
X146038Y123668D01*
X147997Y124057D01*
X149658Y125167D01*
X150767Y126827D01*
X151157Y128786D01*
X150767Y130745D01*
X149658Y132405D01*
X147997Y133515D01*
X146038Y133904D01*
D02*
G37*
G36*
X115570Y109004D02*
X113611Y108615D01*
X111951Y107505D01*
X110841Y105845D01*
X110452Y103886D01*
X110841Y101927D01*
X111951Y100267D01*
X113611Y99157D01*
X115570Y98768D01*
X117529Y99157D01*
X119189Y100267D01*
X120299Y101927D01*
X120688Y103886D01*
X120299Y105845D01*
X119189Y107505D01*
X117529Y108615D01*
X115570Y109004D01*
D02*
G37*
G36*
X113014Y94860D02*
Y89646D01*
X118228D01*
X117939Y91100D01*
X116549Y93181D01*
X114468Y94571D01*
X113014Y94860D01*
D02*
G37*
G36*
X111014D02*
X109560Y94571D01*
X107479Y93181D01*
X106089Y91100D01*
X105800Y89646D01*
X111014D01*
Y94860D01*
D02*
G37*
G36*
X118228Y87646D02*
X113014D01*
Y82432D01*
X114468Y82721D01*
X116549Y84111D01*
X117939Y86192D01*
X118228Y87646D01*
D02*
G37*
G36*
X111014D02*
X105800D01*
X106089Y86192D01*
X107479Y84111D01*
X109560Y82721D01*
X111014Y82432D01*
Y87646D01*
D02*
G37*
G36*
X109728Y70904D02*
X107769Y70515D01*
X106109Y69405D01*
X104999Y67745D01*
X104610Y65786D01*
X104999Y63827D01*
X106109Y62167D01*
X107769Y61057D01*
X109728Y60668D01*
X111687Y61057D01*
X113347Y62167D01*
X114457Y63827D01*
X114846Y65786D01*
X114457Y67745D01*
X113347Y69405D01*
X111687Y70515D01*
X109728Y70904D01*
D02*
G37*
G36*
X110292Y56434D02*
Y51220D01*
X115506D01*
X115217Y52674D01*
X113827Y54755D01*
X111746Y56145D01*
X110292Y56434D01*
D02*
G37*
G36*
X108292D02*
X106838Y56145D01*
X104757Y54755D01*
X103367Y52674D01*
X103078Y51220D01*
X108292D01*
Y56434D01*
D02*
G37*
G36*
X115506Y49220D02*
X110292D01*
Y44006D01*
X111746Y44295D01*
X113827Y45685D01*
X115217Y47766D01*
X115506Y49220D01*
D02*
G37*
G36*
X108292D02*
X103078D01*
X103367Y47766D01*
X104757Y45685D01*
X106838Y44295D01*
X108292Y44006D01*
Y49220D01*
D02*
G37*
G36*
X237982Y131944D02*
Y126730D01*
X243196D01*
X242907Y128184D01*
X241517Y130265D01*
X239436Y131655D01*
X237982Y131944D01*
D02*
G37*
G36*
X235982D02*
X234528Y131655D01*
X232447Y130265D01*
X231057Y128184D01*
X230768Y126730D01*
X235982D01*
Y131944D01*
D02*
G37*
G36*
X107814Y122698D02*
X102600D01*
Y117484D01*
X104054Y117773D01*
X106135Y119163D01*
X107525Y121244D01*
X107814Y122698D01*
D02*
G37*
G36*
X100600D02*
X95386D01*
X95675Y121244D01*
X97065Y119163D01*
X99146Y117773D01*
X100600Y117484D01*
Y122698D01*
D02*
G37*
G36*
X346186Y114672D02*
Y109458D01*
X351400D01*
X351111Y110912D01*
X349721Y112993D01*
X347640Y114383D01*
X346186Y114672D01*
D02*
G37*
G36*
X344186D02*
X342732Y114383D01*
X340651Y112993D01*
X339261Y110912D01*
X338972Y109458D01*
X344186D01*
Y114672D01*
D02*
G37*
G36*
X326390Y114846D02*
X324431Y114457D01*
X322771Y113347D01*
X321661Y111687D01*
X321272Y109728D01*
X321661Y107769D01*
X322771Y106109D01*
X324431Y104999D01*
X326390Y104610D01*
X328349Y104999D01*
X330009Y106109D01*
X331119Y107769D01*
X331508Y109728D01*
X331119Y111687D01*
X330009Y113347D01*
X328349Y114457D01*
X326390Y114846D01*
D02*
G37*
G36*
X351400Y107458D02*
X346186D01*
Y102244D01*
X347640Y102533D01*
X349721Y103923D01*
X351111Y106004D01*
X351400Y107458D01*
D02*
G37*
G36*
X344186D02*
X338972D01*
X339261Y106004D01*
X340651Y103923D01*
X342732Y102533D01*
X344186Y102244D01*
Y107458D01*
D02*
G37*
G36*
X243196Y124730D02*
X230768D01*
X231057Y123276D01*
X232447Y121195D01*
X233033Y120804D01*
X232765Y119456D01*
X231895Y119283D01*
X230235Y118173D01*
X229125Y116513D01*
X228736Y114554D01*
X229125Y112595D01*
X230235Y110935D01*
X231895Y109825D01*
X232616Y109682D01*
Y108387D01*
X232483Y108361D01*
X230823Y107251D01*
X229713Y105591D01*
X229324Y103632D01*
X229713Y101673D01*
X230823Y100013D01*
X232483Y98903D01*
X234442Y98514D01*
X236401Y98903D01*
X238061Y100013D01*
X239171Y101673D01*
X239560Y103632D01*
X239171Y105591D01*
X238061Y107251D01*
X236401Y108361D01*
X235680Y108504D01*
Y109799D01*
X235813Y109825D01*
X237473Y110935D01*
X238583Y112595D01*
X238972Y114554D01*
X238583Y116513D01*
X237473Y118173D01*
X237803Y119480D01*
X239436Y119805D01*
X241517Y121195D01*
X242907Y123276D01*
X243196Y124730D01*
D02*
G37*
G36*
X189980Y106266D02*
X188022Y105877D01*
X186361Y104767D01*
X185252Y103107D01*
X184862Y101148D01*
X185252Y99189D01*
X186361Y97529D01*
X188022Y96419D01*
X189980Y96030D01*
X191939Y96419D01*
X193600Y97529D01*
X194709Y99189D01*
X195099Y101148D01*
X194709Y103107D01*
X193600Y104767D01*
X191939Y105877D01*
X189980Y106266D01*
D02*
G37*
G36*
X256286Y97574D02*
X254327Y97185D01*
X252667Y96075D01*
X251557Y94415D01*
X251168Y92456D01*
X251557Y90497D01*
X252667Y88837D01*
X254327Y87727D01*
X256286Y87338D01*
X258245Y87727D01*
X259905Y88837D01*
X261015Y90497D01*
X261404Y92456D01*
X261015Y94415D01*
X259905Y96075D01*
X258245Y97185D01*
X256286Y97574D01*
D02*
G37*
G36*
X48984Y82508D02*
Y77294D01*
X54198D01*
X53909Y78748D01*
X52519Y80829D01*
X50438Y82219D01*
X48984Y82508D01*
D02*
G37*
G36*
X46984D02*
X45530Y82219D01*
X43449Y80829D01*
X42059Y78748D01*
X41770Y77294D01*
X46984D01*
Y82508D01*
D02*
G37*
G36*
X54198Y75294D02*
X48984D01*
Y70080D01*
X50438Y70369D01*
X52519Y71759D01*
X53909Y73840D01*
X54198Y75294D01*
D02*
G37*
G36*
X46984D02*
X41770D01*
X42059Y73840D01*
X43449Y71759D01*
X45530Y70369D01*
X46984Y70080D01*
Y75294D01*
D02*
G37*
%LPD*%
D88*
X389409Y138093D02*
X427022D01*
X383484Y144018D02*
X389409Y138093D01*
X327914Y144018D02*
X383484D01*
X638556Y18034D02*
Y35560D01*
X632460Y11938D02*
X638556Y18034D01*
X427022Y138093D02*
X431257Y133858D01*
X470662D01*
X480822Y144018D01*
X254254Y25354D02*
X267254Y38354D01*
X479806D01*
X483870Y42418D01*
Y58674D01*
X496570Y71374D01*
X561848Y11938D02*
X632460D01*
X318470D02*
X561848D01*
X561594Y12192D02*
X561848Y11938D01*
X305054Y25354D02*
X318470Y11938D01*
D90*
X638048Y281686D02*
X653796Y297434D01*
Y299466D01*
X660654Y295397D02*
Y359156D01*
X664464Y290063D02*
Y357378D01*
X668274Y283534D02*
Y342646D01*
X648208Y282951D02*
X660654Y295397D01*
X646689Y272288D02*
X664464Y290063D01*
X646176Y261436D02*
X668274Y283534D01*
X757682Y463550D02*
Y469738D01*
X741426Y485993D02*
X757682Y469738D01*
X742696Y457708D02*
Y476250D01*
X737616Y481330D02*
X742696Y476250D01*
X737616Y481330D02*
Y492252D01*
X731169Y498699D02*
X737616Y492252D01*
X650430Y483556D02*
X698832D01*
X713975Y498699D01*
X636752Y487366D02*
X683357D01*
X698657Y502666D01*
X733044D01*
X713975Y498699D02*
X731169D01*
X733044Y502666D02*
X741426Y494284D01*
Y485993D02*
Y494284D01*
X690723Y365095D02*
Y425721D01*
X686913Y379827D02*
Y423161D01*
X683103Y381605D02*
Y421582D01*
X668274Y342646D02*
X690723Y365095D01*
X663134Y453310D02*
X690723Y425721D01*
X659324Y450750D02*
X686913Y423161D01*
X655514Y449172D02*
X683103Y421582D01*
X676716Y369635D02*
X686908Y379827D01*
X664464Y357378D02*
X676716Y369630D01*
Y369635D01*
X686908Y379827D02*
X686913D01*
X660654Y359156D02*
X683103Y381605D01*
X648208Y282702D02*
Y282951D01*
X638048Y206756D02*
Y281686D01*
X645668Y272288D02*
X646689D01*
X634760Y489358D02*
X636752Y487366D01*
X644032Y477158D02*
X650430Y483556D01*
X651829Y456378D02*
X655514Y452693D01*
X648308Y456378D02*
X651829D01*
X637687Y466998D02*
X648308Y456378D01*
X653408Y460188D02*
X659324Y454272D01*
X649886Y460188D02*
X653408D01*
X634760Y475314D02*
X649886Y460188D01*
X654986Y463998D02*
X663134Y455850D01*
X652446Y463998D02*
X654986D01*
X644032Y472412D02*
X652446Y463998D01*
X655514Y449172D02*
Y452693D01*
X659324Y450750D02*
Y454272D01*
X663134Y453310D02*
Y455850D01*
X631078Y466998D02*
X637687D01*
X644032Y472412D02*
Y477158D01*
X634760Y475314D02*
Y489358D01*
D94*
X254254Y25354D02*
D03*
X305054D02*
D03*
D95*
X770382Y316484D02*
D03*
D99*
X653796Y299466D02*
D03*
X653565Y343584D02*
D03*
X757682Y463550D02*
D03*
X742696Y457708D02*
D03*
X727202Y491490D02*
D03*
X663702Y513588D02*
D03*
X219456Y396240D02*
D03*
X709676Y106426D02*
D03*
X698754Y361188D02*
D03*
X652632Y384556D02*
D03*
X772160Y106934D02*
D03*
X115570Y209042D02*
D03*
X545694Y387706D02*
D03*
X638556Y35560D02*
D03*
X480822Y144018D02*
D03*
X648208Y282702D02*
D03*
X646176Y261436D02*
D03*
X645668Y272288D02*
D03*
X314198Y92964D02*
D03*
X302768D02*
D03*
X345186Y108458D02*
D03*
X327914Y144018D02*
D03*
X301244Y151130D02*
D03*
X112014Y88646D02*
D03*
X496570Y71374D02*
D03*
X561594Y12192D02*
D03*
X638048Y206756D02*
D03*
X621894Y215392D02*
D03*
X634760Y489358D02*
D03*
X759460Y349250D02*
D03*
Y360680D02*
D03*
X759206Y371856D02*
D03*
X101600Y123698D02*
D03*
X236982Y125730D02*
D03*
X47984Y76294D02*
D03*
X109292Y50220D02*
D03*
X602340Y150622D02*
D03*
X778346Y439953D02*
D03*
X769634Y479580D02*
D03*
X303530Y219710D02*
D03*
X644032Y477158D02*
D03*
X631078Y466998D02*
D03*
X567284Y214224D02*
D03*
X631568Y414780D02*
D03*
X452550Y148258D02*
D03*
X464358Y219156D02*
D03*
X410718Y225552D02*
D03*
X470548Y425082D02*
D03*
X378206Y395986D02*
D03*
X311404Y423672D02*
D03*
X116840Y150876D02*
D03*
X140462Y219202D02*
D03*
X60960Y402082D02*
D03*
X147384Y427482D02*
D03*
X251206Y227706D02*
D03*
X87440Y226014D02*
D03*
D100*
X777748Y206756D02*
D03*
Y214884D02*
D03*
X769620Y206756D02*
D03*
Y214774D02*
D03*
M02*
