G04*
G04 #@! TF.GenerationSoftware,Altium Limited,Altium Designer,18.1.9 (240)*
G04*
G04 Layer_Color=128*
%FSLAX44Y44*%
%MOMM*%
G71*
G01*
G75*
%ADD151C,0.0508*%
D151*
X682732Y162052D02*
X692932D01*
X687832Y156952D02*
Y167152D01*
X682732Y136652D02*
X692932D01*
X687832Y131552D02*
Y141752D01*
X682732Y111252D02*
X692932D01*
X687832Y106152D02*
Y116352D01*
X709162Y402590D02*
X719362D01*
X714262Y397490D02*
Y407690D01*
X734562Y402590D02*
X744762D01*
X739662Y397490D02*
Y407690D01*
X447036Y265892D02*
X456036D01*
X451536Y261392D02*
Y270392D01*
X447036Y291292D02*
X456036D01*
X451536Y286792D02*
Y295792D01*
X447036Y316692D02*
X456036D01*
X451536Y312192D02*
Y321192D01*
X447036Y342092D02*
X456036D01*
X451536Y337592D02*
Y346592D01*
X370836Y265892D02*
X379836D01*
X375336Y261392D02*
Y270392D01*
X370836Y291292D02*
X379836D01*
X375336Y286792D02*
Y295792D01*
X370836Y316692D02*
X379836D01*
X375336Y312192D02*
Y321192D01*
X370836Y342092D02*
X379836D01*
X375336Y337592D02*
Y346592D01*
X123072Y266192D02*
X132072D01*
X127572Y261692D02*
Y270692D01*
X123072Y291592D02*
X132072D01*
X127572Y287092D02*
Y296092D01*
X123072Y316992D02*
X132072D01*
X127572Y312492D02*
Y321492D01*
X123072Y342392D02*
X132072D01*
X127572Y337892D02*
Y346892D01*
X46872Y266192D02*
X55872D01*
X51372Y261692D02*
Y270692D01*
X46872Y291592D02*
X55872D01*
X51372Y287092D02*
Y296092D01*
X46872Y316992D02*
X55872D01*
X51372Y312492D02*
Y321492D01*
X46872Y342392D02*
X55872D01*
X51372Y337892D02*
Y346892D01*
X287410Y266192D02*
X296410D01*
X291910Y261692D02*
Y270692D01*
X287410Y291592D02*
X296410D01*
X291910Y287092D02*
Y296092D01*
X287410Y316992D02*
X296410D01*
X291910Y312492D02*
Y321492D01*
X287410Y342392D02*
X296410D01*
X291910Y337892D02*
Y346892D01*
X211210Y266192D02*
X220210D01*
X215710Y261692D02*
Y270692D01*
X211210Y291592D02*
X220210D01*
X215710Y287092D02*
Y296092D01*
X211210Y316992D02*
X220210D01*
X215710Y312492D02*
Y321492D01*
X211210Y342392D02*
X220210D01*
X215710Y337892D02*
Y346892D01*
X796606Y208186D02*
X802606D01*
X799606Y205186D02*
Y211186D01*
X796606Y291686D02*
X802606D01*
X799606Y288686D02*
Y294686D01*
X766356Y272186D02*
X772856D01*
X769606Y268936D02*
Y275436D01*
X766356Y227686D02*
X772856D01*
X769606Y224436D02*
Y230936D01*
X765282Y316484D02*
X775482D01*
X770382Y311384D02*
Y321584D01*
X790682Y316484D02*
X800882D01*
X795782Y311384D02*
Y321584D01*
X607302Y254864D02*
X616302D01*
X611802Y250364D02*
Y259364D01*
X607302Y280264D02*
X616302D01*
X611802Y275764D02*
Y284764D01*
X607302Y305664D02*
X616302D01*
X611802Y301164D02*
Y310164D01*
X607302Y331064D02*
X616302D01*
X611802Y326564D02*
Y335564D01*
X531102Y254864D02*
X540102D01*
X535602Y250364D02*
Y259364D01*
X531102Y280264D02*
X540102D01*
X535602Y275764D02*
Y284764D01*
X531102Y305664D02*
X540102D01*
X535602Y301164D02*
Y310164D01*
X531102Y331064D02*
X540102D01*
X535602Y326564D02*
Y335564D01*
X620086Y25354D02*
X629086D01*
X624586Y20854D02*
Y29854D01*
X620086Y50754D02*
X629086D01*
X624586Y46254D02*
Y55254D01*
X594686Y25354D02*
X603686D01*
X599186Y20854D02*
Y29854D01*
X594686Y50754D02*
X603686D01*
X599186Y46254D02*
Y55254D01*
X569286Y25354D02*
X578286D01*
X573786Y20854D02*
Y29854D01*
X569286Y50754D02*
X578286D01*
X573786Y46254D02*
Y55254D01*
X543886Y25354D02*
X552886D01*
X548386Y20854D02*
Y29854D01*
X543886Y50754D02*
X552886D01*
X548386Y46254D02*
Y55254D01*
X518486Y25354D02*
X527486D01*
X522986Y20854D02*
Y29854D01*
X518486Y50754D02*
X527486D01*
X522986Y46254D02*
Y55254D01*
X493086Y25354D02*
X502086D01*
X497586Y20854D02*
Y29854D01*
X493086Y50754D02*
X502086D01*
X497586Y46254D02*
Y55254D01*
X467686Y25354D02*
X476686D01*
X472186Y20854D02*
Y29854D01*
X467686Y50754D02*
X476686D01*
X472186Y46254D02*
Y55254D01*
X442286Y25354D02*
X451286D01*
X446786Y20854D02*
Y29854D01*
X442286Y50754D02*
X451286D01*
X446786Y46254D02*
Y55254D01*
X416886Y25354D02*
X425886D01*
X421386Y20854D02*
Y29854D01*
X416886Y50754D02*
X425886D01*
X421386Y46254D02*
Y55254D01*
X391486Y25354D02*
X400486D01*
X395986Y20854D02*
Y29854D01*
X391486Y50754D02*
X400486D01*
X395986Y46254D02*
Y55254D01*
X529916Y483062D02*
X538916D01*
X534416Y478562D02*
Y487562D01*
X529916Y508462D02*
X538916D01*
X534416Y503962D02*
Y512962D01*
X504516Y483062D02*
X513516D01*
X509016Y478562D02*
Y487562D01*
X504516Y508462D02*
X513516D01*
X509016Y503962D02*
Y512962D01*
X479116Y483062D02*
X488116D01*
X483616Y478562D02*
Y487562D01*
X479116Y508462D02*
X488116D01*
X483616Y503962D02*
Y512962D01*
X453716Y483062D02*
X462716D01*
X458216Y478562D02*
Y487562D01*
X453716Y508462D02*
X462716D01*
X458216Y503962D02*
Y512962D01*
X428316Y483062D02*
X437316D01*
X432816Y478562D02*
Y487562D01*
X428316Y508462D02*
X437316D01*
X432816Y503962D02*
Y512962D01*
X402916Y483062D02*
X411916D01*
X407416Y478562D02*
Y487562D01*
X402916Y508462D02*
X411916D01*
X407416Y503962D02*
Y512962D01*
X377516Y483062D02*
X386516D01*
X382016Y478562D02*
Y487562D01*
X377516Y508462D02*
X386516D01*
X382016Y503962D02*
Y512962D01*
X352116Y483062D02*
X361116D01*
X356616Y478562D02*
Y487562D01*
X352116Y508462D02*
X361116D01*
X356616Y503962D02*
Y512962D01*
X173554Y508462D02*
X182554D01*
X178054Y503962D02*
Y512962D01*
X173554Y483062D02*
X182554D01*
X178054Y478562D02*
Y487562D01*
X198954Y508462D02*
X207954D01*
X203454Y503962D02*
Y512962D01*
X198954Y483062D02*
X207954D01*
X203454Y478562D02*
Y487562D01*
X224354Y508462D02*
X233354D01*
X228854Y503962D02*
Y512962D01*
X224354Y483062D02*
X233354D01*
X228854Y478562D02*
Y487562D01*
X249754Y508462D02*
X258754D01*
X254254Y503962D02*
Y512962D01*
X249754Y483062D02*
X258754D01*
X254254Y478562D02*
Y487562D01*
X275154Y508462D02*
X284154D01*
X279654Y503962D02*
Y512962D01*
X275154Y483062D02*
X284154D01*
X279654Y478562D02*
Y487562D01*
X300554Y508462D02*
X309554D01*
X305054Y503962D02*
Y512962D01*
X300554Y483062D02*
X309554D01*
X305054Y478562D02*
Y487562D01*
X173554Y50754D02*
X182554D01*
X178054Y46254D02*
Y55254D01*
X173554Y25354D02*
X182554D01*
X178054Y20854D02*
Y29854D01*
X198954Y50754D02*
X207954D01*
X203454Y46254D02*
Y55254D01*
X198954Y25354D02*
X207954D01*
X203454Y20854D02*
Y29854D01*
X224354Y50754D02*
X233354D01*
X228854Y46254D02*
Y55254D01*
X224354Y25354D02*
X233354D01*
X228854Y20854D02*
Y29854D01*
X249754Y50754D02*
X258754D01*
X254254Y46254D02*
Y55254D01*
X249754Y25354D02*
X258754D01*
X254254Y20854D02*
Y29854D01*
X275154Y50754D02*
X284154D01*
X279654Y46254D02*
Y55254D01*
X275154Y25354D02*
X284154D01*
X279654Y20854D02*
Y29854D01*
X300554Y50754D02*
X309554D01*
X305054Y46254D02*
Y55254D01*
X300554Y25354D02*
X309554D01*
X305054Y20854D02*
Y29854D01*
X325954Y50754D02*
X334954D01*
X330454Y46254D02*
Y55254D01*
X325954Y25354D02*
X334954D01*
X330454Y20854D02*
Y29854D01*
X351354Y50754D02*
X360354D01*
X355854Y46254D02*
Y55254D01*
X351354Y25354D02*
X360354D01*
X355854Y20854D02*
Y29854D01*
X652296Y299466D02*
X655296D01*
X653796Y297966D02*
Y300966D01*
X512258Y293032D02*
X515258D01*
X513758Y291532D02*
Y294532D01*
X652065Y343584D02*
X655065D01*
X653565Y342084D02*
Y345084D01*
X756182Y463550D02*
X759182D01*
X757682Y462050D02*
Y465050D01*
X741196Y457708D02*
X744196D01*
X742696Y456208D02*
Y459208D01*
X697508Y511668D02*
X700508D01*
X699008Y510168D02*
Y513168D01*
X732560Y444500D02*
X735560D01*
X734060Y443000D02*
Y446000D01*
X691595Y520954D02*
X694595D01*
X693095Y519454D02*
Y522454D01*
X699540Y495310D02*
X702540D01*
X701040Y493810D02*
Y496810D01*
X755166Y498602D02*
X758166D01*
X756666Y497102D02*
Y500102D01*
X686586Y502158D02*
X689586D01*
X688086Y500658D02*
Y503658D01*
X725702Y491490D02*
X728702D01*
X727202Y489990D02*
Y492990D01*
X696132Y401574D02*
X699132D01*
X697632Y400074D02*
Y403074D01*
X702350Y45212D02*
X705350D01*
X703850Y43712D02*
Y46712D01*
X68604Y497586D02*
X71604D01*
X70104Y496086D02*
Y499086D01*
X96916Y474218D02*
X98916D01*
X97916Y473218D02*
Y475218D01*
X92416Y480218D02*
X94416D01*
X93416Y479218D02*
Y481218D01*
X92416Y468218D02*
X94416D01*
X93416Y467218D02*
Y469218D01*
X101416Y468218D02*
X103416D01*
X102416Y467218D02*
Y469218D01*
X101416Y480218D02*
X103416D01*
X102416Y479218D02*
Y481218D01*
X703600Y168656D02*
X706100D01*
X704850Y167406D02*
Y169906D01*
X517676Y470362D02*
X520676D01*
X519176Y468862D02*
Y471862D01*
X662202Y513588D02*
X665202D01*
X663702Y512088D02*
Y515088D01*
X217956Y396240D02*
X220956D01*
X219456Y394740D02*
Y397740D01*
X572737Y506476D02*
X575737D01*
X574237Y504976D02*
Y507976D01*
X740684Y116840D02*
X743184D01*
X741934Y115590D02*
Y118090D01*
X708176Y106426D02*
X711176D01*
X709676Y104926D02*
Y107926D01*
X708176Y122345D02*
X711176D01*
X709676Y120845D02*
Y123845D01*
X772692Y126238D02*
X775692D01*
X774192Y124738D02*
Y127738D01*
X229586Y369783D02*
X232586D01*
X231086Y368283D02*
Y371283D01*
X472797Y320040D02*
X475797D01*
X474297Y318540D02*
Y321540D01*
X181888Y357486D02*
X184888D01*
X183388Y355986D02*
Y358986D01*
X63778Y31242D02*
X66778D01*
X65278Y29742D02*
Y32742D01*
X697254Y361188D02*
X700254D01*
X698754Y359688D02*
Y362688D01*
X681506Y367030D02*
X684506D01*
X683006Y365530D02*
Y368530D01*
X651132Y384556D02*
X654132D01*
X652632Y383056D02*
Y386056D01*
X244622Y354335D02*
X247122D01*
X245872Y353085D02*
Y355585D01*
X400832Y352806D02*
X403332D01*
X402082Y351556D02*
Y354056D01*
X617494Y267440D02*
X619994D01*
X618744Y266190D02*
Y268690D01*
X457752Y278474D02*
X460252D01*
X459002Y277224D02*
Y279724D01*
X298160Y279146D02*
X300660D01*
X299410Y277896D02*
Y280396D01*
X132862Y278474D02*
X135362D01*
X134112Y277224D02*
Y279724D01*
X362482Y112776D02*
X365482D01*
X363982Y111276D02*
Y114276D01*
X433602Y112224D02*
X436602D01*
X435102Y110724D02*
Y113724D01*
X776498Y206756D02*
X778998D01*
X777748Y205506D02*
Y208006D01*
X776498Y214884D02*
X778998D01*
X777748Y213634D02*
Y216134D01*
X776752Y296418D02*
X779252D01*
X778002Y295168D02*
Y297668D01*
X776752Y288290D02*
X779252D01*
X778002Y287040D02*
Y289540D01*
X767104Y196342D02*
X770104D01*
X768604Y194842D02*
Y197842D01*
X770660Y106934D02*
X773660D01*
X772160Y105434D02*
Y108434D01*
X701282Y132489D02*
X704282D01*
X702782Y130989D02*
Y133989D01*
X796059Y159432D02*
X799059D01*
X797559Y157932D02*
Y160932D01*
X784372Y178054D02*
X786872D01*
X785622Y176804D02*
Y179304D01*
X114070Y209042D02*
X117070D01*
X115570Y207542D02*
Y210542D01*
X593224Y402052D02*
X596224D01*
X594724Y400552D02*
Y403552D01*
X544194Y387706D02*
X547194D01*
X545694Y386206D02*
Y389206D01*
X622832Y313182D02*
X625832D01*
X624332Y311682D02*
Y314682D01*
X644676Y83058D02*
X647676D01*
X646176Y81558D02*
Y84558D01*
X637056Y35560D02*
X640056D01*
X638556Y34060D02*
Y37060D01*
X506754Y82296D02*
X509754D01*
X508254Y80796D02*
Y83796D01*
X479322Y144018D02*
X482322D01*
X480822Y142518D02*
Y145518D01*
X498372Y128270D02*
X501372D01*
X499872Y126770D02*
Y129770D01*
X646708Y282702D02*
X649708D01*
X648208Y281202D02*
Y284202D01*
X644676Y261436D02*
X647676D01*
X646176Y259936D02*
Y262936D01*
X644168Y272288D02*
X647168D01*
X645668Y270788D02*
Y273788D01*
X547648Y360934D02*
X550648D01*
X549148Y359434D02*
Y362434D01*
X312698Y92964D02*
X315698D01*
X314198Y91464D02*
Y94464D01*
X301268Y92964D02*
X304268D01*
X302768Y91464D02*
Y94464D01*
X343686Y108458D02*
X346686D01*
X345186Y106958D02*
Y109958D01*
X326414Y144018D02*
X329414D01*
X327914Y142518D02*
Y145518D01*
X403454Y148258D02*
X406454D01*
X404954Y146758D02*
Y149758D01*
X409980Y128778D02*
X412980D01*
X411480Y127278D02*
Y130278D01*
X324890Y109728D02*
X327890D01*
X326390Y108228D02*
Y111228D01*
X254786Y92456D02*
X257786D01*
X256286Y90956D02*
Y93956D01*
X299744Y151130D02*
X302744D01*
X301244Y149630D02*
Y152630D01*
X250214Y154686D02*
X253214D01*
X251714Y153186D02*
Y156186D01*
X232942Y103632D02*
X235942D01*
X234442Y102132D02*
Y105132D01*
X232354Y114554D02*
X235354D01*
X233854Y113054D02*
Y116054D01*
X110514Y88646D02*
X113514D01*
X112014Y87146D02*
Y90146D01*
X114070Y103886D02*
X117070D01*
X115570Y102386D02*
Y105386D01*
X495070Y71374D02*
X498070D01*
X496570Y69874D02*
Y72874D01*
X560094Y12192D02*
X563094D01*
X561594Y10692D02*
Y13692D01*
X697762Y148082D02*
X700762D01*
X699262Y146582D02*
Y149582D01*
X188480Y101148D02*
X191480D01*
X189980Y99648D02*
Y102648D01*
X188402Y124976D02*
X191402D01*
X189902Y123476D02*
Y126476D01*
X188402Y113284D02*
X191402D01*
X189902Y111784D02*
Y114784D01*
X24408Y82042D02*
X27408D01*
X25908Y80542D02*
Y83542D01*
X30758Y119126D02*
X33758D01*
X32258Y117626D02*
Y120626D01*
X636548Y206756D02*
X639548D01*
X638048Y205256D02*
Y208256D01*
X640866Y186690D02*
X643866D01*
X642366Y185190D02*
Y188190D01*
X658138Y474980D02*
X661138D01*
X659638Y473480D02*
Y476480D01*
X643914Y437134D02*
X646914D01*
X645414Y435634D02*
Y438634D01*
X647724Y450088D02*
X650724D01*
X649224Y448588D02*
Y451588D01*
X581176Y464644D02*
X584176D01*
X582676Y463144D02*
Y466144D01*
X768624Y296308D02*
X771124D01*
X769874Y295058D02*
Y297558D01*
X768624Y288290D02*
X771124D01*
X769874Y287040D02*
Y289540D01*
X768370Y206756D02*
X770870D01*
X769620Y205506D02*
Y208006D01*
X768370Y214774D02*
X770870D01*
X769620Y213524D02*
Y216024D01*
X620394Y215392D02*
X623394D01*
X621894Y213892D02*
Y216892D01*
X496594Y328422D02*
X499594D01*
X498094Y326922D02*
Y329922D01*
X502538Y342392D02*
X505538D01*
X504038Y340892D02*
Y343892D01*
X633260Y489358D02*
X636260D01*
X634760Y487858D02*
Y490858D01*
X740891Y186309D02*
X743391D01*
X742141Y185059D02*
Y187559D01*
X740938Y178054D02*
X743438D01*
X742188Y176804D02*
Y179304D01*
X757960Y349250D02*
X760960D01*
X759460Y347750D02*
Y350750D01*
X757960Y360680D02*
X760960D01*
X759460Y359180D02*
Y362180D01*
X757706Y371856D02*
X760706D01*
X759206Y370356D02*
Y373356D01*
X100100Y123698D02*
X103100D01*
X101600Y122198D02*
Y125198D01*
X235482Y125730D02*
X238482D01*
X236982Y124230D02*
Y127230D01*
X46484Y76294D02*
X49484D01*
X47984Y74794D02*
Y77794D01*
X98322Y135628D02*
X101322D01*
X99822Y134128D02*
Y137128D01*
X181241Y174125D02*
X184241D01*
X182741Y172625D02*
Y175625D01*
X144538Y128786D02*
X147538D01*
X146038Y127286D02*
Y130286D01*
X142406Y116494D02*
X145406D01*
X143906Y114994D02*
Y117994D01*
X108228Y65786D02*
X111228D01*
X109728Y64286D02*
Y67286D01*
X107792Y50220D02*
X110792D01*
X109292Y48720D02*
Y51720D01*
X421122Y435818D02*
X424122D01*
X422622Y434318D02*
Y437318D01*
X566031Y139007D02*
X569031D01*
X567531Y137507D02*
Y140507D01*
X570508Y490220D02*
X573508D01*
X572008Y488720D02*
Y491720D01*
X632586Y506984D02*
X635586D01*
X634086Y505484D02*
Y508484D01*
X767880Y453418D02*
X770880D01*
X769380Y451918D02*
Y454918D01*
X600840Y150622D02*
X603840D01*
X602340Y149122D02*
Y152122D01*
X639444Y160376D02*
X642444D01*
X640944Y158876D02*
Y161876D01*
X776846Y439953D02*
X779846D01*
X778346Y438453D02*
Y441453D01*
X768134Y479580D02*
X771134D01*
X769634Y478080D02*
Y481080D01*
X230765Y216644D02*
X233766D01*
X232265Y215144D02*
Y218144D01*
X192620Y224563D02*
X195620D01*
X194120Y223063D02*
Y226063D01*
X313742Y219710D02*
X316742D01*
X315242Y218210D02*
Y221210D01*
X302030Y219710D02*
X305030D01*
X303530Y218210D02*
Y221210D01*
X259866Y216154D02*
X262866D01*
X261366Y214654D02*
Y217654D01*
X319556Y173482D02*
X322556D01*
X321056Y171982D02*
Y174982D01*
X642532Y477158D02*
X645532D01*
X644032Y475658D02*
Y478658D01*
X629578Y466998D02*
X632578D01*
X631078Y465498D02*
Y468498D01*
X708318Y435502D02*
X711318D01*
X709818Y434002D02*
Y437002D01*
X604432Y456838D02*
X607432D01*
X605932Y455338D02*
Y458338D01*
X570142Y472078D02*
X573142D01*
X571642Y470578D02*
Y473578D01*
X603416Y517471D02*
X606416D01*
X604916Y515971D02*
Y518971D01*
X341400Y357053D02*
X344400D01*
X342900Y355553D02*
Y358553D01*
X676756Y472374D02*
X679756D01*
X678256Y470874D02*
Y473874D01*
X669710Y455676D02*
X672710D01*
X671210Y454176D02*
Y457176D01*
X681394Y442722D02*
X684394D01*
X682894Y441222D02*
Y444222D01*
X9676Y353822D02*
X12676D01*
X11176Y352322D02*
Y355322D01*
X19016Y343916D02*
X22016D01*
X20516Y342416D02*
Y345416D01*
X336574Y345948D02*
X339574D01*
X338074Y344448D02*
Y347448D01*
X172490Y346456D02*
X175490D01*
X173990Y344956D02*
Y347956D01*
X479322Y170942D02*
X482322D01*
X480822Y169442D02*
Y172442D01*
X720016Y231394D02*
X722516D01*
X721266Y230144D02*
Y232644D01*
X730938Y231394D02*
X733438D01*
X732188Y230144D02*
Y232644D01*
X730938Y240030D02*
X733438D01*
X732188Y238780D02*
Y241280D01*
X720016Y239920D02*
X722516D01*
X721266Y238670D02*
Y241170D01*
X732302Y169799D02*
X734802D01*
X733552Y168549D02*
Y171049D01*
X732302Y178054D02*
X734802D01*
X733552Y176804D02*
Y179304D01*
X732302Y186436D02*
X734802D01*
X733552Y185186D02*
Y187686D01*
X749320Y169799D02*
X751820D01*
X750570Y168549D02*
Y171049D01*
X749320Y178008D02*
X751820D01*
X750570Y176758D02*
Y179258D01*
X749320Y186309D02*
X751820D01*
X750570Y185059D02*
Y187559D01*
X740938Y169799D02*
X743438D01*
X742188Y168549D02*
Y171049D01*
X613494Y373440D02*
X616494D01*
X614994Y371940D02*
Y374940D01*
X612520Y395580D02*
X615520D01*
X614020Y394080D02*
Y397080D01*
X565784Y214224D02*
X568784D01*
X567284Y212724D02*
Y215724D01*
X512952Y213235D02*
X515952D01*
X514452Y211735D02*
Y214735D01*
X548784Y204318D02*
X551784D01*
X550284Y202818D02*
Y205818D01*
X577214Y204064D02*
X580214D01*
X578714Y202564D02*
Y205564D01*
X389728Y374418D02*
X392728D01*
X391228Y372918D02*
Y375918D01*
X630068Y414780D02*
X633068D01*
X631568Y413280D02*
Y416280D01*
X582316Y443818D02*
X585316D01*
X583816Y442318D02*
Y445318D01*
X541487Y443564D02*
X544487D01*
X542986Y442064D02*
Y445064D01*
X374466Y454868D02*
X377466D01*
X375966Y453368D02*
Y456368D01*
X451050Y148258D02*
X454050D01*
X452550Y146758D02*
Y149758D01*
X476274Y219710D02*
X479274D01*
X477774Y218210D02*
Y221210D01*
X462858Y219156D02*
X465858D01*
X464358Y217656D02*
Y220656D01*
X416838Y214122D02*
X419838D01*
X418338Y212622D02*
Y215622D01*
X409218Y225552D02*
X412218D01*
X410718Y224052D02*
Y227052D01*
X389868Y215092D02*
X392868D01*
X391368Y213592D02*
Y216592D01*
X352644Y228668D02*
X355644D01*
X354144Y227168D02*
Y230168D01*
X351882Y305748D02*
X354882D01*
X353382Y304248D02*
Y307248D01*
X453372Y383498D02*
X456372D01*
X454872Y381998D02*
Y384998D01*
X482798Y454740D02*
X485798D01*
X484298Y453240D02*
Y456240D01*
X449622Y406164D02*
X452622D01*
X451122Y404664D02*
Y407664D01*
X469048Y425082D02*
X472048D01*
X470548Y423582D02*
Y426582D01*
X376706Y395986D02*
X379706D01*
X378206Y394486D02*
Y397486D01*
X312254Y322008D02*
X315254D01*
X313754Y320508D02*
Y323508D01*
X289780Y407982D02*
X292780D01*
X291280Y406482D02*
Y409482D01*
X221871Y454406D02*
X224871D01*
X223371Y452906D02*
Y455906D01*
X261390Y454406D02*
X264390D01*
X262890Y452906D02*
Y455906D01*
X323366Y452628D02*
X326366D01*
X324866Y451128D02*
Y454128D01*
X309904Y423672D02*
X312904D01*
X311404Y422172D02*
Y425172D01*
X293094Y384002D02*
X296094D01*
X294594Y382502D02*
Y385502D01*
X405154Y72136D02*
X408154D01*
X406654Y70636D02*
Y73636D01*
X148106Y319024D02*
X151106D01*
X149606Y317524D02*
Y320524D01*
X128414Y385064D02*
X131414D01*
X129914Y383564D02*
Y386564D01*
X563904Y77216D02*
X566904D01*
X565404Y75716D02*
Y78716D01*
X647596Y124080D02*
X650596D01*
X649096Y122580D02*
Y125580D01*
X565682Y119888D02*
X568682D01*
X567182Y118388D02*
Y121388D01*
X115340Y150876D02*
X118340D01*
X116840Y149376D02*
Y152376D01*
X65764Y215138D02*
X68764D01*
X67264Y213638D02*
Y216638D01*
X27520Y224726D02*
X30520D01*
X29020Y223226D02*
Y226226D01*
X151916Y173736D02*
X154916D01*
X153416Y172236D02*
Y175236D01*
X149376Y214122D02*
X152376D01*
X150876Y212622D02*
Y215622D01*
X138962Y219202D02*
X141962D01*
X140462Y217702D02*
Y220702D01*
X51586Y455168D02*
X54586D01*
X53086Y453668D02*
Y456668D01*
X59460Y402082D02*
X62460D01*
X60960Y400582D02*
Y403582D01*
X97848Y455710D02*
X100848D01*
X99348Y454210D02*
Y457210D01*
X125442Y407416D02*
X128442D01*
X126942Y405916D02*
Y408916D01*
X145884Y427482D02*
X148884D01*
X147384Y425982D02*
Y428982D01*
X159790Y454742D02*
X162790D01*
X161290Y453242D02*
Y456242D01*
X27266Y304038D02*
X30266D01*
X28766Y302538D02*
Y305538D01*
X191858Y304356D02*
X194858D01*
X193358Y302856D02*
Y305856D01*
X249706Y227706D02*
X252706D01*
X251206Y226206D02*
Y229206D01*
X96354Y220096D02*
X99354D01*
X97854Y218596D02*
Y221596D01*
X85940Y226014D02*
X88940D01*
X87440Y224514D02*
Y227514D01*
X66890Y374350D02*
X69890D01*
X68390Y372850D02*
Y375850D01*
M02*
