G04*
G04 #@! TF.GenerationSoftware,Altium Limited,Altium Designer,18.1.9 (240)*
G04*
G04 Layer_Physical_Order=1*
G04 Layer_Color=255*
%FSLAX44Y44*%
%MOMM*%
G71*
G01*
G75*
%ADD10R,0.8548X0.3000*%
%ADD11R,0.3000X0.8548*%
%ADD13R,0.5200X0.5200*%
%ADD14R,0.5200X0.5200*%
%ADD15R,0.7000X0.5000*%
%ADD16R,0.5000X0.7000*%
%ADD17R,0.7500X0.8500*%
%ADD18R,3.0000X2.0000*%
%ADD19R,0.9000X0.7000*%
%ADD20R,3.4500X1.8500*%
%ADD21R,1.5494X1.2700*%
%ADD22R,1.5494X2.0066*%
%ADD23R,2.0000X3.0000*%
%ADD24R,1.1500X1.4500*%
%ADD25O,1.9000X0.6000*%
%ADD26R,1.0000X0.9000*%
%ADD27R,1.0500X0.6500*%
%ADD28R,0.9000X1.0000*%
%ADD29R,0.7000X0.9000*%
%ADD30R,1.1000X1.1000*%
%ADD31R,1.1000X1.6000*%
%ADD32R,1.6000X1.6000*%
%ADD33R,0.6400X0.7000*%
%ADD34R,1.4500X1.1500*%
%ADD35R,1.2700X1.5494*%
%ADD36R,2.0066X1.5494*%
%ADD37R,1.1000X1.1000*%
%ADD38R,1.9000X1.8000*%
%ADD39R,1.3500X0.4000*%
%ADD40R,1.4000X2.2000*%
%ADD41R,1.4000X0.9000*%
%ADD42C,1.0160*%
%ADD43R,5.5000X2.1500*%
%ADD44R,1.4000X4.4000*%
%ADD45R,0.7000X0.9500*%
%ADD46R,0.9500X1.7000*%
%ADD47R,1.9000X1.5750*%
%ADD49R,2.6000X2.6000*%
%ADD88C,0.5000*%
%ADD89C,0.3000*%
%ADD90C,0.2540*%
%ADD91R,1.2000X0.9500*%
%ADD92R,1.5500X1.5500*%
%ADD93C,1.5500*%
%ADD94C,1.5000*%
%ADD95R,1.5000X1.5000*%
%ADD96R,1.5000X1.5000*%
%ADD97O,1.9000X1.2000*%
%ADD98O,1.2500X1.0500*%
%ADD99C,0.7500*%
%ADD100C,0.5000*%
G36*
X665894Y521271D02*
X664624Y520275D01*
X663702Y520396D01*
X661940Y520164D01*
X660298Y519484D01*
X658888Y518402D01*
X657806Y516992D01*
X657126Y515350D01*
X656894Y513588D01*
X657126Y511826D01*
X657806Y510184D01*
X658888Y508774D01*
X660298Y507692D01*
X661940Y507012D01*
X663702Y506780D01*
X664624Y506901D01*
X665894Y505905D01*
Y479225D01*
X664624Y478840D01*
X664173Y479515D01*
X662092Y480905D01*
X660638Y481194D01*
Y474980D01*
X659638D01*
Y473980D01*
X653424D01*
X653713Y472526D01*
X654986Y470620D01*
X654631Y469350D01*
X647506D01*
X647163Y469774D01*
X647425Y471201D01*
X647533Y471336D01*
X648846Y472344D01*
X649928Y473754D01*
X650608Y475396D01*
X650840Y477158D01*
X650608Y478920D01*
X649928Y480562D01*
X648846Y481972D01*
X647436Y483054D01*
X645794Y483734D01*
X644032Y483966D01*
X642270Y483734D01*
X640628Y483054D01*
X639218Y481972D01*
X638136Y480562D01*
X637763Y479662D01*
X636282Y479347D01*
X634299Y481330D01*
X634652Y482263D01*
X634861Y482564D01*
X636522Y482782D01*
X638164Y483462D01*
X639574Y484544D01*
X640656Y485954D01*
X641336Y487596D01*
X641568Y489358D01*
X641336Y491120D01*
X640656Y492763D01*
X639574Y494173D01*
X638164Y495255D01*
X636522Y495935D01*
X634760Y496167D01*
X632998Y495935D01*
X631356Y495255D01*
X630264Y494417D01*
X628994Y494871D01*
Y501294D01*
X630264Y501973D01*
X631632Y501059D01*
X633086Y500770D01*
Y506984D01*
Y513198D01*
X631632Y512909D01*
X630264Y511995D01*
X628994Y512674D01*
Y524474D01*
X665894D01*
Y521271D01*
D02*
G37*
G36*
X706973Y526536D02*
X717364Y524232D01*
X727514Y521031D01*
X737347Y516959D01*
X746788Y512044D01*
X755765Y506325D01*
X755966Y506171D01*
X755649Y504813D01*
X754212Y504527D01*
X752131Y503137D01*
X750741Y501056D01*
X750452Y499602D01*
X763600D01*
X764112Y499920D01*
X764209Y499846D01*
X772056Y492656D01*
X779246Y484809D01*
X785725Y476365D01*
X791444Y467388D01*
X796358Y457948D01*
X800432Y448114D01*
X801224Y445602D01*
X800067Y445047D01*
X800015Y445125D01*
X789835Y455305D01*
Y461375D01*
X774835D01*
Y458689D01*
X773565Y458187D01*
X771834Y459343D01*
X770380Y459633D01*
Y453418D01*
Y447204D01*
X771834Y447493D01*
X773565Y448650D01*
X774835Y448375D01*
Y448375D01*
X780904D01*
X782385Y446894D01*
X781750Y445849D01*
X780108Y446530D01*
X778346Y446762D01*
X776584Y446530D01*
X774942Y445849D01*
X773532Y444768D01*
X772450Y443358D01*
X771770Y441716D01*
X771538Y439953D01*
X771770Y438191D01*
X772450Y436549D01*
X773532Y435139D01*
X774942Y434057D01*
X776584Y433377D01*
X778346Y433145D01*
X780108Y433377D01*
X781750Y434057D01*
X783160Y435139D01*
X784033Y436277D01*
X785228Y435993D01*
X785303Y435951D01*
Y420926D01*
X806797D01*
X806797Y420926D01*
X806964Y419760D01*
X807325Y417020D01*
X807402Y415245D01*
X806176Y414226D01*
X785303D01*
Y395526D01*
X806432D01*
X806797Y395526D01*
X807702Y394645D01*
Y386588D01*
X783266D01*
X783219Y386620D01*
X782048Y386853D01*
X782048Y386853D01*
X751586D01*
X751586Y386853D01*
X750415Y386620D01*
X750368Y386588D01*
X708660D01*
Y392171D01*
X709930Y393019D01*
X711521Y392360D01*
X714262Y391999D01*
X717003Y392360D01*
X719557Y393418D01*
X721751Y395101D01*
X723434Y397295D01*
X724492Y399849D01*
X724853Y402590D01*
X724492Y405331D01*
X723434Y407885D01*
X721751Y410079D01*
X719557Y411762D01*
X717003Y412820D01*
X714262Y413181D01*
X711521Y412820D01*
X709930Y412161D01*
X708660Y413009D01*
Y420307D01*
X703409Y425884D01*
X651715D01*
X650910Y426866D01*
X651022Y427430D01*
Y432469D01*
X651363Y432758D01*
X652291Y433094D01*
X652317Y433077D01*
X653405Y432350D01*
X655071Y432018D01*
X687578D01*
X689244Y432350D01*
X690657Y433293D01*
X692943Y435579D01*
X693886Y436992D01*
X694218Y438658D01*
Y455952D01*
X695391Y456438D01*
X708538Y443291D01*
X708130Y442088D01*
X708056Y442078D01*
X706414Y441398D01*
X705004Y440316D01*
X703922Y438906D01*
X703242Y437264D01*
X703010Y435502D01*
X703242Y433740D01*
X703922Y432098D01*
X705004Y430688D01*
X706414Y429606D01*
X708056Y428926D01*
X708526Y428864D01*
X712828Y424561D01*
X714648Y423346D01*
X716794Y422919D01*
X717380D01*
Y416277D01*
X756347D01*
Y404543D01*
X777841D01*
Y430609D01*
X761992D01*
X760109Y432492D01*
X758289Y433707D01*
X757880Y433789D01*
Y440776D01*
X741198D01*
X740350Y442047D01*
X740636Y442738D01*
X740868Y444500D01*
X740636Y446262D01*
X739956Y447904D01*
X738874Y449314D01*
X737464Y450396D01*
X735822Y451076D01*
X734060Y451308D01*
X732298Y451076D01*
X730656Y450396D01*
X729246Y449314D01*
X728893Y448854D01*
X715289D01*
X699104Y465039D01*
Y488281D01*
X700040Y489049D01*
Y495310D01*
X702040D01*
Y489096D01*
X702250Y489137D01*
X703232Y488332D01*
Y470300D01*
X723232D01*
Y484501D01*
X724502Y485302D01*
X725440Y484914D01*
X727202Y484682D01*
X728964Y484914D01*
X730606Y485594D01*
X732016Y486676D01*
X733098Y488086D01*
X733778Y489728D01*
X734010Y491490D01*
X733778Y493252D01*
X733098Y494894D01*
X732016Y496304D01*
X730606Y497386D01*
X728964Y498066D01*
X727202Y498298D01*
X725440Y498066D01*
X724502Y497678D01*
X723232Y498479D01*
Y520300D01*
X703232D01*
Y518404D01*
X701962Y517751D01*
X700770Y518244D01*
X700173Y518323D01*
X699671Y519192D01*
X699903Y520954D01*
X699671Y522716D01*
X698991Y524358D01*
X697909Y525768D01*
X696840Y526589D01*
X697343Y527803D01*
X706973Y526536D01*
D02*
G37*
G36*
X127000Y528302D02*
X146304D01*
Y469512D01*
X179252D01*
X179738Y468339D01*
X168442Y457043D01*
X167049Y457445D01*
X165825Y459277D01*
X163744Y460667D01*
X162290Y460956D01*
Y454742D01*
X161290D01*
Y453742D01*
X155076D01*
X155365Y452288D01*
X156755Y450207D01*
X158587Y448983D01*
X158989Y447590D01*
X158595Y447195D01*
X157379Y445376D01*
X156952Y443230D01*
Y417758D01*
X152992D01*
Y423702D01*
X153280Y424078D01*
X153960Y425720D01*
X154192Y427482D01*
X153960Y429244D01*
X153280Y430886D01*
X152992Y431262D01*
Y433606D01*
X155384D01*
Y448606D01*
X145539D01*
X145480Y448618D01*
X135849D01*
X135783Y448662D01*
X133442Y449128D01*
X120442D01*
X118101Y448662D01*
X116116Y447336D01*
X114790Y445351D01*
X114325Y443010D01*
X114790Y440669D01*
X116116Y438684D01*
X118101Y437358D01*
X118356Y437308D01*
Y436013D01*
X118101Y435962D01*
X116509Y434898D01*
X110762D01*
X109006Y434549D01*
X107518Y433554D01*
X93349Y419385D01*
X92133Y419754D01*
X92094Y419951D01*
X90768Y421936D01*
X88783Y423262D01*
X88528Y423313D01*
Y424608D01*
X88783Y424658D01*
X90768Y425984D01*
X92094Y427969D01*
X92559Y430310D01*
X92094Y432651D01*
X90768Y434636D01*
X88783Y435962D01*
X88528Y436013D01*
Y437308D01*
X88783Y437358D01*
X90768Y438684D01*
X92094Y440669D01*
X92559Y443010D01*
X92094Y445351D01*
X90768Y447336D01*
X88783Y448662D01*
X86442Y449128D01*
X73442D01*
X71101Y448662D01*
X69375Y447508D01*
X68070Y447249D01*
X66582Y446254D01*
X56439Y436112D01*
X55266Y436598D01*
Y436959D01*
X36566D01*
Y419752D01*
X35393Y419266D01*
X29866Y424793D01*
Y436959D01*
X11166D01*
Y415465D01*
X23333D01*
X28548Y410249D01*
Y405772D01*
X27656D01*
Y390772D01*
X32300D01*
X32786Y389599D01*
X32000Y388812D01*
X31282Y387738D01*
X27975D01*
X23247Y392465D01*
X21428Y393681D01*
X19282Y394108D01*
X18676D01*
Y395000D01*
X5098D01*
Y406400D01*
X5027Y406757D01*
X5475Y417020D01*
X6864Y427573D01*
X9168Y437964D01*
X12369Y448114D01*
X16442Y457948D01*
X21356Y467388D01*
X27075Y476365D01*
X33554Y484809D01*
X40744Y492656D01*
X48591Y499846D01*
X57035Y506325D01*
X66012Y512044D01*
X75452Y516959D01*
X85286Y521031D01*
X95436Y524232D01*
X105827Y526536D01*
X116379Y527925D01*
X126643Y528373D01*
X127000Y528302D01*
D02*
G37*
G36*
X339364Y464643D02*
X331569Y456847D01*
X331225Y456333D01*
X329955D01*
X329401Y457163D01*
X327320Y458553D01*
X325866Y458842D01*
Y452628D01*
X324866D01*
Y451628D01*
X318652D01*
X318941Y450174D01*
X320331Y448093D01*
X322412Y446703D01*
X324327Y446322D01*
X324808Y445007D01*
X322029Y442227D01*
X320813Y440408D01*
X320484Y438753D01*
X319214Y438878D01*
Y445778D01*
X311592D01*
X309932Y446887D01*
X307786Y447314D01*
X300187D01*
X300121Y447358D01*
X297780Y447823D01*
X284780D01*
X282439Y447358D01*
X280454Y446032D01*
X279128Y444047D01*
X278662Y441706D01*
X279128Y439365D01*
X280454Y437380D01*
X281691Y436554D01*
X281853Y434974D01*
X281463Y434614D01*
X273054D01*
X270908Y434187D01*
X269089Y432971D01*
X256472Y420354D01*
X255208Y420479D01*
X255106Y420632D01*
X253121Y421958D01*
X252866Y422009D01*
Y423303D01*
X253121Y423354D01*
X255106Y424680D01*
X256432Y426665D01*
X256898Y429006D01*
X256432Y431347D01*
X255106Y433332D01*
X253121Y434658D01*
X252866Y434709D01*
Y436003D01*
X253121Y436054D01*
X255106Y437380D01*
X256432Y439365D01*
X256898Y441706D01*
X256432Y444047D01*
X255106Y446032D01*
X253121Y447358D01*
X250780Y447823D01*
X237780D01*
X235439Y447358D01*
X235373Y447314D01*
X226959D01*
X226747Y447570D01*
X226993Y449262D01*
X227905Y449871D01*
X229296Y451952D01*
X229585Y453406D01*
X217156D01*
X217446Y451952D01*
X218836Y449871D01*
X219748Y449262D01*
X219994Y447570D01*
X219782Y447314D01*
X210058D01*
X207912Y446887D01*
X206093Y445671D01*
X198727Y438305D01*
X197511Y436486D01*
X197454Y436197D01*
X181722D01*
Y414703D01*
X185520D01*
Y406542D01*
X184628D01*
Y394791D01*
X183646Y393985D01*
X183030Y394108D01*
X181490D01*
Y395000D01*
X168168D01*
Y440907D01*
X193077Y465816D01*
X338878D01*
X339364Y464643D01*
D02*
G37*
G36*
X503178Y458276D02*
X481175Y436273D01*
X479959Y434454D01*
X479818Y433744D01*
X478548Y433869D01*
Y446240D01*
X470926D01*
X469266Y447349D01*
X467120Y447776D01*
X460029D01*
X459963Y447820D01*
X457622Y448286D01*
X444622D01*
X442281Y447820D01*
X440296Y446494D01*
X438970Y444509D01*
X438504Y442168D01*
X438970Y439827D01*
X440296Y437842D01*
X441533Y437016D01*
X441695Y435436D01*
X441305Y435076D01*
X434040D01*
X431894Y434649D01*
X430075Y433433D01*
X429801Y433160D01*
X428631Y433786D01*
X428836Y434818D01*
X422622D01*
Y435818D01*
X421622D01*
Y442032D01*
X420168Y441743D01*
X418087Y440353D01*
X417358Y439261D01*
X416274Y439827D01*
X416740Y442168D01*
X416274Y444509D01*
X414948Y446494D01*
X412963Y447820D01*
X410622Y448286D01*
X397622D01*
X395281Y447820D01*
X395215Y447776D01*
X389636D01*
X387490Y447349D01*
X385671Y446133D01*
X380247Y440710D01*
X363012D01*
X360866Y440283D01*
X359047Y439067D01*
X354199Y434219D01*
X352983Y432400D01*
X352778Y431371D01*
X344986D01*
X344238Y431520D01*
X343490Y431371D01*
X334312D01*
Y409877D01*
X345286D01*
Y405264D01*
X344394D01*
Y395704D01*
X343124Y394661D01*
X342076Y394870D01*
X341764D01*
Y395762D01*
X331602D01*
Y435939D01*
X339499Y443837D01*
X340715Y445656D01*
X341142Y447802D01*
Y450559D01*
X350129Y459546D01*
X370000D01*
X370678Y458276D01*
X370041Y457322D01*
X369752Y455868D01*
X382180D01*
X381891Y457322D01*
X381254Y458276D01*
X381932Y459546D01*
X478417D01*
X479096Y458276D01*
X478373Y457194D01*
X478084Y455740D01*
X490512D01*
X490223Y457194D01*
X489500Y458276D01*
X490179Y459546D01*
X502652D01*
X503178Y458276D01*
D02*
G37*
G36*
X678540Y452416D02*
Y447890D01*
X678080Y447536D01*
X676998Y446126D01*
X676318Y444484D01*
X676086Y442722D01*
X676181Y441996D01*
X675098Y440726D01*
X656875D01*
X653441Y444160D01*
X653565Y445424D01*
X653759Y445553D01*
X655149Y447634D01*
X655438Y449088D01*
X643010D01*
X643042Y448928D01*
X642007Y447618D01*
X641143Y447446D01*
X639730Y446502D01*
X636045Y442818D01*
X635102Y441405D01*
X634967Y440726D01*
X625363D01*
X625115Y440975D01*
X623702Y441918D01*
X622036Y442250D01*
X601497D01*
X599948Y443799D01*
X600434Y444972D01*
X603569D01*
X603730Y445004D01*
X612426D01*
X614092Y445336D01*
X615504Y446279D01*
X621249Y452024D01*
X642195D01*
X642963Y451088D01*
X655485D01*
X656253Y452024D01*
X665504D01*
X666396Y450862D01*
X667806Y449780D01*
X669448Y449100D01*
X671210Y448868D01*
X672972Y449100D01*
X674614Y449780D01*
X676024Y450862D01*
X677106Y452272D01*
X677270Y452668D01*
X678540Y452416D01*
D02*
G37*
G36*
X570719Y461428D02*
X570780Y461122D01*
X571724Y459710D01*
X580643Y450790D01*
X580482Y449155D01*
X579281Y448353D01*
X577891Y446272D01*
X577602Y444818D01*
X583816D01*
Y443818D01*
X584816D01*
Y437604D01*
X586270Y437893D01*
X588351Y439283D01*
X589153Y440484D01*
X590788Y440645D01*
X596615Y434818D01*
X598028Y433874D01*
X599694Y433542D01*
X600008Y432272D01*
X599779Y431118D01*
X600244Y428777D01*
X601570Y426792D01*
X602807Y425966D01*
X602969Y424386D01*
X602579Y424026D01*
X598250D01*
X596104Y423599D01*
X594285Y422383D01*
X578901Y406999D01*
X577685Y407368D01*
X577548Y408059D01*
X576222Y410044D01*
X574237Y411370D01*
X573982Y411421D01*
Y412715D01*
X574237Y412766D01*
X576222Y414092D01*
X577548Y416077D01*
X578014Y418418D01*
X577548Y420759D01*
X576222Y422744D01*
X574237Y424070D01*
X573982Y424120D01*
Y425415D01*
X574237Y425466D01*
X576222Y426792D01*
X577548Y428777D01*
X578014Y431118D01*
X577548Y433459D01*
X576222Y435444D01*
X574237Y436770D01*
X571896Y437235D01*
X558896D01*
X556555Y436770D01*
X556489Y436726D01*
X546360D01*
X545975Y437996D01*
X547521Y439029D01*
X548912Y441110D01*
X549201Y442564D01*
X536772D01*
X537062Y441110D01*
X538452Y439029D01*
X539998Y437996D01*
X539613Y436726D01*
X533294D01*
X531148Y436299D01*
X529329Y435083D01*
X521409Y427163D01*
X520201Y425355D01*
X502520D01*
Y403861D01*
X512094D01*
Y394190D01*
X511202D01*
Y381104D01*
X510029Y380618D01*
X509509Y381137D01*
X507690Y382353D01*
X505544Y382780D01*
X504680D01*
Y383672D01*
X490748D01*
Y429985D01*
X510577Y449814D01*
X538733D01*
X539118Y448544D01*
X538452Y448099D01*
X537062Y446018D01*
X536772Y444564D01*
X549201D01*
X548912Y446018D01*
X547521Y448099D01*
X546855Y448544D01*
X547240Y449814D01*
X554986D01*
X557132Y450241D01*
X558951Y451457D01*
X569341Y461846D01*
X570719Y461428D01*
D02*
G37*
G36*
X141776Y431262D02*
X141488Y430886D01*
X140808Y429244D01*
X140576Y427482D01*
X140808Y425720D01*
X141488Y424078D01*
X141776Y423702D01*
Y417758D01*
X140916D01*
Y403347D01*
X133135D01*
X132536Y404467D01*
X132867Y404962D01*
X133156Y406416D01*
X120728D01*
X121017Y404962D01*
X121348Y404467D01*
X120749Y403347D01*
X112411D01*
Y408739D01*
X97339D01*
X96853Y409912D01*
X112662Y425722D01*
X116509D01*
X118101Y424658D01*
X120442Y424193D01*
X133442D01*
X135783Y424658D01*
X137768Y425984D01*
X139094Y427969D01*
X139559Y430310D01*
X139136Y432439D01*
X139628Y433225D01*
X139983Y433606D01*
X141776D01*
Y431262D01*
D02*
G37*
G36*
X463815Y425650D02*
X463740Y425082D01*
X463972Y423320D01*
X464652Y421678D01*
X465734Y420268D01*
X467144Y419186D01*
X468170Y418761D01*
Y416488D01*
X465278D01*
Y403094D01*
X458047D01*
X457177Y404364D01*
X457336Y405164D01*
X444908D01*
X445067Y404364D01*
X444197Y403094D01*
X428644D01*
Y408486D01*
X422648D01*
X422162Y409659D01*
X436363Y423860D01*
X442215D01*
X442281Y423816D01*
X444622Y423350D01*
X457622D01*
X459963Y423816D01*
X461948Y425142D01*
X462594Y426110D01*
X463815Y425650D01*
D02*
G37*
G36*
X305606Y430231D02*
Y427204D01*
X305508Y427076D01*
X304828Y425434D01*
X304596Y423672D01*
X304828Y421910D01*
X305508Y420268D01*
X306590Y418858D01*
X307301Y418312D01*
X306870Y417042D01*
X305254D01*
Y403140D01*
X297137D01*
X296458Y404410D01*
X297205Y405528D01*
X297494Y406982D01*
X285066D01*
X285355Y405528D01*
X286102Y404410D01*
X285423Y403140D01*
X270656D01*
Y408532D01*
X262170D01*
X261684Y409705D01*
X275377Y423398D01*
X282373D01*
X282439Y423354D01*
X284780Y422888D01*
X297780D01*
X300121Y423354D01*
X302106Y424680D01*
X303432Y426665D01*
X303897Y429006D01*
X303808Y429459D01*
X304726Y430433D01*
X305606Y430231D01*
D02*
G37*
G36*
X624834Y414219D02*
X624992Y413018D01*
X625672Y411376D01*
X626754Y409966D01*
X628164Y408884D01*
X628990Y408542D01*
Y405460D01*
X626098D01*
Y391812D01*
X620414D01*
X619815Y392932D01*
X619945Y393126D01*
X620234Y394580D01*
X607806D01*
X608095Y393126D01*
X608225Y392932D01*
X607626Y391812D01*
X595370D01*
Y395767D01*
X597178Y396127D01*
X599259Y397517D01*
X600649Y399598D01*
X600938Y401052D01*
X594724D01*
Y403052D01*
X600938D01*
X600649Y404506D01*
X599259Y406587D01*
X597393Y407834D01*
X596976Y409214D01*
X600573Y412810D01*
X603489D01*
X603555Y412766D01*
X605896Y412300D01*
X618896D01*
X621237Y412766D01*
X623222Y414092D01*
X623512Y414527D01*
X624834Y414219D01*
D02*
G37*
G36*
X140916Y391827D02*
Y382758D01*
X142141D01*
Y378989D01*
X138999D01*
Y358489D01*
X147808D01*
Y354094D01*
X145166D01*
Y350345D01*
X139067Y344246D01*
X137865Y344654D01*
X137802Y345133D01*
X136744Y347687D01*
X135061Y349881D01*
X132867Y351564D01*
X130313Y352622D01*
X127572Y352983D01*
X125221Y352673D01*
X121043Y356851D01*
X121411Y357739D01*
X121411D01*
Y379739D01*
X105701D01*
X105650Y379995D01*
X104655Y381484D01*
X100573Y385566D01*
X101059Y386739D01*
X112411D01*
Y392132D01*
X127058D01*
X127218Y391677D01*
X127269Y390862D01*
X125379Y389599D01*
X123989Y387518D01*
X123700Y386064D01*
X136128D01*
X135839Y387518D01*
X134449Y389599D01*
X132559Y390862D01*
X132611Y391677D01*
X132770Y392132D01*
X140612D01*
X140916Y391827D01*
D02*
G37*
G36*
X702887Y419862D02*
X702887Y392864D01*
X694000Y383976D01*
X674044Y383976D01*
X658114Y368046D01*
Y335280D01*
X666750D01*
Y323714D01*
X666378Y323342D01*
X652018D01*
X648716Y326644D01*
Y410464D01*
X658114Y419862D01*
X702887Y419862D01*
D02*
G37*
G36*
X398506Y385826D02*
X398933Y383680D01*
X400149Y381861D01*
X401254Y380756D01*
X400727Y379486D01*
X397644D01*
Y378423D01*
X396374Y378038D01*
X395763Y378953D01*
X393682Y380343D01*
X392228Y380632D01*
Y374418D01*
Y368204D01*
X393682Y368493D01*
X395763Y369883D01*
X396374Y370798D01*
X397644Y370413D01*
Y367917D01*
X382319Y352592D01*
X371662D01*
X371176Y353765D01*
X378026Y360616D01*
X378767Y361724D01*
X380982D01*
Y374454D01*
X380982Y374724D01*
X380982D01*
Y375724D01*
X380982D01*
Y388724D01*
X380982Y388724D01*
X380982D01*
X381180Y389912D01*
X381610Y390090D01*
X383020Y391172D01*
X384102Y392582D01*
X384782Y394224D01*
X384807Y394408D01*
X398506D01*
Y385826D01*
D02*
G37*
G36*
X626098Y379529D02*
Y370460D01*
X628990D01*
Y367454D01*
X624244D01*
Y346954D01*
X626431D01*
Y341726D01*
X626270Y340917D01*
Y340437D01*
X622189Y336356D01*
X620723Y336686D01*
X619291Y338553D01*
X617097Y340236D01*
X614543Y341294D01*
X611802Y341655D01*
X609451Y341345D01*
X604370Y346427D01*
Y368204D01*
X590002D01*
X589991Y368262D01*
X588775Y370081D01*
X584826Y374031D01*
X585312Y375204D01*
X595370D01*
Y380596D01*
X612068D01*
X612499Y379421D01*
X612482Y379326D01*
X610459Y377975D01*
X609069Y375894D01*
X608780Y374440D01*
X621208D01*
X620919Y375894D01*
X619529Y377975D01*
X617506Y379326D01*
X617489Y379421D01*
X617920Y380596D01*
X625031D01*
X626098Y379529D01*
D02*
G37*
G36*
X238740Y387858D02*
X239167Y385712D01*
X240383Y383893D01*
X243570Y380705D01*
X243084Y379532D01*
X239656D01*
Y367963D01*
X237563Y365870D01*
X236577Y366680D01*
X237011Y367329D01*
X237300Y368783D01*
X232086D01*
Y363569D01*
X233540Y363858D01*
X234189Y364292D01*
X234999Y363306D01*
X224585Y352892D01*
X213974D01*
X213488Y354065D01*
X218128Y358706D01*
X219123Y360194D01*
X219392Y361546D01*
X221084D01*
Y374276D01*
X221084Y374546D01*
X221084D01*
Y375546D01*
X221084D01*
Y388546D01*
X221084Y388546D01*
X221335Y389712D01*
X222860Y390344D01*
X223492Y390829D01*
X224650Y391059D01*
X225373Y391542D01*
X238740D01*
Y387858D01*
D02*
G37*
G36*
X540880Y382892D02*
X542290Y381810D01*
X543932Y381130D01*
X545694Y380898D01*
X547456Y381130D01*
X549098Y381810D01*
X550508Y382892D01*
X550671Y383104D01*
X563962D01*
Y375768D01*
X564389Y373622D01*
X565605Y371803D01*
X567934Y369474D01*
X567407Y368204D01*
X564370D01*
Y356635D01*
X547275Y339540D01*
X546102Y340026D01*
Y341564D01*
X540466D01*
X539980Y342737D01*
X540620Y343378D01*
X541615Y344866D01*
X541964Y346622D01*
Y350240D01*
X543576D01*
Y355839D01*
X544846Y356244D01*
X546694Y355009D01*
X548148Y354720D01*
Y360934D01*
Y367148D01*
X546694Y366859D01*
X544846Y365624D01*
X543999Y365894D01*
X543576Y366187D01*
Y377240D01*
X538310D01*
Y379190D01*
X539202D01*
Y382992D01*
X540472Y383423D01*
X540880Y382892D01*
D02*
G37*
G36*
X57556Y396186D02*
X59198Y395506D01*
X60960Y395274D01*
X62722Y395506D01*
X63946Y396013D01*
X64988Y395492D01*
X65216Y395239D01*
Y394154D01*
X80823D01*
Y388749D01*
X81172Y386993D01*
X82167Y385505D01*
X86662Y381009D01*
X86136Y379739D01*
X81411D01*
Y368170D01*
X63045Y349804D01*
X61872Y350290D01*
Y352892D01*
X49070D01*
X48584Y354065D01*
X55188Y360670D01*
X55234Y360738D01*
X58144D01*
Y373468D01*
X58144Y373738D01*
X58144D01*
Y374738D01*
X58144D01*
Y387738D01*
X54764D01*
Y390772D01*
X55656D01*
Y396043D01*
X56926Y396669D01*
X57556Y396186D01*
D02*
G37*
G36*
X254234Y347308D02*
X242226Y335300D01*
X226210D01*
Y338655D01*
X239927Y352373D01*
X241363Y352012D01*
X242238Y350701D01*
X243906Y349588D01*
X244872Y349395D01*
Y354335D01*
X245872D01*
Y355335D01*
X250812D01*
X250627Y356262D01*
X250595Y356489D01*
X251296Y357532D01*
X254234D01*
Y347308D01*
D02*
G37*
G36*
X412730Y348503D02*
X398765Y334538D01*
X385836D01*
Y340247D01*
X396186Y350598D01*
X397691Y350306D01*
X398448Y349172D01*
X400116Y348058D01*
X401082Y347866D01*
Y352806D01*
X402082D01*
Y353806D01*
X407022D01*
X406830Y354772D01*
X405865Y356216D01*
X406261Y357486D01*
X412730D01*
Y348503D01*
D02*
G37*
G36*
X465278Y390558D02*
Y381488D01*
X468170D01*
Y378526D01*
X464122D01*
Y358026D01*
X472420D01*
Y355261D01*
X469778D01*
Y350573D01*
X463045Y343840D01*
X461843Y344248D01*
X461766Y344833D01*
X460708Y347387D01*
X459025Y349581D01*
X456831Y351264D01*
X454277Y352322D01*
X451536Y352683D01*
X449185Y352373D01*
X437644Y363914D01*
Y379486D01*
X423577D01*
X423519Y379778D01*
X422303Y381597D01*
X418588Y385313D01*
X419074Y386486D01*
X428644D01*
Y391878D01*
X463957D01*
X465278Y390558D01*
D02*
G37*
G36*
X305254Y391111D02*
Y382042D01*
X306986D01*
Y379036D01*
X303844D01*
Y358536D01*
X308146D01*
Y355618D01*
X307646D01*
Y346026D01*
X303606Y341986D01*
X302467Y342643D01*
X302140Y345133D01*
X301082Y347687D01*
X299399Y349881D01*
X297205Y351564D01*
X294651Y352622D01*
X291910Y352983D01*
X289278Y352636D01*
X279656Y362258D01*
Y379532D01*
X265135D01*
X265023Y380098D01*
X263807Y381917D01*
X260366Y385359D01*
X260852Y386532D01*
X270656D01*
Y391924D01*
X304441D01*
X305254Y391111D01*
D02*
G37*
G36*
X788924Y376918D02*
X788924Y355498D01*
X788924Y339090D01*
X768408D01*
X754692Y325374D01*
X742578Y325374D01*
X741680Y326272D01*
X741680Y373888D01*
X751586Y383794D01*
X782048D01*
X788924Y376918D01*
D02*
G37*
G36*
X107303Y357053D02*
X107730Y354907D01*
X108946Y353088D01*
X117291Y344743D01*
X116981Y342392D01*
X117342Y339651D01*
X118400Y337097D01*
X120083Y334903D01*
X122277Y333220D01*
X124831Y332162D01*
X125310Y332099D01*
X125718Y330897D01*
X123607Y328785D01*
X122391Y326966D01*
X122223Y326123D01*
X120083Y324481D01*
X118400Y322287D01*
X117342Y319733D01*
X116981Y316992D01*
X117342Y314251D01*
X118400Y311697D01*
X120083Y309503D01*
X122277Y307820D01*
X124831Y306762D01*
X127572Y306401D01*
X130313Y306762D01*
X132867Y307820D01*
X135061Y309503D01*
X136744Y311697D01*
X137802Y314251D01*
X138163Y316992D01*
X137802Y319733D01*
X136744Y322287D01*
X135105Y324423D01*
X152277Y341594D01*
X156952D01*
Y320843D01*
X155682Y320718D01*
X155531Y321478D01*
X154141Y323559D01*
X152060Y324949D01*
X150606Y325238D01*
Y319024D01*
X149606D01*
Y318024D01*
X143392D01*
X143681Y316570D01*
X144491Y315357D01*
X144408Y314087D01*
X144408Y314087D01*
X144408Y314087D01*
Y311026D01*
X141398D01*
X139252Y310599D01*
X137433Y309383D01*
X129923Y301873D01*
X127572Y302183D01*
X124831Y301822D01*
X122277Y300764D01*
X120083Y299081D01*
X118400Y296887D01*
X117342Y294333D01*
X116981Y291592D01*
X117291Y289241D01*
X101643Y273593D01*
X100427Y271774D01*
X100000Y269628D01*
Y250278D01*
X99108D01*
Y235278D01*
X100690D01*
X101643Y233853D01*
X107867Y227629D01*
X109686Y226413D01*
X111832Y225986D01*
X119792D01*
Y221142D01*
X118771Y219614D01*
X118344Y217468D01*
Y216374D01*
X117074Y215652D01*
X115570Y215850D01*
X113808Y215618D01*
X112166Y214938D01*
X110756Y213856D01*
X109674Y212446D01*
X108994Y210804D01*
X108762Y209042D01*
X108994Y207280D01*
X109674Y205638D01*
X110756Y204228D01*
X112166Y203146D01*
X113808Y202466D01*
X115570Y202234D01*
X117074Y202432D01*
X118344Y201710D01*
Y198114D01*
X118771Y195968D01*
X119987Y194149D01*
X125949Y188187D01*
X127768Y186971D01*
X128712Y186783D01*
X129122Y185407D01*
X128767Y185060D01*
X126725D01*
X115667Y196117D01*
X113848Y197333D01*
X111702Y197760D01*
X100895D01*
X100589Y197964D01*
X98248Y198430D01*
X86183D01*
X77692Y206921D01*
X76204Y207915D01*
X74448Y208264D01*
X70585D01*
X70199Y209534D01*
X71799Y210603D01*
X73189Y212684D01*
X73478Y214138D01*
X61050D01*
X61339Y212684D01*
X62729Y210603D01*
X64329Y209534D01*
X63943Y208264D01*
X33260D01*
X17898Y223626D01*
Y248662D01*
X33872D01*
X33872Y248662D01*
Y248662D01*
X34750Y247850D01*
X43778Y238822D01*
Y229752D01*
X60778D01*
Y229752D01*
X61778D01*
Y229752D01*
X75771D01*
X80802Y224722D01*
X80864Y224252D01*
X81544Y222610D01*
X82626Y221200D01*
X84036Y220118D01*
X85678Y219438D01*
X87440Y219206D01*
X89202Y219438D01*
X90195Y219849D01*
X91518Y219270D01*
X91634Y219123D01*
X91929Y217642D01*
X93319Y215561D01*
X95400Y214171D01*
X96854Y213882D01*
Y220096D01*
Y226310D01*
X95469Y226035D01*
X95356Y226045D01*
X94156Y226717D01*
X94016Y227776D01*
X93336Y229418D01*
X92254Y230828D01*
X90844Y231910D01*
X89202Y232590D01*
X88733Y232652D01*
X87280Y234105D01*
X87766Y235278D01*
X97108D01*
Y250278D01*
X96216D01*
Y277756D01*
X95789Y279902D01*
X94573Y281721D01*
X61653Y314641D01*
X61963Y316992D01*
X61602Y319733D01*
X60544Y322287D01*
X59552Y323580D01*
X60178Y324850D01*
X72332D01*
X74088Y325199D01*
X75576Y326194D01*
X104655Y355273D01*
X105650Y356761D01*
X105844Y357739D01*
X107303D01*
Y357053D01*
D02*
G37*
G36*
X441255Y344443D02*
X440945Y342092D01*
X441306Y339351D01*
X442364Y336797D01*
X444047Y334603D01*
X446241Y332920D01*
X448795Y331862D01*
X451536Y331501D01*
X454277Y331862D01*
X455616Y332417D01*
X456672Y331712D01*
Y329759D01*
X453887Y326973D01*
X451536Y327283D01*
X448795Y326922D01*
X446241Y325864D01*
X444047Y324181D01*
X442364Y321987D01*
X441306Y319433D01*
X440945Y316692D01*
X441306Y313951D01*
X442364Y311397D01*
X444047Y309203D01*
X446241Y307520D01*
X448795Y306462D01*
X451536Y306101D01*
X454277Y306462D01*
X456831Y307520D01*
X459025Y309203D01*
X460708Y311397D01*
X461766Y313951D01*
X462127Y316692D01*
X461817Y319043D01*
X466245Y323471D01*
X467461Y325290D01*
X467888Y327436D01*
Y332821D01*
X477827Y342761D01*
X482580D01*
Y315442D01*
X480317D01*
X479638Y316712D01*
X480222Y317586D01*
X480512Y319040D01*
X468083D01*
X468372Y317586D01*
X468970Y316691D01*
X469020Y315442D01*
X469020Y315442D01*
X469020Y315442D01*
Y312550D01*
X467186D01*
X465040Y312123D01*
X463221Y310907D01*
X453887Y301573D01*
X451536Y301883D01*
X448795Y301522D01*
X446241Y300464D01*
X444047Y298781D01*
X442364Y296587D01*
X441306Y294033D01*
X440945Y291292D01*
X441255Y288941D01*
X423719Y271405D01*
X422503Y269586D01*
X422076Y267440D01*
Y250180D01*
X421184D01*
Y235180D01*
X423893D01*
X431137Y227937D01*
X432956Y226721D01*
X435102Y226294D01*
X443036D01*
Y211156D01*
X444928D01*
Y195850D01*
X445355Y193704D01*
X446571Y191885D01*
X451713Y186743D01*
X453532Y185527D01*
X454651Y185305D01*
X455038Y183933D01*
X454695Y183616D01*
X449685D01*
X438627Y194673D01*
X436808Y195889D01*
X434662Y196316D01*
X426419D01*
X426353Y196360D01*
X424012Y196826D01*
X411012D01*
X408671Y196360D01*
X407079Y195296D01*
X405366D01*
X393710Y206952D01*
X392675Y207644D01*
X392943Y208992D01*
X393822Y209167D01*
X395903Y210557D01*
X397293Y212638D01*
X397582Y214092D01*
X385154D01*
X385443Y212638D01*
X386833Y210557D01*
X388316Y209566D01*
X387931Y208296D01*
X358008D01*
X345614Y220690D01*
Y252286D01*
X354629D01*
X368140Y238776D01*
Y229706D01*
X384870D01*
X385140Y229706D01*
X386140D01*
X386410Y229706D01*
X395209D01*
X403329Y221587D01*
X405148Y220371D01*
X406814Y220040D01*
X407314Y219656D01*
X408956Y218976D01*
X410718Y218744D01*
X412480Y218976D01*
X412492Y218981D01*
X413334Y217955D01*
X412413Y216576D01*
X412124Y215122D01*
X417338D01*
Y220336D01*
X416732Y220216D01*
X416016Y221368D01*
X416614Y222148D01*
X417294Y223790D01*
X417526Y225552D01*
X417294Y227314D01*
X416614Y228956D01*
X415532Y230366D01*
X414122Y231448D01*
X412480Y232128D01*
X410718Y232360D01*
X408956Y232128D01*
X408738Y232038D01*
X406866Y233910D01*
X407393Y235180D01*
X419184D01*
Y250180D01*
X418292D01*
Y279344D01*
X417865Y281490D01*
X416649Y283309D01*
X385617Y314341D01*
X385927Y316692D01*
X385566Y319433D01*
X384508Y321987D01*
X384357Y322183D01*
X384919Y323322D01*
X401088D01*
X403234Y323749D01*
X405053Y324965D01*
X422303Y342215D01*
X423519Y344034D01*
X423946Y346180D01*
Y357486D01*
X428211D01*
X441255Y344443D01*
D02*
G37*
G36*
X281592Y344462D02*
X281319Y342392D01*
X281680Y339651D01*
X282738Y337097D01*
X284421Y334903D01*
X286615Y333220D01*
X289169Y332162D01*
X291910Y331801D01*
X294651Y332162D01*
X296376Y332877D01*
X297646Y332028D01*
Y330659D01*
X294261Y327273D01*
X291910Y327583D01*
X289169Y327222D01*
X286615Y326164D01*
X284421Y324481D01*
X282738Y322287D01*
X281680Y319733D01*
X281319Y316992D01*
X281680Y314251D01*
X282738Y311697D01*
X284421Y309503D01*
X286615Y307820D01*
X289169Y306762D01*
X291910Y306401D01*
X294651Y306762D01*
X297205Y307820D01*
X299399Y309503D01*
X301082Y311697D01*
X302140Y314251D01*
X302501Y316992D01*
X302191Y319343D01*
X306341Y323493D01*
X307248Y323008D01*
X312754D01*
Y328222D01*
X311300Y327933D01*
X309889Y326990D01*
X308746Y327754D01*
X308862Y328336D01*
Y331380D01*
X317719Y340238D01*
X318935Y342057D01*
X319146Y343118D01*
X321544D01*
Y314578D01*
X315155D01*
X315030Y315849D01*
X316208Y316083D01*
X318289Y317473D01*
X319679Y319554D01*
X319968Y321008D01*
X307540D01*
X307829Y319554D01*
X309219Y317473D01*
X311300Y316083D01*
X312478Y315849D01*
X312353Y314578D01*
X308492D01*
Y311686D01*
X306397D01*
X304251Y311259D01*
X302431Y310044D01*
X294261Y301873D01*
X291910Y302183D01*
X289169Y301822D01*
X286615Y300764D01*
X284421Y299081D01*
X282738Y296887D01*
X281680Y294333D01*
X281319Y291592D01*
X281629Y289241D01*
X261409Y269021D01*
X260193Y267202D01*
X259766Y265056D01*
Y251086D01*
X258874D01*
Y236086D01*
X259905D01*
X260193Y234638D01*
X261409Y232819D01*
X265783Y228445D01*
X267602Y227229D01*
X269748Y226802D01*
X282504D01*
Y211710D01*
X284396D01*
Y197168D01*
X284823Y195022D01*
X286039Y193203D01*
X291437Y187805D01*
X293256Y186589D01*
X295402Y186162D01*
X295422D01*
X295919Y184892D01*
X295687Y184678D01*
X288327D01*
X277269Y195735D01*
X275450Y196951D01*
X273304Y197378D01*
X267411D01*
X267345Y197422D01*
X265004Y197887D01*
X252004D01*
X249663Y197422D01*
X248071Y196358D01*
X244725D01*
X232860Y208222D01*
X231592Y209070D01*
X232087Y210266D01*
X232265Y210231D01*
X234720Y210719D01*
X236800Y212109D01*
X238191Y214190D01*
X238480Y215644D01*
X226051D01*
X226340Y214190D01*
X227731Y212109D01*
X229668Y210815D01*
X229629Y210177D01*
X229425Y209566D01*
X200783D01*
X193269Y217080D01*
X193868Y218200D01*
X194120Y218150D01*
X196574Y218638D01*
X198655Y220028D01*
X200045Y222109D01*
X200334Y223563D01*
X194120D01*
Y224563D01*
X193120D01*
Y230777D01*
X191666Y230488D01*
X189585Y229098D01*
X188195Y227017D01*
X187707Y224563D01*
X187757Y224310D01*
X186637Y223712D01*
X183562Y226786D01*
Y249424D01*
X197514D01*
X207354Y239583D01*
Y230514D01*
X224354D01*
Y230514D01*
X225354D01*
Y230514D01*
X234424D01*
X241197Y223741D01*
X243016Y222525D01*
X245162Y222098D01*
X247426D01*
X247802Y221810D01*
X249444Y221130D01*
X251206Y220898D01*
X252968Y221130D01*
X254610Y221810D01*
X256020Y222892D01*
X257102Y224302D01*
X257782Y225944D01*
X258014Y227706D01*
X257782Y229468D01*
X257102Y231110D01*
X256020Y232520D01*
X254610Y233602D01*
X252968Y234282D01*
X251206Y234514D01*
X249444Y234282D01*
X247802Y233602D01*
X247459Y233339D01*
X245886Y234913D01*
X246372Y236086D01*
X256874D01*
Y251086D01*
X255982D01*
Y282328D01*
X255555Y284474D01*
X254339Y286293D01*
X225991Y314641D01*
X226301Y316992D01*
X225940Y319733D01*
X224882Y322287D01*
X224377Y322945D01*
X224939Y324084D01*
X244549D01*
X246695Y324511D01*
X248514Y325727D01*
X263807Y341020D01*
X265023Y342839D01*
X265450Y344985D01*
Y357532D01*
X268521D01*
X281592Y344462D01*
D02*
G37*
G36*
X357358Y320508D02*
Y312003D01*
X356238Y311404D01*
X355836Y311673D01*
X354382Y311962D01*
Y305748D01*
Y299534D01*
X355836Y299823D01*
X356910Y300540D01*
X358658Y300210D01*
X359001Y299697D01*
X365055Y293643D01*
X364745Y291292D01*
X365106Y288551D01*
X366164Y285997D01*
X367847Y283803D01*
X370041Y282120D01*
X372595Y281062D01*
X375336Y280701D01*
X378077Y281062D01*
X380631Y282120D01*
X382825Y283803D01*
X384508Y285997D01*
X385566Y288551D01*
X385927Y291292D01*
X385566Y294033D01*
X384508Y296587D01*
X382825Y298781D01*
X380631Y300464D01*
X378077Y301522D01*
X375336Y301883D01*
X372985Y301573D01*
X368574Y305985D01*
Y307210D01*
X369713Y307772D01*
X370041Y307520D01*
X372595Y306462D01*
X375336Y306101D01*
X377687Y306411D01*
X407076Y277021D01*
Y250180D01*
X406184D01*
Y236389D01*
X404914Y235863D01*
X403140Y237637D01*
Y246706D01*
X386410D01*
X386140Y246706D01*
X385140D01*
X384870Y246706D01*
X376071D01*
X361532Y261245D01*
Y269786D01*
X356890D01*
Y272068D01*
X357859D01*
Y272710D01*
X360588D01*
X365055Y268243D01*
X364745Y265892D01*
X365106Y263151D01*
X366164Y260597D01*
X367847Y258403D01*
X370041Y256720D01*
X372595Y255662D01*
X375336Y255301D01*
X378077Y255662D01*
X380631Y256720D01*
X382825Y258403D01*
X384508Y260597D01*
X385566Y263151D01*
X385927Y265892D01*
X385566Y268633D01*
X384508Y271187D01*
X382825Y273381D01*
X380631Y275064D01*
X378077Y276122D01*
X375336Y276483D01*
X372985Y276173D01*
X366876Y282283D01*
X365056Y283498D01*
X362910Y283925D01*
X357859D01*
Y284568D01*
X345614D01*
Y310424D01*
X356185Y320994D01*
X357358Y320508D01*
D02*
G37*
G36*
X591905Y343031D02*
X601521Y333415D01*
X601211Y331064D01*
X601572Y328323D01*
X602630Y325769D01*
X604313Y323575D01*
X606507Y321892D01*
X608704Y320982D01*
X609179Y319661D01*
X607837Y318318D01*
X606621Y316499D01*
X606251Y314640D01*
X604313Y313153D01*
X602630Y310959D01*
X601572Y308405D01*
X601211Y305664D01*
X601572Y302923D01*
X602630Y300369D01*
X604313Y298175D01*
X606507Y296492D01*
X609061Y295434D01*
X611802Y295073D01*
X614543Y295434D01*
X617097Y296492D01*
X619291Y298175D01*
X620974Y300369D01*
X622032Y302923D01*
X622393Y305664D01*
X622333Y306114D01*
X623260Y306982D01*
X623332Y306968D01*
Y313182D01*
X624332D01*
Y314182D01*
X630546D01*
X630257Y315636D01*
X628867Y317717D01*
X626786Y319107D01*
X626189Y319226D01*
X625821Y320441D01*
X628566Y323187D01*
X629782Y325006D01*
X630209Y327152D01*
Y328514D01*
X636362Y334667D01*
X638260D01*
Y325006D01*
X638687Y322860D01*
X639903Y321041D01*
X640668Y320275D01*
Y310108D01*
X631254D01*
X630386Y311378D01*
X630546Y312182D01*
X625332D01*
Y306968D01*
X626275Y307155D01*
X627546Y306353D01*
Y303938D01*
X614153Y290545D01*
X611802Y290855D01*
X609061Y290494D01*
X606507Y289436D01*
X604313Y287753D01*
X602630Y285559D01*
X601572Y283005D01*
X601211Y280264D01*
X601521Y277913D01*
X586127Y262519D01*
X584911Y260700D01*
X584484Y258554D01*
Y239250D01*
X583592D01*
Y224250D01*
X584824D01*
X584911Y223814D01*
X586127Y221995D01*
X589175Y218947D01*
X590994Y217731D01*
X593140Y217304D01*
X601340D01*
X602396Y216787D01*
Y200787D01*
X604288D01*
Y185873D01*
X604194Y185796D01*
X587747D01*
X587681Y185840D01*
X585340Y186306D01*
X572340D01*
X569999Y185840D01*
X569939Y185800D01*
X559352Y196386D01*
X557864Y197381D01*
X556108Y197730D01*
X554032D01*
X553647Y199000D01*
X554819Y199783D01*
X556209Y201864D01*
X556498Y203318D01*
X544070D01*
X544359Y201864D01*
X545749Y199783D01*
X546921Y199000D01*
X546536Y197730D01*
X522163D01*
X514222Y205671D01*
X514799Y206891D01*
X516906Y207310D01*
X518987Y208700D01*
X520377Y210781D01*
X520666Y212235D01*
X514452D01*
Y213235D01*
X513452D01*
Y219449D01*
X511998Y219160D01*
X509917Y217770D01*
X508527Y215689D01*
X508108Y213581D01*
X506888Y213005D01*
X504618Y215275D01*
Y238248D01*
X517761D01*
X528008Y228001D01*
Y218932D01*
X544738D01*
X545008Y218932D01*
X546008D01*
X546278Y218932D01*
X554645D01*
X560646Y212932D01*
X560708Y212462D01*
X561388Y210820D01*
X562470Y209410D01*
X563880Y208328D01*
X565522Y207648D01*
X567284Y207416D01*
X569046Y207648D01*
X570688Y208328D01*
X572098Y209410D01*
X573180Y210820D01*
X573860Y212462D01*
X574092Y214224D01*
X573860Y215986D01*
X573180Y217628D01*
X572098Y219038D01*
X570688Y220120D01*
X569046Y220800D01*
X568577Y220862D01*
X563008Y226431D01*
Y235932D01*
X546278D01*
X546008Y235932D01*
X545008D01*
X544738Y235932D01*
X535939D01*
X521313Y250557D01*
X520536Y251077D01*
Y255748D01*
X515894D01*
Y257411D01*
X516504D01*
Y258053D01*
X524450D01*
X525309Y257126D01*
X525011Y254864D01*
X525372Y252123D01*
X526430Y249569D01*
X528113Y247375D01*
X530307Y245692D01*
X532861Y244634D01*
X535602Y244273D01*
X538343Y244634D01*
X540897Y245692D01*
X543091Y247375D01*
X544774Y249569D01*
X545832Y252123D01*
X546193Y254864D01*
X545832Y257605D01*
X544774Y260159D01*
X543091Y262353D01*
X540897Y264036D01*
X538343Y265094D01*
X535602Y265455D01*
X533251Y265145D01*
X530033Y268363D01*
X528214Y269579D01*
X526068Y270006D01*
X513758D01*
X513282Y269911D01*
X504618D01*
Y287139D01*
X507215Y289736D01*
X508479Y289611D01*
X509223Y288497D01*
X511304Y287107D01*
X512758Y286818D01*
Y293032D01*
X514758D01*
Y286818D01*
X516212Y287107D01*
X518293Y288497D01*
X519336Y288600D01*
X525321Y282615D01*
X525011Y280264D01*
X525372Y277523D01*
X526430Y274969D01*
X528113Y272775D01*
X530307Y271092D01*
X532861Y270034D01*
X535602Y269673D01*
X538343Y270034D01*
X540897Y271092D01*
X543091Y272775D01*
X544774Y274969D01*
X545832Y277523D01*
X546193Y280264D01*
X545832Y283005D01*
X544774Y285559D01*
X543091Y287753D01*
X540897Y289436D01*
X538343Y290494D01*
X535602Y290855D01*
X533251Y290545D01*
X528284Y295513D01*
X528380Y296537D01*
X529543Y297078D01*
X530307Y296492D01*
X532861Y295434D01*
X535602Y295073D01*
X537953Y295383D01*
X569484Y263851D01*
Y239250D01*
X568592D01*
Y224250D01*
X581592D01*
Y239250D01*
X580700D01*
Y266174D01*
X580273Y268320D01*
X579057Y270139D01*
X545883Y303313D01*
X546193Y305664D01*
X545832Y308405D01*
X544774Y310959D01*
X544074Y311871D01*
X544636Y313010D01*
X558952D01*
X561098Y313437D01*
X562917Y314653D01*
X588775Y340511D01*
X589991Y342330D01*
X590187Y343316D01*
X591535Y343584D01*
X591905Y343031D01*
D02*
G37*
G36*
X197738Y325597D02*
X197592Y324866D01*
Y310439D01*
X196472Y309840D01*
X195812Y310281D01*
X194358Y310570D01*
Y304356D01*
Y298142D01*
X195812Y298431D01*
X197893Y299821D01*
X198018Y300008D01*
X199472Y299899D01*
X205429Y293943D01*
X205119Y291592D01*
X205480Y288851D01*
X206538Y286297D01*
X208221Y284103D01*
X210415Y282420D01*
X212969Y281362D01*
X215710Y281001D01*
X218451Y281362D01*
X221005Y282420D01*
X223199Y284103D01*
X224882Y286297D01*
X225940Y288851D01*
X226301Y291592D01*
X225940Y294333D01*
X224882Y296887D01*
X223199Y299081D01*
X221005Y300764D01*
X218451Y301822D01*
X215710Y302183D01*
X213359Y301873D01*
X208808Y306425D01*
Y307618D01*
X209947Y308179D01*
X210415Y307820D01*
X212969Y306762D01*
X215710Y306401D01*
X218061Y306711D01*
X244766Y280005D01*
Y251086D01*
X243874D01*
Y239841D01*
X242604Y239162D01*
X242354Y239329D01*
Y247514D01*
X225354D01*
Y247514D01*
X224354D01*
Y247514D01*
X215285D01*
X200659Y262139D01*
X199480Y262927D01*
Y266924D01*
X194838D01*
Y268714D01*
X195776D01*
Y270118D01*
X203853D01*
X205429Y268543D01*
X205119Y266192D01*
X205480Y263451D01*
X206538Y260897D01*
X208221Y258703D01*
X210415Y257020D01*
X212969Y255962D01*
X215710Y255601D01*
X218451Y255962D01*
X221005Y257020D01*
X223199Y258703D01*
X224882Y260897D01*
X225940Y263451D01*
X226301Y266192D01*
X225940Y268933D01*
X224882Y271487D01*
X223199Y273681D01*
X221005Y275364D01*
X218451Y276422D01*
X215710Y276783D01*
X213359Y276473D01*
X210141Y279691D01*
X208322Y280907D01*
X206176Y281334D01*
X193358D01*
X192756Y281214D01*
X183562D01*
Y313218D01*
X196567Y326223D01*
X197738Y325597D01*
D02*
G37*
G36*
X737870Y323951D02*
X742703Y319117D01*
X754703D01*
X759206Y314615D01*
Y275336D01*
X744982D01*
Y306578D01*
X742703Y308857D01*
Y312159D01*
X736600Y318262D01*
X725932D01*
X725170Y319024D01*
Y334772D01*
X737870D01*
Y323951D01*
D02*
G37*
G36*
X685800Y319786D02*
X670560Y302514D01*
X670560Y267716D01*
X657234Y267716D01*
X656336Y268614D01*
X656336Y295126D01*
X657415Y295847D01*
X658525Y297507D01*
X658914Y299466D01*
X658525Y301425D01*
X657415Y303085D01*
X655755Y304195D01*
X654699Y304405D01*
X651256Y307848D01*
Y319786D01*
X665988Y319786D01*
X669798Y323596D01*
Y334772D01*
X685800D01*
Y319786D01*
D02*
G37*
G36*
X786892Y267970D02*
X779780Y260858D01*
X765318D01*
Y265348D01*
X766374Y266053D01*
X766904Y265834D01*
X768606Y265610D01*
X770606D01*
X772308Y265834D01*
X773894Y266491D01*
X775256Y267536D01*
X776301Y268898D01*
X776958Y270484D01*
X777182Y272186D01*
X776958Y273888D01*
X776301Y275474D01*
X775256Y276836D01*
X773894Y277881D01*
X772308Y278538D01*
X770606Y278762D01*
X768606D01*
X766904Y278538D01*
X766374Y278319D01*
X765318Y279024D01*
Y297958D01*
X769112Y301752D01*
X786892Y301752D01*
Y267970D01*
D02*
G37*
G36*
X308281Y298329D02*
X308492Y297579D01*
Y296579D01*
X308492D01*
X308492Y296309D01*
Y279579D01*
X317561D01*
X321544Y275596D01*
Y264206D01*
X309254D01*
Y261314D01*
X302902D01*
X302428Y261219D01*
X301622Y262201D01*
X302140Y263451D01*
X302501Y266192D01*
X302140Y268933D01*
X301082Y271487D01*
X300045Y272839D01*
X300572Y274238D01*
X301377Y274398D01*
X303044Y275512D01*
X304158Y277180D01*
X304350Y278146D01*
X299410D01*
Y280146D01*
X304350D01*
X304158Y281112D01*
X303044Y282780D01*
X301377Y283894D01*
X300700Y284028D01*
X300253Y285217D01*
X301082Y286297D01*
X302140Y288851D01*
X302501Y291592D01*
X302191Y293943D01*
X306995Y298746D01*
X308281Y298329D01*
D02*
G37*
G36*
X144408Y298701D02*
Y297087D01*
X144408D01*
Y296087D01*
X144408D01*
Y279087D01*
X153308D01*
X158476Y273919D01*
Y260832D01*
X145404D01*
Y257940D01*
X142602D01*
X140456Y257513D01*
X138637Y256297D01*
X132364Y250024D01*
X126294D01*
Y250024D01*
X125672D01*
X124402Y250924D01*
Y255029D01*
X125339Y255895D01*
X127572Y255601D01*
X130313Y255962D01*
X132867Y257020D01*
X135061Y258703D01*
X136744Y260897D01*
X137802Y263451D01*
X138163Y266192D01*
X137802Y268933D01*
X136744Y271487D01*
X135961Y272507D01*
X136441Y273969D01*
X137746Y274840D01*
X138860Y276507D01*
X139052Y277474D01*
X134112D01*
Y279474D01*
X139052D01*
X138860Y280441D01*
X137746Y282108D01*
X136079Y283222D01*
X135931Y283251D01*
X135471Y284637D01*
X136744Y286297D01*
X137802Y288851D01*
X138163Y291592D01*
X137853Y293943D01*
X143138Y299227D01*
X144408Y298701D01*
D02*
G37*
G36*
X32438Y320258D02*
Y310618D01*
X31393Y309953D01*
X31168Y309974D01*
X29766Y310252D01*
Y304038D01*
Y297824D01*
X31220Y298113D01*
X33301Y299503D01*
X34052Y300627D01*
X35687Y300788D01*
X41435Y295040D01*
X41142Y294333D01*
X40781Y291592D01*
X41142Y288851D01*
X42200Y286297D01*
X43883Y284103D01*
X46077Y282420D01*
X48631Y281362D01*
X51372Y281001D01*
X54113Y281362D01*
X56667Y282420D01*
X58861Y284103D01*
X60544Y286297D01*
X61602Y288851D01*
X61963Y291592D01*
X61602Y294333D01*
X60544Y296887D01*
X58861Y299081D01*
X56667Y300764D01*
X54113Y301822D01*
X51372Y302183D01*
X48631Y301822D01*
X47924Y301529D01*
X41614Y307838D01*
Y310374D01*
X42884Y310805D01*
X43883Y309503D01*
X46077Y307820D01*
X48631Y306762D01*
X51372Y306401D01*
X53723Y306711D01*
X85000Y275433D01*
Y250278D01*
X84108D01*
Y238936D01*
X82935Y238450D01*
X79167Y242217D01*
X78778Y242477D01*
Y246752D01*
X61778D01*
Y246752D01*
X60778D01*
Y246752D01*
X51709D01*
X36829Y261631D01*
X35010Y262847D01*
X34374Y262973D01*
Y270626D01*
X39007D01*
X41091Y268543D01*
X40781Y266192D01*
X41142Y263451D01*
X42200Y260897D01*
X43883Y258703D01*
X46077Y257020D01*
X48631Y255962D01*
X51372Y255601D01*
X54113Y255962D01*
X56667Y257020D01*
X58861Y258703D01*
X60544Y260897D01*
X61602Y263451D01*
X61963Y266192D01*
X61602Y268933D01*
X60544Y271487D01*
X58861Y273681D01*
X56667Y275364D01*
X54113Y276422D01*
X51372Y276783D01*
X49021Y276473D01*
X45295Y280199D01*
X43476Y281415D01*
X41330Y281842D01*
X28766D01*
X28164Y281722D01*
X17898D01*
Y307377D01*
X31265Y320744D01*
X32438Y320258D01*
D02*
G37*
G36*
X468771Y298837D02*
X469020Y298442D01*
Y297442D01*
X469020D01*
X469020Y297172D01*
Y280442D01*
X471016D01*
Y272068D01*
X471443Y269922D01*
X472659Y268103D01*
X476216Y264545D01*
X475730Y263372D01*
X467496D01*
Y260480D01*
X465948D01*
X463802Y260053D01*
X461983Y258837D01*
X453170Y250024D01*
X447100D01*
Y250024D01*
X446478D01*
X445708Y250570D01*
X445611Y252036D01*
X449185Y255611D01*
X451536Y255301D01*
X454277Y255662D01*
X456831Y256720D01*
X459025Y258403D01*
X460708Y260597D01*
X461766Y263151D01*
X462127Y265892D01*
X461766Y268633D01*
X460708Y271187D01*
X459784Y272391D01*
X460231Y273580D01*
X460969Y273727D01*
X462636Y274840D01*
X463750Y276507D01*
X463942Y277474D01*
X459002D01*
Y279474D01*
X463942D01*
X463750Y280441D01*
X462636Y282108D01*
X460969Y283222D01*
X460284Y283358D01*
X459757Y284757D01*
X460708Y285997D01*
X461766Y288551D01*
X462127Y291292D01*
X461817Y293643D01*
X467257Y299083D01*
X468771Y298837D01*
D02*
G37*
G36*
X627546Y286418D02*
Y275108D01*
X630438D01*
Y259762D01*
X630865Y257617D01*
X632080Y255797D01*
X635166Y252712D01*
X634680Y251538D01*
X627668D01*
Y249471D01*
X626358Y249211D01*
X624539Y247995D01*
X615771Y239228D01*
X609702D01*
Y239228D01*
X609080D01*
X607810Y240128D01*
Y242941D01*
X609451Y244583D01*
X611802Y244273D01*
X614543Y244634D01*
X617097Y245692D01*
X619291Y247375D01*
X620974Y249569D01*
X622032Y252123D01*
X622393Y254864D01*
X622032Y257605D01*
X620974Y260159D01*
X620115Y261279D01*
X620641Y262679D01*
X620710Y262692D01*
X622378Y263806D01*
X623492Y265473D01*
X623684Y266440D01*
X618744D01*
Y268440D01*
X623684D01*
X623492Y269406D01*
X622378Y271073D01*
X620710Y272187D01*
X620476Y272234D01*
X619949Y273634D01*
X620974Y274969D01*
X622032Y277523D01*
X622393Y280264D01*
X622083Y282615D01*
X626372Y286904D01*
X627546Y286418D01*
D02*
G37*
G36*
X741546Y302387D02*
Y302213D01*
X741546Y302213D01*
Y269300D01*
X745453Y265393D01*
X759206D01*
Y243381D01*
X744525D01*
X739748Y248158D01*
X729735Y248158D01*
D01*
X718432D01*
Y260223D01*
X729434Y272111D01*
Y290245D01*
X718432Y302133D01*
Y314198D01*
X729735D01*
X741546Y302387D01*
D02*
G37*
G36*
X478774Y213496D02*
X479278Y213596D01*
X480548Y212588D01*
Y182626D01*
X480975Y180480D01*
X482191Y178661D01*
X482544Y178308D01*
X481918Y177137D01*
X481822Y177156D01*
Y170942D01*
X480822D01*
Y169942D01*
X474608D01*
X474897Y168488D01*
X476287Y166407D01*
X478368Y165017D01*
X478417Y165007D01*
X478915Y163613D01*
X478492Y163088D01*
X451903D01*
X433017Y181973D01*
X431198Y183189D01*
X429052Y183616D01*
X427594D01*
X427097Y184886D01*
X427329Y185100D01*
X432339D01*
X443397Y174043D01*
X445216Y172827D01*
X447362Y172400D01*
X455605D01*
X455671Y172356D01*
X458012Y171891D01*
X471012D01*
X473353Y172356D01*
X473515Y172465D01*
X474297Y171942D01*
X479822D01*
Y177156D01*
X478368Y176867D01*
X478058Y176660D01*
X477002Y177365D01*
X477130Y178008D01*
X476664Y180349D01*
X475338Y182334D01*
X473353Y183660D01*
X473098Y183711D01*
Y185005D01*
X473353Y185056D01*
X475338Y186382D01*
X476664Y188367D01*
X477130Y190708D01*
X476664Y193049D01*
X475338Y195034D01*
X473353Y196360D01*
X471012Y196826D01*
X458012D01*
X457577Y196739D01*
X456144Y198173D01*
Y211156D01*
X458036D01*
Y213548D01*
X460578D01*
X460954Y213260D01*
X462596Y212580D01*
X464358Y212348D01*
X466120Y212580D01*
X467762Y213260D01*
X469172Y214342D01*
X470254Y215752D01*
X470709Y216850D01*
X470820Y216889D01*
X472098Y216884D01*
X473239Y215175D01*
X475320Y213785D01*
X476774Y213496D01*
Y219710D01*
X478774D01*
Y213496D01*
D02*
G37*
G36*
X316242D02*
X317696Y213785D01*
X319777Y215175D01*
X320274Y215920D01*
X321544Y215534D01*
Y203724D01*
X321971Y201578D01*
X323187Y199759D01*
X323576Y199369D01*
Y180689D01*
X322306Y179647D01*
X322056Y179696D01*
Y173482D01*
X320056D01*
Y179696D01*
X319321Y179550D01*
X317871Y180330D01*
X317656Y181411D01*
X316330Y183396D01*
X314345Y184722D01*
X314090Y184773D01*
Y186067D01*
X314345Y186118D01*
X316330Y187444D01*
X317656Y189429D01*
X318122Y191770D01*
X317656Y194111D01*
X316330Y196096D01*
X314345Y197422D01*
X312004Y197887D01*
X299004D01*
X297512Y197591D01*
X295612Y199491D01*
Y211710D01*
X297504D01*
Y214102D01*
X299750D01*
X300126Y213814D01*
X301768Y213134D01*
X303530Y212902D01*
X305292Y213134D01*
X306934Y213814D01*
X308344Y214896D01*
X308890Y215608D01*
X310444Y215570D01*
X310707Y215175D01*
X312788Y213785D01*
X314242Y213496D01*
Y219710D01*
X316242D01*
Y213496D01*
D02*
G37*
G36*
X640314Y214396D02*
X639044Y213433D01*
X638048Y213564D01*
X636286Y213332D01*
X634644Y212652D01*
X633234Y211570D01*
X632152Y210160D01*
X631472Y208518D01*
X631240Y206756D01*
X631472Y204994D01*
X632152Y203352D01*
X633234Y201942D01*
X634644Y200860D01*
X636286Y200180D01*
X638048Y199948D01*
X639044Y200079D01*
X640314Y199116D01*
Y193769D01*
X640520Y192736D01*
X639912Y192615D01*
X637831Y191225D01*
X636441Y189144D01*
X635953Y186690D01*
X636019Y186357D01*
X634963Y185651D01*
X634681Y185840D01*
X632340Y186306D01*
X619340D01*
X617262Y185892D01*
X615504Y187651D01*
Y200787D01*
X617396D01*
Y203214D01*
X619365Y203606D01*
X621184Y204822D01*
X625859Y209497D01*
X626449Y210379D01*
X626708Y210578D01*
X627790Y211988D01*
X628470Y213630D01*
X628702Y215392D01*
X628677Y215583D01*
X629514Y216538D01*
X640314D01*
Y214396D01*
D02*
G37*
G36*
X670508Y257810D02*
X670508Y255068D01*
X681990Y243586D01*
X708660Y243586D01*
X712724Y239522D01*
Y209296D01*
X665480D01*
X654304Y220472D01*
X654304Y257810D01*
X670508Y257810D01*
D02*
G37*
G36*
X734582Y378206D02*
X734582Y350534D01*
X721266Y337218D01*
X721266Y320540D01*
X689483Y288757D01*
X689483Y274955D01*
X704088Y260350D01*
X719074Y245364D01*
X734582D01*
X737630Y242316D01*
Y214390D01*
X731774Y208534D01*
X716788D01*
Y239776D01*
X708406Y248158D01*
X688087Y248158D01*
X688086Y248158D01*
X687317D01*
X675506Y259969D01*
Y302387D01*
X687317Y314198D01*
X687573D01*
X688086Y314705D01*
X688087Y338328D01*
X659892D01*
Y362331D01*
X687197D01*
X703326Y378460D01*
X734582Y378206D01*
D02*
G37*
G36*
X151876Y207908D02*
X153330Y208197D01*
X155411Y209587D01*
X156801Y211668D01*
X157206Y213705D01*
X158476Y213580D01*
Y179447D01*
X157206Y178768D01*
X155870Y179661D01*
X154416Y179950D01*
Y173736D01*
X152416D01*
Y179950D01*
X152222Y179912D01*
X151166Y180617D01*
X150900Y181953D01*
X149574Y183938D01*
X147589Y185264D01*
X147334Y185315D01*
Y186609D01*
X147589Y186660D01*
X149574Y187986D01*
X149637Y188081D01*
X149795Y188187D01*
X151011Y190006D01*
X151438Y192152D01*
X151011Y194298D01*
X150953Y194384D01*
X150900Y194653D01*
X149574Y196638D01*
X147589Y197964D01*
X145248Y198430D01*
X132248D01*
X131680Y198317D01*
X129560Y200437D01*
Y212808D01*
X134792D01*
Y213523D01*
X136062Y214070D01*
X137058Y213306D01*
X138700Y212626D01*
X140462Y212394D01*
X142224Y212626D01*
X143371Y213101D01*
X144775Y212555D01*
X144951Y211668D01*
X146341Y209587D01*
X148422Y208197D01*
X149876Y207908D01*
Y214122D01*
X151876D01*
Y207908D01*
D02*
G37*
G36*
X787400Y231140D02*
X787400Y201930D01*
X766318Y201930D01*
X766318Y217234D01*
X753174Y217234D01*
X746970Y211030D01*
X745797Y211516D01*
X745797Y225859D01*
X758952Y239014D01*
X779526D01*
X787400Y231140D01*
D02*
G37*
G36*
X792226Y164827D02*
X779780D01*
Y191026D01*
X792226D01*
Y164827D01*
D02*
G37*
G36*
X565818Y176944D02*
X567306Y175949D01*
X568129Y175785D01*
X569999Y174536D01*
X570254Y174485D01*
Y173191D01*
X569999Y173140D01*
X568014Y171814D01*
X566688Y169829D01*
X566222Y167488D01*
X566688Y165147D01*
X568014Y163162D01*
X569999Y161836D01*
X570254Y161786D01*
Y160491D01*
X569999Y160440D01*
X568014Y159114D01*
X566688Y157129D01*
X566222Y154788D01*
X566688Y152447D01*
X568014Y150462D01*
X569999Y149136D01*
X572340Y148671D01*
X582107D01*
X592422Y138356D01*
Y130786D01*
X607422D01*
Y144328D01*
X608595Y144814D01*
X610715Y142695D01*
X612534Y141479D01*
X614680Y141052D01*
X642944D01*
X643868Y140294D01*
Y128355D01*
X643200Y127484D01*
X642520Y125842D01*
X642288Y124080D01*
X642520Y122318D01*
X643200Y120676D01*
X643868Y119805D01*
Y92964D01*
X321006D01*
X320774Y94726D01*
X320094Y96368D01*
X319012Y97778D01*
X317602Y98860D01*
X315960Y99540D01*
X314198Y99772D01*
X312436Y99540D01*
X310794Y98860D01*
X309384Y97778D01*
X309118Y97432D01*
X307848D01*
X307582Y97778D01*
X306172Y98860D01*
X304530Y99540D01*
X302768Y99772D01*
X302228Y99701D01*
X301635Y100904D01*
X315419Y114688D01*
X320612D01*
X321291Y113418D01*
X320465Y112182D01*
X320176Y110728D01*
X332604D01*
X332315Y112182D01*
X331489Y113418D01*
X332168Y114688D01*
X340131D01*
X340562Y113418D01*
X340372Y113272D01*
X339290Y111862D01*
X338610Y110220D01*
X338378Y108458D01*
X338610Y106696D01*
X339290Y105054D01*
X340372Y103644D01*
X341782Y102562D01*
X343424Y101882D01*
X345186Y101650D01*
X346948Y101882D01*
X348590Y102562D01*
X350000Y103644D01*
X351082Y105054D01*
X351762Y106696D01*
X351994Y108458D01*
X351762Y110220D01*
X351082Y111862D01*
X350000Y113272D01*
X349810Y113418D01*
X350241Y114688D01*
X356144D01*
X357258Y113418D01*
X357174Y112776D01*
X357406Y111014D01*
X358086Y109372D01*
X359168Y107962D01*
X359394Y107788D01*
Y104394D01*
X359743Y102638D01*
X360738Y101150D01*
X361500Y100388D01*
X362988Y99393D01*
X364744Y99044D01*
X426510D01*
X428266Y99393D01*
X429754Y100388D01*
X434820Y105453D01*
X435102Y105416D01*
X436864Y105648D01*
X438506Y106328D01*
X439916Y107410D01*
X440998Y108820D01*
X441678Y110462D01*
X441910Y112224D01*
X441678Y113986D01*
X440998Y115628D01*
X439916Y117038D01*
X438506Y118120D01*
X436864Y118800D01*
X435102Y119032D01*
X433340Y118800D01*
X431698Y118120D01*
X430288Y117038D01*
X429206Y115628D01*
X428526Y113986D01*
X428294Y112224D01*
X428331Y111941D01*
X424610Y108220D01*
X370430D01*
X370264Y108556D01*
X369927Y109490D01*
X370558Y111014D01*
X370790Y112776D01*
X370751Y113071D01*
X371589Y114026D01*
X386580D01*
X388726Y114453D01*
X390545Y115669D01*
X403924Y129047D01*
X405130Y128458D01*
X405555Y126324D01*
X406945Y124243D01*
X409026Y122853D01*
X410480Y122564D01*
Y128778D01*
X411480D01*
Y129778D01*
X417765D01*
X418514Y130690D01*
X492939D01*
X493745Y129708D01*
X493658Y129270D01*
X506086D01*
X505999Y129708D01*
X506805Y130690D01*
X510001D01*
Y112396D01*
X531495D01*
Y130690D01*
X538957D01*
Y121413D01*
X559294D01*
X560407Y120143D01*
X560374Y119888D01*
X560606Y118126D01*
X561286Y116484D01*
X562368Y115074D01*
X563778Y113992D01*
X565420Y113312D01*
X567182Y113080D01*
X568944Y113312D01*
X570586Y113992D01*
X571996Y115074D01*
X573078Y116484D01*
X573758Y118126D01*
X573990Y119888D01*
X573758Y121650D01*
X573078Y123292D01*
X571996Y124702D01*
X570586Y125784D01*
X568944Y126464D01*
X567182Y126696D01*
X565420Y126464D01*
X563778Y125784D01*
X562368Y124702D01*
X561721Y123859D01*
X560451Y124290D01*
Y136169D01*
X561030Y136361D01*
X561721Y136381D01*
X562996Y134472D01*
X565077Y133082D01*
X566531Y132792D01*
Y139007D01*
Y145221D01*
X565077Y144932D01*
X562996Y143541D01*
X561721Y141633D01*
X561030Y141652D01*
X560451Y141844D01*
Y147479D01*
X538957D01*
Y141906D01*
X531495D01*
Y156496D01*
X517887D01*
X511038Y163345D01*
X511564Y164615D01*
X529172D01*
Y183548D01*
X530442Y183653D01*
X535872Y178223D01*
Y164615D01*
X554572D01*
Y186109D01*
X540964D01*
X539692Y187381D01*
X540178Y188554D01*
X554207D01*
X565818Y176944D01*
D02*
G37*
G36*
X296663Y173418D02*
X299004Y172952D01*
X312004D01*
X314345Y173418D01*
X314872Y172327D01*
X315131Y171028D01*
X316521Y168947D01*
X318602Y167557D01*
X319635Y167351D01*
X320004Y166136D01*
X317971Y164104D01*
X305133D01*
X304359Y164258D01*
X298129D01*
X297355Y164104D01*
X293661D01*
X285411Y172353D01*
X285850Y173174D01*
X286098Y173462D01*
X296597D01*
X296663Y173418D01*
D02*
G37*
G36*
X120437Y175487D02*
X122256Y174271D01*
X124402Y173844D01*
X130490D01*
X132248Y173494D01*
X145248D01*
X146913Y173826D01*
X147003Y173736D01*
X147491Y171282D01*
X148881Y169201D01*
X150962Y167811D01*
X151988Y167607D01*
X152357Y166391D01*
X148927Y162962D01*
X128427D01*
X107971Y183417D01*
X106152Y184633D01*
X104006Y185060D01*
X101753D01*
X101545Y185274D01*
X102084Y186544D01*
X109379D01*
X120437Y175487D01*
D02*
G37*
G36*
X614748Y162307D02*
X616894Y161880D01*
X616933D01*
X616999Y161836D01*
X619340Y161371D01*
X632340D01*
X633479Y161597D01*
X634559Y160517D01*
X634531Y160376D01*
X635019Y157922D01*
X636409Y155841D01*
X638490Y154451D01*
X639845Y154181D01*
X640408Y152800D01*
X640018Y152268D01*
X617003D01*
X616812Y152459D01*
Y155622D01*
X616385Y157768D01*
X615169Y159587D01*
X612424Y162333D01*
X613233Y163319D01*
X614748Y162307D01*
D02*
G37*
G36*
X25258Y195271D02*
Y175435D01*
X43958D01*
Y192770D01*
X46932D01*
X50658Y189043D01*
Y175435D01*
X69358D01*
Y196929D01*
X55750D01*
X54764Y197915D01*
X55250Y199088D01*
X72547D01*
X79163Y192473D01*
X79131Y192312D01*
X79596Y189971D01*
X80922Y187986D01*
X82907Y186660D01*
X83162Y186609D01*
Y185315D01*
X82907Y185264D01*
X80922Y183938D01*
X79596Y181953D01*
X79131Y179612D01*
X79596Y177271D01*
X80922Y175286D01*
X82907Y173960D01*
X83162Y173909D01*
Y172615D01*
X82907Y172564D01*
X80922Y171238D01*
X79596Y169253D01*
X79131Y166912D01*
X79596Y164571D01*
X80922Y162586D01*
X82907Y161260D01*
X85248Y160795D01*
X89935D01*
X96004Y154725D01*
Y142876D01*
X97508D01*
X97633Y141606D01*
X97368Y141553D01*
X95287Y140163D01*
X93897Y138082D01*
X93608Y136628D01*
X106036D01*
X105747Y138082D01*
X104357Y140163D01*
X102276Y141553D01*
X102010Y141606D01*
X102136Y142876D01*
X111004D01*
Y145268D01*
X113060D01*
X113436Y144980D01*
X115078Y144300D01*
X116840Y144068D01*
X118602Y144300D01*
X120244Y144980D01*
X121654Y146062D01*
X122736Y147472D01*
X123416Y149114D01*
X123648Y150876D01*
X123635Y150978D01*
X124780Y152010D01*
X126104Y151746D01*
X151250D01*
X153396Y152173D01*
X155215Y153389D01*
X168049Y166223D01*
X169265Y168042D01*
X169692Y170188D01*
Y190714D01*
X170865Y191200D01*
X180685Y181380D01*
X180424Y180165D01*
X180247Y180023D01*
X178207Y178660D01*
X176816Y176579D01*
X176527Y175125D01*
X182741D01*
Y174125D01*
X183741D01*
Y167911D01*
X185196Y168200D01*
X187276Y169590D01*
X188639Y171630D01*
X188782Y171807D01*
X189997Y172069D01*
X194485Y167580D01*
Y153436D01*
X165080D01*
X162934Y153009D01*
X161115Y151793D01*
X144746Y135424D01*
X144276Y135362D01*
X142634Y134682D01*
X141224Y133600D01*
X140142Y132190D01*
X139462Y130548D01*
X139377Y129903D01*
X137974Y128973D01*
X136802Y129206D01*
X112135D01*
X109989Y128779D01*
X108170Y127563D01*
X106809Y127998D01*
X106414Y128512D01*
X105004Y129594D01*
X104631Y129749D01*
X104385Y130954D01*
X104432Y131206D01*
X105747Y133174D01*
X106036Y134628D01*
X93608D01*
X93897Y133174D01*
X95287Y131093D01*
X96771Y130102D01*
X96900Y128600D01*
X96786Y128512D01*
X95704Y127102D01*
X95024Y125460D01*
X94792Y123698D01*
X94897Y122895D01*
X94060Y121940D01*
X89191D01*
X71771Y139360D01*
Y158575D01*
X50277D01*
Y132509D01*
X62761D01*
X82903Y112367D01*
X84722Y111151D01*
X86868Y110724D01*
X97711D01*
X98485Y110570D01*
X104715D01*
X106861Y110997D01*
X108680Y112213D01*
X114458Y117990D01*
X134480D01*
X137268Y115202D01*
X137330Y114732D01*
X138010Y113090D01*
X139092Y111680D01*
X140502Y110598D01*
X142144Y109918D01*
X143906Y109686D01*
X145668Y109918D01*
X147310Y110598D01*
X148721Y111680D01*
X149802Y113090D01*
X150483Y114732D01*
X150715Y116494D01*
X150483Y118256D01*
X149802Y119898D01*
X148774Y121238D01*
X148727Y121343D01*
X148990Y122702D01*
X149443Y122890D01*
X150852Y123972D01*
X151934Y125382D01*
X152615Y127024D01*
X152676Y127493D01*
X167403Y142220D01*
X194485D01*
Y131006D01*
X193215Y130327D01*
X192356Y130901D01*
X190902Y131190D01*
Y124976D01*
X189902D01*
Y123976D01*
X183688D01*
X183977Y122522D01*
X185367Y120441D01*
X186379Y119765D01*
Y118495D01*
X185367Y117819D01*
X183977Y115738D01*
X183688Y114284D01*
X196117D01*
X195827Y115738D01*
X194437Y117819D01*
X193425Y118495D01*
Y119765D01*
X194437Y120441D01*
X195827Y122522D01*
X196315Y124976D01*
X196974Y125778D01*
X215979D01*
Y142220D01*
X223441D01*
Y134795D01*
X244935D01*
Y151224D01*
X246205Y151609D01*
X247179Y150151D01*
X249260Y148761D01*
X250714Y148472D01*
Y154686D01*
X251714D01*
Y155686D01*
X257928D01*
X257639Y157140D01*
X256408Y158982D01*
X256817Y160252D01*
X262219D01*
X272280Y150191D01*
Y142622D01*
X287280D01*
Y145522D01*
X297464D01*
X297840Y145234D01*
X299482Y144554D01*
X301244Y144322D01*
X303006Y144554D01*
X304648Y145234D01*
X306058Y146316D01*
X307140Y147726D01*
X307820Y149368D01*
X308052Y151130D01*
X307946Y151933D01*
X308784Y152888D01*
X320294D01*
X322440Y153315D01*
X324259Y154531D01*
X333149Y163421D01*
X334365Y165240D01*
X334792Y167386D01*
Y196556D01*
X335965Y197042D01*
X338058Y194949D01*
Y173758D01*
X338407Y172002D01*
X339402Y170514D01*
X346699Y163216D01*
Y151866D01*
X340789D01*
X338643Y151439D01*
X336824Y150223D01*
X334808Y148208D01*
X333122Y148318D01*
X332728Y148832D01*
X331318Y149914D01*
X329676Y150594D01*
X327914Y150826D01*
X326152Y150594D01*
X324510Y149914D01*
X323100Y148832D01*
X322018Y147422D01*
X321338Y145780D01*
X321106Y144018D01*
X321190Y143376D01*
X320076Y142106D01*
X318042D01*
X315896Y141679D01*
X314077Y140463D01*
X293776Y120162D01*
X242818D01*
X242192Y121432D01*
X242878Y122326D01*
X243558Y123968D01*
X243790Y125730D01*
X243558Y127492D01*
X242878Y129134D01*
X241796Y130544D01*
X240386Y131626D01*
X238744Y132306D01*
X236982Y132538D01*
X235220Y132306D01*
X233578Y131626D01*
X232168Y130544D01*
X231086Y129134D01*
X230406Y127492D01*
X230174Y125730D01*
X230406Y123968D01*
X231086Y122326D01*
X231390Y121930D01*
X231061Y120703D01*
X230450Y120450D01*
X229040Y119368D01*
X227958Y117958D01*
X227278Y116316D01*
X227046Y114554D01*
X227278Y112792D01*
X227958Y111150D01*
X229040Y109740D01*
X229247Y109581D01*
X229262Y107969D01*
X228546Y107036D01*
X227866Y105394D01*
X227634Y103632D01*
X227866Y101870D01*
X228546Y100228D01*
X229628Y98818D01*
X231038Y97736D01*
X232680Y97056D01*
X234442Y96824D01*
X236204Y97056D01*
X237846Y97736D01*
X238222Y98024D01*
X251186D01*
X251593Y96754D01*
X250361Y94910D01*
X249974Y92964D01*
X153162D01*
Y5098D01*
X127254D01*
X126894Y5026D01*
X116600Y5476D01*
X106027Y6868D01*
X95615Y9176D01*
X85444Y12383D01*
X75592Y16464D01*
X66132Y21388D01*
X57138Y27118D01*
X48678Y33610D01*
X40815Y40815D01*
X33610Y48678D01*
X27118Y57138D01*
X21388Y66132D01*
X16464Y75592D01*
X12383Y85444D01*
X9176Y95615D01*
X6868Y106027D01*
X5476Y116600D01*
X5035Y126686D01*
X5098Y127000D01*
Y177064D01*
X6271Y177550D01*
X21321Y162500D01*
Y148892D01*
X42815D01*
Y167592D01*
X29207D01*
X9358Y187440D01*
Y209512D01*
X10532Y209998D01*
X25258Y195271D01*
D02*
G37*
G36*
X350382Y195833D02*
Y175389D01*
X369082D01*
Y194040D01*
X370740D01*
X375782Y188997D01*
Y175389D01*
X394482D01*
Y191544D01*
X395655Y192030D01*
X400222Y187464D01*
X401710Y186469D01*
X403466Y186120D01*
X407079D01*
X408671Y185056D01*
X408926Y185005D01*
Y183711D01*
X408671Y183660D01*
X406686Y182334D01*
X405360Y180349D01*
X404894Y178008D01*
X405360Y175667D01*
X406686Y173682D01*
X408671Y172356D01*
X408926Y172306D01*
Y171011D01*
X408671Y170960D01*
X406686Y169634D01*
X405360Y167649D01*
X404894Y165308D01*
X405360Y162967D01*
X406686Y160982D01*
X408671Y159656D01*
X411012Y159191D01*
X418281D01*
X429644Y147827D01*
Y141906D01*
X409056D01*
X408671Y143176D01*
X409489Y143723D01*
X410879Y145803D01*
X411169Y147258D01*
X398740D01*
X399029Y145803D01*
X400420Y143723D01*
X401670Y142887D01*
X401401Y141539D01*
X401098Y141479D01*
X399279Y140263D01*
X398322Y139307D01*
X397149Y139793D01*
Y159291D01*
X375655D01*
Y151866D01*
X368193D01*
Y168308D01*
X354585D01*
X347234Y175658D01*
Y196850D01*
X347151Y197268D01*
X348321Y197894D01*
X350382Y195833D01*
D02*
G37*
%LPC*%
G36*
X635086Y513198D02*
Y507984D01*
X640300D01*
X640011Y509438D01*
X638621Y511519D01*
X636540Y512909D01*
X635086Y513198D01*
D02*
G37*
G36*
X640300Y505984D02*
X635086D01*
Y500770D01*
X636540Y501059D01*
X638621Y502449D01*
X640011Y504530D01*
X640300Y505984D01*
D02*
G37*
G36*
X658638Y481194D02*
X657184Y480905D01*
X655103Y479515D01*
X653713Y477434D01*
X653424Y475980D01*
X658638D01*
Y481194D01*
D02*
G37*
G36*
X762880Y497602D02*
X757666D01*
Y492388D01*
X759120Y492677D01*
X761201Y494067D01*
X762591Y496148D01*
X762880Y497602D01*
D02*
G37*
G36*
X755666D02*
X750452D01*
X750741Y496148D01*
X752131Y494067D01*
X754212Y492677D01*
X755666Y492388D01*
Y497602D01*
D02*
G37*
G36*
X769634Y486389D02*
X767872Y486157D01*
X766230Y485476D01*
X764820Y484395D01*
X763738Y482985D01*
X763058Y481343D01*
X762826Y479580D01*
X763058Y477818D01*
X763738Y476176D01*
X764820Y474766D01*
X766230Y473684D01*
X767872Y473004D01*
X769634Y472772D01*
X771396Y473004D01*
X773038Y473684D01*
X774448Y474766D01*
X775530Y476176D01*
X776210Y477818D01*
X776442Y479580D01*
X776210Y481343D01*
X775530Y482985D01*
X774448Y484395D01*
X773038Y485476D01*
X771396Y486157D01*
X769634Y486389D01*
D02*
G37*
G36*
X757682Y470358D02*
X755920Y470126D01*
X754278Y469446D01*
X752868Y468364D01*
X751786Y466954D01*
X751106Y465312D01*
X750874Y463550D01*
X751106Y461788D01*
X751786Y460146D01*
X752868Y458736D01*
X754278Y457654D01*
X755920Y456974D01*
X757682Y456742D01*
X759444Y456974D01*
X761086Y457654D01*
X762496Y458736D01*
X763578Y460146D01*
X764258Y461788D01*
X764490Y463550D01*
X764258Y465312D01*
X763578Y466954D01*
X762496Y468364D01*
X761086Y469446D01*
X759444Y470126D01*
X757682Y470358D01*
D02*
G37*
G36*
X768380Y459633D02*
X766926Y459343D01*
X764845Y457953D01*
X763455Y455873D01*
X763166Y454418D01*
X768380D01*
Y459633D01*
D02*
G37*
G36*
X742696Y464516D02*
X740934Y464284D01*
X739292Y463604D01*
X737882Y462522D01*
X736800Y461112D01*
X736120Y459470D01*
X735888Y457708D01*
X736120Y455946D01*
X736800Y454304D01*
X737882Y452894D01*
X739292Y451812D01*
X740934Y451132D01*
X742696Y450900D01*
X744458Y451132D01*
X746100Y451812D01*
X747510Y452894D01*
X748592Y454304D01*
X749272Y455946D01*
X749504Y457708D01*
X749272Y459470D01*
X748592Y461112D01*
X747510Y462522D01*
X746100Y463604D01*
X744458Y464284D01*
X742696Y464516D01*
D02*
G37*
G36*
X768380Y452418D02*
X763166D01*
X763455Y450964D01*
X764845Y448884D01*
X766926Y447493D01*
X768380Y447204D01*
Y452418D01*
D02*
G37*
G36*
X750162Y413090D02*
X729162D01*
Y392090D01*
X750162D01*
Y413090D01*
D02*
G37*
G36*
X71104Y503800D02*
Y498586D01*
X76318D01*
X76029Y500040D01*
X74639Y502121D01*
X72558Y503511D01*
X71104Y503800D01*
D02*
G37*
G36*
X69104D02*
X67650Y503511D01*
X65569Y502121D01*
X64179Y500040D01*
X63890Y498586D01*
X69104D01*
Y503800D01*
D02*
G37*
G36*
X76318Y496586D02*
X71104D01*
Y491372D01*
X72558Y491661D01*
X74639Y493051D01*
X76029Y495132D01*
X76318Y496586D01*
D02*
G37*
G36*
X69104D02*
X63890D01*
X64179Y495132D01*
X65569Y493051D01*
X67650Y491661D01*
X69104Y491372D01*
Y496586D01*
D02*
G37*
G36*
X101416Y485158D02*
X100449Y484966D01*
X98782Y483852D01*
X98551Y483505D01*
X97281D01*
X97050Y483852D01*
X95382Y484966D01*
X94416Y485158D01*
Y480218D01*
X93416D01*
Y479218D01*
X88476D01*
X88668Y478251D01*
X89782Y476584D01*
X91449Y475470D01*
X92719Y475218D01*
X103113D01*
X104382Y475470D01*
X106050Y476584D01*
X107164Y478251D01*
X107356Y479218D01*
X102416D01*
Y480218D01*
X101416D01*
Y485158D01*
D02*
G37*
G36*
X103416D02*
Y481218D01*
X107356D01*
X107164Y482184D01*
X106050Y483852D01*
X104382Y484966D01*
X103416Y485158D01*
D02*
G37*
G36*
X92416D02*
X91449Y484966D01*
X89782Y483852D01*
X88668Y482184D01*
X88476Y481218D01*
X92416D01*
Y485158D01*
D02*
G37*
G36*
X107356Y467218D02*
X103416D01*
Y463278D01*
X104382Y463470D01*
X106050Y464584D01*
X107164Y466251D01*
X107356Y467218D01*
D02*
G37*
G36*
X103113Y473218D02*
X92719D01*
X91449Y472966D01*
X89782Y471852D01*
X88668Y470185D01*
X88476Y469218D01*
X93416D01*
Y468218D01*
X94416D01*
Y463278D01*
X95382Y463470D01*
X97050Y464584D01*
X97281Y464931D01*
X98551D01*
X98782Y464584D01*
X100449Y463470D01*
X101416Y463278D01*
Y468218D01*
X102416D01*
Y469218D01*
X107356D01*
X107164Y470185D01*
X106050Y471852D01*
X104382Y472966D01*
X103113Y473218D01*
D02*
G37*
G36*
X92416Y467218D02*
X88476D01*
X88668Y466251D01*
X89782Y464584D01*
X91449Y463470D01*
X92416Y463278D01*
Y467218D01*
D02*
G37*
G36*
X100348Y461924D02*
Y456710D01*
X105562D01*
X105273Y458164D01*
X103883Y460245D01*
X101802Y461635D01*
X100348Y461924D01*
D02*
G37*
G36*
X98348D02*
X96894Y461635D01*
X94813Y460245D01*
X93423Y458164D01*
X93134Y456710D01*
X98348D01*
Y461924D01*
D02*
G37*
G36*
X54086Y461382D02*
Y456168D01*
X59300D01*
X59011Y457622D01*
X57621Y459703D01*
X55540Y461093D01*
X54086Y461382D01*
D02*
G37*
G36*
X52086D02*
X50632Y461093D01*
X48551Y459703D01*
X47161Y457622D01*
X46872Y456168D01*
X52086D01*
Y461382D01*
D02*
G37*
G36*
X160290Y460956D02*
X158836Y460667D01*
X156755Y459277D01*
X155365Y457196D01*
X155076Y455742D01*
X160290D01*
Y460956D01*
D02*
G37*
G36*
X105562Y454710D02*
X100348D01*
Y449496D01*
X101802Y449785D01*
X103883Y451175D01*
X105273Y453256D01*
X105562Y454710D01*
D02*
G37*
G36*
X98348D02*
X93134D01*
X93423Y453256D01*
X94813Y451175D01*
X96894Y449785D01*
X98348Y449496D01*
Y454710D01*
D02*
G37*
G36*
X59300Y454168D02*
X54086D01*
Y448954D01*
X55540Y449243D01*
X57621Y450633D01*
X59011Y452714D01*
X59300Y454168D01*
D02*
G37*
G36*
X52086D02*
X46872D01*
X47161Y452714D01*
X48551Y450633D01*
X50632Y449243D01*
X52086Y448954D01*
Y454168D01*
D02*
G37*
G36*
X263890Y460620D02*
Y455406D01*
X269104D01*
X268815Y456860D01*
X267425Y458941D01*
X265344Y460331D01*
X263890Y460620D01*
D02*
G37*
G36*
X261890D02*
X260436Y460331D01*
X258355Y458941D01*
X256965Y456860D01*
X256676Y455406D01*
X261890D01*
Y460620D01*
D02*
G37*
G36*
X224371D02*
Y455406D01*
X229585D01*
X229296Y456860D01*
X227905Y458941D01*
X225825Y460331D01*
X224371Y460620D01*
D02*
G37*
G36*
X222371D02*
X220916Y460331D01*
X218836Y458941D01*
X217446Y456860D01*
X217156Y455406D01*
X222371D01*
Y460620D01*
D02*
G37*
G36*
X323866Y458842D02*
X322412Y458553D01*
X320331Y457163D01*
X318941Y455082D01*
X318652Y453628D01*
X323866D01*
Y458842D01*
D02*
G37*
G36*
X269104Y453406D02*
X263890D01*
Y448192D01*
X265344Y448481D01*
X267425Y449871D01*
X268815Y451952D01*
X269104Y453406D01*
D02*
G37*
G36*
X261890D02*
X256676D01*
X256965Y451952D01*
X258355Y449871D01*
X260436Y448481D01*
X261890Y448192D01*
Y453406D01*
D02*
G37*
G36*
X382180Y453868D02*
X376966D01*
Y448654D01*
X378420Y448943D01*
X380501Y450333D01*
X381891Y452414D01*
X382180Y453868D01*
D02*
G37*
G36*
X374966D02*
X369752D01*
X370041Y452414D01*
X371431Y450333D01*
X373512Y448943D01*
X374966Y448654D01*
Y453868D01*
D02*
G37*
G36*
X490512Y453740D02*
X485298D01*
Y448526D01*
X486752Y448815D01*
X488833Y450205D01*
X490223Y452286D01*
X490512Y453740D01*
D02*
G37*
G36*
X483298D02*
X478084D01*
X478373Y452286D01*
X479763Y450205D01*
X481844Y448815D01*
X483298Y448526D01*
Y453740D01*
D02*
G37*
G36*
X423622Y442032D02*
Y436818D01*
X428836D01*
X428547Y438272D01*
X427157Y440353D01*
X425076Y441743D01*
X423622Y442032D01*
D02*
G37*
G36*
X582816Y442818D02*
X577602D01*
X577891Y441364D01*
X579281Y439283D01*
X581362Y437893D01*
X582816Y437604D01*
Y442818D01*
D02*
G37*
G36*
X127942Y413630D02*
Y408416D01*
X133156D01*
X132867Y409870D01*
X131477Y411951D01*
X129396Y413341D01*
X127942Y413630D01*
D02*
G37*
G36*
X125942D02*
X124488Y413341D01*
X122407Y411951D01*
X121017Y409870D01*
X120728Y408416D01*
X125942D01*
Y413630D01*
D02*
G37*
G36*
X452122Y412378D02*
Y407164D01*
X457336D01*
X457047Y408618D01*
X455657Y410699D01*
X453576Y412089D01*
X452122Y412378D01*
D02*
G37*
G36*
X450122D02*
X448668Y412089D01*
X446587Y410699D01*
X445197Y408618D01*
X444908Y407164D01*
X450122D01*
Y412378D01*
D02*
G37*
G36*
X292280Y414196D02*
Y408982D01*
X297494D01*
X297205Y410436D01*
X295815Y412517D01*
X293734Y413907D01*
X292280Y414196D01*
D02*
G37*
G36*
X290280D02*
X288826Y413907D01*
X286745Y412517D01*
X285355Y410436D01*
X285066Y408982D01*
X290280D01*
Y414196D01*
D02*
G37*
G36*
X615020Y401794D02*
Y396580D01*
X620234D01*
X619945Y398034D01*
X618555Y400115D01*
X616474Y401505D01*
X615020Y401794D01*
D02*
G37*
G36*
X613020D02*
X611566Y401505D01*
X609485Y400115D01*
X608095Y398034D01*
X607806Y396580D01*
X613020D01*
Y401794D01*
D02*
G37*
G36*
X136128Y384064D02*
X130914D01*
Y378850D01*
X132368Y379139D01*
X134449Y380529D01*
X135839Y382610D01*
X136128Y384064D01*
D02*
G37*
G36*
X128914D02*
X123700D01*
X123989Y382610D01*
X125379Y380529D01*
X127460Y379139D01*
X128914Y378850D01*
Y384064D01*
D02*
G37*
G36*
X390228Y380632D02*
X388774Y380343D01*
X386693Y378953D01*
X385303Y376872D01*
X385014Y375418D01*
X390228D01*
Y380632D01*
D02*
G37*
G36*
Y373418D02*
X385014D01*
X385303Y371964D01*
X386693Y369883D01*
X388774Y368493D01*
X390228Y368204D01*
Y373418D01*
D02*
G37*
G36*
X621208Y372440D02*
X615994D01*
Y367226D01*
X617448Y367515D01*
X619529Y368905D01*
X620919Y370986D01*
X621208Y372440D01*
D02*
G37*
G36*
X613994D02*
X608780D01*
X609069Y370986D01*
X610459Y368905D01*
X612540Y367515D01*
X613994Y367226D01*
Y372440D01*
D02*
G37*
G36*
X232086Y375998D02*
Y370783D01*
X237300D01*
X237011Y372238D01*
X235621Y374318D01*
X233540Y375708D01*
X232086Y375998D01*
D02*
G37*
G36*
X230086D02*
X228632Y375708D01*
X226551Y374318D01*
X225161Y372238D01*
X224872Y370783D01*
X230086D01*
Y375998D01*
D02*
G37*
G36*
Y368783D02*
X224872D01*
X225161Y367329D01*
X226551Y365248D01*
X228632Y363858D01*
X230086Y363569D01*
Y368783D01*
D02*
G37*
G36*
X550148Y367148D02*
Y361934D01*
X555362D01*
X555073Y363388D01*
X553683Y365469D01*
X551602Y366859D01*
X550148Y367148D01*
D02*
G37*
G36*
X555362Y359934D02*
X550148D01*
Y354720D01*
X551602Y355009D01*
X553683Y356399D01*
X555073Y358480D01*
X555362Y359934D01*
D02*
G37*
G36*
X69390Y380564D02*
Y375350D01*
X74604D01*
X74315Y376804D01*
X72925Y378885D01*
X70844Y380275D01*
X69390Y380564D01*
D02*
G37*
G36*
X67390D02*
X65936Y380275D01*
X63855Y378885D01*
X62465Y376804D01*
X62176Y375350D01*
X67390D01*
Y380564D01*
D02*
G37*
G36*
X74604Y373350D02*
X69390D01*
Y368136D01*
X70844Y368425D01*
X72925Y369815D01*
X74315Y371896D01*
X74604Y373350D01*
D02*
G37*
G36*
X67390D02*
X62176D01*
X62465Y371896D01*
X63855Y369815D01*
X65936Y368425D01*
X67390Y368136D01*
Y373350D01*
D02*
G37*
G36*
X250812Y353335D02*
X246872D01*
Y349395D01*
X247838Y349588D01*
X249506Y350701D01*
X250620Y352369D01*
X250812Y353335D01*
D02*
G37*
G36*
X407022Y351806D02*
X403082D01*
Y347866D01*
X404049Y348058D01*
X405716Y349172D01*
X406830Y350840D01*
X407022Y351806D01*
D02*
G37*
G36*
X455872Y389712D02*
Y384498D01*
X461086D01*
X460797Y385952D01*
X459407Y388033D01*
X457326Y389423D01*
X455872Y389712D01*
D02*
G37*
G36*
X453872D02*
X452418Y389423D01*
X450337Y388033D01*
X448947Y385952D01*
X448658Y384498D01*
X453872D01*
Y389712D01*
D02*
G37*
G36*
X461086Y382498D02*
X455872D01*
Y377284D01*
X457326Y377573D01*
X459407Y378963D01*
X460797Y381044D01*
X461086Y382498D01*
D02*
G37*
G36*
X453872D02*
X448658D01*
X448947Y381044D01*
X450337Y378963D01*
X452418Y377573D01*
X453872Y377284D01*
Y382498D01*
D02*
G37*
G36*
X295594Y390216D02*
Y385002D01*
X300808D01*
X300519Y386456D01*
X299129Y388537D01*
X297048Y389927D01*
X295594Y390216D01*
D02*
G37*
G36*
X293594D02*
X292140Y389927D01*
X290059Y388537D01*
X288669Y386456D01*
X288380Y385002D01*
X293594D01*
Y390216D01*
D02*
G37*
G36*
X300808Y383002D02*
X295594D01*
Y377788D01*
X297048Y378077D01*
X299129Y379467D01*
X300519Y381548D01*
X300808Y383002D01*
D02*
G37*
G36*
X293594D02*
X288380D01*
X288669Y381548D01*
X290059Y379467D01*
X292140Y378077D01*
X293594Y377788D01*
Y383002D01*
D02*
G37*
G36*
X148606Y325238D02*
X147152Y324949D01*
X145071Y323559D01*
X143681Y321478D01*
X143392Y320024D01*
X148606D01*
Y325238D01*
D02*
G37*
G36*
X30020Y230940D02*
Y225726D01*
X35234D01*
X34945Y227180D01*
X33555Y229261D01*
X31474Y230651D01*
X30020Y230940D01*
D02*
G37*
G36*
X28020D02*
X26566Y230651D01*
X24485Y229261D01*
X23095Y227180D01*
X22806Y225726D01*
X28020D01*
Y230940D01*
D02*
G37*
G36*
X98854Y226310D02*
Y221096D01*
X104068D01*
X103779Y222550D01*
X102389Y224631D01*
X100308Y226021D01*
X98854Y226310D01*
D02*
G37*
G36*
X35234Y223726D02*
X30020D01*
Y218512D01*
X31474Y218801D01*
X33555Y220191D01*
X34945Y222272D01*
X35234Y223726D01*
D02*
G37*
G36*
X28020D02*
X22806D01*
X23095Y222272D01*
X24485Y220191D01*
X26566Y218801D01*
X28020Y218512D01*
Y223726D01*
D02*
G37*
G36*
X68264Y221352D02*
Y216138D01*
X73478D01*
X73189Y217592D01*
X71799Y219673D01*
X69718Y221063D01*
X68264Y221352D01*
D02*
G37*
G36*
X66264D02*
X64810Y221063D01*
X62729Y219673D01*
X61339Y217592D01*
X61050Y216138D01*
X66264D01*
Y221352D01*
D02*
G37*
G36*
X104068Y219096D02*
X98854D01*
Y213882D01*
X100308Y214171D01*
X102389Y215561D01*
X103779Y217642D01*
X104068Y219096D01*
D02*
G37*
G36*
X475297Y326254D02*
Y321040D01*
X480512D01*
X480222Y322494D01*
X478832Y324575D01*
X476752Y325965D01*
X475297Y326254D01*
D02*
G37*
G36*
X473297D02*
X471843Y325965D01*
X469762Y324575D01*
X468372Y322494D01*
X468083Y321040D01*
X473297D01*
Y326254D01*
D02*
G37*
G36*
X355144Y234882D02*
Y229668D01*
X360358D01*
X360069Y231122D01*
X358679Y233203D01*
X356598Y234593D01*
X355144Y234882D01*
D02*
G37*
G36*
X353144D02*
X351690Y234593D01*
X349609Y233203D01*
X348219Y231122D01*
X347930Y229668D01*
X353144D01*
Y234882D01*
D02*
G37*
G36*
X360358Y227668D02*
X355144D01*
Y222454D01*
X356598Y222743D01*
X358679Y224133D01*
X360069Y226214D01*
X360358Y227668D01*
D02*
G37*
G36*
X353144D02*
X347930D01*
X348219Y226214D01*
X349609Y224133D01*
X351690Y222743D01*
X353144Y222454D01*
Y227668D01*
D02*
G37*
G36*
X392368Y221306D02*
Y216092D01*
X397582D01*
X397293Y217546D01*
X395903Y219627D01*
X393822Y221017D01*
X392368Y221306D01*
D02*
G37*
G36*
X390368D02*
X388914Y221017D01*
X386833Y219627D01*
X385443Y217546D01*
X385154Y216092D01*
X390368D01*
Y221306D01*
D02*
G37*
G36*
X419338Y220336D02*
Y215122D01*
X424552D01*
X424263Y216576D01*
X422873Y218657D01*
X420792Y220047D01*
X419338Y220336D01*
D02*
G37*
G36*
X424552Y213122D02*
X419338D01*
Y207908D01*
X420792Y208197D01*
X422873Y209587D01*
X424263Y211668D01*
X424552Y213122D01*
D02*
G37*
G36*
X417338D02*
X412124D01*
X412413Y211668D01*
X413803Y209587D01*
X415884Y208197D01*
X417338Y207908D01*
Y213122D01*
D02*
G37*
G36*
X314754Y328222D02*
Y323008D01*
X319968D01*
X319679Y324462D01*
X318289Y326543D01*
X316208Y327933D01*
X314754Y328222D01*
D02*
G37*
G36*
X195120Y230777D02*
Y225563D01*
X200334D01*
X200045Y227017D01*
X198655Y229098D01*
X196574Y230488D01*
X195120Y230777D01*
D02*
G37*
G36*
X233265Y222858D02*
Y217644D01*
X238480D01*
X238191Y219098D01*
X236800Y221179D01*
X234720Y222569D01*
X233265Y222858D01*
D02*
G37*
G36*
X231266D02*
X229811Y222569D01*
X227731Y221179D01*
X226340Y219098D01*
X226051Y217644D01*
X231266D01*
Y222858D01*
D02*
G37*
G36*
X262366Y222368D02*
Y217154D01*
X267580D01*
X267291Y218608D01*
X265901Y220689D01*
X263820Y222079D01*
X262366Y222368D01*
D02*
G37*
G36*
X260366D02*
X258912Y222079D01*
X256831Y220689D01*
X255441Y218608D01*
X255152Y217154D01*
X260366D01*
Y222368D01*
D02*
G37*
G36*
X267580Y215154D02*
X262366D01*
Y209940D01*
X263820Y210229D01*
X265901Y211619D01*
X267291Y213700D01*
X267580Y215154D01*
D02*
G37*
G36*
X260366D02*
X255152D01*
X255441Y213700D01*
X256831Y211619D01*
X258912Y210229D01*
X260366Y209940D01*
Y215154D01*
D02*
G37*
G36*
X352382Y311962D02*
X350928Y311673D01*
X348847Y310283D01*
X347457Y308202D01*
X347168Y306748D01*
X352382D01*
Y311962D01*
D02*
G37*
G36*
Y304748D02*
X347168D01*
X347457Y303294D01*
X348847Y301213D01*
X350928Y299823D01*
X352382Y299534D01*
Y304748D01*
D02*
G37*
G36*
X515452Y219449D02*
Y214235D01*
X520666D01*
X520377Y215689D01*
X518987Y217770D01*
X516906Y219160D01*
X515452Y219449D01*
D02*
G37*
G36*
X551284Y210532D02*
Y205318D01*
X556498D01*
X556209Y206772D01*
X554819Y208853D01*
X552738Y210243D01*
X551284Y210532D01*
D02*
G37*
G36*
X549284D02*
X547830Y210243D01*
X545749Y208853D01*
X544359Y206772D01*
X544070Y205318D01*
X549284D01*
Y210532D01*
D02*
G37*
G36*
X579714Y210278D02*
Y205064D01*
X584928D01*
X584639Y206518D01*
X583249Y208599D01*
X581168Y209989D01*
X579714Y210278D01*
D02*
G37*
G36*
X577714D02*
X576260Y209989D01*
X574179Y208599D01*
X572789Y206518D01*
X572500Y205064D01*
X577714D01*
Y210278D01*
D02*
G37*
G36*
X584928Y203064D02*
X579714D01*
Y197850D01*
X581168Y198139D01*
X583249Y199529D01*
X584639Y201610D01*
X584928Y203064D01*
D02*
G37*
G36*
X577714D02*
X572500D01*
X572789Y201610D01*
X574179Y199529D01*
X576260Y198139D01*
X577714Y197850D01*
Y203064D01*
D02*
G37*
G36*
X192358Y310570D02*
X190904Y310281D01*
X188823Y308891D01*
X187433Y306810D01*
X187144Y305356D01*
X192358D01*
Y310570D01*
D02*
G37*
G36*
Y303356D02*
X187144D01*
X187433Y301902D01*
X188823Y299821D01*
X190904Y298431D01*
X192358Y298142D01*
Y303356D01*
D02*
G37*
G36*
X27766Y310252D02*
X26312Y309963D01*
X24231Y308573D01*
X22841Y306492D01*
X22552Y305038D01*
X27766D01*
Y310252D01*
D02*
G37*
G36*
Y303038D02*
X22552D01*
X22841Y301584D01*
X24231Y299503D01*
X26312Y298113D01*
X27766Y297824D01*
Y303038D01*
D02*
G37*
G36*
X698754Y366306D02*
X696795Y365917D01*
X695135Y364807D01*
X694025Y363147D01*
X693636Y361188D01*
X694025Y359229D01*
X695135Y357569D01*
X696795Y356459D01*
X698754Y356070D01*
X700713Y356459D01*
X702373Y357569D01*
X703483Y359229D01*
X703872Y361188D01*
X703483Y363147D01*
X702373Y364807D01*
X700713Y365917D01*
X698754Y366306D01*
D02*
G37*
G36*
X770606Y234262D02*
X768606D01*
X766904Y234038D01*
X765318Y233381D01*
X763956Y232336D01*
X762911Y230974D01*
X762254Y229388D01*
X762030Y227686D01*
X762254Y225984D01*
X762911Y224398D01*
X763956Y223036D01*
X765318Y221991D01*
X766904Y221334D01*
X768606Y221110D01*
X770606D01*
X772308Y221334D01*
X773894Y221991D01*
X775256Y223036D01*
X776301Y224398D01*
X776958Y225984D01*
X777182Y227686D01*
X776958Y229388D01*
X776301Y230974D01*
X775256Y232336D01*
X773894Y233381D01*
X772308Y234038D01*
X770606Y234262D01*
D02*
G37*
G36*
X568531Y145221D02*
Y140007D01*
X573745D01*
X573456Y141461D01*
X572066Y143541D01*
X569985Y144932D01*
X568531Y145221D01*
D02*
G37*
G36*
X573745Y138007D02*
X568531D01*
Y132792D01*
X569985Y133082D01*
X572066Y134472D01*
X573456Y136552D01*
X573745Y138007D01*
D02*
G37*
G36*
X417694Y127778D02*
X412480D01*
Y122564D01*
X413934Y122853D01*
X416015Y124243D01*
X417405Y126324D01*
X417694Y127778D01*
D02*
G37*
G36*
X506086Y127270D02*
X500872D01*
Y122056D01*
X502326Y122345D01*
X504407Y123735D01*
X505797Y125816D01*
X506086Y127270D01*
D02*
G37*
G36*
X498872D02*
X493658D01*
X493947Y125816D01*
X495337Y123735D01*
X497418Y122345D01*
X498872Y122056D01*
Y127270D01*
D02*
G37*
G36*
X332604Y108728D02*
X327390D01*
Y103514D01*
X328844Y103803D01*
X330925Y105193D01*
X332315Y107274D01*
X332604Y108728D01*
D02*
G37*
G36*
X325390D02*
X320176D01*
X320465Y107274D01*
X321855Y105193D01*
X323936Y103803D01*
X325390Y103514D01*
Y108728D01*
D02*
G37*
G36*
X181741Y173125D02*
X176527D01*
X176816Y171671D01*
X178207Y169590D01*
X180287Y168200D01*
X181741Y167911D01*
Y173125D01*
D02*
G37*
G36*
X257928Y153686D02*
X252714D01*
Y148472D01*
X254168Y148761D01*
X256249Y150151D01*
X257639Y152232D01*
X257928Y153686D01*
D02*
G37*
G36*
X188902Y131190D02*
X187448Y130901D01*
X185367Y129511D01*
X183977Y127430D01*
X183688Y125976D01*
X188902D01*
Y131190D01*
D02*
G37*
G36*
X42815Y142192D02*
X21321D01*
Y123492D01*
X26263D01*
X26862Y122372D01*
X26333Y121580D01*
X26044Y120126D01*
X38472D01*
X38183Y121580D01*
X37654Y122372D01*
X38253Y123492D01*
X42815D01*
Y142192D01*
D02*
G37*
G36*
X38472Y118126D02*
X33258D01*
Y112912D01*
X34712Y113201D01*
X36793Y114591D01*
X38183Y116672D01*
X38472Y118126D01*
D02*
G37*
G36*
X31258D02*
X26044D01*
X26333Y116672D01*
X27723Y114591D01*
X29804Y113201D01*
X31258Y112912D01*
Y118126D01*
D02*
G37*
G36*
X116570Y110100D02*
Y104886D01*
X121784D01*
X121495Y106340D01*
X120105Y108421D01*
X118024Y109811D01*
X116570Y110100D01*
D02*
G37*
G36*
X114570D02*
X113116Y109811D01*
X111035Y108421D01*
X109645Y106340D01*
X109356Y104886D01*
X114570D01*
Y110100D01*
D02*
G37*
G36*
X196117Y112284D02*
X183688D01*
X183977Y110830D01*
X185367Y108749D01*
X186558Y107954D01*
Y106426D01*
X185445Y105683D01*
X184055Y103602D01*
X183766Y102148D01*
X196195D01*
X195905Y103602D01*
X194515Y105683D01*
X193325Y106478D01*
Y108006D01*
X194437Y108749D01*
X195827Y110830D01*
X196117Y112284D01*
D02*
G37*
G36*
X121784Y102886D02*
X116570D01*
Y97672D01*
X118024Y97961D01*
X120105Y99351D01*
X121495Y101432D01*
X121784Y102886D01*
D02*
G37*
G36*
X114570D02*
X109356D01*
X109645Y101432D01*
X111035Y99351D01*
X113116Y97961D01*
X114570Y97672D01*
Y102886D01*
D02*
G37*
G36*
X196195Y100148D02*
X190980D01*
Y94934D01*
X192435Y95223D01*
X194515Y96613D01*
X195905Y98694D01*
X196195Y100148D01*
D02*
G37*
G36*
X188980D02*
X183766D01*
X184055Y98694D01*
X185445Y96613D01*
X187526Y95223D01*
X188980Y94934D01*
Y100148D01*
D02*
G37*
G36*
X26908Y88256D02*
Y83042D01*
X32122D01*
X31833Y84496D01*
X30443Y86577D01*
X28362Y87967D01*
X26908Y88256D01*
D02*
G37*
G36*
X24908D02*
X23454Y87967D01*
X21373Y86577D01*
X19983Y84496D01*
X19694Y83042D01*
X24908D01*
Y88256D01*
D02*
G37*
G36*
X112014Y95454D02*
X110252Y95222D01*
X108610Y94542D01*
X107200Y93460D01*
X106118Y92050D01*
X105438Y90408D01*
X105206Y88646D01*
X105438Y86884D01*
X106118Y85242D01*
X107200Y83832D01*
X108610Y82750D01*
X110252Y82070D01*
X112014Y81838D01*
X113776Y82070D01*
X115418Y82750D01*
X116828Y83832D01*
X117910Y85242D01*
X118590Y86884D01*
X118822Y88646D01*
X118590Y90408D01*
X117910Y92050D01*
X116828Y93460D01*
X115418Y94542D01*
X113776Y95222D01*
X112014Y95454D01*
D02*
G37*
G36*
X32122Y81042D02*
X26908D01*
Y75828D01*
X28362Y76117D01*
X30443Y77507D01*
X31833Y79588D01*
X32122Y81042D01*
D02*
G37*
G36*
X24908D02*
X19694D01*
X19983Y79588D01*
X21373Y77507D01*
X23454Y76117D01*
X24908Y75828D01*
Y81042D01*
D02*
G37*
G36*
X47984Y83102D02*
X46222Y82870D01*
X44580Y82190D01*
X43170Y81108D01*
X42088Y79698D01*
X41408Y78056D01*
X41176Y76294D01*
X41408Y74532D01*
X42088Y72890D01*
X43170Y71480D01*
X44580Y70398D01*
X46222Y69718D01*
X47984Y69486D01*
X49746Y69718D01*
X51388Y70398D01*
X52798Y71480D01*
X53880Y72890D01*
X54560Y74532D01*
X54792Y76294D01*
X54560Y78056D01*
X53880Y79698D01*
X52798Y81108D01*
X51388Y82190D01*
X49746Y82870D01*
X47984Y83102D01*
D02*
G37*
G36*
X110728Y72000D02*
Y66786D01*
X115942D01*
X115653Y68240D01*
X114263Y70321D01*
X112182Y71711D01*
X110728Y72000D01*
D02*
G37*
G36*
X108728D02*
X107274Y71711D01*
X105193Y70321D01*
X103803Y68240D01*
X103514Y66786D01*
X108728D01*
Y72000D01*
D02*
G37*
G36*
X115942Y64786D02*
X110728D01*
Y59572D01*
X112182Y59861D01*
X114263Y61251D01*
X115653Y63332D01*
X115942Y64786D01*
D02*
G37*
G36*
X108728D02*
X103514D01*
X103803Y63332D01*
X105193Y61251D01*
X107274Y59861D01*
X108728Y59572D01*
Y64786D01*
D02*
G37*
G36*
X109292Y57028D02*
X107530Y56796D01*
X105888Y56116D01*
X104478Y55034D01*
X103396Y53624D01*
X102716Y51982D01*
X102484Y50220D01*
X102716Y48458D01*
X103396Y46816D01*
X104478Y45406D01*
X105888Y44324D01*
X107530Y43644D01*
X109292Y43412D01*
X111054Y43644D01*
X112696Y44324D01*
X114106Y45406D01*
X115188Y46816D01*
X115868Y48458D01*
X116100Y50220D01*
X115868Y51982D01*
X115188Y53624D01*
X114106Y55034D01*
X112696Y56116D01*
X111054Y56796D01*
X109292Y57028D01*
D02*
G37*
G36*
X66278Y37456D02*
Y32242D01*
X71492D01*
X71203Y33696D01*
X69813Y35777D01*
X67732Y37167D01*
X66278Y37456D01*
D02*
G37*
G36*
X64278D02*
X62824Y37167D01*
X60743Y35777D01*
X59353Y33696D01*
X59064Y32242D01*
X64278D01*
Y37456D01*
D02*
G37*
G36*
X71492Y30242D02*
X66278D01*
Y25028D01*
X67732Y25317D01*
X69813Y26707D01*
X71203Y28788D01*
X71492Y30242D01*
D02*
G37*
G36*
X64278D02*
X59064D01*
X59353Y28788D01*
X60743Y26707D01*
X62824Y25317D01*
X64278Y25028D01*
Y30242D01*
D02*
G37*
G36*
X405954Y154472D02*
Y149258D01*
X411169D01*
X410879Y150712D01*
X409489Y152793D01*
X407409Y154183D01*
X405954Y154472D01*
D02*
G37*
G36*
X403954D02*
X402500Y154183D01*
X400420Y152793D01*
X399029Y150712D01*
X398740Y149258D01*
X403954D01*
Y154472D01*
D02*
G37*
%LPD*%
D10*
X723414Y188054D02*
D03*
Y183054D02*
D03*
Y178054D02*
D03*
Y173054D02*
D03*
Y168054D02*
D03*
X760962D02*
D03*
Y173054D02*
D03*
Y178054D02*
D03*
Y183054D02*
D03*
Y188054D02*
D03*
D11*
X732188Y159280D02*
D03*
X737188D02*
D03*
X742188D02*
D03*
X747188D02*
D03*
X752188D02*
D03*
Y196828D02*
D03*
X747188D02*
D03*
X742188D02*
D03*
X737188D02*
D03*
X732188D02*
D03*
D13*
X728094Y130050D02*
D03*
X720094D02*
D03*
X755450Y130048D02*
D03*
X763450D02*
D03*
D14*
X720030Y148020D02*
D03*
Y140020D02*
D03*
X764530Y146748D02*
D03*
Y138748D02*
D03*
D15*
X710438Y149526D02*
D03*
Y139526D02*
D03*
X729174Y148258D02*
D03*
Y138258D02*
D03*
X742188Y131298D02*
D03*
Y141298D02*
D03*
X773775Y149432D02*
D03*
Y159432D02*
D03*
X783935Y149432D02*
D03*
Y159432D02*
D03*
X755386Y148256D02*
D03*
Y138256D02*
D03*
X761989Y121531D02*
D03*
Y111531D02*
D03*
X751829Y121587D02*
D03*
Y111587D02*
D03*
X732526Y121412D02*
D03*
Y111412D02*
D03*
X722366Y121332D02*
D03*
Y111332D02*
D03*
D16*
X714676Y158958D02*
D03*
X704676D02*
D03*
X366082Y368224D02*
D03*
Y382224D02*
D03*
X358082Y382224D02*
D03*
Y368224D02*
D03*
X206184Y368046D02*
D03*
Y382046D02*
D03*
X198184Y382046D02*
D03*
Y368046D02*
D03*
X35244Y367238D02*
D03*
Y381238D02*
D03*
X43244Y381238D02*
D03*
Y367238D02*
D03*
X528676Y356740D02*
D03*
Y370740D02*
D03*
X520676Y370740D02*
D03*
Y356740D02*
D03*
D17*
X786274Y169418D02*
D03*
X773774D02*
D03*
X786274Y186436D02*
D03*
X773774D02*
D03*
D18*
X675132Y409788D02*
D03*
Y349788D02*
D03*
D19*
X782335Y469875D02*
D03*
Y454875D02*
D03*
X334264Y374262D02*
D03*
Y389262D02*
D03*
X173990Y373500D02*
D03*
Y388500D02*
D03*
X497180Y362172D02*
D03*
Y377172D02*
D03*
X11176Y388500D02*
D03*
Y373500D02*
D03*
D20*
X737630Y428526D02*
D03*
D21*
X796050Y404876D02*
D03*
Y430276D02*
D03*
X357446Y158958D02*
D03*
Y133558D02*
D03*
X32068Y158242D02*
D03*
Y132842D02*
D03*
X205232Y160528D02*
D03*
Y135128D02*
D03*
X520748Y147146D02*
D03*
Y121746D02*
D03*
D22*
X767094Y417576D02*
D03*
X386402Y146258D02*
D03*
X61024Y145542D02*
D03*
X234188Y147828D02*
D03*
X549704Y134446D02*
D03*
D23*
X718792Y361950D02*
D03*
X778792D02*
D03*
D24*
X731376Y326898D02*
D03*
X713376D02*
D03*
X676686Y326898D02*
D03*
X694686D02*
D03*
X614994Y357204D02*
D03*
X632994D02*
D03*
X454872Y368276D02*
D03*
X472872D02*
D03*
X294594Y368786D02*
D03*
X312594D02*
D03*
X147749Y368739D02*
D03*
X129749D02*
D03*
D25*
X565396Y443818D02*
D03*
Y431118D02*
D03*
Y418418D02*
D03*
Y405718D02*
D03*
X612396Y443818D02*
D03*
Y431118D02*
D03*
Y418418D02*
D03*
Y405718D02*
D03*
X417512Y203408D02*
D03*
Y190708D02*
D03*
Y178008D02*
D03*
Y165308D02*
D03*
X464512Y203408D02*
D03*
Y190708D02*
D03*
Y178008D02*
D03*
Y165308D02*
D03*
X404122Y454868D02*
D03*
Y442168D02*
D03*
Y429468D02*
D03*
Y416768D02*
D03*
X451122Y454868D02*
D03*
Y442168D02*
D03*
Y429468D02*
D03*
Y416768D02*
D03*
X244280Y454406D02*
D03*
Y441706D02*
D03*
Y429006D02*
D03*
Y416306D02*
D03*
X291280Y454406D02*
D03*
Y441706D02*
D03*
Y429006D02*
D03*
Y416306D02*
D03*
X91748Y205012D02*
D03*
Y192312D02*
D03*
Y179612D02*
D03*
Y166912D02*
D03*
X138748Y205012D02*
D03*
Y192312D02*
D03*
Y179612D02*
D03*
Y166912D02*
D03*
X126942Y417610D02*
D03*
Y430310D02*
D03*
Y443010D02*
D03*
Y455710D02*
D03*
X79942Y417610D02*
D03*
Y430310D02*
D03*
Y443010D02*
D03*
Y455710D02*
D03*
X578840Y192888D02*
D03*
Y180188D02*
D03*
Y167488D02*
D03*
Y154788D02*
D03*
X625840Y192888D02*
D03*
Y180188D02*
D03*
Y167488D02*
D03*
Y154788D02*
D03*
X258504Y204470D02*
D03*
Y191770D02*
D03*
Y179070D02*
D03*
Y166370D02*
D03*
X305504Y204470D02*
D03*
Y191770D02*
D03*
Y179070D02*
D03*
Y166370D02*
D03*
D26*
X631568Y427414D02*
D03*
Y443414D02*
D03*
X557700Y390604D02*
D03*
Y374604D02*
D03*
X391228Y401908D02*
D03*
Y385908D02*
D03*
X311214Y438278D02*
D03*
Y454278D02*
D03*
X232283Y399042D02*
D03*
Y383042D02*
D03*
X73216Y385654D02*
D03*
Y401654D02*
D03*
X147384Y457106D02*
D03*
Y441106D02*
D03*
X470548Y438740D02*
D03*
Y454740D02*
D03*
D27*
X634681Y340917D02*
D03*
Y323917D02*
D03*
X349609Y295318D02*
D03*
Y278318D02*
D03*
X478028Y349011D02*
D03*
Y332011D02*
D03*
X315896Y349368D02*
D03*
Y332368D02*
D03*
X187526Y291964D02*
D03*
Y274964D02*
D03*
X153416Y330844D02*
D03*
Y347844D02*
D03*
X508254Y280661D02*
D03*
Y263661D02*
D03*
X23247Y275472D02*
D03*
Y292472D02*
D03*
D28*
X599922Y138786D02*
D03*
X583922D02*
D03*
X609896Y208787D02*
D03*
X593896D02*
D03*
X437144Y148258D02*
D03*
X421144D02*
D03*
X450536Y219156D02*
D03*
X434536D02*
D03*
X279780Y150622D02*
D03*
X263780D02*
D03*
X290004Y219710D02*
D03*
X274004D02*
D03*
X111292Y220808D02*
D03*
X127292D02*
D03*
X87504Y150876D02*
D03*
X103504D02*
D03*
D29*
X616202Y231728D02*
D03*
X602202D02*
D03*
X575092Y231750D02*
D03*
X590092D02*
D03*
X350894Y397764D02*
D03*
X365894D02*
D03*
X517702Y386690D02*
D03*
X532702D02*
D03*
X453600Y242524D02*
D03*
X439600D02*
D03*
X412684Y242680D02*
D03*
X427684D02*
D03*
X250374Y243586D02*
D03*
X265374D02*
D03*
X290782Y243586D02*
D03*
X276782D02*
D03*
X191128Y399042D02*
D03*
X206128D02*
D03*
X118794Y242524D02*
D03*
X132794D02*
D03*
X105608Y242778D02*
D03*
X90608D02*
D03*
X49156Y398272D02*
D03*
X34156D02*
D03*
D30*
X636168Y225038D02*
D03*
Y243038D02*
D03*
X636045Y283608D02*
D03*
Y301608D02*
D03*
X634598Y396960D02*
D03*
Y378960D02*
D03*
X475996Y236872D02*
D03*
Y254872D02*
D03*
X477520Y288942D02*
D03*
Y306942D02*
D03*
X317754Y237706D02*
D03*
Y255706D02*
D03*
X316992Y288078D02*
D03*
Y306078D02*
D03*
X313754Y408542D02*
D03*
Y390542D02*
D03*
X152908Y305587D02*
D03*
Y287587D02*
D03*
X153904Y252332D02*
D03*
Y234332D02*
D03*
X149416Y391258D02*
D03*
Y409258D02*
D03*
X473778Y407988D02*
D03*
Y389988D02*
D03*
D31*
X572870Y357204D02*
D03*
X595870D02*
D03*
X406144Y368486D02*
D03*
X429144D02*
D03*
X248156Y368532D02*
D03*
X271156D02*
D03*
X112911Y368739D02*
D03*
X89911D02*
D03*
D32*
X584370Y386204D02*
D03*
X417644Y397486D02*
D03*
X259656Y397532D02*
D03*
X101411Y397739D02*
D03*
D33*
X374782Y382224D02*
D03*
Y368224D02*
D03*
X349382D02*
D03*
Y382224D02*
D03*
X214884Y382046D02*
D03*
Y368046D02*
D03*
X189484D02*
D03*
Y382046D02*
D03*
X26544Y381238D02*
D03*
Y367238D02*
D03*
X51944D02*
D03*
Y381238D02*
D03*
X537376Y370740D02*
D03*
Y356740D02*
D03*
X511976D02*
D03*
Y370740D02*
D03*
D34*
X510286Y246998D02*
D03*
Y228998D02*
D03*
X351282Y261036D02*
D03*
Y243036D02*
D03*
X189230Y258174D02*
D03*
Y240174D02*
D03*
X23622Y239412D02*
D03*
Y257412D02*
D03*
D35*
X359732Y186136D02*
D03*
X385132D02*
D03*
X511870Y414608D02*
D03*
X537270D02*
D03*
X343662Y420624D02*
D03*
X369062D02*
D03*
X191072Y425450D02*
D03*
X216472D02*
D03*
X20516Y426212D02*
D03*
X45916D02*
D03*
X34608Y186182D02*
D03*
X60008D02*
D03*
X199962Y187688D02*
D03*
X225362D02*
D03*
X519822Y175362D02*
D03*
X545222D02*
D03*
D36*
X372432Y215092D02*
D03*
X524570Y443564D02*
D03*
X356362Y449580D02*
D03*
X203772Y454406D02*
D03*
X33216Y455168D02*
D03*
X47308Y215138D02*
D03*
X212662Y216644D02*
D03*
X532522Y204318D02*
D03*
D37*
X376640Y238206D02*
D03*
X394640D02*
D03*
X215854Y239014D02*
D03*
X233854D02*
D03*
X70278Y238252D02*
D03*
X52278D02*
D03*
X536508Y227432D02*
D03*
X554508D02*
D03*
D38*
X799606Y261436D02*
D03*
Y238436D02*
D03*
D39*
X772856Y236936D02*
D03*
Y243436D02*
D03*
Y262936D02*
D03*
Y249936D02*
D03*
Y256436D02*
D03*
D40*
X752188Y254406D02*
D03*
X663194Y278740D02*
D03*
D41*
X752188Y279906D02*
D03*
X663194Y253240D02*
D03*
D42*
X681348Y281178D02*
D03*
X735704D02*
D03*
D43*
X681736Y231848D02*
D03*
Y193348D02*
D03*
D44*
X618994Y501650D02*
D03*
X589534Y504190D02*
D03*
X675894Y502666D02*
D03*
X557672Y503320D02*
D03*
X713232Y495300D02*
D03*
X742703Y487934D02*
D03*
D45*
X659130Y312806D02*
D03*
Y329306D02*
D03*
X748702Y314367D02*
D03*
Y330867D02*
D03*
D46*
X722506Y217234D02*
D03*
X750506D02*
D03*
D47*
X799606Y216061D02*
D03*
X799606Y283811D02*
D03*
D49*
X742188Y178054D02*
D03*
D88*
X636045Y285173D02*
X646276Y295404D01*
X636045Y283608D02*
Y285173D01*
Y259762D02*
X645922Y249886D01*
X636045Y259762D02*
Y283608D01*
X611802Y280264D02*
X633146Y301608D01*
X636045D01*
X643868Y325006D02*
Y425884D01*
X646276Y295404D02*
Y322598D01*
X643868Y325006D02*
X646276Y322598D01*
X643868Y425884D02*
X645414Y427430D01*
X127572Y324820D02*
X150596Y347844D01*
X153416D01*
X147749Y368739D02*
X153416Y363072D01*
Y347844D02*
Y363072D01*
X149606Y327034D02*
X153416Y330844D01*
X149606Y319024D02*
Y327034D01*
X28766Y297991D02*
Y304038D01*
X23247Y292472D02*
X28766Y297991D01*
X33118Y257412D02*
X52278Y238252D01*
X32864Y257666D02*
X33118Y257412D01*
X23622D02*
X33118D01*
X28766Y257666D02*
Y262556D01*
Y276234D01*
X23622Y257412D02*
X28766Y262556D01*
X29020Y224726D02*
Y234014D01*
X23622Y239412D02*
X29020Y234014D01*
X124402Y179452D02*
X138804D01*
X132794Y242524D02*
X142602Y252332D01*
X153904D01*
X111832Y231594D02*
X151166D01*
X153904Y234332D01*
X152908Y287418D02*
X158268D01*
X152908D02*
X164084Y276242D01*
X158268Y287418D02*
X162560Y291710D01*
Y443230D02*
X190754Y471424D01*
X162560Y291710D02*
Y443230D01*
X164084Y170188D02*
Y276242D01*
X151250Y157354D02*
X164084Y170188D01*
X193358Y297796D02*
Y304356D01*
X187526Y291964D02*
X193358Y297796D01*
X196694Y258174D02*
X215854Y239014D01*
X189230Y258174D02*
X196694D01*
X194120Y224563D02*
Y235284D01*
X189230Y240174D02*
X194120Y235284D01*
X189230Y271598D02*
X193358Y275726D01*
X189230Y258174D02*
Y271598D01*
X269748Y232410D02*
X312458D01*
X317754Y237706D01*
X290782Y243586D02*
X302902Y255706D01*
X317754D01*
X316992Y288078D02*
X327152Y277918D01*
Y203724D02*
Y277918D01*
Y203724D02*
X329184Y201692D01*
X291910Y291592D02*
X306397Y306078D01*
X316992D01*
X327152Y298239D02*
Y368042D01*
X316992Y288078D02*
X327152Y298239D01*
X325994Y438262D02*
X335534Y447802D01*
X325994Y384200D02*
Y438262D01*
Y384200D02*
X327152Y383042D01*
Y380482D02*
Y383042D01*
X325994Y379324D02*
X327152Y380482D01*
X325994Y369200D02*
Y379324D01*
Y369200D02*
X327152Y368042D01*
X303254Y333703D02*
X313754Y344203D01*
X303254Y328336D02*
Y333703D01*
X313754Y322008D02*
Y332504D01*
X472872Y368276D02*
X478028Y363120D01*
X475996Y348860D02*
Y349011D01*
X478028D02*
Y363120D01*
X462670Y335534D02*
X475996Y348860D01*
X462280Y335534D02*
X462670D01*
X474297Y328280D02*
X478028Y332011D01*
X474297Y320040D02*
Y328280D01*
X485140Y380238D02*
Y432308D01*
Y380238D02*
X488188Y377190D01*
Y298857D02*
Y377190D01*
X353382Y299090D02*
Y305748D01*
X349609Y295318D02*
X353382Y299090D01*
X351282Y261036D02*
Y276645D01*
X349609Y278318D02*
X351282Y276645D01*
X349609Y278318D02*
X362910D01*
X375336Y265892D01*
X351282Y261036D02*
X353810D01*
X376640Y238206D01*
X351282Y243036D02*
X354144Y240174D01*
Y228668D02*
Y240174D01*
X435102Y231902D02*
X471026D01*
X475996Y236872D01*
X453600Y242524D02*
X465948Y254872D01*
X475996D01*
X476624Y287292D02*
X488188Y298857D01*
X476624Y272068D02*
Y287292D01*
X451536Y291292D02*
X467186Y306942D01*
X477520D01*
X476624Y272068D02*
X486156Y262536D01*
X495554Y353060D02*
X497180Y354686D01*
X495554Y336500D02*
Y353060D01*
Y336500D02*
X498094Y333960D01*
X522580Y312776D02*
X528422Y318618D01*
X522580Y293286D02*
Y312776D01*
X513758Y281398D02*
Y293032D01*
X522580Y293286D02*
X535602Y280264D01*
X513021Y263661D02*
X513758Y264398D01*
X510286Y260926D02*
X513021Y263661D01*
X526068Y264398D02*
X526805Y263661D01*
X513021D02*
X526805D01*
X508254D02*
X513021D01*
X526805D02*
X535602Y254864D01*
X510286Y246998D02*
Y260926D01*
Y228998D02*
X514452Y224832D01*
Y213235D02*
Y224832D01*
X631878Y338538D02*
Y340917D01*
X632090Y338326D02*
X634681Y340917D01*
X624601Y330837D02*
X632090Y338326D01*
X631878Y338538D02*
X632090Y338326D01*
X634598Y358808D02*
X634681Y358725D01*
Y340917D02*
Y358725D01*
X632090Y338326D02*
X632090D01*
X611802Y314353D02*
X624601Y327152D01*
Y330837D01*
X611802Y305664D02*
Y314353D01*
X145988Y455710D02*
X146956Y454742D01*
X161290D01*
X190754Y471424D02*
X518114D01*
X519176Y470362D01*
X219456Y396240D02*
X222504D01*
X225306Y399042D01*
X709676Y106426D02*
X710438D01*
X715344Y111332D01*
X231086Y369783D02*
Y381844D01*
X232283Y383042D01*
X773659Y469875D02*
X782335D01*
X768858Y465074D02*
X773659Y469875D01*
X768858Y453940D02*
Y465074D01*
Y453940D02*
X769380Y453418D01*
X782335Y454875D02*
X796050Y441159D01*
Y430276D02*
Y441159D01*
X614994Y357204D02*
Y373440D01*
X589173Y204064D02*
X593896Y208787D01*
X578714Y204064D02*
X589173D01*
X87504Y136778D02*
X88654Y135628D01*
X99822D01*
X138748Y205012D02*
X149532D01*
X150876Y206356D01*
Y214122D01*
X129749Y368739D02*
X129914Y368904D01*
Y385064D01*
X126942Y407416D02*
Y417610D01*
X79942Y455710D02*
X99348D01*
X33216Y455168D02*
X53086D01*
X129914Y192152D02*
X145830D01*
X259842Y344985D02*
Y377952D01*
X244549Y329692D02*
X259842Y344985D01*
X208026Y329692D02*
X244549D01*
X418338Y346180D02*
Y377632D01*
X401088Y328930D02*
X418338Y346180D01*
X367792Y328930D02*
X401088D01*
X486156Y182626D02*
X490220Y178562D01*
Y166370D02*
Y178562D01*
X296432Y103632D02*
X313096Y120296D01*
X367097D01*
X367759Y119634D02*
X386580D01*
X367097Y120296D02*
X367759Y119634D01*
X767563Y111531D02*
X772160Y106934D01*
X761989Y111531D02*
X767563D01*
X715344Y111332D02*
X722366D01*
X783935Y159432D02*
X797559D01*
X123952Y198114D02*
Y217468D01*
Y198114D02*
X129914Y192152D01*
X123952Y217468D02*
X127292Y220808D01*
X545694Y387706D02*
X548592Y390604D01*
X578600Y398768D02*
X598250Y418418D01*
X572758Y398768D02*
X578600D01*
X569570Y395580D02*
X572758Y398768D01*
X569570Y375768D02*
Y395580D01*
X598250Y418418D02*
X612396D01*
X624332Y313182D02*
X627058D01*
X633646Y319770D01*
X595870Y346996D02*
Y357204D01*
Y346996D02*
X611802Y331064D01*
X403244Y136298D02*
X547852D01*
X386580Y119634D02*
X403244Y136298D01*
X549148Y360934D02*
Y366052D01*
X557700Y374604D01*
X331029Y136498D02*
X340789Y146258D01*
X318042Y136498D02*
X331029D01*
X296098Y114554D02*
X318042Y136498D01*
X340789Y146258D02*
X386402D01*
X404954Y148258D02*
X421144D01*
X547852Y136298D02*
X549704Y134446D01*
X233854Y114554D02*
X296098D01*
X234442Y103632D02*
X296432D01*
X304513Y158496D02*
X320294D01*
X304359Y158650D02*
X304513Y158496D01*
X298129Y158650D02*
X304359D01*
X297975Y158496D02*
X298129Y158650D01*
X291338Y158496D02*
X297975D01*
X280288Y151130D02*
X301244D01*
X279780Y150622D02*
X280288Y151130D01*
X251714Y154686D02*
X259716D01*
X263780Y150622D01*
X146038Y128786D02*
X165080Y147828D01*
X136802Y123598D02*
X143906Y116494D01*
X699262Y148082D02*
Y152561D01*
X704676Y157975D01*
Y158958D01*
X583625Y139007D02*
X583884Y138748D01*
X625840Y192888D02*
X636168D01*
X642366Y186690D01*
X642944Y146660D02*
X649886Y153602D01*
X645922Y193769D02*
Y249886D01*
Y193769D02*
X649886Y189805D01*
Y153602D02*
Y189805D01*
X756143Y428526D02*
X767094Y417576D01*
X737630Y428526D02*
X756143D01*
X645414Y427430D02*
Y437134D01*
X638242Y450088D02*
X649224D01*
X631568Y443414D02*
X638242Y450088D01*
X623130Y427414D02*
X631568D01*
X619426Y431118D02*
X623130Y427414D01*
X612396Y431118D02*
X619426D01*
X628127Y226030D02*
X634408D01*
X625009Y222912D02*
X628127Y226030D01*
X590092Y225960D02*
X593140Y222912D01*
X625009D01*
X621894Y213462D02*
Y215392D01*
X617219Y208787D02*
X621894Y213462D01*
X609896Y208787D02*
X617219D01*
X498094Y328422D02*
Y333960D01*
X504038Y342392D02*
Y348802D01*
X634598Y396960D02*
Y411750D01*
X631568Y414780D02*
X634598Y411750D01*
X554986Y455422D02*
X571642Y472078D01*
X508254Y455422D02*
X554986D01*
X485140Y432308D02*
X508254Y455422D01*
X335534Y452882D02*
X347806Y465154D01*
X335534Y447802D02*
Y452882D01*
X370678Y449580D02*
X375966Y454868D01*
X356362Y449580D02*
X370678D01*
X344238Y425912D02*
X346594Y423556D01*
X343662Y420624D02*
X350894Y413392D01*
Y397764D02*
Y413392D01*
X389636Y442168D02*
X404122D01*
X382570Y435102D02*
X389636Y442168D01*
X363012Y435102D02*
X382570D01*
X358164Y430254D02*
X363012Y435102D01*
X358164Y382306D02*
Y430254D01*
X551525Y462842D02*
X572008Y483325D01*
X510981Y462842D02*
X551525D01*
X508669Y465154D02*
X510981Y462842D01*
X347806Y465154D02*
X508669D01*
X572008Y483325D02*
Y490220D01*
X504038Y348802D02*
X511976Y356740D01*
X86868Y116332D02*
X98331D01*
X104715Y116178D02*
X112135Y123598D01*
X136802D01*
X98331Y116332D02*
X98485Y116178D01*
X104715D01*
X61024Y142176D02*
X86868Y116332D01*
X87504Y136778D02*
Y150876D01*
X165080Y147828D02*
X231394D01*
X61024Y142176D02*
Y145542D01*
X407496Y454868D02*
X422622Y439742D01*
Y435818D02*
Y439742D01*
X404122Y454868D02*
X407496D01*
X567531Y139007D02*
X583625D01*
X583884Y138748D02*
X583922Y138786D01*
X716794Y428526D02*
X737630D01*
X709818Y435502D02*
X716794Y428526D01*
X599922Y148204D02*
X602340Y150622D01*
X599922Y138786D02*
Y148204D01*
X611204Y150136D02*
X614680Y146660D01*
X611204Y150136D02*
Y155622D01*
X599338Y167488D02*
X611204Y155622D01*
X614680Y146660D02*
X642944D01*
X578840Y167488D02*
X599338D01*
X578840Y180188D02*
X604194D01*
X616894Y167488D02*
X625840D01*
X604194Y180188D02*
X616894Y167488D01*
X635356Y154788D02*
X640944Y160376D01*
X212662Y216644D02*
X232265D01*
X329184Y167386D02*
Y201692D01*
X320294Y158496D02*
X329184Y167386D01*
X305504Y204470D02*
X308356D01*
X315242Y211356D01*
Y219710D01*
X290004D02*
X303530D01*
X258504Y213292D02*
X261366Y216154D01*
X264922Y219710D01*
X258504Y204470D02*
Y213292D01*
X264922Y219710D02*
X274004D01*
X313944Y166370D02*
X321056Y173482D01*
X270764Y179070D02*
X291338Y158496D01*
X258504Y179070D02*
X270764D01*
X286004D02*
X305504D01*
X273304Y191770D02*
X286004Y179070D01*
X305504Y166370D02*
X313944D01*
X295402Y191770D02*
X305504D01*
X290004Y197168D02*
X295402Y191770D01*
X11176Y353822D02*
X11176Y353822D01*
Y373500D01*
X20516Y343916D02*
Y361210D01*
X26544Y367238D01*
X19282Y388500D02*
X26544Y381238D01*
X11176Y388500D02*
X19282D01*
X497180Y354686D02*
Y362172D01*
X505544Y377172D02*
X511976Y370740D01*
X497180Y377172D02*
X505544D01*
X334264Y349758D02*
X338074Y345948D01*
X334264Y349758D02*
Y374262D01*
X342076Y389262D02*
X349248Y382090D01*
X334264Y389262D02*
X342076D01*
X173990Y346456D02*
Y373500D01*
X183030Y388500D02*
X189484Y382046D01*
X173990Y388500D02*
X183030D01*
X532702Y374766D02*
Y386690D01*
X528676Y370740D02*
X532702Y374766D01*
X528676Y370740D02*
X528676Y370740D01*
X537376D01*
X525374Y380086D02*
Y423198D01*
X520676Y375388D02*
X525374Y380086D01*
X520676Y370740D02*
Y375388D01*
X475188Y165308D02*
X480822Y170942D01*
X511976Y370740D02*
X520676D01*
X583920Y154788D02*
X599922Y138786D01*
X578840Y154788D02*
X583920D01*
X535602Y331064D02*
X546730D01*
X572870Y357204D01*
X528422Y318618D02*
X558952D01*
X584810Y344476D01*
X625840Y154788D02*
X635356D01*
X614020Y395580D02*
Y404094D01*
X612396Y405718D02*
X614020Y404094D01*
X569570Y375768D02*
X572664Y372674D01*
X578252D01*
X584810Y366116D01*
Y344476D02*
Y366116D01*
X513758Y264398D02*
X526068D01*
X514266Y246592D02*
X517348D01*
X536508Y227432D01*
X554508Y227000D02*
X567284Y214224D01*
X554508Y227000D02*
Y227432D01*
X532522Y204318D02*
X550284D01*
X578714Y204064D02*
X578840Y203938D01*
Y192888D02*
Y203938D01*
X615036Y180188D02*
X625840D01*
X609896Y185328D02*
X615036Y180188D01*
X609896Y185328D02*
Y208787D01*
X590092Y225960D02*
Y231750D01*
X602202Y245264D02*
X611802Y254864D01*
X602202Y231728D02*
Y245264D01*
X616202Y231728D02*
X628504Y244030D01*
X634408D01*
X590092Y258554D02*
X611802Y280264D01*
X590092Y231750D02*
Y258554D01*
X575092Y231750D02*
Y266174D01*
X535602Y305664D02*
X575092Y266174D01*
X391228Y374418D02*
Y385908D01*
X634598Y358808D02*
Y378960D01*
X627354Y386204D02*
X634598Y378960D01*
X584370Y386204D02*
X627354D01*
X511870Y414608D02*
X517702Y408776D01*
Y386690D02*
Y408776D01*
X525374Y423198D02*
X533294Y431118D01*
X565396D01*
X558372Y418418D02*
X565396D01*
X551028Y411074D02*
X558372Y418418D01*
X551028Y405016D02*
Y411074D01*
X532702Y386690D02*
X551028Y405016D01*
X548592Y390604D02*
X557700D01*
Y398022D01*
X565396Y405718D01*
X631568Y414780D02*
Y427414D01*
X631164Y443818D02*
X631568Y443414D01*
X612396Y443818D02*
X631164D01*
X565396D02*
X583816D01*
X524570Y443564D02*
X542986D01*
X486156Y182626D02*
Y262536D01*
X481330Y157480D02*
X490220Y166370D01*
X449580Y157480D02*
X481330D01*
X464512Y165308D02*
X475188D01*
X429052Y178008D02*
X449580Y157480D01*
X417512Y178008D02*
X429052D01*
X437144Y148258D02*
X452550D01*
X420094Y165308D02*
X437144Y148258D01*
X417512Y165308D02*
X420094D01*
X417512Y190708D02*
X434662D01*
X447362Y178008D01*
X464512D01*
X477774Y216670D02*
Y219710D01*
X464512Y203408D02*
X477774Y216670D01*
X455678Y190708D02*
X464512D01*
X450536Y195850D02*
X455678Y190708D01*
X450536Y195850D02*
Y219156D01*
X464358D01*
X427684Y239320D02*
X435102Y231902D01*
X427684Y239320D02*
Y242680D01*
X439600Y253956D02*
X451536Y265892D01*
X439600Y242524D02*
Y253956D01*
X417512Y213296D02*
X418338Y214122D01*
X417512Y203408D02*
Y213296D01*
X418338Y214122D02*
X423372Y219156D01*
X434536D01*
X407294Y225552D02*
X410718D01*
X394640Y238206D02*
X407294Y225552D01*
X372432Y215092D02*
X391368D01*
X434040Y429468D02*
X451122D01*
X414528Y409956D02*
X434040Y429468D01*
X407162Y409956D02*
X414528D01*
X404114Y406908D02*
X407162Y409956D01*
X404114Y385826D02*
Y406908D01*
Y385826D02*
X406400Y383540D01*
X412430D01*
X418338Y377632D01*
X362966Y324104D02*
X367792Y328930D01*
X362966Y303662D02*
Y324104D01*
Y303662D02*
X375336Y291292D01*
Y316692D02*
X412684Y279344D01*
Y242680D02*
Y279344D01*
X427684Y242680D02*
Y267440D01*
X451536Y291292D01*
Y316692D02*
X462280Y327436D01*
Y335534D01*
X472872Y368276D02*
X473778Y369182D01*
Y389988D01*
X454872Y368276D02*
Y383498D01*
X429144Y364484D02*
X451536Y342092D01*
X429144Y364484D02*
Y368486D01*
X379750Y342092D02*
X406144Y368486D01*
X375336Y342092D02*
X379750D01*
X470548Y454740D02*
X484298D01*
X470420Y454868D02*
X470548Y454740D01*
X451122Y454868D02*
X470420D01*
X466280Y397486D02*
X473778Y389988D01*
X417644Y397486D02*
X466280D01*
X451122Y406164D02*
Y416768D01*
X470548Y425082D02*
X473778Y421852D01*
Y407988D02*
Y421852D01*
X470548Y425082D02*
Y438740D01*
X467120Y442168D02*
X470548Y438740D01*
X451122Y442168D02*
X467120D01*
X378206Y395986D02*
X384128Y401908D01*
X391228D01*
Y403874D01*
X404122Y416768D01*
X397598Y429468D02*
X404122D01*
X365894Y397764D02*
X397598Y429468D01*
X374782Y382224D02*
X374782Y382224D01*
X366082Y382224D02*
X374782D01*
X365894Y382412D02*
X366082Y382224D01*
X365894Y382412D02*
Y397764D01*
X358082Y382224D02*
X358164Y382306D01*
X349382Y382224D02*
X358082D01*
X349248Y382090D02*
X349382Y382224D01*
X312594Y389382D02*
X313754Y390542D01*
X312594Y368786D02*
Y389382D01*
Y368786D02*
X313754Y367626D01*
Y344203D02*
Y367626D01*
X291910Y316992D02*
X303254Y328336D01*
X193358Y275726D02*
X206176D01*
X215710Y266192D01*
X258504Y191770D02*
X273304D01*
X290004Y197168D02*
Y219710D01*
X265374Y236784D02*
X269748Y232410D01*
X265374Y236784D02*
Y243586D01*
X276782Y251064D02*
X291910Y266192D01*
X276782Y243586D02*
Y251064D01*
X265374Y265056D02*
X291910Y291592D01*
X265374Y243586D02*
Y265056D01*
X250374Y243586D02*
Y282328D01*
X215710Y316992D02*
X250374Y282328D01*
X203200Y304102D02*
X215710Y291592D01*
X203200Y304102D02*
Y324866D01*
X208026Y329692D01*
X254762Y383032D02*
X259842Y377952D01*
X249174Y383032D02*
X254762D01*
X244348Y387858D02*
X249174Y383032D01*
X244348Y387858D02*
Y404690D01*
X249194Y409536D01*
X253584D01*
X273054Y429006D01*
X291280D01*
Y407982D02*
Y416306D01*
X225306Y399042D02*
X232283D01*
Y404310D01*
X244280Y416306D01*
X214884Y382046D02*
X214884Y382046D01*
X206184Y382046D02*
X214884D01*
X206128Y382102D02*
X206184Y382046D01*
X206128Y382102D02*
Y399042D01*
X210510D01*
X228092Y416624D01*
Y420116D01*
X236982Y429006D01*
X244280D01*
X189484Y382046D02*
X198184D01*
X198628Y382490D01*
Y407670D01*
X202692Y411734D01*
Y434340D01*
X210058Y441706D01*
X244280D01*
X191072Y425450D02*
X191128Y425394D01*
Y399042D02*
Y425394D01*
X203772Y454406D02*
X223371D01*
X244280D02*
X262890D01*
X323216Y454278D02*
X324866Y452628D01*
X311214Y454278D02*
X323216D01*
X291280Y454406D02*
X291408Y454278D01*
X311214D01*
X307786Y441706D02*
X311214Y438278D01*
X291280Y441706D02*
X307786D01*
X311214Y423862D02*
X311404Y423672D01*
X311214Y423862D02*
Y438278D01*
X311404Y423672D02*
X313754Y421322D01*
Y408542D02*
Y421322D01*
X306764Y397532D02*
X313754Y390542D01*
X259656Y397532D02*
X306764D01*
X294594Y368786D02*
Y384002D01*
X291592Y342392D02*
X291910D01*
X271156Y362828D02*
X291592Y342392D01*
X271156Y362828D02*
Y368532D01*
X215710Y342392D02*
X222016D01*
X248156Y368532D01*
X141398Y305418D02*
X149860D01*
X127572Y291592D02*
X141398Y305418D01*
X103504Y150876D02*
X116840D01*
X103504D02*
Y155156D01*
X91748Y166912D02*
X103504Y155156D01*
X47308Y215138D02*
X67264D01*
X91748Y213990D02*
X97854Y220096D01*
X91748Y205012D02*
Y213990D01*
X146592Y166912D02*
X153416Y173736D01*
X138856Y220808D02*
X140462Y219202D01*
X127292Y220808D02*
X138856D01*
X20516Y426212D02*
X34156Y412572D01*
Y398272D02*
Y412572D01*
X51944Y381238D02*
X51944Y381238D01*
X49156Y384026D02*
X51944Y381238D01*
X49156Y384026D02*
Y398272D01*
Y402216D01*
X62040Y415100D01*
Y423372D01*
X60960Y402082D02*
X72788D01*
X73216Y401654D01*
X126942Y455710D02*
X145988D01*
X147384Y411290D02*
Y427482D01*
Y411290D02*
X149416Y409258D01*
X147384Y427482D02*
Y441106D01*
X245162Y227706D02*
X251206D01*
X233854Y239014D02*
X245162Y227706D01*
X264032Y166370D02*
X279780Y150622D01*
X258504Y166370D02*
X264032D01*
X97854Y220096D02*
X98566Y220808D01*
X111292D01*
X145480Y443010D02*
X147384Y441106D01*
X105608Y237818D02*
X111832Y231594D01*
X91804Y179452D02*
X104006D01*
X70278Y238252D02*
X75202D01*
X26544Y381238D02*
X35244D01*
X28766Y257666D02*
X32864D01*
X147749Y389591D02*
X149416Y391258D01*
X127572Y316992D02*
Y324820D01*
X112911Y357053D02*
Y368739D01*
X105608Y237818D02*
Y242778D01*
Y269628D01*
X118794Y242524D02*
Y257414D01*
X111702Y192152D02*
X124402Y179452D01*
X90608Y242778D02*
Y277756D01*
X73216Y401654D02*
Y410884D01*
X147749Y368739D02*
Y389591D01*
X126942Y443010D02*
X145480D01*
X142935Y397739D02*
X149416Y391258D01*
X101411Y397739D02*
X142935D01*
X126104Y157354D02*
X151250D01*
X68978Y430310D02*
X79942D01*
X73216Y410884D02*
X79942Y417610D01*
X43244Y381238D02*
X51944D01*
X51372Y342392D02*
X63564D01*
X28766Y276234D02*
X41330D01*
X112911Y357053D02*
X127572Y342392D01*
X118794Y257414D02*
X127572Y266192D01*
X105608Y269628D02*
X127572Y291592D01*
X104006Y179452D02*
X126104Y157354D01*
X62040Y423372D02*
X68978Y430310D01*
X41330Y276234D02*
X51372Y266192D01*
X75202Y238252D02*
X87440Y226014D01*
X63564Y342392D02*
X89911Y368739D01*
X91804Y192152D02*
X111702D01*
X51372Y316992D02*
X90608Y277756D01*
D89*
X85972Y192152D02*
X91804D01*
X13310Y309278D02*
X38550Y334518D01*
X13310Y221726D02*
Y309278D01*
Y221726D02*
X31360Y203676D01*
X9040Y312628D02*
X34020Y337608D01*
X9040Y217978D02*
Y312628D01*
Y217978D02*
X29660Y197358D01*
X4770Y315470D02*
X28448Y339148D01*
X4770Y185540D02*
Y315470D01*
Y185540D02*
X32068Y158242D01*
X178974Y315118D02*
X203772Y339916D01*
X178974Y224886D02*
Y315118D01*
Y224886D02*
X198882Y204978D01*
X174704Y319230D02*
X196342Y340868D01*
X174704Y221028D02*
Y319230D01*
Y221028D02*
X196792Y198940D01*
X341026Y312324D02*
X362754Y334052D01*
X341026Y218790D02*
Y312324D01*
Y218790D02*
X356108Y203708D01*
X336756Y316944D02*
X357886Y338074D01*
X336756Y215948D02*
Y316944D01*
Y215948D02*
X354076Y198628D01*
X508708Y326082D02*
X511658Y329032D01*
X508708Y310080D02*
Y326082D01*
X491490Y292862D02*
X508708Y310080D01*
X491490Y197816D02*
Y292862D01*
X512978Y321970D02*
X517500Y326492D01*
X495760Y210056D02*
Y291036D01*
X512978Y308254D02*
Y321970D01*
X495760Y291036D02*
X512978Y308254D01*
X517248Y316842D02*
X523088Y322682D01*
X517248Y306258D02*
Y316842D01*
X500030Y289040D02*
X517248Y306258D01*
X500030Y213374D02*
Y289040D01*
X742188Y233426D02*
X752188Y243426D01*
X742188Y196828D02*
Y233426D01*
X747188Y209566D02*
X752188Y214566D01*
X747188Y196828D02*
Y209566D01*
X752188Y243426D02*
Y254406D01*
X747187Y111587D02*
X751829D01*
X742188Y116586D02*
Y131298D01*
Y116586D02*
X747187Y111587D01*
X741934Y116840D02*
X742188Y116586D01*
X749116Y124300D02*
X751829Y121587D01*
X749116Y124300D02*
Y144710D01*
X704850Y168656D02*
X711962D01*
X716360Y173054D01*
X716450Y160732D02*
Y166968D01*
X714676Y158958D02*
X716450Y160732D01*
Y166968D02*
X717536Y168054D01*
X732526Y111412D02*
X736506D01*
X741934Y116840D01*
X709676Y122345D02*
X709847D01*
X717552Y130050D01*
X772160Y126238D02*
X774192D01*
X768350Y130048D02*
X772160Y126238D01*
X183388Y357486D02*
Y360426D01*
X189484Y366522D01*
X31360Y203676D02*
X74448D01*
X615048Y354720D02*
X615532Y355204D01*
X363982Y104394D02*
Y112776D01*
Y104394D02*
X364744Y103632D01*
X426510D01*
X435102Y112224D01*
X773774Y186436D02*
Y191172D01*
X768604Y196342D02*
X773774Y191172D01*
X760962Y188054D02*
Y205792D01*
X763450Y130048D02*
X768350D01*
X763450D02*
X764530Y131128D01*
Y138748D01*
X702782Y132489D02*
X709819Y139526D01*
X710438D01*
X717552Y130050D02*
X720094D01*
X720030Y130114D02*
X720094Y130050D01*
X720030Y130114D02*
Y140020D01*
X710438Y149526D02*
X714676Y153764D01*
Y158958D01*
X717536Y168054D02*
X723414D01*
X729174Y148258D02*
X732188Y151271D01*
Y159280D01*
X747188Y146638D02*
X749116Y144710D01*
X747188Y146638D02*
Y159280D01*
X735908Y124794D02*
Y144935D01*
X737188Y146215D01*
Y159280D01*
X720030Y148020D02*
X720268Y148258D01*
X729174D01*
Y131130D02*
Y138258D01*
X728094Y130050D02*
X729174Y131130D01*
X751829Y121587D02*
X751885Y121531D01*
X761989D01*
X722366Y121332D02*
X722446Y121412D01*
X732526D01*
X742188Y141298D02*
Y159280D01*
X752718Y150924D02*
Y158750D01*
X752188Y159280D02*
X752718Y158750D01*
Y150924D02*
X755386Y148256D01*
X732526Y121412D02*
X735908Y124794D01*
X755386Y130112D02*
X755450Y130048D01*
X755386Y130112D02*
Y138256D01*
X763022Y148256D02*
X764530Y146748D01*
X755386Y148256D02*
X763022D01*
X773775Y149432D02*
X783935D01*
X770964D02*
X773775D01*
X766318Y154077D02*
X770964Y149432D01*
X766318Y154077D02*
Y166370D01*
X764634Y168054D02*
X766318Y166370D01*
X760962Y168054D02*
X764634D01*
X773774Y159432D02*
X773775Y159432D01*
X773774Y159432D02*
Y169418D01*
X760962Y178054D02*
X785622D01*
X770138Y173054D02*
X773774Y169418D01*
X760962Y173054D02*
X770138D01*
X770392Y183054D02*
X773774Y186436D01*
X760962Y183054D02*
X770392D01*
X704676Y215900D02*
X715852Y204724D01*
X729996D01*
X732188Y202532D01*
Y196828D02*
Y202532D01*
X701548Y216662D02*
X703493Y214717D01*
X205232Y160528D02*
Y163322D01*
X170434Y198120D02*
Y323596D01*
Y198120D02*
X205232Y163322D01*
X681736Y193348D02*
X687030Y188054D01*
X723414D01*
X693844Y175430D02*
X712381D01*
X715005Y178054D01*
X683890Y179700D02*
X710612D01*
X713966Y183054D01*
X673862Y169672D02*
X683890Y179700D01*
X687832Y169418D02*
X693844Y175430D01*
X687832Y162052D02*
Y169418D01*
X673862Y150622D02*
X687832Y136652D01*
X673862Y150622D02*
Y169672D01*
X511658Y341428D02*
X520676Y350446D01*
X511658Y329032D02*
Y341428D01*
X769380Y453418D02*
Y456920D01*
X517500Y326492D02*
Y339700D01*
X523088Y322682D02*
Y338938D01*
X198882Y204978D02*
X229616D01*
X214110Y198940D02*
X225362Y187688D01*
X196792Y198940D02*
X214110D01*
X229616Y204978D02*
X242824Y191770D01*
X342900Y361742D02*
X349382Y368224D01*
X342900Y357053D02*
Y361742D01*
X28448Y357436D02*
X35244Y364232D01*
X28448Y339148D02*
Y357436D01*
X34020Y352726D02*
X43244Y361950D01*
X34020Y337608D02*
Y352726D01*
X38550Y350520D02*
X51944Y363914D01*
X38550Y334518D02*
Y350520D01*
X43244Y361950D02*
Y367238D01*
X51944Y363914D02*
Y367238D01*
X504292Y163602D02*
X520748Y147146D01*
X504292Y163602D02*
Y185014D01*
X491490Y197816D02*
X504292Y185014D01*
X520676Y350446D02*
Y356740D01*
X517500Y339700D02*
X528676Y350876D01*
Y356740D01*
X532994Y342240D02*
X537376Y346622D01*
Y356740D01*
X495760Y210056D02*
X517500Y188316D01*
X532268D01*
X545222Y175362D01*
X569062Y180188D02*
X578840D01*
X556108Y193142D02*
X569062Y180188D01*
X520262Y193142D02*
X556108D01*
X500030Y213374D02*
X520262Y193142D01*
X523088Y338938D02*
X526390Y342240D01*
X532994D01*
X721584Y217170D02*
X729171D01*
X737188Y209153D01*
Y196828D02*
Y209153D01*
X752188Y214566D02*
X760962Y205792D01*
X752188Y196828D02*
Y214566D01*
X716360Y173054D02*
X723414D01*
X715005Y178054D02*
X723414D01*
X713966Y183054D02*
X723414D01*
X342646Y173758D02*
X357446Y158958D01*
X342646Y173758D02*
Y196850D01*
X332486Y207010D02*
X342646Y196850D01*
X332486Y207010D02*
Y321056D01*
X351790Y340360D01*
Y356362D01*
X358082Y362654D01*
Y368224D01*
X366082Y363212D02*
Y368224D01*
X357886Y355016D02*
X366082Y363212D01*
X357886Y338074D02*
Y355016D01*
X354076Y198628D02*
X372640D01*
X385132Y186136D01*
X403466Y190708D02*
X417512D01*
X390466Y203708D02*
X403466Y190708D01*
X356108Y203708D02*
X390466D01*
X362754Y334052D02*
Y351832D01*
X374782Y363860D01*
Y368224D01*
X189484Y366522D02*
Y368046D01*
X170434Y323596D02*
X189738Y342900D01*
Y351028D01*
X198184Y359474D01*
Y368046D01*
X196342Y340868D02*
Y350520D01*
X206184Y360362D01*
Y368046D01*
X214884Y361950D02*
Y368046D01*
X203772Y350838D02*
X214884Y361950D01*
X203772Y339916D02*
Y350838D01*
X242824Y191770D02*
X258504D01*
X42164Y409532D02*
X46398Y413766D01*
X42164Y392488D02*
Y409532D01*
X53155Y413766D02*
X56076Y416687D01*
X46398Y413766D02*
X53155D01*
X35244Y385568D02*
X42164Y392488D01*
X74448Y203676D02*
X85972Y192152D01*
X85411Y388749D02*
Y404959D01*
X90366Y383794D02*
X95856D01*
X69826Y443010D02*
X79942D01*
X48832Y197358D02*
X60008Y186182D01*
X35244Y381238D02*
Y385568D01*
X85411Y388749D02*
X90366Y383794D01*
X56076Y416687D02*
Y429260D01*
X35244Y364232D02*
Y367238D01*
X37026Y305938D02*
Y322326D01*
X110762Y430310D02*
X126942D01*
X95856Y383794D02*
X101411Y378239D01*
X44138Y329438D02*
X72332D01*
X29660Y197358D02*
X48832D01*
X56076Y429260D02*
X69826Y443010D01*
X37026Y322326D02*
X44138Y329438D01*
X101411Y358517D02*
Y378239D01*
X37026Y305938D02*
X51372Y291592D01*
X85411Y404959D02*
X110762Y430310D01*
X72332Y329438D02*
X101411Y358517D01*
D90*
X692718Y507935D02*
Y520577D01*
Y507935D02*
X694750Y505903D01*
X692718Y520577D02*
X693095Y520954D01*
X699008Y511668D02*
X713232Y497444D01*
X694750Y463236D02*
X713486Y444500D01*
X734060D01*
X713232Y495300D02*
Y497444D01*
X694750Y463236D02*
Y505903D01*
X682258Y528828D02*
X683880Y527206D01*
X683946D01*
X686805Y524347D01*
Y503439D02*
Y524347D01*
Y503439D02*
X688086Y502158D01*
X581580Y528828D02*
X682258D01*
X600696Y528080D02*
X604916Y523860D01*
X574237Y506476D02*
X575818D01*
X578298Y503996D01*
X678256Y472374D02*
Y503540D01*
X648019Y443424D02*
X655071Y436372D01*
X639124Y437878D02*
Y439739D01*
X637618Y436372D02*
X639124Y437878D01*
X623560Y436372D02*
X637618D01*
X655071D02*
X687578D01*
X642809Y443424D02*
X648019D01*
X639124Y439739D02*
X642809Y443424D01*
X619446Y456378D02*
X670508D01*
X612426Y449358D02*
X619446Y456378D01*
X670508D02*
X671210Y455676D01*
X678256Y472374D02*
X689864Y460766D01*
Y438658D02*
Y460766D01*
X687578Y436372D02*
X689864Y438658D01*
X622036Y437896D02*
X623560Y436372D01*
X599694Y437896D02*
X622036D01*
X574802Y462788D02*
X599694Y437896D01*
X574802Y462788D02*
Y466343D01*
X578298Y469839D01*
Y503996D01*
X582676Y464644D02*
Y466634D01*
X589534Y473492D01*
X582676Y463358D02*
Y464644D01*
Y463358D02*
X596708Y449326D01*
X603569D01*
X603601Y449358D01*
X612426D01*
X618994Y469900D02*
Y490478D01*
X682894Y442722D02*
Y457566D01*
X675464Y464996D02*
X682894Y457566D01*
X644476Y464996D02*
X675464D01*
X618994Y490478D02*
X644476Y464996D01*
X618994Y490478D02*
Y505206D01*
X678256Y503540D02*
X679196Y504480D01*
X605932Y456838D02*
X618994Y469900D01*
X589534Y473492D02*
Y504190D01*
X557672Y503320D02*
Y504920D01*
X581580Y528828D01*
X604916Y517471D02*
Y523860D01*
D91*
X659136Y329305D02*
D03*
Y312805D02*
D03*
X748703Y330867D02*
D03*
Y314367D02*
D03*
D92*
X687832Y162052D02*
D03*
D93*
Y136652D02*
D03*
Y111252D02*
D03*
D94*
X714262Y402590D02*
D03*
X451536Y265892D02*
D03*
Y291292D02*
D03*
Y316692D02*
D03*
Y342092D02*
D03*
X375336Y265892D02*
D03*
Y291292D02*
D03*
Y316692D02*
D03*
X127572Y266192D02*
D03*
Y291592D02*
D03*
Y316992D02*
D03*
Y342392D02*
D03*
X51372Y266192D02*
D03*
Y291592D02*
D03*
Y316992D02*
D03*
X291910Y266192D02*
D03*
Y291592D02*
D03*
Y316992D02*
D03*
Y342392D02*
D03*
X215710Y266192D02*
D03*
Y291592D02*
D03*
Y316992D02*
D03*
X795782Y316484D02*
D03*
X611802Y254864D02*
D03*
Y280264D02*
D03*
Y305664D02*
D03*
Y331064D02*
D03*
X535602Y254864D02*
D03*
Y280264D02*
D03*
Y305664D02*
D03*
X624586Y25354D02*
D03*
Y50754D02*
D03*
X599186Y25354D02*
D03*
Y50754D02*
D03*
X573786Y25354D02*
D03*
Y50754D02*
D03*
X548386Y25354D02*
D03*
Y50754D02*
D03*
X522986Y25354D02*
D03*
Y50754D02*
D03*
X497586Y25354D02*
D03*
Y50754D02*
D03*
X472186Y25354D02*
D03*
Y50754D02*
D03*
X446786Y25354D02*
D03*
Y50754D02*
D03*
X421386Y25354D02*
D03*
Y50754D02*
D03*
X395986Y25354D02*
D03*
X534416Y508462D02*
D03*
X509016Y483062D02*
D03*
Y508462D02*
D03*
X483616Y483062D02*
D03*
Y508462D02*
D03*
X458216Y483062D02*
D03*
Y508462D02*
D03*
X432816Y483062D02*
D03*
Y508462D02*
D03*
X407416Y483062D02*
D03*
Y508462D02*
D03*
X382016Y483062D02*
D03*
Y508462D02*
D03*
X356616Y483062D02*
D03*
Y508462D02*
D03*
X178054D02*
D03*
Y483062D02*
D03*
X203454Y508462D02*
D03*
Y483062D02*
D03*
X228854Y508462D02*
D03*
Y483062D02*
D03*
X254254Y508462D02*
D03*
Y483062D02*
D03*
X279654Y508462D02*
D03*
Y483062D02*
D03*
X305054Y508462D02*
D03*
X178054Y25354D02*
D03*
X203454Y50754D02*
D03*
Y25354D02*
D03*
X228854Y50754D02*
D03*
Y25354D02*
D03*
X254254Y50754D02*
D03*
Y25354D02*
D03*
X279654Y50754D02*
D03*
Y25354D02*
D03*
X305054Y50754D02*
D03*
Y25354D02*
D03*
X330454Y50754D02*
D03*
Y25354D02*
D03*
X355854Y50754D02*
D03*
Y25354D02*
D03*
D95*
X739662Y402590D02*
D03*
X770382Y316484D02*
D03*
D96*
X375336Y342092D02*
D03*
X51372Y342392D02*
D03*
X215710D02*
D03*
X535602Y331064D02*
D03*
X395986Y50754D02*
D03*
X534416Y483062D02*
D03*
X305054D02*
D03*
X178054Y50754D02*
D03*
D97*
X799606Y208186D02*
D03*
Y291686D02*
D03*
D98*
X769606Y272186D02*
D03*
Y227686D02*
D03*
D99*
X653796Y299466D02*
D03*
X513758Y293032D02*
D03*
X653565Y343584D02*
D03*
X757682Y463550D02*
D03*
X742696Y457708D02*
D03*
X699008Y511668D02*
D03*
X734060Y444500D02*
D03*
X693095Y520954D02*
D03*
X701040Y495310D02*
D03*
X756666Y498602D02*
D03*
X688086Y502158D02*
D03*
X727202Y491490D02*
D03*
X697632Y401574D02*
D03*
X703850Y45212D02*
D03*
X70104Y497586D02*
D03*
X519176Y470362D02*
D03*
X663702Y513588D02*
D03*
X219456Y396240D02*
D03*
X574237Y506476D02*
D03*
X709676Y106426D02*
D03*
Y122345D02*
D03*
X774192Y126238D02*
D03*
X231086Y369783D02*
D03*
X474297Y320040D02*
D03*
X183388Y357486D02*
D03*
X65278Y31242D02*
D03*
X698754Y361188D02*
D03*
X683006Y367030D02*
D03*
X652632Y384556D02*
D03*
X363982Y112776D02*
D03*
X435102Y112224D02*
D03*
X768604Y196342D02*
D03*
X772160Y106934D02*
D03*
X702782Y132489D02*
D03*
X797559Y159432D02*
D03*
X115570Y209042D02*
D03*
X594724Y402052D02*
D03*
X545694Y387706D02*
D03*
X624332Y313182D02*
D03*
X646176Y83058D02*
D03*
X638556Y35560D02*
D03*
X508254Y82296D02*
D03*
X480822Y144018D02*
D03*
X499872Y128270D02*
D03*
X648208Y282702D02*
D03*
X646176Y261436D02*
D03*
X645668Y272288D02*
D03*
X549148Y360934D02*
D03*
X314198Y92964D02*
D03*
X302768D02*
D03*
X345186Y108458D02*
D03*
X327914Y144018D02*
D03*
X404954Y148258D02*
D03*
X411480Y128778D02*
D03*
X326390Y109728D02*
D03*
X256286Y92456D02*
D03*
X301244Y151130D02*
D03*
X251714Y154686D02*
D03*
X234442Y103632D02*
D03*
X233854Y114554D02*
D03*
X112014Y88646D02*
D03*
X115570Y103886D02*
D03*
X496570Y71374D02*
D03*
X561594Y12192D02*
D03*
X699262Y148082D02*
D03*
X189980Y101148D02*
D03*
X189902Y124976D02*
D03*
Y113284D02*
D03*
X25908Y82042D02*
D03*
X32258Y119126D02*
D03*
X638048Y206756D02*
D03*
X642366Y186690D02*
D03*
X659638Y474980D02*
D03*
X645414Y437134D02*
D03*
X649224Y450088D02*
D03*
X582676Y464644D02*
D03*
X621894Y215392D02*
D03*
X498094Y328422D02*
D03*
X504038Y342392D02*
D03*
X634760Y489358D02*
D03*
X759460Y349250D02*
D03*
Y360680D02*
D03*
X759206Y371856D02*
D03*
X101600Y123698D02*
D03*
X236982Y125730D02*
D03*
X47984Y76294D02*
D03*
X99822Y135628D02*
D03*
X182741Y174125D02*
D03*
X146038Y128786D02*
D03*
X143906Y116494D02*
D03*
X109728Y65786D02*
D03*
X109292Y50220D02*
D03*
X422622Y435818D02*
D03*
X567531Y139007D02*
D03*
X572008Y490220D02*
D03*
X634086Y506984D02*
D03*
X769380Y453418D02*
D03*
X602340Y150622D02*
D03*
X640944Y160376D02*
D03*
X778346Y439953D02*
D03*
X769634Y479580D02*
D03*
X232265Y216644D02*
D03*
X194120Y224563D02*
D03*
X315242Y219710D02*
D03*
X303530D02*
D03*
X261366Y216154D02*
D03*
X321056Y173482D02*
D03*
X644032Y477158D02*
D03*
X631078Y466998D02*
D03*
X709818Y435502D02*
D03*
X605932Y456838D02*
D03*
X571642Y472078D02*
D03*
X604916Y517471D02*
D03*
X342900Y357053D02*
D03*
X678256Y472374D02*
D03*
X671210Y455676D02*
D03*
X682894Y442722D02*
D03*
X11176Y353822D02*
D03*
X20516Y343916D02*
D03*
X338074Y345948D02*
D03*
X173990Y346456D02*
D03*
X480822Y170942D02*
D03*
X614994Y373440D02*
D03*
X614020Y395580D02*
D03*
X567284Y214224D02*
D03*
X514452Y213235D02*
D03*
X550284Y204318D02*
D03*
X578714Y204064D02*
D03*
X391228Y374418D02*
D03*
X631568Y414780D02*
D03*
X583816Y443818D02*
D03*
X542986Y443564D02*
D03*
X375966Y454868D02*
D03*
X452550Y148258D02*
D03*
X477774Y219710D02*
D03*
X464358Y219156D02*
D03*
X418338Y214122D02*
D03*
X410718Y225552D02*
D03*
X391368Y215092D02*
D03*
X354144Y228668D02*
D03*
X353382Y305748D02*
D03*
X454872Y383498D02*
D03*
X484298Y454740D02*
D03*
X451122Y406164D02*
D03*
X470548Y425082D02*
D03*
X378206Y395986D02*
D03*
X313754Y322008D02*
D03*
X291280Y407982D02*
D03*
X223371Y454406D02*
D03*
X262890D02*
D03*
X324866Y452628D02*
D03*
X311404Y423672D02*
D03*
X294594Y384002D02*
D03*
X406654Y72136D02*
D03*
X149606Y319024D02*
D03*
X129914Y385064D02*
D03*
X565404Y77216D02*
D03*
X649096Y124080D02*
D03*
X567182Y119888D02*
D03*
X116840Y150876D02*
D03*
X67264Y215138D02*
D03*
X29020Y224726D02*
D03*
X153416Y173736D02*
D03*
X150876Y214122D02*
D03*
X140462Y219202D02*
D03*
X53086Y455168D02*
D03*
X60960Y402082D02*
D03*
X99348Y455710D02*
D03*
X126942Y407416D02*
D03*
X147384Y427482D02*
D03*
X161290Y454742D02*
D03*
X28766Y304038D02*
D03*
X193358Y304356D02*
D03*
X251206Y227706D02*
D03*
X97854Y220096D02*
D03*
X87440Y226014D02*
D03*
X68390Y374350D02*
D03*
D100*
X97916Y474218D02*
D03*
X93416Y480218D02*
D03*
Y468218D02*
D03*
X102416D02*
D03*
Y480218D02*
D03*
X704850Y168656D02*
D03*
X741934Y116840D02*
D03*
X245872Y354335D02*
D03*
X402082Y352806D02*
D03*
X618744Y267440D02*
D03*
X459002Y278474D02*
D03*
X299410Y279146D02*
D03*
X134112Y278474D02*
D03*
X777748Y206756D02*
D03*
Y214884D02*
D03*
X778002Y296418D02*
D03*
Y288290D02*
D03*
X785622Y178054D02*
D03*
X769874Y296308D02*
D03*
Y288290D02*
D03*
X769620Y206756D02*
D03*
Y214774D02*
D03*
X742141Y186309D02*
D03*
X742188Y178054D02*
D03*
X721266Y231394D02*
D03*
X732188D02*
D03*
Y240030D02*
D03*
X721266Y239920D02*
D03*
X733552Y169799D02*
D03*
Y178054D02*
D03*
Y186436D02*
D03*
X750570Y169799D02*
D03*
Y178008D02*
D03*
Y186309D02*
D03*
X742188Y169799D02*
D03*
M02*
