G04*
G04 #@! TF.GenerationSoftware,Altium Limited,Altium Designer,18.1.9 (240)*
G04*
G04 Layer_Color=128*
%FSLAX44Y44*%
%MOMM*%
G71*
G01*
G75*
%ADD19R,0.9000X0.7000*%
%ADD24R,1.1500X1.4500*%
%ADD26R,1.0000X0.9000*%
%ADD28R,0.9000X1.0000*%
%ADD29R,0.7000X0.9000*%
%ADD34R,1.4500X1.1500*%
%ADD101R,0.4010X1.4668*%
%ADD102R,1.7000X0.9500*%
%ADD103R,0.5000X0.5000*%
%ADD104R,0.6000X1.1000*%
%ADD105R,3.0500X4.1300*%
%ADD106O,1.4000X0.3500*%
%ADD107R,1.4000X0.3500*%
%ADD108R,1.0500X1.3500*%
%ADD109R,1.3500X1.0500*%
%ADD110R,0.4156X1.2080*%
%ADD111R,0.9000X0.8000*%
%ADD112R,0.8000X0.9000*%
%ADD113O,0.6000X1.9000*%
%ADD114R,1.0000X2.3000*%
%ADD115R,1.5200X3.0500*%
%ADD116O,0.2500X0.6000*%
%ADD117R,0.2500X0.6000*%
%ADD118R,0.6000X0.2500*%
%ADD119R,2.5000X2.5000*%
%ADD120R,1.9000X1.3500*%
%ADD121R,1.2700X3.1800*%
%ADD122O,0.4100X1.6000*%
%ADD123R,0.4100X1.6000*%
G04:AMPARAMS|DCode=124|XSize=1.57mm|YSize=1.89mm|CornerRadius=0.0471mm|HoleSize=0mm|Usage=FLASHONLY|Rotation=180.000|XOffset=0mm|YOffset=0mm|HoleType=Round|Shape=RoundedRectangle|*
%AMROUNDEDRECTD124*
21,1,1.5700,1.7958,0,0,180.0*
21,1,1.4758,1.8900,0,0,180.0*
1,1,0.0942,-0.7379,0.8979*
1,1,0.0942,0.7379,0.8979*
1,1,0.0942,0.7379,-0.8979*
1,1,0.0942,-0.7379,-0.8979*
%
%ADD124ROUNDEDRECTD124*%
G04:AMPARAMS|DCode=125|XSize=0.45mm|YSize=1.55mm|CornerRadius=0.0495mm|HoleSize=0mm|Usage=FLASHONLY|Rotation=90.000|XOffset=0mm|YOffset=0mm|HoleType=Round|Shape=RoundedRectangle|*
%AMROUNDEDRECTD125*
21,1,0.4500,1.4510,0,0,90.0*
21,1,0.3510,1.5500,0,0,90.0*
1,1,0.0990,0.7255,0.1755*
1,1,0.0990,0.7255,-0.1755*
1,1,0.0990,-0.7255,-0.1755*
1,1,0.0990,-0.7255,0.1755*
%
%ADD125ROUNDEDRECTD125*%
G36*
X667512Y51249D02*
X654812D01*
Y19449D01*
X667512D01*
Y51249D01*
D02*
G37*
G36*
X692912D02*
X680212D01*
Y19449D01*
X692912D01*
Y51249D01*
D02*
G37*
G36*
X667512Y89349D02*
X654812D01*
Y57549D01*
X667512D01*
Y89349D01*
D02*
G37*
G36*
X692912D02*
X680212D01*
Y57549D01*
X692912D01*
Y89349D01*
D02*
G37*
G36*
X725170Y54254D02*
X712470D01*
Y22454D01*
X725170D01*
Y54254D01*
D02*
G37*
G36*
X750570D02*
X737870D01*
Y22454D01*
X750570D01*
Y54254D01*
D02*
G37*
G36*
X725170Y92354D02*
X712470D01*
Y60554D01*
X725170D01*
Y92354D01*
D02*
G37*
G36*
X750570D02*
X737870D01*
Y60554D01*
X750570D01*
Y92354D01*
D02*
G37*
D19*
X87674Y107124D02*
D03*
Y122124D02*
D03*
X47876Y159702D02*
D03*
Y174702D02*
D03*
X660146Y440062D02*
D03*
Y425062D02*
D03*
D24*
X270018Y96774D02*
D03*
X288018D02*
D03*
D26*
X251586Y142112D02*
D03*
Y126112D02*
D03*
X144628Y88266D02*
D03*
Y104266D02*
D03*
X651510Y521440D02*
D03*
Y505440D02*
D03*
X782334Y470374D02*
D03*
Y454374D02*
D03*
X480822Y114022D02*
D03*
Y130022D02*
D03*
X481330Y74906D02*
D03*
Y90906D02*
D03*
X634238Y124080D02*
D03*
Y140080D02*
D03*
Y74042D02*
D03*
Y90042D02*
D03*
D28*
X202046Y156091D02*
D03*
X218046D02*
D03*
X755664Y479952D02*
D03*
X739664D02*
D03*
X741298Y504952D02*
D03*
X725298D02*
D03*
X635768Y520592D02*
D03*
X619768D02*
D03*
X673734Y491236D02*
D03*
X657734D02*
D03*
X635268Y453264D02*
D03*
X619268D02*
D03*
X743416Y426256D02*
D03*
X727416D02*
D03*
D29*
X60870Y161106D02*
D03*
X75870D02*
D03*
X60870Y174060D02*
D03*
X75870D02*
D03*
X124340Y510076D02*
D03*
X109340D02*
D03*
X97924Y497586D02*
D03*
X82924D02*
D03*
D34*
X307864Y115270D02*
D03*
Y133270D02*
D03*
X48514Y469790D02*
D03*
Y487790D02*
D03*
X146638Y465980D02*
D03*
Y483980D02*
D03*
D101*
X643440Y370705D02*
D03*
X649940D02*
D03*
X656440D02*
D03*
X662940D02*
D03*
Y410599D02*
D03*
X656440D02*
D03*
X649940D02*
D03*
X643440D02*
D03*
D102*
X330500Y94204D02*
D03*
Y122204D02*
D03*
X342900Y432846D02*
D03*
Y404846D02*
D03*
X542544Y402052D02*
D03*
Y430052D02*
D03*
D103*
X333476Y133350D02*
D03*
X324476D02*
D03*
D104*
X288010Y141286D02*
D03*
X269010D02*
D03*
Y117286D02*
D03*
X278510D02*
D03*
X288010D02*
D03*
D105*
X189902Y113284D02*
D03*
D106*
X161402Y83994D02*
D03*
Y90494D02*
D03*
Y96994D02*
D03*
Y103494D02*
D03*
Y109994D02*
D03*
Y116494D02*
D03*
Y122994D02*
D03*
Y129494D02*
D03*
Y135994D02*
D03*
Y142494D02*
D03*
X218402Y83994D02*
D03*
Y90494D02*
D03*
Y96994D02*
D03*
Y103494D02*
D03*
Y109994D02*
D03*
Y116494D02*
D03*
Y122994D02*
D03*
Y129494D02*
D03*
Y135994D02*
D03*
D107*
Y142494D02*
D03*
D108*
X202796Y174125D02*
D03*
X217296D02*
D03*
D109*
X129274Y89024D02*
D03*
Y103524D02*
D03*
D110*
X62430Y73730D02*
D03*
X68930D02*
D03*
X75430D02*
D03*
X81930D02*
D03*
Y50870D02*
D03*
X75430D02*
D03*
X68930D02*
D03*
X62430D02*
D03*
D111*
X96818Y64220D02*
D03*
Y50220D02*
D03*
X50292Y37958D02*
D03*
Y51958D02*
D03*
X21710Y96336D02*
D03*
Y110336D02*
D03*
X87674Y133532D02*
D03*
Y147532D02*
D03*
X628948Y355204D02*
D03*
Y369204D02*
D03*
X81026Y435722D02*
D03*
Y449722D02*
D03*
D112*
X33984Y64078D02*
D03*
X47984D02*
D03*
X658988Y353822D02*
D03*
X672988D02*
D03*
X109412Y497586D02*
D03*
X123412D02*
D03*
D113*
X35350Y142188D02*
D03*
X48050D02*
D03*
X60750D02*
D03*
X73450D02*
D03*
X35350Y95188D02*
D03*
X48050D02*
D03*
X60750D02*
D03*
X73450D02*
D03*
D114*
X498856Y361442D02*
D03*
X473456D02*
D03*
X422656D02*
D03*
X498856Y455442D02*
D03*
X422656D02*
D03*
D115*
X362438Y431800D02*
D03*
X385338D02*
D03*
D116*
X720236Y445874D02*
D03*
X616350Y467356D02*
D03*
D117*
X715236Y445874D02*
D03*
X710236D02*
D03*
X705236D02*
D03*
X700236D02*
D03*
X695236D02*
D03*
Y483874D02*
D03*
X700236D02*
D03*
X705236D02*
D03*
X710236D02*
D03*
X715236D02*
D03*
X720236D02*
D03*
X611350Y467356D02*
D03*
X606350D02*
D03*
X601350D02*
D03*
X596350D02*
D03*
X591350D02*
D03*
Y505356D02*
D03*
X596350D02*
D03*
X601350D02*
D03*
X606350D02*
D03*
X611350D02*
D03*
X616350D02*
D03*
D118*
X688736Y452374D02*
D03*
Y457374D02*
D03*
Y462374D02*
D03*
Y467374D02*
D03*
Y472374D02*
D03*
Y477374D02*
D03*
X726736D02*
D03*
Y472374D02*
D03*
Y467374D02*
D03*
Y462374D02*
D03*
Y457374D02*
D03*
Y452374D02*
D03*
X584850Y473856D02*
D03*
Y478856D02*
D03*
Y483856D02*
D03*
Y488856D02*
D03*
Y493856D02*
D03*
Y498856D02*
D03*
X622850D02*
D03*
Y493856D02*
D03*
Y488856D02*
D03*
Y483856D02*
D03*
Y478856D02*
D03*
Y473856D02*
D03*
D119*
X707536Y464924D02*
D03*
X603650Y486406D02*
D03*
D120*
X687832Y419860D02*
D03*
Y387860D02*
D03*
D121*
X686562Y35349D02*
D03*
Y73449D02*
D03*
X661162Y35349D02*
D03*
Y73449D02*
D03*
X744220Y38354D02*
D03*
Y76454D02*
D03*
X718820Y38354D02*
D03*
Y76454D02*
D03*
D122*
X422148Y130302D02*
D03*
X428498D02*
D03*
X434848D02*
D03*
X441198D02*
D03*
X447548D02*
D03*
X453898D02*
D03*
X460248D02*
D03*
X466598D02*
D03*
X422148Y76302D02*
D03*
X428498D02*
D03*
X434848D02*
D03*
X441198D02*
D03*
X447548D02*
D03*
X453898D02*
D03*
X460248D02*
D03*
X576834Y131216D02*
D03*
X583184D02*
D03*
X589534D02*
D03*
X595884D02*
D03*
X602234D02*
D03*
X608584D02*
D03*
X614934D02*
D03*
X621284D02*
D03*
X576834Y77216D02*
D03*
X583184D02*
D03*
X589534D02*
D03*
X595884D02*
D03*
X602234D02*
D03*
X608584D02*
D03*
X614934D02*
D03*
D123*
X466598Y76302D02*
D03*
X621284Y77216D02*
D03*
D124*
X97916Y474218D02*
D03*
D125*
X121166Y464468D02*
D03*
Y470968D02*
D03*
Y477468D02*
D03*
X74666Y464468D02*
D03*
Y470968D02*
D03*
Y477468D02*
D03*
Y483968D02*
D03*
X121166D02*
D03*
M02*
