M48
;Layer_Color=9474304
;FILE_FORMAT=4:4
METRIC,LZ
;TYPE=PLATED
T1F00S00C0.2000
T2F00S00C0.2500
T3F00S00C0.3000
T6F00S00C0.9000
T7F00S00C1.0200
%
T01
X00093416Y00468218
X00102416
X00097916Y00474218
X00093416Y00480218
X00102416
T02
X00134112Y00278474
X0029941Y00279146
X00459002Y00278474
X00618744Y0026744
X00721266Y0023992
Y00231394
X00732188
Y0024003
X00733552Y00186436
Y00178054
Y00169799
X00742188
Y00178054
X00742141Y00186309
X0075057
Y00178008
Y00169799
X00785622Y00178054
X00777748Y00206756
Y00214884
X0076962Y00214774
Y00206756
X00769874Y0028829
Y00296308
X00778002Y00296418
Y0028829
X0070485Y00168656
X00741934Y0011684
X00402082Y00352806
X00245872Y00354335
T03
X00065278Y00031242
X00047984Y00076294
X00025908Y00082042
X00032258Y00119126
X001016Y00123698
X00099822Y00135628
X0011684Y00150876
X0011557Y00103886
X00112014Y00088646
X00109728Y00065786
X00109292Y0005022
X0011557Y00209042
X00097854Y00220096
X0008744Y00226014
X00067264Y00215138
X0002902Y00224726
X00140462Y00219202
X00150876Y00214122
X00153416Y00173736
X00182741Y00174125
X00189902Y00124976
Y00113284
X0018998Y00101148
X00234442Y00103632
X00233854Y00114554
X00236982Y0012573
X00251714Y00154686
X00301244Y0015113
X00327914Y00144018
X0032639Y00109728
X00345186Y00108458
X00363982Y00112776
X0041148Y00128778
X00404954Y00148258
X0045255
X00480822Y00144018
Y00170942
X00477774Y0021971
X00464358Y00219156
X00418338Y00214122
X00410718Y00225552
X00391368Y00215092
X00354144Y00228668
X00315242Y0021971
X0030353
X00261366Y00216154
X00251206Y00227706
X00232265Y00216644
X0019412Y00224563
X00146038Y00128786
X00143906Y00116494
X00256286Y00092456
X00302768Y00092964
X00314198
X00321056Y00173482
X00435102Y00112224
X00406654Y00072136
X0049657Y00071374
X00508254Y00082296
X00499872Y0012827
X00514452Y00213235
X00513758Y00293032
X00550284Y00204318
X00567284Y00214224
X00578714Y00204064
X00621894Y00215392
X00638048Y00206756
X00642366Y0018669
X00640944Y00160376
X00649096Y0012408
X00646176Y00083058
X00638556Y0003556
X0070385Y00045212
X00709676Y00106426
Y00122345
X00702782Y00132489
X00699262Y00148082
X00774192Y00126238
X0077216Y00106934
X00797559Y00159432
X00768604Y00196342
X00646176Y00261436
X00645668Y00272288
X00648208Y00282702
X00653796Y00299466
X0060234Y00150622
X00567531Y00139007
X00567182Y00119888
X00565404Y00077216
X00561594Y00012192
X00549148Y00360934
X00545694Y00387706
X00542986Y00443564
X00583816Y00443818
X00582676Y00464644
X00571642Y00472078
X00572008Y0049022
X00574237Y00506476
X00604916Y00517471
X00634086Y00506984
X0063476Y00489358
X00644032Y00477158
X00659638Y0047498
X00678256Y00472374
X0067121Y00455676
X00682894Y00442722
X00709818Y00435502
X0073406Y004445
X00742696Y00457708
X00757682Y0046355
X0076938Y00453418
X00778346Y00439953
X00769634Y0047958
X00756666Y00498602
X00727202Y0049149
X0070104Y0049531
X00699008Y00511668
X00693095Y00520954
X00688086Y00502158
X00663702Y00513588
X00649224Y00450088
X00645414Y00437134
X00631568Y0041478
X0061402Y0039558
X00614994Y0037344
X00652632Y00384556
X00653565Y00343584
X00683006Y0036703
X00698754Y00361188
X00697632Y00401574
X00759206Y00371856
X0075946Y0036068
Y0034925
X00624332Y00313182
X00594724Y00402052
X00605932Y00456838
X00631078Y00466998
X00519176Y00470362
X00484298Y0045474
X00470548Y00425082
X00451122Y00406164
X00454872Y00383498
X00391228Y00374418
X00378206Y00395986
X00375966Y00454868
X00324866Y00452628
X00311404Y00423672
X0029128Y00407982
X00294594Y00384002
X003429Y00357053
X00338074Y00345948
X00313754Y00322008
X00353382Y00305748
X00474297Y0032004
X00498094Y00328422
X00504038Y00342392
X00422622Y00435818
X0026289Y00454406
X00223371
X00219456Y0039624
X00231086Y00369783
X00183388Y00357486
X0017399Y00346456
X00149606Y00319024
X00193358Y00304356
X00129914Y00385064
X00126942Y00407416
X00147384Y00427482
X0016129Y00454742
X00099348Y0045571
X00053086Y00455168
X00070104Y00497586
X0006096Y00402082
X0006839Y0037435
X00011176Y00353822
X00020516Y00343916
X00028766Y00304038
T06
X00051372Y00266192
Y00291592
X00127572
Y00266192
X0021571
Y00291592
X0029191
Y00266192
X00375336Y00265892
Y00291292
X00451536
Y00265892
X00446786Y00050754
X00472186
X00497586
Y00025354
X00472186
X00446786
X00421386
Y00050754
X00395986
Y00025354
X00355854
X00330454
X00305054
X00279654
X00254254
X00228854
X00203454
X00178054
Y00050754
X00203454
X00228854
X00254254
X00279654
X00305054
X00330454
X00355854
X00522986
X00548386
X00573786
X00599186
X00624586
Y00025354
X00599186
X00573786
X00548386
X00522986
X00535602Y00254864
Y00280264
X00611802
Y00254864
Y00305664
Y00331064
X00535602
Y00305664
X00534416Y00483062
Y00508462
X00509016
Y00483062
X00483616
Y00508462
X00458216
Y00483062
X00432816
Y00508462
X00407416
Y00483062
X00382016
Y00508462
X00356616
Y00483062
X00305054
X00279654
X00254254
X00228854
X00203454
X00178054
Y00508462
X00203454
X00228854
X00254254
X00279654
X00305054
X0029191Y00342392
Y00316992
X0021571
Y00342392
X00127572
Y00316992
X00375336Y00316692
Y00342092
X00451536
Y00316692
X00051372Y00316992
Y00342392
T07
X00687832Y00111252
Y00136652
Y00162052
X00770382Y00316484
X00795782
X00739662Y0040259
X00714262
M30
